<svg width="262" height="162" viewBox="0 0 262 162" fill="none" xmlns="http://www.w3.org/2000/svg">
<g filter="url(#filter0_bd_6653_26948)">
<rect x="36" y="24" width="190" height="90" rx="16" fill="url(#paint0_linear_6653_26948)" fill-opacity="0.3" shape-rendering="crispEdges"/>
<rect x="36.5" y="24.5" width="189" height="89" rx="15.5" stroke="url(#paint1_linear_6653_26948)" shape-rendering="crispEdges"/>
</g>
<path d="M124.766 48.6378C124.728 48.3016 124.571 48.0412 124.297 47.8565C124.022 47.6695 123.677 47.576 123.26 47.576C122.962 47.576 122.704 47.6233 122.486 47.718C122.268 47.8104 122.099 47.9382 121.978 48.1016C121.86 48.2625 121.8 48.446 121.8 48.652C121.8 48.8248 121.841 48.974 121.921 49.0994C122.004 49.2249 122.112 49.3303 122.244 49.4155C122.379 49.4983 122.524 49.5682 122.678 49.625C122.831 49.6795 122.979 49.7244 123.121 49.7599L123.832 49.9446C124.064 50.0014 124.302 50.0784 124.545 50.1754C124.789 50.2725 125.015 50.4003 125.224 50.5589C125.432 50.7176 125.6 50.9141 125.728 51.1484C125.858 51.3828 125.923 51.6634 125.923 51.9901C125.923 52.402 125.817 52.7678 125.604 53.0874C125.393 53.407 125.086 53.6591 124.684 53.8438C124.284 54.0284 123.8 54.1207 123.232 54.1207C122.687 54.1207 122.216 54.0343 121.818 53.8615C121.42 53.6887 121.109 53.4437 120.884 53.1264C120.659 52.8068 120.535 52.428 120.511 51.9901H121.612C121.634 52.2528 121.719 52.4718 121.868 52.647C122.019 52.8198 122.212 52.9489 122.447 53.0341C122.683 53.117 122.943 53.1584 123.224 53.1584C123.535 53.1584 123.81 53.1098 124.052 53.0128C124.296 52.9134 124.487 52.776 124.627 52.6009C124.767 52.4233 124.837 52.2161 124.837 51.9794C124.837 51.764 124.775 51.5876 124.652 51.4503C124.531 51.313 124.367 51.1993 124.158 51.1094C123.952 51.0194 123.719 50.9401 123.459 50.8714L122.599 50.6371C122.017 50.4785 121.555 50.2453 121.214 49.9375C120.876 49.6297 120.707 49.2225 120.707 48.7159C120.707 48.2969 120.82 47.9311 121.048 47.6186C121.275 47.3061 121.583 47.0634 121.971 46.8906C122.359 46.7154 122.797 46.6278 123.285 46.6278C123.777 46.6278 124.212 46.7143 124.588 46.8871C124.967 47.0599 125.265 47.2978 125.483 47.6009C125.701 47.9015 125.814 48.2472 125.824 48.6378H124.766ZM129.847 54.1101C129.319 54.1101 128.864 53.9905 128.483 53.7514C128.104 53.5099 127.813 53.1773 127.61 52.7536C127.406 52.3298 127.304 51.8445 127.304 51.2976C127.304 50.7436 127.408 50.2547 127.617 49.831C127.825 49.4048 128.119 49.0722 128.497 48.8331C128.876 48.594 129.323 48.4744 129.836 48.4744C130.251 48.4744 130.62 48.5514 130.944 48.7053C131.269 48.8568 131.53 49.0698 131.729 49.3445C131.93 49.6191 132.05 49.9399 132.088 50.3068H131.054C130.997 50.0511 130.867 49.831 130.664 49.6463C130.462 49.4616 130.193 49.3693 129.854 49.3693C129.558 49.3693 129.299 49.4474 129.076 49.6037C128.856 49.7576 128.685 49.9777 128.561 50.2642C128.438 50.5483 128.377 50.8845 128.377 51.2727C128.377 51.6705 128.437 52.0137 128.558 52.3026C128.679 52.5914 128.849 52.8151 129.069 52.9737C129.292 53.1323 129.553 53.2116 129.854 53.2116C130.055 53.2116 130.238 53.175 130.401 53.1016C130.567 53.0258 130.705 52.9181 130.816 52.7784C130.93 52.6387 131.009 52.4706 131.054 52.2741H132.088C132.05 52.6269 131.935 52.9418 131.743 53.2188C131.551 53.4957 131.295 53.7135 130.973 53.8722C130.653 54.0308 130.278 54.1101 129.847 54.1101ZM133.623 54V48.5455H134.649V49.4119H134.706C134.806 49.1184 134.981 48.8875 135.232 48.7195C135.485 48.549 135.772 48.4638 136.091 48.4638C136.157 48.4638 136.236 48.4661 136.326 48.4709C136.418 48.4756 136.49 48.4815 136.542 48.4886V49.5043C136.5 49.4924 136.424 49.4794 136.315 49.4652C136.206 49.4486 136.097 49.4403 135.988 49.4403C135.737 49.4403 135.514 49.4936 135.317 49.6001C135.123 49.7043 134.969 49.8499 134.855 50.0369C134.742 50.2216 134.685 50.4323 134.685 50.669V54H133.623ZM137.861 54V48.5455H138.923V54H137.861ZM138.397 47.7038C138.213 47.7038 138.054 47.6423 137.921 47.5192C137.791 47.3937 137.726 47.2446 137.726 47.0717C137.726 46.8965 137.791 46.7474 137.921 46.6243C138.054 46.4988 138.213 46.4361 138.397 46.4361C138.582 46.4361 138.739 46.4988 138.87 46.6243C139.002 46.7474 139.068 46.8965 139.068 47.0717C139.068 47.2446 139.002 47.3937 138.87 47.5192C138.739 47.6423 138.582 47.7038 138.397 47.7038ZM140.751 56.0455V48.5455H141.788V49.4297H141.877C141.939 49.3161 142.027 49.1847 142.143 49.0355C142.259 48.8864 142.42 48.7562 142.626 48.6449C142.832 48.5312 143.104 48.4744 143.443 48.4744C143.883 48.4744 144.276 48.5857 144.622 48.8082C144.968 49.0308 145.239 49.3516 145.435 49.7706C145.634 50.1896 145.734 50.6939 145.734 51.2834C145.734 51.8729 145.635 52.3783 145.439 52.7997C145.242 53.2187 144.972 53.5419 144.629 53.7692C144.286 53.9941 143.894 54.1065 143.454 54.1065C143.122 54.1065 142.851 54.0509 142.64 53.9396C142.432 53.8284 142.269 53.6982 142.15 53.549C142.032 53.3999 141.941 53.2673 141.877 53.1513H141.813V56.0455H140.751ZM141.792 51.2727C141.792 51.6562 141.847 51.9924 141.959 52.2812C142.07 52.5701 142.231 52.7962 142.442 52.9595C142.652 53.1205 142.91 53.201 143.216 53.201C143.533 53.201 143.798 53.117 144.011 52.9489C144.224 52.7784 144.385 52.5476 144.494 52.2564C144.605 51.9652 144.661 51.6373 144.661 51.2727C144.661 50.9129 144.607 50.5897 144.498 50.3033C144.391 50.0168 144.23 49.7907 144.015 49.625C143.802 49.4593 143.535 49.3764 143.216 49.3764C142.908 49.3764 142.648 49.4557 142.435 49.6143C142.224 49.773 142.064 49.9943 141.955 50.2784C141.846 50.5625 141.792 50.8939 141.792 51.2727ZM149.869 48.5455V49.3977H146.89V48.5455H149.869ZM147.689 47.2386H148.751V52.3984C148.751 52.6044 148.781 52.7595 148.843 52.8636C148.905 52.9654 148.984 53.0353 149.081 53.0732C149.18 53.1087 149.288 53.1264 149.404 53.1264C149.489 53.1264 149.564 53.1205 149.628 53.1087C149.692 53.0968 149.741 53.0874 149.777 53.0803L149.969 53.9574C149.907 53.9811 149.82 54.0047 149.706 54.0284C149.592 54.0545 149.45 54.0687 149.28 54.071C149 54.0758 148.74 54.026 148.499 53.9219C148.257 53.8177 148.062 53.6567 147.913 53.4389C147.763 53.2211 147.689 52.9477 147.689 52.6186V47.2386ZM156 54L153.983 46.7273H155.137L156.554 52.3594H156.621L158.095 46.7273H159.238L160.712 52.3629H160.779L162.193 46.7273H163.35L161.33 54H160.225L158.695 48.5526H158.638L157.108 54H156ZM164.324 54V48.5455H165.35V49.4119H165.407C165.506 49.1184 165.682 48.8875 165.933 48.7195C166.186 48.549 166.472 48.4638 166.792 48.4638C166.858 48.4638 166.936 48.4661 167.026 48.4709C167.119 48.4756 167.191 48.4815 167.243 48.4886V49.5043C167.2 49.4924 167.125 49.4794 167.016 49.4652C166.907 49.4486 166.798 49.4403 166.689 49.4403C166.438 49.4403 166.214 49.4936 166.018 49.6001C165.824 49.7043 165.67 49.8499 165.556 50.0369C165.443 50.2216 165.386 50.4323 165.386 50.669V54H164.324ZM168.562 54V48.5455H169.624V54H168.562ZM169.098 47.7038C168.913 47.7038 168.755 47.6423 168.622 47.5192C168.492 47.3937 168.427 47.2446 168.427 47.0717C168.427 46.8965 168.492 46.7474 168.622 46.6243C168.755 46.4988 168.913 46.4361 169.098 46.4361C169.283 46.4361 169.44 46.4988 169.57 46.6243C169.703 46.7474 169.769 46.8965 169.769 47.0717C169.769 47.2446 169.703 47.3937 169.57 47.5192C169.44 47.6423 169.283 47.7038 169.098 47.7038ZM173.998 48.5455V49.3977H171.019V48.5455H173.998ZM171.818 47.2386H172.88V52.3984C172.88 52.6044 172.91 52.7595 172.972 52.8636C173.033 52.9654 173.113 53.0353 173.21 53.0732C173.309 53.1087 173.417 53.1264 173.533 53.1264C173.618 53.1264 173.693 53.1205 173.757 53.1087C173.821 53.0968 173.87 53.0874 173.906 53.0803L174.098 53.9574C174.036 53.9811 173.949 54.0047 173.835 54.0284C173.721 54.0545 173.579 54.0687 173.409 54.071C173.129 54.0758 172.869 54.026 172.627 53.9219C172.386 53.8177 172.191 53.6567 172.042 53.4389C171.892 53.2211 171.818 52.9477 171.818 52.6186V47.2386ZM175.573 54V48.5455H176.635V54H175.573ZM176.109 47.7038C175.924 47.7038 175.766 47.6423 175.633 47.5192C175.503 47.3937 175.438 47.2446 175.438 47.0717C175.438 46.8965 175.503 46.7474 175.633 46.6243C175.766 46.4988 175.924 46.4361 176.109 46.4361C176.294 46.4361 176.451 46.4988 176.581 46.6243C176.714 46.7474 176.78 46.8965 176.78 47.0717C176.78 47.2446 176.714 47.3937 176.581 47.5192C176.451 47.6423 176.294 47.7038 176.109 47.7038ZM179.525 50.7614V54H178.463V48.5455H179.482V49.4332H179.55C179.675 49.1444 179.872 48.9124 180.139 48.7372C180.409 48.562 180.749 48.4744 181.158 48.4744C181.53 48.4744 181.856 48.5526 182.135 48.7088C182.414 48.8627 182.631 49.0923 182.785 49.3977C182.939 49.7031 183.016 50.0807 183.016 50.5305V54H181.954V50.6584C181.954 50.263 181.851 49.9541 181.645 49.7315C181.439 49.5066 181.156 49.3942 180.796 49.3942C180.55 49.3942 180.331 49.4474 180.139 49.554C179.95 49.6605 179.799 49.8168 179.688 50.0227C179.579 50.2263 179.525 50.4725 179.525 50.7614ZM187.126 56.1591C186.693 56.1591 186.32 56.1023 186.008 55.9886C185.698 55.875 185.444 55.7247 185.248 55.5376C185.051 55.3506 184.905 55.1458 184.808 54.9233L185.72 54.5469C185.784 54.651 185.869 54.7611 185.976 54.8771C186.085 54.9955 186.232 55.0961 186.416 55.179C186.603 55.2618 186.844 55.3033 187.137 55.3033C187.54 55.3033 187.872 55.205 188.135 55.0085C188.398 54.8144 188.529 54.5043 188.529 54.0781V53.0057H188.462C188.398 53.1217 188.305 53.2507 188.185 53.3928C188.066 53.5348 187.903 53.6579 187.695 53.7621C187.486 53.8662 187.215 53.9183 186.881 53.9183C186.451 53.9183 186.062 53.8177 185.717 53.6165C185.373 53.4129 185.101 53.1134 184.9 52.718C184.701 52.3203 184.602 51.8314 184.602 51.2514C184.602 50.6714 184.7 50.1742 184.896 49.7599C185.095 49.3456 185.367 49.0284 185.713 48.8082C186.059 48.5857 186.451 48.4744 186.889 48.4744C187.227 48.4744 187.501 48.5312 187.709 48.6449C187.917 48.7562 188.079 48.8864 188.195 49.0355C188.314 49.1847 188.405 49.3161 188.469 49.4297H188.547V48.5455H189.587V54.1207C189.587 54.5895 189.479 54.9742 189.261 55.2749C189.043 55.5755 188.748 55.7981 188.376 55.9425C188.007 56.0869 187.591 56.1591 187.126 56.1591ZM187.116 53.0376C187.421 53.0376 187.679 52.9666 187.89 52.8246C188.103 52.6802 188.264 52.4742 188.373 52.2067C188.484 51.9368 188.54 51.6136 188.54 51.2372C188.54 50.8703 188.485 50.5471 188.376 50.2678C188.268 49.9884 188.108 49.7706 187.897 49.6143C187.686 49.4557 187.426 49.3764 187.116 49.3764C186.796 49.3764 186.53 49.4593 186.317 49.625C186.104 49.7884 185.943 50.0109 185.834 50.2926C185.727 50.5743 185.674 50.8892 185.674 51.2372C185.674 51.5947 185.729 51.9084 185.837 52.1783C185.946 52.4482 186.107 52.6589 186.32 52.8104C186.536 52.9619 186.801 53.0376 187.116 53.0376Z" fill="url(#paint2_linear_6653_26948)" fill-opacity="0.8"/>
<path d="M122.74 91V89.06H120.8V87.93H122.74V86H123.87V87.93H125.8V89.06H123.87V91H122.74ZM128.332 91V84.71H126.892V83.55H129.692V91H128.332ZM131.355 91L134.455 84.7H130.945V83.55H135.885V84.7L132.855 91H131.355ZM136.681 91V89.97L138.701 87.86C139.101 87.44 139.407 87.1067 139.621 86.86C139.841 86.6067 139.994 86.39 140.081 86.21C140.167 86.03 140.211 85.8467 140.211 85.66C140.211 85.3467 140.111 85.1 139.911 84.92C139.717 84.74 139.467 84.65 139.161 84.65C138.841 84.65 138.564 84.7433 138.331 84.93C138.097 85.11 137.927 85.3767 137.821 85.73L136.631 85.36C136.711 84.9667 136.874 84.6267 137.121 84.34C137.367 84.0467 137.667 83.8233 138.021 83.67C138.381 83.51 138.761 83.43 139.161 83.43C139.641 83.43 140.061 83.5167 140.421 83.69C140.787 83.8633 141.071 84.1067 141.271 84.42C141.477 84.7333 141.581 85.1 141.581 85.52C141.581 85.7867 141.531 86.05 141.431 86.31C141.331 86.57 141.181 86.8367 140.981 87.11C140.781 87.3767 140.521 87.6767 140.201 88.01L138.451 89.85H141.681V91H136.681Z" fill="#F9911F"/>
<path d="M146.295 92.7C145.735 92.0467 145.312 91.3367 145.025 90.57C144.745 89.8033 144.605 88.9867 144.605 88.12C144.605 87.2533 144.745 86.4367 145.025 85.67C145.305 84.9033 145.728 84.1967 146.295 83.55H147.395C146.915 84.2633 146.555 85.0033 146.315 85.77C146.082 86.53 145.965 87.3133 145.965 88.12C145.965 88.9267 146.085 89.7133 146.325 90.48C146.565 91.2467 146.922 91.9867 147.395 92.7H146.295ZM150.494 91V89.06H148.554V87.93H150.494V86H151.624V87.93H153.554V89.06H151.624V91H150.494ZM156.085 91V84.71H154.645V83.55H157.445V91H156.085ZM160.119 91V84.71H158.679V83.55H161.479V91H160.119ZM163.952 91L169.992 83.55H171.392L165.352 91H163.952ZM165.112 87.33C164.745 87.33 164.412 87.2433 164.112 87.07C163.819 86.89 163.585 86.6533 163.412 86.36C163.239 86.0667 163.152 85.74 163.152 85.38C163.152 85.02 163.239 84.6933 163.412 84.4C163.585 84.1 163.819 83.8633 164.112 83.69C164.412 83.5167 164.745 83.43 165.112 83.43C165.485 83.43 165.819 83.5167 166.112 83.69C166.405 83.8633 166.639 84.1 166.812 84.4C166.985 84.6933 167.072 85.02 167.072 85.38C167.072 85.74 166.985 86.0667 166.812 86.36C166.639 86.6533 166.405 86.89 166.112 87.07C165.819 87.2433 165.485 87.33 165.112 87.33ZM165.112 86.32C165.312 86.32 165.479 86.2767 165.612 86.19C165.745 86.0967 165.845 85.98 165.912 85.84C165.985 85.6933 166.022 85.54 166.022 85.38C166.022 85.2133 165.985 85.06 165.912 84.92C165.845 84.78 165.745 84.6633 165.612 84.57C165.479 84.4767 165.312 84.43 165.112 84.43C164.925 84.43 164.762 84.4767 164.622 84.57C164.489 84.6633 164.385 84.7833 164.312 84.93C164.239 85.07 164.202 85.22 164.202 85.38C164.202 85.5333 164.239 85.6833 164.312 85.83C164.385 85.9767 164.489 86.0967 164.622 86.19C164.762 86.2767 164.925 86.32 165.112 86.32ZM170.192 91.12C169.825 91.12 169.492 91.0333 169.192 90.86C168.899 90.68 168.665 90.4433 168.492 90.15C168.319 89.8567 168.232 89.53 168.232 89.17C168.232 88.81 168.319 88.4833 168.492 88.19C168.665 87.89 168.899 87.6533 169.192 87.48C169.492 87.3067 169.825 87.22 170.192 87.22C170.565 87.22 170.899 87.3067 171.192 87.48C171.485 87.6533 171.719 87.89 171.892 88.19C172.065 88.4833 172.152 88.81 172.152 89.17C172.152 89.53 172.065 89.8567 171.892 90.15C171.719 90.4433 171.485 90.68 171.192 90.86C170.899 91.0333 170.565 91.12 170.192 91.12ZM170.192 90.11C170.385 90.11 170.549 90.0667 170.682 89.98C170.822 89.8867 170.925 89.77 170.992 89.63C171.065 89.4833 171.102 89.33 171.102 89.17C171.102 89.0033 171.065 88.85 170.992 88.71C170.925 88.57 170.822 88.4533 170.682 88.36C170.549 88.2667 170.385 88.22 170.192 88.22C170.005 88.22 169.842 88.2667 169.702 88.36C169.569 88.4533 169.465 88.5733 169.392 88.72C169.319 88.86 169.282 89.01 169.282 89.17C169.282 89.3233 169.319 89.4733 169.392 89.62C169.465 89.7667 169.569 89.8867 169.702 89.98C169.842 90.0667 170.005 90.11 170.192 90.11ZM173.251 92.7C173.724 91.9867 174.078 91.2467 174.311 90.48C174.551 89.7133 174.671 88.9267 174.671 88.12C174.671 87.3133 174.551 86.53 174.311 85.77C174.078 85.0033 173.724 84.2633 173.251 83.55H174.351C174.911 84.1967 175.331 84.9033 175.611 85.67C175.891 86.4367 176.031 87.2533 176.031 88.12C176.031 88.9867 175.891 89.8033 175.611 90.57C175.331 91.3367 174.911 92.0467 174.351 92.7H173.251Z" fill="white" fill-opacity="0.8"/>
<rect x="120" y="67" width="80" height="4" rx="2" fill="#E3E7ED" fill-opacity="0.3"/>
<g filter="url(#filter1_bd_6653_26948)">
<rect x="120" y="67" width="60" height="4" rx="2" fill="url(#paint3_linear_6653_26948)" shape-rendering="crispEdges"/>
<rect x="120.5" y="67.5" width="59" height="3" rx="1.5" stroke="url(#paint4_linear_6653_26948)" shape-rendering="crispEdges"/>
</g>
<g filter="url(#filter2_bd_6653_26948)">
<g filter="url(#filter3_bd_6653_26948)">
<path d="M70 56.5C69.18 56.5 68.5 55.82 68.5 55V49C68.5 48.18 69.18 47.5 70 47.5C70.82 47.5 71.5 48.18 71.5 49V55C71.5 55.82 70.82 56.5 70 56.5Z" fill="url(#paint5_linear_6653_26948)" shape-rendering="crispEdges"/>
<path d="M70 56C69.4561 56 69 55.5439 69 55V49C69 48.4561 69.4561 48 70 48C70.5439 48 71 48.4561 71 49V55C71 55.5439 70.5439 56 70 56Z" stroke="url(#paint6_linear_6653_26948)" shape-rendering="crispEdges"/>
</g>
</g>
<g filter="url(#filter4_bd_6653_26948)">
<g filter="url(#filter5_bd_6653_26948)">
<path d="M86 56.5C85.18 56.5 84.5 55.82 84.5 55V49C84.5 48.18 85.18 47.5 86 47.5C86.82 47.5 87.5 48.18 87.5 49V55C87.5 55.82 86.82 56.5 86 56.5Z" fill="url(#paint7_linear_6653_26948)" shape-rendering="crispEdges"/>
<path d="M86 56C85.4561 56 85 55.5439 85 55V49C85 48.4561 85.4561 48 86 48C86.5439 48 87 48.4561 87 49V55C87 55.5439 86.5439 56 86 56Z" stroke="url(#paint8_linear_6653_26948)" shape-rendering="crispEdges"/>
</g>
</g>
<g filter="url(#filter6_bd_6653_26948)">
<path d="M96 62V79C96 85 93 89 86 89H70C63 89 60 85 60 79V62C60 56 63 52 70 52H86C93 52 96 56 96 62Z" fill="url(#paint9_linear_6653_26948)" shape-rendering="crispEdges"/>
<path d="M95.5 62V79C95.5 81.9234 94.7691 84.2831 93.2586 85.9098C91.7543 87.5297 89.4047 88.5 86 88.5H70C66.5953 88.5 64.2457 87.5297 62.7414 85.9098C61.2309 84.2831 60.5 81.9234 60.5 79V62C60.5 59.0766 61.2309 56.7169 62.7414 55.0902C64.2457 53.4703 66.5953 52.5 70 52.5H86C89.4047 52.5 91.7543 53.4703 93.2586 55.0902C94.7691 56.7169 95.5 59.0766 95.5 62Z" stroke="url(#paint10_linear_6653_26948)" shape-rendering="crispEdges"/>
</g>
<g filter="url(#filter7_bd_6653_26948)">
<path d="M82 68.5H70C69.18 68.5 68.5 67.82 68.5 67C68.5 66.18 69.18 65.5 70 65.5H82C82.82 65.5 83.5 66.18 83.5 67C83.5 67.82 82.82 68.5 82 68.5Z" fill="#FAAA51" fill-opacity="0.8" shape-rendering="crispEdges"/>
<path d="M82 68H70C69.4561 68 69 67.5439 69 67C69 66.4561 69.4561 66 70 66H82C82.5439 66 83 66.4561 83 67C83 67.5439 82.5439 68 82 68Z" stroke="url(#paint11_linear_6653_26948)" shape-rendering="crispEdges"/>
</g>
<g filter="url(#filter8_bd_6653_26948)">
<path d="M76 78H70C69.4561 78 69 77.5439 69 77C69 76.4561 69.4561 76 70 76H76C76.5439 76 77 76.4561 77 77C77 77.5439 76.5439 78 76 78Z" fill="#FAAA51" fill-opacity="0.8" stroke="url(#paint12_linear_6653_26948)"/>
</g>
<g filter="url(#filter9_bd_6653_26948)">
<path d="M98 72.26C96.22 70.84 93.96 70 91.5 70C89.04 70 86.74 70.8599 84.94 72.3199C82.52 74.2199 81 77.2 81 80.5C81 82.46 81.56 84.34 82.52 85.9C83.26 87.12 84.22 88.18 85.36 89C87.08 90.26 89.2 91 91.5 91C94.16 91 96.56 90.02 98.4 88.38C99.22 87.7 99.92 86.86 100.48 85.9C101.44 84.34 102 82.46 102 80.5C102 77.16 100.44 74.18 98 72.26ZM91.5 85.5C91.5 82.74 89.26 80.5 86.5 80.5C89.26 80.5 91.5 78.26 91.5 75.5C91.5 78.26 93.74 80.5 96.5 80.5C93.74 80.5 91.5 82.74 91.5 85.5Z" fill="url(#paint13_linear_6653_26948)" shape-rendering="crispEdges"/>
<path d="M97.6882 72.6509L97.6908 72.6529C100.015 74.4819 101.5 77.3192 101.5 80.5C101.5 82.3658 100.967 84.1553 100.054 85.638L100.054 85.6379L100.048 85.6481C99.5154 86.5612 98.8526 87.3551 98.0809 87.9951L98.074 88.0008L98.0673 88.0067C96.3161 89.5677 94.0335 90.5 91.5 90.5C89.3092 90.5 87.2921 89.7956 85.6555 88.5966L85.6519 88.5941C84.5698 87.8157 83.6548 86.8068 82.9475 85.6407L82.9475 85.6407L82.9458 85.638C82.0334 84.1553 81.5 82.3658 81.5 80.5C81.5 77.3553 82.9481 74.5195 85.2488 72.7132L85.2488 72.7133L85.255 72.7083C86.968 71.3188 89.1574 70.5 91.5 70.5C93.8443 70.5 95.9948 71.3 97.6882 72.6509ZM96.5 80.5V80C94.0161 80 92 77.9839 92 75.5H91.5H91C91 77.9839 88.9839 80 86.5 80V80.5V81C88.9839 81 91 83.0161 91 85.5H91.5H92C92 83.0161 94.0161 81 96.5 81V80.5Z" stroke="url(#paint14_linear_6653_26948)" shape-rendering="crispEdges"/>
</g>
<defs>
<filter id="filter0_bd_6653_26948" x="0" y="0" width="262" height="162" filterUnits="userSpaceOnUse" color-interpolation-filters="sRGB">
<feFlood flood-opacity="0" result="BackgroundImageFix"/>
<feGaussianBlur in="BackgroundImageFix" stdDeviation="7"/>
<feComposite in2="SourceAlpha" operator="in" result="effect1_backgroundBlur_6653_26948"/>
<feColorMatrix in="SourceAlpha" type="matrix" values="0 0 0 0 0 0 0 0 0 0 0 0 0 0 0 0 0 0 127 0" result="hardAlpha"/>
<feOffset dy="12"/>
<feGaussianBlur stdDeviation="18"/>
<feComposite in2="hardAlpha" operator="out"/>
<feColorMatrix type="matrix" values="0 0 0 0 0.0741111 0 0 0 0 0.0853889 0 0 0 0 0.0966667 0 0 0 0.35 0"/>
<feBlend mode="normal" in2="effect1_backgroundBlur_6653_26948" result="effect2_dropShadow_6653_26948"/>
<feBlend mode="normal" in="SourceGraphic" in2="effect2_dropShadow_6653_26948" result="shape"/>
</filter>
<filter id="filter1_bd_6653_26948" x="84" y="43" width="132" height="76" filterUnits="userSpaceOnUse" color-interpolation-filters="sRGB">
<feFlood flood-opacity="0" result="BackgroundImageFix"/>
<feGaussianBlur in="BackgroundImageFix" stdDeviation="7"/>
<feComposite in2="SourceAlpha" operator="in" result="effect1_backgroundBlur_6653_26948"/>
<feColorMatrix in="SourceAlpha" type="matrix" values="0 0 0 0 0 0 0 0 0 0 0 0 0 0 0 0 0 0 127 0" result="hardAlpha"/>
<feOffset dy="12"/>
<feGaussianBlur stdDeviation="18"/>
<feComposite in2="hardAlpha" operator="out"/>
<feColorMatrix type="matrix" values="0 0 0 0 0.525833 0 0 0 0 0.525833 0 0 0 0 0.525833 0 0 0 0.25 0"/>
<feBlend mode="normal" in2="effect1_backgroundBlur_6653_26948" result="effect2_dropShadow_6653_26948"/>
<feBlend mode="normal" in="SourceGraphic" in2="effect2_dropShadow_6653_26948" result="shape"/>
</filter>
<filter id="filter2_bd_6653_26948" x="32.5" y="23.5" width="75" height="81" filterUnits="userSpaceOnUse" color-interpolation-filters="sRGB">
<feFlood flood-opacity="0" result="BackgroundImageFix"/>
<feGaussianBlur in="BackgroundImageFix" stdDeviation="7"/>
<feComposite in2="SourceAlpha" operator="in" result="effect1_backgroundBlur_6653_26948"/>
<feColorMatrix in="SourceAlpha" type="matrix" values="0 0 0 0 0 0 0 0 0 0 0 0 0 0 0 0 0 0 127 0" result="hardAlpha"/>
<feOffset dy="12"/>
<feGaussianBlur stdDeviation="18"/>
<feComposite in2="hardAlpha" operator="out"/>
<feColorMatrix type="matrix" values="0 0 0 0 0.525833 0 0 0 0 0.525833 0 0 0 0 0.525833 0 0 0 0.25 0"/>
<feBlend mode="normal" in2="effect1_backgroundBlur_6653_26948" result="effect2_dropShadow_6653_26948"/>
<feBlend mode="normal" in="SourceGraphic" in2="effect2_dropShadow_6653_26948" result="shape"/>
</filter>
<filter id="filter3_bd_6653_26948" x="32.5" y="23.5" width="75" height="81" filterUnits="userSpaceOnUse" color-interpolation-filters="sRGB">
<feFlood flood-opacity="0" result="BackgroundImageFix"/>
<feGaussianBlur in="BackgroundImageFix" stdDeviation="7"/>
<feComposite in2="SourceAlpha" operator="in" result="effect1_backgroundBlur_6653_26948"/>
<feColorMatrix in="SourceAlpha" type="matrix" values="0 0 0 0 0 0 0 0 0 0 0 0 0 0 0 0 0 0 127 0" result="hardAlpha"/>
<feOffset dy="12"/>
<feGaussianBlur stdDeviation="18"/>
<feComposite in2="hardAlpha" operator="out"/>
<feColorMatrix type="matrix" values="0 0 0 0 0.525833 0 0 0 0 0.525833 0 0 0 0 0.525833 0 0 0 0.25 0"/>
<feBlend mode="normal" in2="effect1_backgroundBlur_6653_26948" result="effect2_dropShadow_6653_26948"/>
<feBlend mode="normal" in="SourceGraphic" in2="effect2_dropShadow_6653_26948" result="shape"/>
</filter>
<filter id="filter4_bd_6653_26948" x="48.5" y="23.5" width="75" height="81" filterUnits="userSpaceOnUse" color-interpolation-filters="sRGB">
<feFlood flood-opacity="0" result="BackgroundImageFix"/>
<feGaussianBlur in="BackgroundImageFix" stdDeviation="7"/>
<feComposite in2="SourceAlpha" operator="in" result="effect1_backgroundBlur_6653_26948"/>
<feColorMatrix in="SourceAlpha" type="matrix" values="0 0 0 0 0 0 0 0 0 0 0 0 0 0 0 0 0 0 127 0" result="hardAlpha"/>
<feOffset dy="12"/>
<feGaussianBlur stdDeviation="18"/>
<feComposite in2="hardAlpha" operator="out"/>
<feColorMatrix type="matrix" values="0 0 0 0 0.525833 0 0 0 0 0.525833 0 0 0 0 0.525833 0 0 0 0.25 0"/>
<feBlend mode="normal" in2="effect1_backgroundBlur_6653_26948" result="effect2_dropShadow_6653_26948"/>
<feBlend mode="normal" in="SourceGraphic" in2="effect2_dropShadow_6653_26948" result="shape"/>
</filter>
<filter id="filter5_bd_6653_26948" x="48.5" y="23.5" width="75" height="81" filterUnits="userSpaceOnUse" color-interpolation-filters="sRGB">
<feFlood flood-opacity="0" result="BackgroundImageFix"/>
<feGaussianBlur in="BackgroundImageFix" stdDeviation="7"/>
<feComposite in2="SourceAlpha" operator="in" result="effect1_backgroundBlur_6653_26948"/>
<feColorMatrix in="SourceAlpha" type="matrix" values="0 0 0 0 0 0 0 0 0 0 0 0 0 0 0 0 0 0 127 0" result="hardAlpha"/>
<feOffset dy="12"/>
<feGaussianBlur stdDeviation="18"/>
<feComposite in2="hardAlpha" operator="out"/>
<feColorMatrix type="matrix" values="0 0 0 0 0.525833 0 0 0 0 0.525833 0 0 0 0 0.525833 0 0 0 0.25 0"/>
<feBlend mode="normal" in2="effect1_backgroundBlur_6653_26948" result="effect2_dropShadow_6653_26948"/>
<feBlend mode="normal" in="SourceGraphic" in2="effect2_dropShadow_6653_26948" result="shape"/>
</filter>
<filter id="filter6_bd_6653_26948" x="24" y="28" width="108" height="109" filterUnits="userSpaceOnUse" color-interpolation-filters="sRGB">
<feFlood flood-opacity="0" result="BackgroundImageFix"/>
<feGaussianBlur in="BackgroundImageFix" stdDeviation="7"/>
<feComposite in2="SourceAlpha" operator="in" result="effect1_backgroundBlur_6653_26948"/>
<feColorMatrix in="SourceAlpha" type="matrix" values="0 0 0 0 0 0 0 0 0 0 0 0 0 0 0 0 0 0 127 0" result="hardAlpha"/>
<feOffset dy="12"/>
<feGaussianBlur stdDeviation="18"/>
<feComposite in2="hardAlpha" operator="out"/>
<feColorMatrix type="matrix" values="0 0 0 0 0.525833 0 0 0 0 0.525833 0 0 0 0 0.525833 0 0 0 0.25 0"/>
<feBlend mode="normal" in2="effect1_backgroundBlur_6653_26948" result="effect2_dropShadow_6653_26948"/>
<feBlend mode="normal" in="SourceGraphic" in2="effect2_dropShadow_6653_26948" result="shape"/>
</filter>
<filter id="filter7_bd_6653_26948" x="32.5" y="41.5" width="87" height="75" filterUnits="userSpaceOnUse" color-interpolation-filters="sRGB">
<feFlood flood-opacity="0" result="BackgroundImageFix"/>
<feGaussianBlur in="BackgroundImageFix" stdDeviation="7"/>
<feComposite in2="SourceAlpha" operator="in" result="effect1_backgroundBlur_6653_26948"/>
<feColorMatrix in="SourceAlpha" type="matrix" values="0 0 0 0 0 0 0 0 0 0 0 0 0 0 0 0 0 0 127 0" result="hardAlpha"/>
<feOffset dy="12"/>
<feGaussianBlur stdDeviation="18"/>
<feComposite in2="hardAlpha" operator="out"/>
<feColorMatrix type="matrix" values="0 0 0 0 0.525833 0 0 0 0 0.525833 0 0 0 0 0.525833 0 0 0 0.25 0"/>
<feBlend mode="normal" in2="effect1_backgroundBlur_6653_26948" result="effect2_dropShadow_6653_26948"/>
<feBlend mode="normal" in="SourceGraphic" in2="effect2_dropShadow_6653_26948" result="shape"/>
</filter>
<filter id="filter8_bd_6653_26948" x="32.5" y="51.5" width="81" height="75" filterUnits="userSpaceOnUse" color-interpolation-filters="sRGB">
<feFlood flood-opacity="0" result="BackgroundImageFix"/>
<feGaussianBlur in="BackgroundImageFix" stdDeviation="7"/>
<feComposite in2="SourceAlpha" operator="in" result="effect1_backgroundBlur_6653_26948"/>
<feColorMatrix in="SourceAlpha" type="matrix" values="0 0 0 0 0 0 0 0 0 0 0 0 0 0 0 0 0 0 127 0" result="hardAlpha"/>
<feOffset dy="12"/>
<feGaussianBlur stdDeviation="18"/>
<feComposite in2="hardAlpha" operator="out"/>
<feColorMatrix type="matrix" values="0 0 0 0 0.525833 0 0 0 0 0.525833 0 0 0 0 0.525833 0 0 0 0.25 0"/>
<feBlend mode="normal" in2="effect1_backgroundBlur_6653_26948" result="effect2_dropShadow_6653_26948"/>
<feBlend mode="normal" in="SourceGraphic" in2="effect2_dropShadow_6653_26948" result="shape"/>
</filter>
<filter id="filter9_bd_6653_26948" x="45" y="46" width="93" height="93" filterUnits="userSpaceOnUse" color-interpolation-filters="sRGB">
<feFlood flood-opacity="0" result="BackgroundImageFix"/>
<feGaussianBlur in="BackgroundImageFix" stdDeviation="7"/>
<feComposite in2="SourceAlpha" operator="in" result="effect1_backgroundBlur_6653_26948"/>
<feColorMatrix in="SourceAlpha" type="matrix" values="0 0 0 0 0 0 0 0 0 0 0 0 0 0 0 0 0 0 127 0" result="hardAlpha"/>
<feOffset dy="12"/>
<feGaussianBlur stdDeviation="18"/>
<feComposite in2="hardAlpha" operator="out"/>
<feColorMatrix type="matrix" values="0 0 0 0 0.525833 0 0 0 0 0.525833 0 0 0 0 0.525833 0 0 0 0.25 0"/>
<feBlend mode="normal" in2="effect1_backgroundBlur_6653_26948" result="effect2_dropShadow_6653_26948"/>
<feBlend mode="normal" in="SourceGraphic" in2="effect2_dropShadow_6653_26948" result="shape"/>
</filter>
<linearGradient id="paint0_linear_6653_26948" x1="41.3181" y1="24" x2="81.2708" y2="159.412" gradientUnits="userSpaceOnUse">
<stop stop-color="white" stop-opacity="0.6"/>
<stop offset="0.0001" stop-color="white" stop-opacity="0.5"/>
<stop offset="1" stop-color="white" stop-opacity="0"/>
</linearGradient>
<linearGradient id="paint1_linear_6653_26948" x1="235.911" y1="115.521" x2="194.354" y2="-23.3776" gradientUnits="userSpaceOnUse">
<stop stop-color="white" stop-opacity="0.5"/>
<stop offset="1" stop-color="white" stop-opacity="0"/>
</linearGradient>
<linearGradient id="paint2_linear_6653_26948" x1="114.25" y1="47.5" x2="191.822" y2="72.5831" gradientUnits="userSpaceOnUse">
<stop offset="0.202647" stop-color="white"/>
<stop offset="1" stop-color="#F79023"/>
</linearGradient>
<linearGradient id="paint3_linear_6653_26948" x1="121.679" y1="67" x2="121.951" y2="73.531" gradientUnits="userSpaceOnUse">
<stop stop-color="#F9911F"/>
<stop offset="0.0001" stop-color="white" stop-opacity="0.5"/>
<stop offset="1" stop-color="#F9911F"/>
</linearGradient>
<linearGradient id="paint4_linear_6653_26948" x1="183.13" y1="71.0676" x2="182.847" y2="64.3536" gradientUnits="userSpaceOnUse">
<stop stop-color="white" stop-opacity="0.5"/>
<stop offset="1" stop-color="white" stop-opacity="0"/>
</linearGradient>
<linearGradient id="paint5_linear_6653_26948" x1="68.584" y1="47.5" x2="74.7077" y2="50.7771" gradientUnits="userSpaceOnUse">
<stop stop-color="white" stop-opacity="0.6"/>
<stop offset="0.0001" stop-color="white" stop-opacity="0.5"/>
<stop offset="1" stop-color="white" stop-opacity="0"/>
</linearGradient>
<linearGradient id="paint6_linear_6653_26948" x1="71.6565" y1="56.6521" x2="65.4098" y2="53.3554" gradientUnits="userSpaceOnUse">
<stop stop-color="white" stop-opacity="0.5"/>
<stop offset="1" stop-color="white" stop-opacity="0"/>
</linearGradient>
<linearGradient id="paint7_linear_6653_26948" x1="84.584" y1="47.5" x2="90.7077" y2="50.7771" gradientUnits="userSpaceOnUse">
<stop stop-color="white" stop-opacity="0.6"/>
<stop offset="0.0001" stop-color="white" stop-opacity="0.5"/>
<stop offset="1" stop-color="white" stop-opacity="0"/>
</linearGradient>
<linearGradient id="paint8_linear_6653_26948" x1="87.6565" y1="56.6521" x2="81.4098" y2="53.3554" gradientUnits="userSpaceOnUse">
<stop stop-color="white" stop-opacity="0.5"/>
<stop offset="1" stop-color="white" stop-opacity="0"/>
</linearGradient>
<linearGradient id="paint9_linear_6653_26948" x1="61.0076" y1="52" x2="88.4866" y2="94.9241" gradientUnits="userSpaceOnUse">
<stop stop-color="white" stop-opacity="0.6"/>
<stop offset="0.0001" stop-color="white" stop-opacity="0.5"/>
<stop offset="1" stop-color="white" stop-opacity="0"/>
</linearGradient>
<linearGradient id="paint10_linear_6653_26948" x1="97.8779" y1="89.6252" x2="69.4645" y2="45.856" gradientUnits="userSpaceOnUse">
<stop stop-color="white" stop-opacity="0.5"/>
<stop offset="1" stop-color="white" stop-opacity="0"/>
</linearGradient>
<linearGradient id="paint11_linear_6653_26948" x1="84.2824" y1="68.5507" x2="83.6552" y2="63.5855" gradientUnits="userSpaceOnUse">
<stop stop-color="white" stop-opacity="0.5"/>
<stop offset="1" stop-color="white" stop-opacity="0"/>
</linearGradient>
<linearGradient id="paint12_linear_6653_26948" x1="77.9695" y1="78.5507" x2="76.9525" y2="73.7204" gradientUnits="userSpaceOnUse">
<stop stop-color="white" stop-opacity="0.5"/>
<stop offset="1" stop-color="white" stop-opacity="0"/>
</linearGradient>
<linearGradient id="paint13_linear_6653_26948" x1="81.5878" y1="70" x2="97.0014" y2="94.7459" gradientUnits="userSpaceOnUse">
<stop stop-color="#F9911F"/>
<stop offset="0.0001" stop-color="white" stop-opacity="0.5"/>
<stop offset="1" stop-color="#F9911F"/>
</linearGradient>
<linearGradient id="paint14_linear_6653_26948" x1="103.095" y1="91.3549" x2="87.1527" y2="66.1138" gradientUnits="userSpaceOnUse">
<stop stop-color="white" stop-opacity="0.5"/>
<stop offset="1" stop-color="white" stop-opacity="0"/>
</linearGradient>
</defs>
</svg>
