<svg width="291" height="162" viewBox="0 0 291 162" fill="none" xmlns="http://www.w3.org/2000/svg">
<g filter="url(#filter0_bd_6653_26937)">
<rect x="36" y="24" width="219" height="90" rx="16" fill="url(#paint0_linear_6653_26937)" fill-opacity="0.3" shape-rendering="crispEdges"/>
<rect x="36.5" y="24.5" width="218" height="89" rx="15.5" stroke="url(#paint1_linear_6653_26937)" shape-rendering="crispEdges"/>
</g>
<path d="M128.799 47.7273H130.131L132.446 53.3807H132.531L134.847 47.7273H136.178V55H135.134V49.7372H135.067L132.922 54.9893H132.055L129.911 49.7337H129.843V55H128.799V47.7273ZM139.676 55.1207C139.33 55.1207 139.018 55.0568 138.738 54.929C138.459 54.7988 138.238 54.6106 138.074 54.3643C137.913 54.1181 137.833 53.8163 137.833 53.4588C137.833 53.151 137.892 52.8977 138.01 52.6989C138.129 52.5 138.288 52.3426 138.49 52.2266C138.691 52.1106 138.916 52.023 139.164 51.9638C139.413 51.9046 139.666 51.8596 139.924 51.8288C140.251 51.791 140.516 51.7602 140.72 51.7365C140.923 51.7105 141.071 51.669 141.164 51.6122C141.256 51.5554 141.302 51.4631 141.302 51.3352V51.3104C141.302 51.0002 141.215 50.7599 141.039 50.5895C140.867 50.419 140.609 50.3338 140.265 50.3338C139.908 50.3338 139.626 50.4131 139.42 50.5717C139.216 50.728 139.076 50.902 138.997 51.0938L138 50.8665C138.118 50.535 138.291 50.2675 138.518 50.0639C138.748 49.858 139.012 49.7088 139.31 49.6165C139.608 49.5218 139.922 49.4744 140.251 49.4744C140.469 49.4744 140.7 49.5005 140.944 49.5526C141.19 49.6023 141.419 49.6946 141.632 49.8295C141.848 49.9645 142.024 50.1574 142.162 50.4084C142.299 50.657 142.368 50.9801 142.368 51.3778V55H141.331V54.2543H141.288C141.219 54.3916 141.116 54.5265 140.979 54.6591C140.842 54.7917 140.665 54.9018 140.45 54.9893C140.234 55.0769 139.976 55.1207 139.676 55.1207ZM139.907 54.2685C140.2 54.2685 140.451 54.2105 140.659 54.0945C140.87 53.9785 141.03 53.8269 141.139 53.6399C141.25 53.4505 141.306 53.2481 141.306 53.0327V52.3295C141.268 52.3674 141.194 52.4029 141.086 52.4361C140.979 52.4669 140.857 52.4941 140.72 52.5178C140.582 52.5391 140.449 52.5592 140.319 52.5781C140.188 52.5947 140.079 52.6089 139.992 52.6207C139.786 52.6468 139.598 52.6906 139.427 52.7521C139.259 52.8137 139.124 52.9025 139.022 53.0185C138.923 53.1321 138.873 53.2836 138.873 53.473C138.873 53.7358 138.97 53.9347 139.164 54.0696C139.359 54.2022 139.606 54.2685 139.907 54.2685ZM144.182 55V49.5455H145.208V50.4119H145.265C145.364 50.1184 145.539 49.8875 145.79 49.7195C146.044 49.549 146.33 49.4638 146.65 49.4638C146.716 49.4638 146.794 49.4661 146.884 49.4709C146.976 49.4756 147.049 49.4815 147.101 49.4886V50.5043C147.058 50.4924 146.982 50.4794 146.874 50.4652C146.765 50.4486 146.656 50.4403 146.547 50.4403C146.296 50.4403 146.072 50.4936 145.876 50.6001C145.682 50.7043 145.528 50.8499 145.414 51.0369C145.3 51.2216 145.244 51.4323 145.244 51.669V55H144.182ZM149.396 53.1499L149.389 51.8537H149.574L151.747 49.5455H153.018L150.54 52.1733H150.373L149.396 53.1499ZM148.42 55V47.7273H149.481V55H148.42ZM151.864 55L149.911 52.4077L150.643 51.6655L153.168 55H151.864ZM156.512 55.1101C155.975 55.1101 155.512 54.9953 155.124 54.7656C154.738 54.5336 154.44 54.2081 154.229 53.7891C154.021 53.3677 153.916 52.8741 153.916 52.3082C153.916 51.7495 154.021 51.2571 154.229 50.831C154.44 50.4048 154.733 50.0722 155.11 49.8331C155.488 49.594 155.931 49.4744 156.438 49.4744C156.745 49.4744 157.044 49.5253 157.333 49.6271C157.621 49.7289 157.881 49.8887 158.11 50.1065C158.34 50.3243 158.521 50.6072 158.654 50.9553C158.786 51.3009 158.852 51.7211 158.852 52.2159V52.5923H154.517V51.7969H157.812C157.812 51.5175 157.755 51.2701 157.642 51.0547C157.528 50.8369 157.368 50.6652 157.162 50.5398C156.959 50.4143 156.719 50.3516 156.445 50.3516C156.147 50.3516 155.886 50.425 155.664 50.5717C155.443 50.7161 155.273 50.9055 155.152 51.1399C155.034 51.3719 154.975 51.6241 154.975 51.8963V52.5178C154.975 52.8823 155.039 53.1925 155.166 53.4482C155.297 53.7038 155.478 53.8991 155.71 54.0341C155.942 54.1667 156.213 54.233 156.523 54.233C156.724 54.233 156.908 54.2045 157.073 54.1477C157.239 54.0885 157.382 54.0009 157.503 53.8849C157.624 53.7689 157.716 53.6257 157.78 53.4553L158.785 53.6364C158.705 53.9323 158.56 54.1915 158.352 54.4141C158.146 54.6342 157.887 54.8059 157.574 54.929C157.264 55.0497 156.91 55.1101 156.512 55.1101ZM162.977 49.5455V50.3977H159.997V49.5455H162.977ZM160.796 48.2386H161.858V53.3984C161.858 53.6044 161.889 53.7595 161.95 53.8636C162.012 53.9654 162.091 54.0353 162.188 54.0732C162.288 54.1087 162.396 54.1264 162.512 54.1264C162.597 54.1264 162.671 54.1205 162.735 54.1087C162.799 54.0968 162.849 54.0874 162.884 54.0803L163.076 54.9574C163.015 54.9811 162.927 55.0047 162.813 55.0284C162.7 55.0545 162.558 55.0687 162.387 55.071C162.108 55.0758 161.847 55.026 161.606 54.9219C161.365 54.8177 161.169 54.6567 161.02 54.4389C160.871 54.2211 160.796 53.9477 160.796 53.6186V48.2386ZM164.551 55V49.5455H165.613V55H164.551ZM165.088 48.7038C164.903 48.7038 164.744 48.6423 164.612 48.5192C164.481 48.3937 164.416 48.2446 164.416 48.0717C164.416 47.8965 164.481 47.7474 164.612 47.6243C164.744 47.4988 164.903 47.4361 165.088 47.4361C165.272 47.4361 165.43 47.4988 165.56 47.6243C165.692 47.7474 165.759 47.8965 165.759 48.0717C165.759 48.2446 165.692 48.3937 165.56 48.5192C165.43 48.6423 165.272 48.7038 165.088 48.7038ZM168.503 51.7614V55H167.442V49.5455H168.461V50.4332H168.528C168.654 50.1444 168.85 49.9124 169.118 49.7372C169.388 49.562 169.727 49.4744 170.137 49.4744C170.509 49.4744 170.834 49.5526 171.113 49.7088C171.393 49.8627 171.609 50.0923 171.763 50.3977C171.917 50.7031 171.994 51.0807 171.994 51.5305V55H170.932V51.6584C170.932 51.263 170.829 50.9541 170.623 50.7315C170.417 50.5066 170.134 50.3942 169.775 50.3942C169.528 50.3942 169.309 50.4474 169.118 50.554C168.928 50.6605 168.778 50.8168 168.667 51.0227C168.558 51.2263 168.503 51.4725 168.503 51.7614ZM176.105 57.1591C175.672 57.1591 175.299 57.1023 174.986 56.9886C174.676 56.875 174.423 56.7247 174.226 56.5376C174.03 56.3506 173.883 56.1458 173.786 55.9233L174.699 55.5469C174.763 55.651 174.848 55.7611 174.954 55.8771C175.063 55.9955 175.21 56.0961 175.395 56.179C175.582 56.2618 175.822 56.3033 176.116 56.3033C176.518 56.3033 176.851 56.205 177.114 56.0085C177.376 55.8144 177.508 55.5043 177.508 55.0781V54.0057H177.44C177.376 54.1217 177.284 54.2507 177.163 54.3928C177.045 54.5348 176.882 54.6579 176.673 54.7621C176.465 54.8662 176.194 54.9183 175.86 54.9183C175.429 54.9183 175.041 54.8177 174.695 54.6165C174.352 54.4129 174.08 54.1134 173.878 53.718C173.68 53.3203 173.58 52.8314 173.58 52.2514C173.58 51.6714 173.678 51.1742 173.875 50.7599C174.074 50.3456 174.346 50.0284 174.692 49.8082C175.037 49.5857 175.429 49.4744 175.867 49.4744C176.206 49.4744 176.479 49.5312 176.687 49.6449C176.896 49.7562 177.058 49.8864 177.174 50.0355C177.292 50.1847 177.383 50.3161 177.447 50.4297H177.525V49.5455H178.566V55.1207C178.566 55.5895 178.457 55.9742 178.239 56.2749C178.021 56.5755 177.727 56.7981 177.355 56.9425C176.986 57.0869 176.569 57.1591 176.105 57.1591ZM176.094 54.0376C176.4 54.0376 176.658 53.9666 176.869 53.8246C177.082 53.6802 177.243 53.4742 177.351 53.2067C177.463 52.9368 177.518 52.6136 177.518 52.2372C177.518 51.8703 177.464 51.5471 177.355 51.2678C177.246 50.9884 177.086 50.7706 176.876 50.6143C176.665 50.4557 176.404 50.3764 176.094 50.3764C175.775 50.3764 175.508 50.4593 175.295 50.625C175.082 50.7884 174.921 51.0109 174.812 51.2926C174.706 51.5743 174.653 51.8892 174.653 52.2372C174.653 52.5947 174.707 52.9084 174.816 53.1783C174.925 53.4482 175.086 53.6589 175.299 53.8104C175.514 53.9619 175.779 54.0376 176.094 54.0376ZM189.562 50.0923H188.454C188.412 49.8556 188.332 49.6473 188.216 49.4673C188.1 49.2874 187.958 49.1347 187.79 49.0092C187.622 48.8838 187.434 48.7891 187.225 48.7251C187.02 48.6612 186.801 48.6293 186.569 48.6293C186.15 48.6293 185.774 48.7346 185.443 48.9453C185.114 49.156 184.853 49.465 184.662 49.8722C184.472 50.2794 184.377 50.7765 184.377 51.3636C184.377 51.9555 184.472 52.455 184.662 52.8622C184.853 53.2694 185.115 53.5772 185.446 53.7855C185.778 53.9938 186.151 54.098 186.565 54.098C186.795 54.098 187.012 54.0672 187.218 54.0057C187.427 53.9418 187.615 53.8482 187.783 53.7251C187.951 53.602 188.093 53.4517 188.209 53.2741C188.328 53.0942 188.409 52.8883 188.454 52.6562L189.562 52.6598C189.503 53.0173 189.388 53.3464 189.218 53.647C189.05 53.9453 188.833 54.2034 188.568 54.4212C188.305 54.6366 188.004 54.8035 187.666 54.9219C187.327 55.0402 186.958 55.0994 186.558 55.0994C185.928 55.0994 185.367 54.9503 184.875 54.652C184.382 54.3513 183.994 53.9216 183.71 53.3629C183.428 52.8042 183.287 52.1378 183.287 51.3636C183.287 50.5871 183.429 49.9207 183.713 49.3643C183.998 48.8056 184.386 48.3771 184.878 48.0788C185.371 47.7782 185.931 47.6278 186.558 47.6278C186.944 47.6278 187.304 47.6835 187.637 47.7947C187.974 47.9036 188.275 48.0646 188.543 48.2777C188.81 48.4884 189.032 48.7464 189.207 49.0518C189.382 49.3549 189.501 49.7017 189.562 50.0923ZM192.777 55.1207C192.432 55.1207 192.119 55.0568 191.84 54.929C191.56 54.7988 191.339 54.6106 191.176 54.3643C191.015 54.1181 190.934 53.8163 190.934 53.4588C190.934 53.151 190.993 52.8977 191.112 52.6989C191.23 52.5 191.39 52.3426 191.591 52.2266C191.792 52.1106 192.017 52.023 192.266 51.9638C192.515 51.9046 192.768 51.8596 193.026 51.8288C193.353 51.791 193.618 51.7602 193.821 51.7365C194.025 51.7105 194.173 51.669 194.265 51.6122C194.358 51.5554 194.404 51.4631 194.404 51.3352V51.3104C194.404 51.0002 194.316 50.7599 194.141 50.5895C193.968 50.419 193.71 50.3338 193.367 50.3338C193.009 50.3338 192.728 50.4131 192.522 50.5717C192.318 50.728 192.177 50.902 192.099 51.0938L191.101 50.8665C191.22 50.535 191.392 50.2675 191.62 50.0639C191.849 49.858 192.113 49.7088 192.412 49.6165C192.71 49.5218 193.024 49.4744 193.353 49.4744C193.57 49.4744 193.801 49.5005 194.045 49.5526C194.291 49.6023 194.521 49.6946 194.734 49.8295C194.949 49.9645 195.126 50.1574 195.263 50.4084C195.4 50.657 195.469 50.9801 195.469 51.3778V55H194.432V54.2543H194.39C194.321 54.3916 194.218 54.5265 194.081 54.6591C193.943 54.7917 193.767 54.9018 193.551 54.9893C193.336 55.0769 193.078 55.1207 192.777 55.1207ZM193.008 54.2685C193.302 54.2685 193.553 54.2105 193.761 54.0945C193.972 53.9785 194.131 53.8269 194.24 53.6399C194.352 53.4505 194.407 53.2481 194.407 53.0327V52.3295C194.369 52.3674 194.296 52.4029 194.187 52.4361C194.081 52.4669 193.959 52.4941 193.821 52.5178C193.684 52.5391 193.55 52.5592 193.42 52.5781C193.29 52.5947 193.181 52.6089 193.093 52.6207C192.887 52.6468 192.699 52.6906 192.529 52.7521C192.361 52.8137 192.226 52.9025 192.124 53.0185C192.024 53.1321 191.975 53.2836 191.975 53.473C191.975 53.7358 192.072 53.9347 192.266 54.0696C192.46 54.2022 192.707 54.2685 193.008 54.2685ZM197.283 55V49.5455H198.302V50.4332H198.37C198.484 50.1326 198.669 49.8982 198.927 49.7301C199.186 49.5597 199.494 49.4744 199.854 49.4744C200.219 49.4744 200.524 49.5597 200.771 49.7301C201.019 49.9006 201.203 50.1349 201.321 50.4332H201.378C201.508 50.142 201.715 49.91 201.999 49.7372C202.283 49.562 202.622 49.4744 203.015 49.4744C203.51 49.4744 203.913 49.6295 204.226 49.9396C204.541 50.2498 204.698 50.7173 204.698 51.3423V55H203.636V51.4418C203.636 51.0724 203.536 50.8049 203.334 50.6392C203.133 50.4735 202.893 50.3906 202.614 50.3906C202.268 50.3906 201.999 50.4972 201.807 50.7102C201.616 50.9209 201.52 51.192 201.52 51.5234V55H200.462V51.3743C200.462 51.0784 200.369 50.8404 200.185 50.6605C200 50.4806 199.76 50.3906 199.464 50.3906C199.262 50.3906 199.077 50.4439 198.906 50.5504C198.738 50.6546 198.602 50.8002 198.498 50.9872C198.396 51.1742 198.345 51.3909 198.345 51.6371V55H197.283ZM206.521 57.0455V49.5455H207.558V50.4297H207.647C207.708 50.3161 207.797 50.1847 207.913 50.0355C208.029 49.8864 208.19 49.7562 208.396 49.6449C208.602 49.5312 208.874 49.4744 209.213 49.4744C209.653 49.4744 210.046 49.5857 210.392 49.8082C210.738 50.0308 211.009 50.3516 211.205 50.7706C211.404 51.1896 211.503 51.6939 211.503 52.2834C211.503 52.8729 211.405 53.3783 211.209 53.7997C211.012 54.2187 210.742 54.5419 210.399 54.7692C210.056 54.9941 209.664 55.1065 209.224 55.1065C208.892 55.1065 208.621 55.0509 208.41 54.9396C208.202 54.8284 208.039 54.6982 207.92 54.549C207.802 54.3999 207.711 54.2673 207.647 54.1513H207.583V57.0455H206.521ZM207.562 52.2727C207.562 52.6562 207.617 52.9924 207.729 53.2812C207.84 53.5701 208.001 53.7962 208.212 53.9595C208.422 54.1205 208.68 54.201 208.986 54.201C209.303 54.201 209.568 54.117 209.781 53.9489C209.994 53.7784 210.155 53.5476 210.264 53.2564C210.375 52.9652 210.431 52.6373 210.431 52.2727C210.431 51.9129 210.377 51.5897 210.268 51.3033C210.161 51.0168 210 50.7907 209.785 50.625C209.572 50.4593 209.305 50.3764 208.986 50.3764C208.678 50.3764 208.418 50.4557 208.204 50.6143C207.994 50.773 207.834 50.9943 207.725 51.2784C207.616 51.5625 207.562 51.8939 207.562 52.2727ZM214.68 55.1207C214.335 55.1207 214.022 55.0568 213.743 54.929C213.464 54.7988 213.242 54.6106 213.079 54.3643C212.918 54.1181 212.837 53.8163 212.837 53.4588C212.837 53.151 212.897 52.8977 213.015 52.6989C213.133 52.5 213.293 52.3426 213.494 52.2266C213.696 52.1106 213.92 52.023 214.169 51.9638C214.418 51.9046 214.671 51.8596 214.929 51.8288C215.256 51.791 215.521 51.7602 215.724 51.7365C215.928 51.7105 216.076 51.669 216.168 51.6122C216.261 51.5554 216.307 51.4631 216.307 51.3352V51.3104C216.307 51.0002 216.219 50.7599 216.044 50.5895C215.871 50.419 215.613 50.3338 215.27 50.3338C214.912 50.3338 214.631 50.4131 214.425 50.5717C214.221 50.728 214.08 50.902 214.002 51.0938L213.004 50.8665C213.123 50.535 213.295 50.2675 213.523 50.0639C213.752 49.858 214.016 49.7088 214.315 49.6165C214.613 49.5218 214.927 49.4744 215.256 49.4744C215.474 49.4744 215.704 49.5005 215.948 49.5526C216.194 49.6023 216.424 49.6946 216.637 49.8295C216.853 49.9645 217.029 50.1574 217.166 50.4084C217.304 50.657 217.372 50.9801 217.372 51.3778V55H216.335V54.2543H216.293C216.224 54.3916 216.121 54.5265 215.984 54.6591C215.846 54.7917 215.67 54.9018 215.455 54.9893C215.239 55.0769 214.981 55.1207 214.68 55.1207ZM214.911 54.2685C215.205 54.2685 215.456 54.2105 215.664 54.0945C215.875 53.9785 216.035 53.8269 216.144 53.6399C216.255 53.4505 216.31 53.2481 216.31 53.0327V52.3295C216.273 52.3674 216.199 52.4029 216.09 52.4361C215.984 52.4669 215.862 52.4941 215.724 52.5178C215.587 52.5391 215.453 52.5592 215.323 52.5781C215.193 52.5947 215.084 52.6089 214.996 52.6207C214.791 52.6468 214.602 52.6906 214.432 52.7521C214.264 52.8137 214.129 52.9025 214.027 53.0185C213.928 53.1321 213.878 53.2836 213.878 53.473C213.878 53.7358 213.975 53.9347 214.169 54.0696C214.363 54.2022 214.611 54.2685 214.911 54.2685ZM219.186 55V49.5455H220.248V55H219.186ZM219.723 48.7038C219.538 48.7038 219.379 48.6423 219.247 48.5192C219.117 48.3937 219.051 48.2446 219.051 48.0717C219.051 47.8965 219.117 47.7474 219.247 47.6243C219.379 47.4988 219.538 47.4361 219.723 47.4361C219.907 47.4361 220.065 47.4988 220.195 47.6243C220.328 47.7474 220.394 47.8965 220.394 48.0717C220.394 48.2446 220.328 48.3937 220.195 48.5192C220.065 48.6423 219.907 48.7038 219.723 48.7038ZM224.364 57.1591C223.93 57.1591 223.557 57.1023 223.245 56.9886C222.935 56.875 222.682 56.7247 222.485 56.5376C222.289 56.3506 222.142 56.1458 222.045 55.9233L222.957 55.5469C223.021 55.651 223.107 55.7611 223.213 55.8771C223.322 55.9955 223.469 56.0961 223.653 56.179C223.84 56.2618 224.081 56.3033 224.374 56.3033C224.777 56.3033 225.109 56.205 225.372 56.0085C225.635 55.8144 225.766 55.5043 225.766 55.0781V54.0057H225.699C225.635 54.1217 225.543 54.2507 225.422 54.3928C225.303 54.5348 225.14 54.6579 224.932 54.7621C224.723 54.8662 224.452 54.9183 224.119 54.9183C223.688 54.9183 223.299 54.8177 222.954 54.6165C222.611 54.4129 222.338 54.1134 222.137 53.718C221.938 53.3203 221.839 52.8314 221.839 52.2514C221.839 51.6714 221.937 51.1742 222.133 50.7599C222.332 50.3456 222.605 50.0284 222.95 49.8082C223.296 49.5857 223.688 49.4744 224.126 49.4744C224.464 49.4744 224.738 49.5312 224.946 49.6449C225.154 49.7562 225.316 49.8864 225.432 50.0355C225.551 50.1847 225.642 50.3161 225.706 50.4297H225.784V49.5455H226.825V55.1207C226.825 55.5895 226.716 55.9742 226.498 56.2749C226.28 56.5755 225.985 56.7981 225.614 56.9425C225.244 57.0869 224.828 57.1591 224.364 57.1591ZM224.353 54.0376C224.658 54.0376 224.916 53.9666 225.127 53.8246C225.34 53.6802 225.501 53.4742 225.61 53.2067C225.721 52.9368 225.777 52.6136 225.777 52.2372C225.777 51.8703 225.723 51.5471 225.614 51.2678C225.505 50.9884 225.345 50.7706 225.134 50.6143C224.923 50.4557 224.663 50.3764 224.353 50.3764C224.033 50.3764 223.767 50.4593 223.554 50.625C223.341 50.7884 223.18 51.0109 223.071 51.2926C222.964 51.5743 222.911 51.8892 222.911 52.2372C222.911 52.5947 222.966 52.9084 223.075 53.1783C223.183 53.4482 223.344 53.6589 223.557 53.8104C223.773 53.9619 224.038 54.0376 224.353 54.0376ZM229.71 51.7614V55H228.649V49.5455H229.668V50.4332H229.735C229.861 50.1444 230.057 49.9124 230.325 49.7372C230.595 49.562 230.934 49.4744 231.344 49.4744C231.716 49.4744 232.041 49.5526 232.32 49.7088C232.6 49.8627 232.816 50.0923 232.97 50.3977C233.124 50.7031 233.201 51.0807 233.201 51.5305V55H232.139V51.6584C232.139 51.263 232.036 50.9541 231.83 50.7315C231.624 50.5066 231.341 50.3942 230.982 50.3942C230.735 50.3942 230.516 50.4474 230.325 50.554C230.135 50.6605 229.985 50.8168 229.874 51.0227C229.765 51.2263 229.71 51.4725 229.71 51.7614Z" fill="url(#paint2_linear_6653_26937)" fill-opacity="0.8"/>
<path d="M130.74 92V90.06H128.8V88.93H130.74V87H131.87V88.93H133.8V90.06H131.87V92H130.74ZM137.572 92.12C137.178 92.12 136.802 92.0467 136.442 91.9C136.088 91.7533 135.782 91.5467 135.522 91.28C135.268 91.0067 135.095 90.6833 135.002 90.31L136.182 89.89C136.295 90.23 136.478 90.4833 136.732 90.65C136.985 90.81 137.265 90.89 137.572 90.89C137.825 90.89 138.048 90.8367 138.242 90.73C138.442 90.6167 138.595 90.4633 138.702 90.27C138.808 90.07 138.862 89.84 138.862 89.58C138.862 89.32 138.805 89.0933 138.692 88.9C138.585 88.7067 138.435 88.5567 138.242 88.45C138.048 88.3367 137.825 88.28 137.572 88.28C137.312 88.28 137.075 88.3367 136.862 88.45C136.655 88.5633 136.505 88.7267 136.412 88.94L135.302 88.69L135.892 84.55H139.952V85.7H136.432L136.942 85.11L136.522 88.23L136.132 87.91C136.318 87.6367 136.545 87.4367 136.812 87.31C137.085 87.1833 137.415 87.12 137.802 87.12C138.295 87.12 138.722 87.2267 139.082 87.44C139.448 87.6533 139.732 87.9433 139.932 88.31C140.132 88.6767 140.232 89.1 140.232 89.58C140.232 90.06 140.115 90.4933 139.882 90.88C139.648 91.2667 139.332 91.57 138.932 91.79C138.532 92.01 138.078 92.12 137.572 92.12ZM143.774 92.12C143.267 92.12 142.817 92.0133 142.424 91.8C142.037 91.58 141.734 91.2867 141.514 90.92C141.294 90.5467 141.184 90.1233 141.184 89.65C141.184 89.41 141.207 89.17 141.254 88.93C141.307 88.69 141.401 88.4333 141.534 88.16C141.674 87.8867 141.874 87.5833 142.134 87.25L144.214 84.55H145.834L143.304 87.8L143.084 87.56C143.177 87.4867 143.274 87.43 143.374 87.39C143.474 87.3433 143.574 87.31 143.674 87.29C143.781 87.27 143.891 87.26 144.004 87.26C144.457 87.26 144.861 87.3633 145.214 87.57C145.567 87.7767 145.844 88.06 146.044 88.42C146.251 88.7733 146.354 89.1733 146.354 89.62C146.354 90.1 146.244 90.53 146.024 90.91C145.804 91.2833 145.497 91.58 145.104 91.8C144.717 92.0133 144.274 92.12 143.774 92.12ZM143.774 90.89C144.001 90.89 144.204 90.84 144.384 90.74C144.571 90.6333 144.717 90.4833 144.824 90.29C144.937 90.0967 144.994 89.88 144.994 89.64C144.994 89.3867 144.937 89.17 144.824 88.99C144.717 88.8033 144.574 88.6567 144.394 88.55C144.214 88.4433 144.007 88.39 143.774 88.39C143.547 88.39 143.341 88.4433 143.154 88.55C142.967 88.6567 142.817 88.8033 142.704 88.99C142.597 89.17 142.544 89.3867 142.544 89.64C142.544 89.88 142.597 90.0967 142.704 90.29C142.817 90.4833 142.967 90.6333 143.154 90.74C143.341 90.84 143.547 90.89 143.774 90.89ZM147.23 92V90.97L149.25 88.86C149.65 88.44 149.956 88.1067 150.17 87.86C150.39 87.6067 150.543 87.39 150.63 87.21C150.716 87.03 150.76 86.8467 150.76 86.66C150.76 86.3467 150.66 86.1 150.46 85.92C150.266 85.74 150.016 85.65 149.71 85.65C149.39 85.65 149.113 85.7433 148.88 85.93C148.646 86.11 148.476 86.3767 148.37 86.73L147.18 86.36C147.26 85.9667 147.423 85.6267 147.67 85.34C147.916 85.0467 148.216 84.8233 148.57 84.67C148.93 84.51 149.31 84.43 149.71 84.43C150.19 84.43 150.61 84.5167 150.97 84.69C151.336 84.8633 151.62 85.1067 151.82 85.42C152.026 85.7333 152.13 86.1 152.13 86.52C152.13 86.7867 152.08 87.05 151.98 87.31C151.88 87.57 151.73 87.8367 151.53 88.11C151.33 88.3767 151.07 88.6767 150.75 89.01L149 90.85H152.23V92H147.23Z" fill="#F9911F"/>
<path d="M156.844 93.7C156.284 93.0467 155.86 92.3367 155.574 91.57C155.294 90.8033 155.154 89.9867 155.154 89.12C155.154 88.2533 155.294 87.4367 155.574 86.67C155.854 85.9033 156.277 85.1967 156.844 84.55H157.944C157.464 85.2633 157.104 86.0033 156.864 86.77C156.63 87.53 156.514 88.3133 156.514 89.12C156.514 89.9267 156.634 90.7133 156.874 91.48C157.114 92.2467 157.47 92.9867 157.944 93.7H156.844ZM161.043 92V90.06H159.103V88.93H161.043V87H162.173V88.93H164.103V90.06H162.173V92H161.043ZM165.364 92V90.97L167.384 88.86C167.784 88.44 168.091 88.1067 168.304 87.86C168.524 87.6067 168.678 87.39 168.764 87.21C168.851 87.03 168.894 86.8467 168.894 86.66C168.894 86.3467 168.794 86.1 168.594 85.92C168.401 85.74 168.151 85.65 167.844 85.65C167.524 85.65 167.248 85.7433 167.014 85.93C166.781 86.11 166.611 86.3767 166.504 86.73L165.314 86.36C165.394 85.9667 165.558 85.6267 165.804 85.34C166.051 85.0467 166.351 84.8233 166.704 84.67C167.064 84.51 167.444 84.43 167.844 84.43C168.324 84.43 168.744 84.5167 169.104 84.69C169.471 84.8633 169.754 85.1067 169.954 85.42C170.161 85.7333 170.264 86.1 170.264 86.52C170.264 86.7867 170.214 87.05 170.114 87.31C170.014 87.57 169.864 87.8367 169.664 88.11C169.464 88.3767 169.204 88.6767 168.884 89.01L167.134 90.85H170.364V92H165.364ZM174.553 92V90.36H171.133V89.22L174.473 84.55H175.893V89.22H176.983V90.36H175.893V92H174.553ZM172.133 89.71L171.893 89.22H174.553V85.62L174.903 85.73L172.133 89.71ZM178.846 92L184.886 84.55H186.286L180.246 92H178.846ZM180.006 88.33C179.64 88.33 179.306 88.2433 179.006 88.07C178.713 87.89 178.48 87.6533 178.306 87.36C178.133 87.0667 178.046 86.74 178.046 86.38C178.046 86.02 178.133 85.6933 178.306 85.4C178.48 85.1 178.713 84.8633 179.006 84.69C179.306 84.5167 179.64 84.43 180.006 84.43C180.38 84.43 180.713 84.5167 181.006 84.69C181.3 84.8633 181.533 85.1 181.706 85.4C181.88 85.6933 181.966 86.02 181.966 86.38C181.966 86.74 181.88 87.0667 181.706 87.36C181.533 87.6533 181.3 87.89 181.006 88.07C180.713 88.2433 180.38 88.33 180.006 88.33ZM180.006 87.32C180.206 87.32 180.373 87.2767 180.506 87.19C180.64 87.0967 180.74 86.98 180.806 86.84C180.88 86.6933 180.916 86.54 180.916 86.38C180.916 86.2133 180.88 86.06 180.806 85.92C180.74 85.78 180.64 85.6633 180.506 85.57C180.373 85.4767 180.206 85.43 180.006 85.43C179.82 85.43 179.656 85.4767 179.516 85.57C179.383 85.6633 179.28 85.7833 179.206 85.93C179.133 86.07 179.096 86.22 179.096 86.38C179.096 86.5333 179.133 86.6833 179.206 86.83C179.28 86.9767 179.383 87.0967 179.516 87.19C179.656 87.2767 179.82 87.32 180.006 87.32ZM185.086 92.12C184.72 92.12 184.386 92.0333 184.086 91.86C183.793 91.68 183.56 91.4433 183.386 91.15C183.213 90.8567 183.126 90.53 183.126 90.17C183.126 89.81 183.213 89.4833 183.386 89.19C183.56 88.89 183.793 88.6533 184.086 88.48C184.386 88.3067 184.72 88.22 185.086 88.22C185.46 88.22 185.793 88.3067 186.086 88.48C186.38 88.6533 186.613 88.89 186.786 89.19C186.96 89.4833 187.046 89.81 187.046 90.17C187.046 90.53 186.96 90.8567 186.786 91.15C186.613 91.4433 186.38 91.68 186.086 91.86C185.793 92.0333 185.46 92.12 185.086 92.12ZM185.086 91.11C185.28 91.11 185.443 91.0667 185.576 90.98C185.716 90.8867 185.82 90.77 185.886 90.63C185.96 90.4833 185.996 90.33 185.996 90.17C185.996 90.0033 185.96 89.85 185.886 89.71C185.82 89.57 185.716 89.4533 185.576 89.36C185.443 89.2667 185.28 89.22 185.086 89.22C184.9 89.22 184.736 89.2667 184.596 89.36C184.463 89.4533 184.36 89.5733 184.286 89.72C184.213 89.86 184.176 90.01 184.176 90.17C184.176 90.3233 184.213 90.4733 184.286 90.62C184.36 90.7667 184.463 90.8867 184.596 90.98C184.736 91.0667 184.9 91.11 185.086 91.11ZM188.145 93.7C188.619 92.9867 188.972 92.2467 189.205 91.48C189.445 90.7133 189.565 89.9267 189.565 89.12C189.565 88.3133 189.445 87.53 189.205 86.77C188.972 86.0033 188.619 85.2633 188.145 84.55H189.245C189.805 85.1967 190.225 85.9033 190.505 86.67C190.785 87.4367 190.925 88.2533 190.925 89.12C190.925 89.9867 190.785 90.8033 190.505 91.57C190.225 92.3367 189.805 93.0467 189.245 93.7H188.145Z" fill="white" fill-opacity="0.8"/>
<rect x="128" y="68" width="101" height="4" rx="2" fill="#E3E7ED" fill-opacity="0.3"/>
<g filter="url(#filter1_bd_6653_26937)">
<rect x="128" y="68" width="84" height="4" rx="2" fill="url(#paint3_linear_6653_26937)" shape-rendering="crispEdges"/>
<rect x="128.5" y="68.5" width="83" height="3" rx="1.5" stroke="url(#paint4_linear_6653_26937)" shape-rendering="crispEdges"/>
</g>
<g filter="url(#filter2_bd_6653_26937)">
<path d="M106.564 57.2161C105.07 52.1528 100.847 47.9295 95.7837 46.4361C91.9337 45.3161 89.2737 45.4095 87.4304 46.7861C85.2137 48.4428 84.957 51.4295 84.957 53.5528V59.3628C84.957 65.1028 87.5704 68.0195 92.7037 68.0195H99.4004C101.5 68.0195 104.51 67.7628 106.167 65.5461C107.59 63.7261 107.707 61.0661 106.564 57.2161Z" fill="#FAAA51" fill-opacity="0.8" shape-rendering="crispEdges"/>
<path d="M106.084 57.3585L106.084 57.3576C104.639 52.4573 100.543 48.3615 95.6431 46.9159C91.8315 45.8073 89.3761 45.9571 87.7297 47.1866L106.084 57.3585ZM106.084 57.3585C107.216 61.1681 107.041 63.6172 105.773 65.2381L105.773 65.238M106.084 57.3585L105.773 65.238M105.773 65.238L105.767 65.2468M105.773 65.238L105.767 65.2468M105.767 65.2468C105.024 66.2401 103.968 66.8106 102.815 67.1325C101.659 67.4554 100.435 67.5195 99.4004 67.5195H92.7037C90.2316 67.5195 88.4504 66.8199 87.2779 65.5101C86.0963 64.1901 85.457 62.1665 85.457 59.3628V53.5528C85.457 51.418 85.7312 48.6803 87.7296 47.1867L105.767 65.2468Z" stroke="url(#paint5_linear_6653_26937)" shape-rendering="crispEdges"/>
</g>
<g filter="url(#filter3_bd_6653_26937)">
<path d="M100.123 72.1722C99.5159 71.4722 98.6293 71.0756 97.7193 71.0756H89.3659C85.2593 71.0756 81.9226 67.7389 81.9226 63.6322V55.2789C81.9226 54.3689 81.5259 53.4822 80.8259 52.8756C80.1493 52.2689 79.2159 51.9889 78.3293 52.1056C72.8459 52.8056 67.8059 55.8156 64.5159 60.3422C61.2026 64.8922 59.9893 70.4456 61.0393 75.9989C62.5559 84.0256 68.9726 90.4422 77.0226 91.9589C78.3059 92.2156 79.5893 92.3322 80.8726 92.3322C85.0959 92.3322 89.1793 91.0256 92.6559 88.4822C97.1826 85.1922 100.193 80.1522 100.893 74.6689C101.009 73.7589 100.729 72.8489 100.123 72.1722Z" fill="url(#paint6_linear_6653_26937)" shape-rendering="crispEdges"/>
<path d="M99.7448 72.4997L99.7447 72.4997L99.7503 72.506C100.259 73.073 100.495 73.8374 100.397 74.6053L100.397 74.6056C99.7144 79.9499 96.7791 84.8674 92.362 88.0778L92.3607 88.0787C88.9706 90.5587 84.9909 91.8322 80.8726 91.8322C79.6198 91.8322 78.3694 91.7184 77.1207 91.4686L77.1207 91.4686L77.1152 91.4675C69.2672 89.9889 63.009 83.7303 61.5306 75.9061L61.5306 75.906C60.5057 70.4856 61.6896 65.0729 64.9201 60.6366L64.9204 60.6362C68.1308 56.2191 73.0483 53.2838 78.3926 52.6015L78.3945 52.6013C79.1387 52.5034 79.9257 52.74 80.4922 53.2478L80.4921 53.2479L80.4985 53.2534C81.0876 53.764 81.4226 54.5122 81.4226 55.2789V63.6322C81.4226 68.015 84.9831 71.5756 89.3659 71.5756H97.7193C98.4859 71.5756 99.2342 71.9105 99.7448 72.4997Z" stroke="url(#paint7_linear_6653_26937)" shape-rendering="crispEdges"/>
</g>
<defs>
<filter id="filter0_bd_6653_26937" x="0" y="0" width="291" height="162" filterUnits="userSpaceOnUse" color-interpolation-filters="sRGB">
<feFlood flood-opacity="0" result="BackgroundImageFix"/>
<feGaussianBlur in="BackgroundImageFix" stdDeviation="7"/>
<feComposite in2="SourceAlpha" operator="in" result="effect1_backgroundBlur_6653_26937"/>
<feColorMatrix in="SourceAlpha" type="matrix" values="0 0 0 0 0 0 0 0 0 0 0 0 0 0 0 0 0 0 127 0" result="hardAlpha"/>
<feOffset dy="12"/>
<feGaussianBlur stdDeviation="18"/>
<feComposite in2="hardAlpha" operator="out"/>
<feColorMatrix type="matrix" values="0 0 0 0 0.0741111 0 0 0 0 0.0853889 0 0 0 0 0.0966667 0 0 0 0.35 0"/>
<feBlend mode="normal" in2="effect1_backgroundBlur_6653_26937" result="effect2_dropShadow_6653_26937"/>
<feBlend mode="normal" in="SourceGraphic" in2="effect2_dropShadow_6653_26937" result="shape"/>
</filter>
<filter id="filter1_bd_6653_26937" x="92" y="44" width="156" height="76" filterUnits="userSpaceOnUse" color-interpolation-filters="sRGB">
<feFlood flood-opacity="0" result="BackgroundImageFix"/>
<feGaussianBlur in="BackgroundImageFix" stdDeviation="7"/>
<feComposite in2="SourceAlpha" operator="in" result="effect1_backgroundBlur_6653_26937"/>
<feColorMatrix in="SourceAlpha" type="matrix" values="0 0 0 0 0 0 0 0 0 0 0 0 0 0 0 0 0 0 127 0" result="hardAlpha"/>
<feOffset dy="12"/>
<feGaussianBlur stdDeviation="18"/>
<feComposite in2="hardAlpha" operator="out"/>
<feColorMatrix type="matrix" values="0 0 0 0 0.525833 0 0 0 0 0.525833 0 0 0 0 0.525833 0 0 0 0.25 0"/>
<feBlend mode="normal" in2="effect1_backgroundBlur_6653_26937" result="effect2_dropShadow_6653_26937"/>
<feBlend mode="normal" in="SourceGraphic" in2="effect2_dropShadow_6653_26937" result="shape"/>
</filter>
<filter id="filter2_bd_6653_26937" x="48.957" y="21.6675" width="94.3789" height="94.3521" filterUnits="userSpaceOnUse" color-interpolation-filters="sRGB">
<feFlood flood-opacity="0" result="BackgroundImageFix"/>
<feGaussianBlur in="BackgroundImageFix" stdDeviation="7"/>
<feComposite in2="SourceAlpha" operator="in" result="effect1_backgroundBlur_6653_26937"/>
<feColorMatrix in="SourceAlpha" type="matrix" values="0 0 0 0 0 0 0 0 0 0 0 0 0 0 0 0 0 0 127 0" result="hardAlpha"/>
<feOffset dy="12"/>
<feGaussianBlur stdDeviation="18"/>
<feComposite in2="hardAlpha" operator="out"/>
<feColorMatrix type="matrix" values="0 0 0 0 0.525833 0 0 0 0 0.525833 0 0 0 0 0.525833 0 0 0 0.25 0"/>
<feBlend mode="normal" in2="effect1_backgroundBlur_6653_26937" result="effect2_dropShadow_6653_26937"/>
<feBlend mode="normal" in="SourceGraphic" in2="effect2_dropShadow_6653_26937" result="shape"/>
</filter>
<filter id="filter3_bd_6653_26937" x="24.6719" y="28.0796" width="112.246" height="112.253" filterUnits="userSpaceOnUse" color-interpolation-filters="sRGB">
<feFlood flood-opacity="0" result="BackgroundImageFix"/>
<feGaussianBlur in="BackgroundImageFix" stdDeviation="7"/>
<feComposite in2="SourceAlpha" operator="in" result="effect1_backgroundBlur_6653_26937"/>
<feColorMatrix in="SourceAlpha" type="matrix" values="0 0 0 0 0 0 0 0 0 0 0 0 0 0 0 0 0 0 127 0" result="hardAlpha"/>
<feOffset dy="12"/>
<feGaussianBlur stdDeviation="18"/>
<feComposite in2="hardAlpha" operator="out"/>
<feColorMatrix type="matrix" values="0 0 0 0 0.525833 0 0 0 0 0.525833 0 0 0 0 0.525833 0 0 0 0.25 0"/>
<feBlend mode="normal" in2="effect1_backgroundBlur_6653_26937" result="effect2_dropShadow_6653_26937"/>
<feBlend mode="normal" in="SourceGraphic" in2="effect2_dropShadow_6653_26937" result="shape"/>
</filter>
<linearGradient id="paint0_linear_6653_26937" x1="42.1298" y1="24" x2="77.4923" y2="162.148" gradientUnits="userSpaceOnUse">
<stop stop-color="white" stop-opacity="0.6"/>
<stop offset="0.0001" stop-color="white" stop-opacity="0.5"/>
<stop offset="1" stop-color="white" stop-opacity="0"/>
</linearGradient>
<linearGradient id="paint1_linear_6653_26937" x1="266.424" y1="115.521" x2="229.622" y2="-26.2583" gradientUnits="userSpaceOnUse">
<stop stop-color="white" stop-opacity="0.5"/>
<stop offset="1" stop-color="white" stop-opacity="0"/>
</linearGradient>
<linearGradient id="paint2_linear_6653_26937" x1="119.415" y1="48.5" x2="223.159" y2="98.5823" gradientUnits="userSpaceOnUse">
<stop offset="0.202647" stop-color="white"/>
<stop offset="1" stop-color="#F79023"/>
</linearGradient>
<linearGradient id="paint3_linear_6653_26937" x1="130.351" y1="68" x2="130.545" y2="74.5365" gradientUnits="userSpaceOnUse">
<stop stop-color="#F9911F"/>
<stop offset="0.0001" stop-color="white" stop-opacity="0.5"/>
<stop offset="1" stop-color="#F9911F"/>
</linearGradient>
<linearGradient id="paint4_linear_6653_26937" x1="216.382" y1="72.0676" x2="216.18" y2="65.3478" gradientUnits="userSpaceOnUse">
<stop stop-color="white" stop-opacity="0.5"/>
<stop offset="1" stop-color="white" stop-opacity="0"/>
</linearGradient>
<linearGradient id="paint5_linear_6653_26937" x1="108.505" y1="68.3972" x2="91.5451" y2="41.5116" gradientUnits="userSpaceOnUse">
<stop stop-color="white" stop-opacity="0.5"/>
<stop offset="1" stop-color="white" stop-opacity="0"/>
</linearGradient>
<linearGradient id="paint6_linear_6653_26937" x1="61.7984" y1="52.0796" x2="91.345" y2="99.5084" gradientUnits="userSpaceOnUse">
<stop stop-color="white" stop-opacity="0.6"/>
<stop offset="0.0001" stop-color="white" stop-opacity="0.5"/>
<stop offset="1" stop-color="white" stop-opacity="0"/>
</linearGradient>
<linearGradient id="paint7_linear_6653_26937" x1="103.018" y1="93.0124" x2="72.4572" y2="44.6347" gradientUnits="userSpaceOnUse">
<stop stop-color="white" stop-opacity="0.5"/>
<stop offset="1" stop-color="white" stop-opacity="0"/>
</linearGradient>
</defs>
</svg>
