<svg width="20" height="20" viewBox="0 0 20 20" fill="none" xmlns="http://www.w3.org/2000/svg">
<g id="vuesax/linear/activity">
<g id="activity">
<g id="Vector">
<path d="M7.49984 18.3337H12.4998C16.6665 18.3337 18.3332 16.667 18.3332 12.5003V7.50032C18.3332 3.33366 16.6665 1.66699 12.4998 1.66699H7.49984C3.33317 1.66699 1.6665 3.33366 1.6665 7.50032V12.5003C1.6665 16.667 3.33317 18.3337 7.49984 18.3337Z" stroke="#F9911F" stroke-width="1.5" stroke-linecap="round" stroke-linejoin="round"/>
<path d="M7.49984 18.3337H12.4998C16.6665 18.3337 18.3332 16.667 18.3332 12.5003V7.50032C18.3332 3.33366 16.6665 1.66699 12.4998 1.66699H7.49984C3.33317 1.66699 1.6665 3.33366 1.6665 7.50032V12.5003C1.6665 16.667 3.33317 18.3337 7.49984 18.3337Z" stroke="#F9911F" stroke-width="1.5" stroke-linecap="round" stroke-linejoin="round"/>
</g>
<g id="Vector_2">
<path d="M6.1084 12.0748L8.09173 9.4998C8.37506 9.13314 8.90006 9.06647 9.26673 9.3498L10.7917 10.5498C11.1584 10.8331 11.6834 10.7665 11.9667 10.4081L13.8917 7.9248" stroke="#F9911F" stroke-width="1.5" stroke-linecap="round" stroke-linejoin="round"/>
<path d="M6.1084 12.0748L8.09173 9.4998C8.37506 9.13314 8.90006 9.06647 9.26673 9.3498L10.7917 10.5498C11.1584 10.8331 11.6834 10.7665 11.9667 10.4081L13.8917 7.9248" stroke="#F9911F" stroke-width="1.5" stroke-linecap="round" stroke-linejoin="round"/>
</g>
</g>
</g>
</svg>
