<svg width="20" height="20" viewBox="0 0 20 20" fill="none" xmlns="http://www.w3.org/2000/svg">
<g id="vuesax/linear/category">
<g id="category">
<g id="Vector">
<path d="M4.1665 8.33366H5.83317C7.49984 8.33366 8.33317 7.50033 8.33317 5.83366V4.16699C8.33317 2.50033 7.49984 1.66699 5.83317 1.66699H4.1665C2.49984 1.66699 1.6665 2.50033 1.6665 4.16699V5.83366C1.6665 7.50033 2.49984 8.33366 4.1665 8.33366Z" stroke="#B3B3B3" stroke-width="1.5" stroke-miterlimit="10" stroke-linecap="round" stroke-linejoin="round"/>
<path d="M4.1665 8.33366H5.83317C7.49984 8.33366 8.33317 7.50033 8.33317 5.83366V4.16699C8.33317 2.50033 7.49984 1.66699 5.83317 1.66699H4.1665C2.49984 1.66699 1.6665 2.50033 1.6665 4.16699V5.83366C1.6665 7.50033 2.49984 8.33366 4.1665 8.33366Z" stroke="#F9911F" stroke-width="1.5" stroke-miterlimit="10" stroke-linecap="round" stroke-linejoin="round"/>
</g>
<g id="Vector_2">
<path d="M14.1665 8.33366H15.8332C17.4998 8.33366 18.3332 7.50033 18.3332 5.83366V4.16699C18.3332 2.50033 17.4998 1.66699 15.8332 1.66699H14.1665C12.4998 1.66699 11.6665 2.50033 11.6665 4.16699V5.83366C11.6665 7.50033 12.4998 8.33366 14.1665 8.33366Z" stroke="#B3B3B3" stroke-width="1.5" stroke-miterlimit="10" stroke-linecap="round" stroke-linejoin="round"/>
<path d="M14.1665 8.33366H15.8332C17.4998 8.33366 18.3332 7.50033 18.3332 5.83366V4.16699C18.3332 2.50033 17.4998 1.66699 15.8332 1.66699H14.1665C12.4998 1.66699 11.6665 2.50033 11.6665 4.16699V5.83366C11.6665 7.50033 12.4998 8.33366 14.1665 8.33366Z" stroke="#F9911F" stroke-width="1.5" stroke-miterlimit="10" stroke-linecap="round" stroke-linejoin="round"/>
</g>
<g id="Vector_3">
<path d="M14.1665 18.3337H15.8332C17.4998 18.3337 18.3332 17.5003 18.3332 15.8337V14.167C18.3332 12.5003 17.4998 11.667 15.8332 11.667H14.1665C12.4998 11.667 11.6665 12.5003 11.6665 14.167V15.8337C11.6665 17.5003 12.4998 18.3337 14.1665 18.3337Z" stroke="#B3B3B3" stroke-width="1.5" stroke-miterlimit="10" stroke-linecap="round" stroke-linejoin="round"/>
<path d="M14.1665 18.3337H15.8332C17.4998 18.3337 18.3332 17.5003 18.3332 15.8337V14.167C18.3332 12.5003 17.4998 11.667 15.8332 11.667H14.1665C12.4998 11.667 11.6665 12.5003 11.6665 14.167V15.8337C11.6665 17.5003 12.4998 18.3337 14.1665 18.3337Z" stroke="#F9911F" stroke-width="1.5" stroke-miterlimit="10" stroke-linecap="round" stroke-linejoin="round"/>
</g>
<g id="Vector_4">
<path d="M4.1665 18.3337H5.83317C7.49984 18.3337 8.33317 17.5003 8.33317 15.8337V14.167C8.33317 12.5003 7.49984 11.667 5.83317 11.667H4.1665C2.49984 11.667 1.6665 12.5003 1.6665 14.167V15.8337C1.6665 17.5003 2.49984 18.3337 4.1665 18.3337Z" stroke="#B3B3B3" stroke-width="1.5" stroke-miterlimit="10" stroke-linecap="round" stroke-linejoin="round"/>
<path d="M4.1665 18.3337H5.83317C7.49984 18.3337 8.33317 17.5003 8.33317 15.8337V14.167C8.33317 12.5003 7.49984 11.667 5.83317 11.667H4.1665C2.49984 11.667 1.6665 12.5003 1.6665 14.167V15.8337C1.6665 17.5003 2.49984 18.3337 4.1665 18.3337Z" stroke="#F9911F" stroke-width="1.5" stroke-miterlimit="10" stroke-linecap="round" stroke-linejoin="round"/>
</g>
</g>
</g>
</svg>
