<svg width="30" height="30" viewBox="0 0 30 30" fill="none" xmlns="http://www.w3.org/2000/svg">
<g id="Group 17">
<circle id="Ellipse 6" cx="15" cy="15" r="15" fill="#E97B19"/>
<path id="Vector" d="M14.9976 12.5981C13.345 12.5981 11.9964 14.0028 11.9964 15.7241C11.9964 17.4454 13.345 18.8501 14.9976 18.8501C16.6502 18.8501 17.9988 17.4454 17.9988 15.7241C17.9988 14.0028 16.6502 12.5981 14.9976 12.5981ZM23.999 15.7241C23.999 14.4296 24.0103 13.1469 23.9405 11.8548C23.8707 10.3539 23.5419 9.02193 22.4883 7.92445C21.4323 6.82462 20.1557 6.48459 18.7148 6.41189C17.472 6.33919 16.2404 6.35092 14.9998 6.35092C13.757 6.35092 12.5255 6.33919 11.2849 6.41189C9.84395 6.48459 8.5651 6.82696 7.51141 7.92445C6.45547 9.02428 6.129 10.3539 6.05921 11.8548C5.98941 13.1492 6.00067 14.432 6.00067 15.7241C6.00067 17.0162 5.98941 18.3013 6.05921 19.5934C6.129 21.0943 6.45772 22.4263 7.51141 23.5237C8.56736 24.6236 9.84395 24.9636 11.2849 25.0363C12.5277 25.109 13.7593 25.0973 14.9998 25.0973C16.2426 25.0973 17.4742 25.109 18.7148 25.0363C20.1557 24.9636 21.4346 24.6212 22.4883 23.5237C23.5442 22.4239 23.8707 21.0943 23.9405 19.5934C24.0125 18.3013 23.999 17.0186 23.999 15.7241ZM14.9976 20.5338C12.4422 20.5338 10.3798 18.3857 10.3798 15.7241C10.3798 13.0625 12.4422 10.9144 14.9976 10.9144C17.553 10.9144 19.6154 13.0625 19.6154 15.7241C19.6154 18.3857 17.553 20.5338 14.9976 20.5338ZM19.8045 11.8407C19.2078 11.8407 18.726 11.3388 18.726 10.7174C18.726 10.096 19.2078 9.59413 19.8045 9.59413C20.4011 9.59413 20.8829 10.096 20.8829 10.7174C20.8831 10.865 20.8554 11.0111 20.8012 11.1475C20.7471 11.2839 20.6677 11.4078 20.5675 11.5121C20.4673 11.6164 20.3483 11.6992 20.2174 11.7556C20.0865 11.8119 19.9462 11.8409 19.8045 11.8407Z" fill="white"/>
</g>
</svg>
