<svg width="18" height="18" viewBox="0 0 18 18" fill="none" xmlns="http://www.w3.org/2000/svg">
<g id="streamline:web-solid" clip-path="url(#clip0_16_435)">
<path id="Vector" fill-rule="evenodd" clip-rule="evenodd" d="M6.49158 0.354847C4.75167 0.860946 3.20484 1.88003 2.05316 3.27898C0.901478 4.67792 0.198484 6.39169 0.0360107 8.19642H4.1503C4.38881 5.4502 5.18504 2.78151 6.4903 0.353561L6.49158 0.354847ZM4.1503 9.80356H0.0360107C0.198145 11.6084 0.900838 13.3223 2.05229 14.7215C3.20375 16.1206 4.75043 17.14 6.4903 17.6464C5.18504 15.2185 4.38881 12.5498 4.1503 9.80356ZM8.55258 17.9897C6.99275 15.5179 6.03695 12.7135 5.76258 9.80356H12.2362C11.9618 12.7135 11.006 15.5179 9.44615 17.9897C9.14847 18.0042 8.85026 18.0042 8.55258 17.9897ZM11.5097 17.6451C13.2494 17.1388 14.7959 16.1196 15.9474 14.7207C17.0988 13.3218 17.8016 11.6081 17.964 9.80356H13.8497C13.6112 12.5498 12.815 15.2185 11.5097 17.6464V17.6451ZM13.8497 8.19642H17.964C17.8019 6.39163 17.0992 4.67769 15.9477 3.27851C14.7963 1.87933 13.2496 0.85996 11.5097 0.353561C12.815 2.78149 13.6112 5.45019 13.8497 8.19642ZM8.55258 0.0102757C8.85069 -0.0043204 9.14933 -0.0043204 9.44744 0.0102757C11.0068 2.4822 11.9622 5.2866 12.2362 8.19642H5.76387C6.04287 5.26885 7.00072 2.46213 8.55258 0.0102757Z" fill="#E97B19"/>
</g>
<defs>
<clipPath id="clip0_16_435">
<rect width="18" height="18" fill="white"/>
</clipPath>
</defs>
</svg>
