<svg width="262" height="162" viewBox="0 0 262 162" fill="none" xmlns="http://www.w3.org/2000/svg">
<g filter="url(#filter0_bd_6101_5437)">
<rect x="36" y="24" width="190" height="90" rx="16" fill="url(#paint0_linear_6101_5437)" fill-opacity="0.3" shape-rendering="crispEdges"/>
<rect x="36.5" y="24.5" width="189" height="89" rx="15.5" stroke="url(#paint1_linear_6101_5437)" shape-rendering="crispEdges"/>
</g>
<path d="M124.766 48.6378C124.728 48.3016 124.571 48.0412 124.297 47.8565C124.022 47.6695 123.677 47.576 123.26 47.576C122.962 47.576 122.704 47.6233 122.486 47.718C122.268 47.8104 122.099 47.9382 121.978 48.1016C121.86 48.2625 121.8 48.446 121.8 48.652C121.8 48.8248 121.841 48.974 121.921 49.0994C122.004 49.2249 122.112 49.3303 122.244 49.4155C122.379 49.4983 122.524 49.5682 122.678 49.625C122.831 49.6795 122.979 49.7244 123.121 49.7599L123.832 49.9446C124.064 50.0014 124.302 50.0784 124.545 50.1754C124.789 50.2725 125.015 50.4003 125.224 50.5589C125.432 50.7176 125.6 50.9141 125.728 51.1484C125.858 51.3828 125.923 51.6634 125.923 51.9901C125.923 52.402 125.817 52.7678 125.604 53.0874C125.393 53.407 125.086 53.6591 124.684 53.8438C124.284 54.0284 123.8 54.1207 123.232 54.1207C122.687 54.1207 122.216 54.0343 121.818 53.8615C121.42 53.6887 121.109 53.4437 120.884 53.1264C120.659 52.8068 120.535 52.428 120.511 51.9901H121.612C121.634 52.2528 121.719 52.4718 121.868 52.647C122.019 52.8198 122.212 52.9489 122.447 53.0341C122.683 53.117 122.943 53.1584 123.224 53.1584C123.535 53.1584 123.81 53.1098 124.052 53.0128C124.296 52.9134 124.487 52.776 124.627 52.6009C124.767 52.4233 124.837 52.2161 124.837 51.9794C124.837 51.764 124.775 51.5876 124.652 51.4503C124.531 51.313 124.367 51.1993 124.158 51.1094C123.952 51.0194 123.719 50.9401 123.459 50.8714L122.599 50.6371C122.017 50.4785 121.555 50.2453 121.214 49.9375C120.876 49.6297 120.707 49.2225 120.707 48.7159C120.707 48.2969 120.82 47.9311 121.048 47.6186C121.275 47.3061 121.583 47.0634 121.971 46.8906C122.359 46.7154 122.797 46.6278 123.285 46.6278C123.777 46.6278 124.212 46.7143 124.588 46.8871C124.967 47.0599 125.265 47.2978 125.483 47.6009C125.701 47.9015 125.814 48.2472 125.824 48.6378H124.766ZM129.137 54.1207C128.791 54.1207 128.479 54.0568 128.199 53.929C127.92 53.7988 127.698 53.6106 127.535 53.3643C127.374 53.1181 127.294 52.8163 127.294 52.4588C127.294 52.151 127.353 51.8977 127.471 51.6989C127.59 51.5 127.749 51.3426 127.951 51.2266C128.152 51.1106 128.377 51.023 128.625 50.9638C128.874 50.9046 129.127 50.8596 129.385 50.8288C129.712 50.791 129.977 50.7602 130.181 50.7365C130.384 50.7105 130.532 50.669 130.625 50.6122C130.717 50.5554 130.763 50.4631 130.763 50.3352V50.3104C130.763 50.0002 130.676 49.7599 130.5 49.5895C130.327 49.419 130.069 49.3338 129.726 49.3338C129.369 49.3338 129.087 49.4131 128.881 49.5717C128.677 49.728 128.537 49.902 128.458 50.0938L127.461 49.8665C127.579 49.535 127.752 49.2675 127.979 49.0639C128.209 48.858 128.473 48.7088 128.771 48.6165C129.069 48.5218 129.383 48.4744 129.712 48.4744C129.93 48.4744 130.161 48.5005 130.404 48.5526C130.651 48.6023 130.88 48.6946 131.093 48.8295C131.309 48.9645 131.485 49.1574 131.622 49.4084C131.76 49.657 131.828 49.9801 131.828 50.3778V54H130.792V53.2543H130.749C130.68 53.3916 130.577 53.5265 130.44 53.6591C130.303 53.7917 130.126 53.9018 129.911 53.9893C129.695 54.0769 129.437 54.1207 129.137 54.1207ZM129.368 53.2685C129.661 53.2685 129.912 53.2105 130.12 53.0945C130.331 52.9785 130.491 52.8269 130.6 52.6399C130.711 52.4505 130.767 52.2481 130.767 52.0327V51.3295C130.729 51.3674 130.655 51.4029 130.546 51.4361C130.44 51.4669 130.318 51.4941 130.181 51.5178C130.043 51.5391 129.91 51.5592 129.779 51.5781C129.649 51.5947 129.54 51.6089 129.453 51.6207C129.247 51.6468 129.059 51.6906 128.888 51.7521C128.72 51.8137 128.585 51.9025 128.483 52.0185C128.384 52.1321 128.334 52.2836 128.334 52.473C128.334 52.7358 128.431 52.9347 128.625 53.0696C128.819 53.2022 129.067 53.2685 129.368 53.2685ZM135.23 54.1207C134.884 54.1207 134.572 54.0568 134.293 53.929C134.013 53.7988 133.792 53.6106 133.628 53.3643C133.467 53.1181 133.387 52.8163 133.387 52.4588C133.387 52.151 133.446 51.8977 133.565 51.6989C133.683 51.5 133.843 51.3426 134.044 51.2266C134.245 51.1106 134.47 51.023 134.719 50.9638C134.967 50.9046 135.221 50.8596 135.479 50.8288C135.805 50.791 136.07 50.7602 136.274 50.7365C136.478 50.7105 136.626 50.669 136.718 50.6122C136.81 50.5554 136.856 50.4631 136.856 50.3352V50.3104C136.856 50.0002 136.769 49.7599 136.594 49.5895C136.421 49.419 136.163 49.3338 135.82 49.3338C135.462 49.3338 135.18 49.4131 134.974 49.5717C134.771 49.728 134.63 49.902 134.552 50.0938L133.554 49.8665C133.672 49.535 133.845 49.2675 134.072 49.0639C134.302 48.858 134.566 48.7088 134.864 48.6165C135.163 48.5218 135.476 48.4744 135.805 48.4744C136.023 48.4744 136.254 48.5005 136.498 48.5526C136.744 48.6023 136.974 48.6946 137.187 48.8295C137.402 48.9645 137.579 49.1574 137.716 49.4084C137.853 49.657 137.922 49.9801 137.922 50.3778V54H136.885V53.2543H136.842C136.774 53.3916 136.671 53.5265 136.533 53.6591C136.396 53.7917 136.22 53.9018 136.004 53.9893C135.789 54.0769 135.531 54.1207 135.23 54.1207ZM135.461 53.2685C135.754 53.2685 136.005 53.2105 136.214 53.0945C136.424 52.9785 136.584 52.8269 136.693 52.6399C136.804 52.4505 136.86 52.2481 136.86 52.0327V51.3295C136.822 51.3674 136.749 51.4029 136.64 51.4361C136.533 51.4669 136.411 51.4941 136.274 51.5178C136.137 51.5391 136.003 51.5592 135.873 51.5781C135.743 51.5947 135.634 51.6089 135.546 51.6207C135.34 51.6468 135.152 51.6906 134.981 51.7521C134.813 51.8137 134.678 51.9025 134.577 52.0185C134.477 52.1321 134.427 52.2836 134.427 52.473C134.427 52.7358 134.525 52.9347 134.719 53.0696C134.913 53.2022 135.16 53.2685 135.461 53.2685ZM143.788 48.6378C143.75 48.3016 143.594 48.0412 143.319 47.8565C143.045 47.6695 142.699 47.576 142.282 47.576C141.984 47.576 141.726 47.6233 141.508 47.718C141.29 47.8104 141.121 47.9382 141 48.1016C140.882 48.2625 140.823 48.446 140.823 48.652C140.823 48.8248 140.863 48.974 140.943 49.0994C141.026 49.2249 141.134 49.3303 141.267 49.4155C141.402 49.4983 141.546 49.5682 141.7 49.625C141.854 49.6795 142.002 49.7244 142.144 49.7599L142.854 49.9446C143.086 50.0014 143.324 50.0784 143.568 50.1754C143.812 50.2725 144.038 50.4003 144.246 50.5589C144.454 50.7176 144.622 50.9141 144.75 51.1484C144.88 51.3828 144.946 51.6634 144.946 51.9901C144.946 52.402 144.839 52.7678 144.626 53.0874C144.415 53.407 144.109 53.6591 143.706 53.8438C143.306 54.0284 142.822 54.1207 142.254 54.1207C141.709 54.1207 141.238 54.0343 140.84 53.8615C140.443 53.6887 140.131 53.4437 139.906 53.1264C139.682 52.8068 139.557 52.428 139.534 51.9901H140.634C140.656 52.2528 140.741 52.4718 140.89 52.647C141.042 52.8198 141.235 52.9489 141.469 53.0341C141.706 53.117 141.965 53.1584 142.247 53.1584C142.557 53.1584 142.833 53.1098 143.074 53.0128C143.318 52.9134 143.51 52.776 143.649 52.6009C143.789 52.4233 143.859 52.2161 143.859 51.9794C143.859 51.764 143.797 51.5876 143.674 51.4503C143.554 51.313 143.389 51.1993 143.181 51.1094C142.975 51.0194 142.741 50.9401 142.481 50.8714L141.622 50.6371C141.039 50.4785 140.578 50.2453 140.237 49.9375C139.898 49.6297 139.729 49.2225 139.729 48.7159C139.729 48.2969 139.843 47.9311 140.07 47.6186C140.297 47.3061 140.605 47.0634 140.993 46.8906C141.381 46.7154 141.819 46.6278 142.307 46.6278C142.799 46.6278 143.234 46.7143 143.61 46.8871C143.989 47.0599 144.287 47.2978 144.505 47.6009C144.723 47.9015 144.837 48.2472 144.846 48.6378H143.788ZM149.703 46.7273H151.035L153.35 52.3807H153.436L155.751 46.7273H157.083V54H156.039V48.7372H155.971L153.826 53.9893H152.96L150.815 48.7337H150.747V54H149.703V46.7273ZM160.58 54.1207C160.234 54.1207 159.922 54.0568 159.643 53.929C159.363 53.7988 159.142 53.6106 158.978 53.3643C158.817 53.1181 158.737 52.8163 158.737 52.4588C158.737 52.151 158.796 51.8977 158.915 51.6989C159.033 51.5 159.193 51.3426 159.394 51.2266C159.595 51.1106 159.82 51.023 160.069 50.9638C160.317 50.9046 160.571 50.8596 160.829 50.8288C161.155 50.791 161.42 50.7602 161.624 50.7365C161.828 50.7105 161.976 50.669 162.068 50.6122C162.16 50.5554 162.206 50.4631 162.206 50.3352V50.3104C162.206 50.0002 162.119 49.7599 161.944 49.5895C161.771 49.419 161.513 49.3338 161.17 49.3338C160.812 49.3338 160.53 49.4131 160.324 49.5717C160.121 49.728 159.98 49.902 159.902 50.0938L158.904 49.8665C159.022 49.535 159.195 49.2675 159.422 49.0639C159.652 48.858 159.916 48.7088 160.214 48.6165C160.513 48.5218 160.826 48.4744 161.155 48.4744C161.373 48.4744 161.604 48.5005 161.848 48.5526C162.094 48.6023 162.324 48.6946 162.537 48.8295C162.752 48.9645 162.929 49.1574 163.066 49.4084C163.203 49.657 163.272 49.9801 163.272 50.3778V54H162.235V53.2543H162.192C162.124 53.3916 162.021 53.5265 161.883 53.6591C161.746 53.7917 161.57 53.9018 161.354 53.9893C161.139 54.0769 160.881 54.1207 160.58 54.1207ZM160.811 53.2685C161.104 53.2685 161.355 53.2105 161.564 53.0945C161.774 52.9785 161.934 52.8269 162.043 52.6399C162.154 52.4505 162.21 52.2481 162.21 52.0327V51.3295C162.172 51.3674 162.099 51.4029 161.99 51.4361C161.883 51.4669 161.761 51.4941 161.624 51.5178C161.487 51.5391 161.353 51.5592 161.223 51.5781C161.093 51.5947 160.984 51.6089 160.896 51.6207C160.69 51.6468 160.502 51.6906 160.331 51.7521C160.163 51.8137 160.028 51.9025 159.927 52.0185C159.827 52.1321 159.777 52.2836 159.777 52.473C159.777 52.7358 159.875 52.9347 160.069 53.0696C160.263 53.2022 160.51 53.2685 160.811 53.2685ZM165.086 54V48.5455H166.112V49.4119H166.169C166.269 49.1184 166.444 48.8875 166.695 48.7195C166.948 48.549 167.234 48.4638 167.554 48.4638C167.62 48.4638 167.698 48.4661 167.788 48.4709C167.881 48.4756 167.953 48.4815 168.005 48.4886V49.5043C167.962 49.4924 167.887 49.4794 167.778 49.4652C167.669 49.4486 167.56 49.4403 167.451 49.4403C167.2 49.4403 166.976 49.4936 166.78 49.6001C166.586 49.7043 166.432 49.8499 166.318 50.0369C166.205 50.2216 166.148 50.4323 166.148 50.669V54H165.086ZM170.3 52.1499L170.293 50.8537H170.478L172.651 48.5455H173.923L171.444 51.1733H171.277L170.3 52.1499ZM169.324 54V46.7273H170.386V54H169.324ZM172.769 54L170.815 51.4077L171.547 50.6655L174.072 54H172.769ZM177.417 54.1101C176.879 54.1101 176.416 53.9953 176.028 53.7656C175.642 53.5336 175.344 53.2081 175.133 52.7891C174.925 52.3677 174.821 51.8741 174.821 51.3082C174.821 50.7495 174.925 50.2571 175.133 49.831C175.344 49.4048 175.637 49.0722 176.014 48.8331C176.393 48.594 176.835 48.4744 177.342 48.4744C177.65 48.4744 177.948 48.5253 178.237 48.6271C178.526 48.7289 178.785 48.8887 179.015 49.1065C179.244 49.3243 179.425 49.6072 179.558 49.9553C179.69 50.3009 179.757 50.7211 179.757 51.2159V51.5923H175.421V50.7969H178.716C178.716 50.5175 178.659 50.2701 178.546 50.0547C178.432 49.8369 178.272 49.6652 178.066 49.5398C177.863 49.4143 177.624 49.3516 177.349 49.3516C177.051 49.3516 176.79 49.425 176.568 49.5717C176.348 49.7161 176.177 49.9055 176.056 50.1399C175.938 50.3719 175.879 50.6241 175.879 50.8963V51.5178C175.879 51.8823 175.943 52.1925 176.071 52.4482C176.201 52.7038 176.382 52.8991 176.614 53.0341C176.846 53.1667 177.117 53.233 177.427 53.233C177.628 53.233 177.812 53.2045 177.978 53.1477C178.143 53.0885 178.287 53.0009 178.407 52.8849C178.528 52.7689 178.62 52.6257 178.684 52.4553L179.689 52.6364C179.609 52.9323 179.464 53.1915 179.256 53.4141C179.05 53.6342 178.791 53.8059 178.478 53.929C178.168 54.0497 177.814 54.1101 177.417 54.1101ZM183.881 48.5455V49.3977H180.902V48.5455H183.881ZM181.701 47.2386H182.762V52.3984C182.762 52.6044 182.793 52.7595 182.855 52.8636C182.916 52.9654 182.996 53.0353 183.093 53.0732C183.192 53.1087 183.3 53.1264 183.416 53.1264C183.501 53.1264 183.576 53.1205 183.64 53.1087C183.703 53.0968 183.753 53.0874 183.789 53.0803L183.98 53.9574C183.919 53.9811 183.831 54.0047 183.718 54.0284C183.604 54.0545 183.462 54.0687 183.292 54.071C183.012 54.0758 182.752 54.026 182.51 53.9219C182.269 53.8177 182.074 53.6567 181.924 53.4389C181.775 53.2211 181.701 52.9477 181.701 52.6186V47.2386ZM185.456 54V48.5455H186.517V54H185.456ZM185.992 47.7038C185.807 47.7038 185.649 47.6423 185.516 47.5192C185.386 47.3937 185.321 47.2446 185.321 47.0717C185.321 46.8965 185.386 46.7474 185.516 46.6243C185.649 46.4988 185.807 46.4361 185.992 46.4361C186.176 46.4361 186.334 46.4988 186.464 46.6243C186.597 46.7474 186.663 46.8965 186.663 47.0717C186.663 47.2446 186.597 47.3937 186.464 47.5192C186.334 47.6423 186.176 47.7038 185.992 47.7038ZM189.408 50.7614V54H188.346V48.5455H189.365V49.4332H189.432C189.558 49.1444 189.754 48.9124 190.022 48.7372C190.292 48.562 190.632 48.4744 191.041 48.4744C191.413 48.4744 191.738 48.5526 192.018 48.7088C192.297 48.8627 192.514 49.0923 192.668 49.3977C192.821 49.7031 192.898 50.0807 192.898 50.5305V54H191.837V50.6584C191.837 50.263 191.734 49.9541 191.528 49.7315C191.322 49.5066 191.039 49.3942 190.679 49.3942C190.433 49.3942 190.214 49.4474 190.022 49.554C189.833 49.6605 189.682 49.8168 189.571 50.0227C189.462 50.2263 189.408 50.4725 189.408 50.7614ZM197.009 56.1591C196.576 56.1591 196.203 56.1023 195.891 55.9886C195.581 55.875 195.327 55.7247 195.131 55.5376C194.934 55.3506 194.787 55.1458 194.69 54.9233L195.603 54.5469C195.667 54.651 195.752 54.7611 195.859 54.8771C195.968 54.9955 196.114 55.0961 196.299 55.179C196.486 55.2618 196.726 55.3033 197.02 55.3033C197.422 55.3033 197.755 55.205 198.018 55.0085C198.281 54.8144 198.412 54.5043 198.412 54.0781V53.0057H198.345C198.281 53.1217 198.188 53.2507 198.068 53.3928C197.949 53.5348 197.786 53.6579 197.577 53.7621C197.369 53.8662 197.098 53.9183 196.764 53.9183C196.333 53.9183 195.945 53.8177 195.599 53.6165C195.256 53.4129 194.984 53.1134 194.783 52.718C194.584 52.3203 194.484 51.8314 194.484 51.2514C194.484 50.6714 194.583 50.1742 194.779 49.7599C194.978 49.3456 195.25 49.0284 195.596 48.8082C195.942 48.5857 196.333 48.4744 196.771 48.4744C197.11 48.4744 197.383 48.5312 197.592 48.6449C197.8 48.7562 197.962 48.8864 198.078 49.0355C198.197 49.1847 198.288 49.3161 198.352 49.4297H198.43V48.5455H199.47V54.1207C199.47 54.5895 199.361 54.9742 199.144 55.2749C198.926 55.5755 198.631 55.7981 198.259 55.9425C197.89 56.0869 197.473 56.1591 197.009 56.1591ZM196.999 53.0376C197.304 53.0376 197.562 52.9666 197.773 52.8246C197.986 52.6802 198.147 52.4742 198.256 52.2067C198.367 51.9368 198.423 51.6136 198.423 51.2372C198.423 50.8703 198.368 50.5471 198.259 50.2678C198.15 49.9884 197.991 49.7706 197.78 49.6143C197.569 49.4557 197.309 49.3764 196.999 49.3764C196.679 49.3764 196.413 49.4593 196.2 49.625C195.987 49.7884 195.826 50.0109 195.717 50.2926C195.61 50.5743 195.557 50.8892 195.557 51.2372C195.557 51.5947 195.611 51.9084 195.72 52.1783C195.829 52.4482 195.99 52.6589 196.203 52.8104C196.419 52.9619 196.684 53.0376 196.999 53.0376Z" fill="url(#paint2_linear_6101_5437)" fill-opacity="0.8"/>
<path d="M122.74 91V89.06H120.8V87.93H122.74V86H123.87V87.93H125.8V89.06H123.87V91H122.74ZM128.332 91V84.71H126.892V83.55H129.692V91H128.332ZM131.355 91L134.455 84.7H130.945V83.55H135.885V84.7L132.855 91H131.355ZM136.681 91V89.97L138.701 87.86C139.101 87.44 139.407 87.1067 139.621 86.86C139.841 86.6067 139.994 86.39 140.081 86.21C140.167 86.03 140.211 85.8467 140.211 85.66C140.211 85.3467 140.111 85.1 139.911 84.92C139.717 84.74 139.467 84.65 139.161 84.65C138.841 84.65 138.564 84.7433 138.331 84.93C138.097 85.11 137.927 85.3767 137.821 85.73L136.631 85.36C136.711 84.9667 136.874 84.6267 137.121 84.34C137.367 84.0467 137.667 83.8233 138.021 83.67C138.381 83.51 138.761 83.43 139.161 83.43C139.641 83.43 140.061 83.5167 140.421 83.69C140.787 83.8633 141.071 84.1067 141.271 84.42C141.477 84.7333 141.581 85.1 141.581 85.52C141.581 85.7867 141.531 86.05 141.431 86.31C141.331 86.57 141.181 86.8367 140.981 87.11C140.781 87.3767 140.521 87.6767 140.201 88.01L138.451 89.85H141.681V91H136.681Z" fill="#F9911F"/>
<path d="M146.295 92.7C145.735 92.0467 145.312 91.3367 145.025 90.57C144.745 89.8033 144.605 88.9867 144.605 88.12C144.605 87.2533 144.745 86.4367 145.025 85.67C145.305 84.9033 145.728 84.1967 146.295 83.55H147.395C146.915 84.2633 146.555 85.0033 146.315 85.77C146.082 86.53 145.965 87.3133 145.965 88.12C145.965 88.9267 146.085 89.7133 146.325 90.48C146.565 91.2467 146.922 91.9867 147.395 92.7H146.295ZM150.494 91V89.06H148.554V87.93H150.494V86H151.624V87.93H153.554V89.06H151.624V91H150.494ZM156.085 91V84.71H154.645V83.55H157.445V91H156.085ZM160.119 91V84.71H158.679V83.55H161.479V91H160.119ZM163.952 91L169.992 83.55H171.392L165.352 91H163.952ZM165.112 87.33C164.745 87.33 164.412 87.2433 164.112 87.07C163.819 86.89 163.585 86.6533 163.412 86.36C163.239 86.0667 163.152 85.74 163.152 85.38C163.152 85.02 163.239 84.6933 163.412 84.4C163.585 84.1 163.819 83.8633 164.112 83.69C164.412 83.5167 164.745 83.43 165.112 83.43C165.485 83.43 165.819 83.5167 166.112 83.69C166.405 83.8633 166.639 84.1 166.812 84.4C166.985 84.6933 167.072 85.02 167.072 85.38C167.072 85.74 166.985 86.0667 166.812 86.36C166.639 86.6533 166.405 86.89 166.112 87.07C165.819 87.2433 165.485 87.33 165.112 87.33ZM165.112 86.32C165.312 86.32 165.479 86.2767 165.612 86.19C165.745 86.0967 165.845 85.98 165.912 85.84C165.985 85.6933 166.022 85.54 166.022 85.38C166.022 85.2133 165.985 85.06 165.912 84.92C165.845 84.78 165.745 84.6633 165.612 84.57C165.479 84.4767 165.312 84.43 165.112 84.43C164.925 84.43 164.762 84.4767 164.622 84.57C164.489 84.6633 164.385 84.7833 164.312 84.93C164.239 85.07 164.202 85.22 164.202 85.38C164.202 85.5333 164.239 85.6833 164.312 85.83C164.385 85.9767 164.489 86.0967 164.622 86.19C164.762 86.2767 164.925 86.32 165.112 86.32ZM170.192 91.12C169.825 91.12 169.492 91.0333 169.192 90.86C168.899 90.68 168.665 90.4433 168.492 90.15C168.319 89.8567 168.232 89.53 168.232 89.17C168.232 88.81 168.319 88.4833 168.492 88.19C168.665 87.89 168.899 87.6533 169.192 87.48C169.492 87.3067 169.825 87.22 170.192 87.22C170.565 87.22 170.899 87.3067 171.192 87.48C171.485 87.6533 171.719 87.89 171.892 88.19C172.065 88.4833 172.152 88.81 172.152 89.17C172.152 89.53 172.065 89.8567 171.892 90.15C171.719 90.4433 171.485 90.68 171.192 90.86C170.899 91.0333 170.565 91.12 170.192 91.12ZM170.192 90.11C170.385 90.11 170.549 90.0667 170.682 89.98C170.822 89.8867 170.925 89.77 170.992 89.63C171.065 89.4833 171.102 89.33 171.102 89.17C171.102 89.0033 171.065 88.85 170.992 88.71C170.925 88.57 170.822 88.4533 170.682 88.36C170.549 88.2667 170.385 88.22 170.192 88.22C170.005 88.22 169.842 88.2667 169.702 88.36C169.569 88.4533 169.465 88.5733 169.392 88.72C169.319 88.86 169.282 89.01 169.282 89.17C169.282 89.3233 169.319 89.4733 169.392 89.62C169.465 89.7667 169.569 89.8867 169.702 89.98C169.842 90.0667 170.005 90.11 170.192 90.11ZM173.251 92.7C173.724 91.9867 174.078 91.2467 174.311 90.48C174.551 89.7133 174.671 88.9267 174.671 88.12C174.671 87.3133 174.551 86.53 174.311 85.77C174.078 85.0033 173.724 84.2633 173.251 83.55H174.351C174.911 84.1967 175.331 84.9033 175.611 85.67C175.891 86.4367 176.031 87.2533 176.031 88.12C176.031 88.9867 175.891 89.8033 175.611 90.57C175.331 91.3367 174.911 92.0467 174.351 92.7H173.251Z" fill="white" fill-opacity="0.8"/>
<rect x="120" y="67" width="80" height="4" rx="2" fill="#E3E7ED" fill-opacity="0.3"/>
<g filter="url(#filter1_bd_6101_5437)">
<rect x="120" y="67" width="60" height="4" rx="2" fill="url(#paint3_linear_6101_5437)" shape-rendering="crispEdges"/>
<rect x="120.5" y="67.5" width="59" height="3" rx="1.5" stroke="url(#paint4_linear_6101_5437)" shape-rendering="crispEdges"/>
</g>
<g filter="url(#filter2_bd_6101_5437)">
<path d="M98 49V73.2C98 77 96 79 92.2 79H67.8C64 79 62 77 62 73.2V49H98Z" fill="url(#paint5_linear_6101_5437)" shape-rendering="crispEdges"/>
<path d="M97.5 49.5V73.2C97.5 75.0164 97.0229 76.32 96.1715 77.1715C95.32 78.0229 94.0164 78.5 92.2 78.5H67.8C65.9836 78.5 64.68 78.0229 63.8285 77.1715C62.9771 76.32 62.5 75.0164 62.5 73.2V49.5H97.5Z" stroke="url(#paint6_linear_6101_5437)" shape-rendering="crispEdges"/>
</g>
<g filter="url(#filter3_bd_6101_5437)">
<path d="M100 50.5H60.0005C59.1805 50.5 58.5005 49.82 58.5005 49C58.5005 48.18 59.1805 47.5 60.0005 47.5H100C100.82 47.5 101.5 48.18 101.5 49C101.5 49.82 100.82 50.5 100 50.5Z" fill="url(#paint7_linear_6101_5437)" shape-rendering="crispEdges"/>
<path d="M100 50H60.0005C59.4566 50 59.0005 49.5439 59.0005 49C59.0005 48.4561 59.4566 48 60.0005 48H100C100.544 48 101 48.4561 101 49C101 49.5439 100.544 50 100 50Z" stroke="url(#paint8_linear_6101_5437)" shape-rendering="crispEdges"/>
</g>
<g filter="url(#filter4_bd_6101_5437)">
<path d="M89.3406 89.68C89.0806 90.2 88.5405 90.5 88.0005 90.5C87.7805 90.5 87.5406 90.44 87.3406 90.34L80.0005 86.68L72.6605 90.34C72.4605 90.44 72.2205 90.5 72.0005 90.5C71.4605 90.5 70.9205 90.2 70.6605 89.68C70.2805 88.92 70.5806 88.02 71.3406 87.66L78.5005 84.08V79H81.5005V84.08L88.6605 87.66C89.4205 88.02 89.7206 88.92 89.3406 89.68Z" fill="url(#paint9_linear_6101_5437)" shape-rendering="crispEdges"/>
<path d="M87.5642 89.8928L87.5637 89.8926L80.2237 86.2325L80.0005 86.1213L79.7774 86.2325L72.4374 89.8926L72.4369 89.8928C72.3014 89.9606 72.1376 90 72.0005 90C71.637 90 71.2774 89.7957 71.1077 89.4564C70.8494 88.9398 71.0553 88.3484 71.5546 88.1118L71.5546 88.1119L71.5642 88.1072L78.7241 84.5272L79.0005 84.389V84.08V79.5H81.0005V84.08V84.389L81.2769 84.5272L88.4369 88.1072L88.4369 88.1073L88.4465 88.1118C88.9458 88.3484 89.1517 88.9398 88.8933 89.4564C88.7237 89.7957 88.3641 90 88.0005 90C87.8635 90 87.6996 89.9606 87.5642 89.8928Z" stroke="url(#paint10_linear_6101_5437)" shape-rendering="crispEdges"/>
</g>
<g filter="url(#filter5_bd_6101_5437)">
<path d="M70.9994 68.4999C70.5794 68.4999 70.1394 68.3199 69.8394 67.9599C69.2994 67.3199 69.3993 66.3799 70.0393 65.8399L76.3394 60.5799C76.9194 60.0999 77.6594 59.8999 78.3594 60.0199C79.0794 60.1399 79.6994 60.5798 80.0794 61.2198L82.1794 64.7198L88.0393 59.8399C88.6793 59.2999 89.6193 59.3998 90.1593 60.0398C90.6993 60.6798 90.5994 61.6198 89.9594 62.1598L83.6593 67.4198C83.0793 67.8998 82.3394 68.0998 81.6394 67.9798C80.9194 67.8598 80.2993 67.4199 79.9193 66.7799L77.8194 63.2799L71.9594 68.1598C71.6794 68.3798 71.3394 68.4999 70.9994 68.4999Z" fill="#FAAA51" fill-opacity="0.8" shape-rendering="crispEdges"/>
<path d="M70.2235 67.6398L70.2215 67.6374C69.8678 67.2182 69.9232 66.5929 70.3609 66.2228C70.3612 66.2225 70.3615 66.2223 70.3618 66.222L76.6582 60.9651C76.6584 60.9648 76.6587 60.9646 76.659 60.9644C77.1311 60.5741 77.7245 60.4183 78.2749 60.5127L78.2772 60.5131C78.8438 60.6075 79.3404 60.9546 79.6495 61.4751L79.6506 61.4771L81.7506 64.9771L82.0509 65.4775L82.4993 65.104L88.3593 60.2241L88.3618 60.222C88.7813 59.868 89.4072 59.9238 89.7772 60.3623L90.1593 60.0398L89.7772 60.3623C90.131 60.7815 90.0755 61.4069 89.6378 61.777C89.6375 61.7772 89.6372 61.7775 89.637 61.7777L83.3406 67.0346C83.3403 67.0349 83.34 67.0351 83.3397 67.0353C82.8676 67.4256 82.2742 67.5814 81.7239 67.487L81.7216 67.4866C81.1549 67.3922 80.6583 67.0451 80.3493 66.5246L80.3481 66.5226L78.2481 63.0226L77.9479 62.5222L77.4994 62.8957L71.6454 67.7706C71.4506 67.922 71.2204 67.9999 70.9994 67.9999C70.7164 67.9999 70.4215 67.8773 70.2235 67.6398L70.2235 67.6398Z" stroke="url(#paint11_linear_6101_5437)" shape-rendering="crispEdges"/>
</g>
<defs>
<filter id="filter0_bd_6101_5437" x="0" y="0" width="262" height="162" filterUnits="userSpaceOnUse" color-interpolation-filters="sRGB">
<feFlood flood-opacity="0" result="BackgroundImageFix"/>
<feGaussianBlur in="BackgroundImageFix" stdDeviation="7"/>
<feComposite in2="SourceAlpha" operator="in" result="effect1_backgroundBlur_6101_5437"/>
<feColorMatrix in="SourceAlpha" type="matrix" values="0 0 0 0 0 0 0 0 0 0 0 0 0 0 0 0 0 0 127 0" result="hardAlpha"/>
<feOffset dy="12"/>
<feGaussianBlur stdDeviation="18"/>
<feComposite in2="hardAlpha" operator="out"/>
<feColorMatrix type="matrix" values="0 0 0 0 0.0741111 0 0 0 0 0.0853889 0 0 0 0 0.0966667 0 0 0 0.35 0"/>
<feBlend mode="normal" in2="effect1_backgroundBlur_6101_5437" result="effect2_dropShadow_6101_5437"/>
<feBlend mode="normal" in="SourceGraphic" in2="effect2_dropShadow_6101_5437" result="shape"/>
</filter>
<filter id="filter1_bd_6101_5437" x="84" y="43" width="132" height="76" filterUnits="userSpaceOnUse" color-interpolation-filters="sRGB">
<feFlood flood-opacity="0" result="BackgroundImageFix"/>
<feGaussianBlur in="BackgroundImageFix" stdDeviation="7"/>
<feComposite in2="SourceAlpha" operator="in" result="effect1_backgroundBlur_6101_5437"/>
<feColorMatrix in="SourceAlpha" type="matrix" values="0 0 0 0 0 0 0 0 0 0 0 0 0 0 0 0 0 0 127 0" result="hardAlpha"/>
<feOffset dy="12"/>
<feGaussianBlur stdDeviation="18"/>
<feComposite in2="hardAlpha" operator="out"/>
<feColorMatrix type="matrix" values="0 0 0 0 0.525833 0 0 0 0 0.525833 0 0 0 0 0.525833 0 0 0 0.25 0"/>
<feBlend mode="normal" in2="effect1_backgroundBlur_6101_5437" result="effect2_dropShadow_6101_5437"/>
<feBlend mode="normal" in="SourceGraphic" in2="effect2_dropShadow_6101_5437" result="shape"/>
</filter>
<filter id="filter2_bd_6101_5437" x="26" y="25" width="108" height="102" filterUnits="userSpaceOnUse" color-interpolation-filters="sRGB">
<feFlood flood-opacity="0" result="BackgroundImageFix"/>
<feGaussianBlur in="BackgroundImageFix" stdDeviation="7"/>
<feComposite in2="SourceAlpha" operator="in" result="effect1_backgroundBlur_6101_5437"/>
<feColorMatrix in="SourceAlpha" type="matrix" values="0 0 0 0 0 0 0 0 0 0 0 0 0 0 0 0 0 0 127 0" result="hardAlpha"/>
<feOffset dy="12"/>
<feGaussianBlur stdDeviation="18"/>
<feComposite in2="hardAlpha" operator="out"/>
<feColorMatrix type="matrix" values="0 0 0 0 0.525833 0 0 0 0 0.525833 0 0 0 0 0.525833 0 0 0 0.25 0"/>
<feBlend mode="normal" in2="effect1_backgroundBlur_6101_5437" result="effect2_dropShadow_6101_5437"/>
<feBlend mode="normal" in="SourceGraphic" in2="effect2_dropShadow_6101_5437" result="shape"/>
</filter>
<filter id="filter3_bd_6101_5437" x="22.5005" y="23.5" width="115" height="75" filterUnits="userSpaceOnUse" color-interpolation-filters="sRGB">
<feFlood flood-opacity="0" result="BackgroundImageFix"/>
<feGaussianBlur in="BackgroundImageFix" stdDeviation="7"/>
<feComposite in2="SourceAlpha" operator="in" result="effect1_backgroundBlur_6101_5437"/>
<feColorMatrix in="SourceAlpha" type="matrix" values="0 0 0 0 0 0 0 0 0 0 0 0 0 0 0 0 0 0 127 0" result="hardAlpha"/>
<feOffset dy="12"/>
<feGaussianBlur stdDeviation="18"/>
<feComposite in2="hardAlpha" operator="out"/>
<feColorMatrix type="matrix" values="0 0 0 0 0.525833 0 0 0 0 0.525833 0 0 0 0 0.525833 0 0 0 0.25 0"/>
<feBlend mode="normal" in2="effect1_backgroundBlur_6101_5437" result="effect2_dropShadow_6101_5437"/>
<feBlend mode="normal" in="SourceGraphic" in2="effect2_dropShadow_6101_5437" result="shape"/>
</filter>
<filter id="filter4_bd_6101_5437" x="34.4961" y="55" width="91.0089" height="83.5" filterUnits="userSpaceOnUse" color-interpolation-filters="sRGB">
<feFlood flood-opacity="0" result="BackgroundImageFix"/>
<feGaussianBlur in="BackgroundImageFix" stdDeviation="7"/>
<feComposite in2="SourceAlpha" operator="in" result="effect1_backgroundBlur_6101_5437"/>
<feColorMatrix in="SourceAlpha" type="matrix" values="0 0 0 0 0 0 0 0 0 0 0 0 0 0 0 0 0 0 127 0" result="hardAlpha"/>
<feOffset dy="12"/>
<feGaussianBlur stdDeviation="18"/>
<feComposite in2="hardAlpha" operator="out"/>
<feColorMatrix type="matrix" values="0 0 0 0 0.525833 0 0 0 0 0.525833 0 0 0 0 0.525833 0 0 0 0.25 0"/>
<feBlend mode="normal" in2="effect1_backgroundBlur_6101_5437" result="effect2_dropShadow_6101_5437"/>
<feBlend mode="normal" in="SourceGraphic" in2="effect2_dropShadow_6101_5437" result="shape"/>
</filter>
<filter id="filter5_bd_6101_5437" x="33.4897" y="35.4902" width="93.0192" height="81.0098" filterUnits="userSpaceOnUse" color-interpolation-filters="sRGB">
<feFlood flood-opacity="0" result="BackgroundImageFix"/>
<feGaussianBlur in="BackgroundImageFix" stdDeviation="7"/>
<feComposite in2="SourceAlpha" operator="in" result="effect1_backgroundBlur_6101_5437"/>
<feColorMatrix in="SourceAlpha" type="matrix" values="0 0 0 0 0 0 0 0 0 0 0 0 0 0 0 0 0 0 127 0" result="hardAlpha"/>
<feOffset dy="12"/>
<feGaussianBlur stdDeviation="18"/>
<feComposite in2="hardAlpha" operator="out"/>
<feColorMatrix type="matrix" values="0 0 0 0 0.525833 0 0 0 0 0.525833 0 0 0 0 0.525833 0 0 0 0.25 0"/>
<feBlend mode="normal" in2="effect1_backgroundBlur_6101_5437" result="effect2_dropShadow_6101_5437"/>
<feBlend mode="normal" in="SourceGraphic" in2="effect2_dropShadow_6101_5437" result="shape"/>
</filter>
<linearGradient id="paint0_linear_6101_5437" x1="41.3181" y1="24" x2="81.2708" y2="159.412" gradientUnits="userSpaceOnUse">
<stop stop-color="white" stop-opacity="0.6"/>
<stop offset="0.0001" stop-color="white" stop-opacity="0.5"/>
<stop offset="1" stop-color="white" stop-opacity="0"/>
</linearGradient>
<linearGradient id="paint1_linear_6101_5437" x1="235.911" y1="115.521" x2="194.354" y2="-23.3776" gradientUnits="userSpaceOnUse">
<stop stop-color="white" stop-opacity="0.5"/>
<stop offset="1" stop-color="white" stop-opacity="0"/>
</linearGradient>
<linearGradient id="paint2_linear_6101_5437" x1="113.44" y1="47.5" x2="199.482" y2="79.2404" gradientUnits="userSpaceOnUse">
<stop offset="0.202647" stop-color="white"/>
<stop offset="1" stop-color="#F79023"/>
</linearGradient>
<linearGradient id="paint3_linear_6101_5437" x1="121.679" y1="67" x2="121.951" y2="73.531" gradientUnits="userSpaceOnUse">
<stop stop-color="#F9911F"/>
<stop offset="0.0001" stop-color="white" stop-opacity="0.5"/>
<stop offset="1" stop-color="#F9911F"/>
</linearGradient>
<linearGradient id="paint4_linear_6101_5437" x1="183.13" y1="71.0676" x2="182.847" y2="64.3536" gradientUnits="userSpaceOnUse">
<stop stop-color="white" stop-opacity="0.5"/>
<stop offset="1" stop-color="white" stop-opacity="0"/>
</linearGradient>
<linearGradient id="paint5_linear_6101_5437" x1="63.0076" y1="49" x2="83.0708" y2="87.6526" gradientUnits="userSpaceOnUse">
<stop stop-color="white" stop-opacity="0.6"/>
<stop offset="0.0001" stop-color="white" stop-opacity="0.5"/>
<stop offset="1" stop-color="white" stop-opacity="0"/>
</linearGradient>
<linearGradient id="paint6_linear_6101_5437" x1="99.8779" y1="79.507" x2="79.0868" y2="40.0064" gradientUnits="userSpaceOnUse">
<stop stop-color="white" stop-opacity="0.5"/>
<stop offset="1" stop-color="white" stop-opacity="0"/>
</linearGradient>
<linearGradient id="paint7_linear_6101_5437" x1="59.704" y1="47.5" x2="59.9169" y2="52.3974" gradientUnits="userSpaceOnUse">
<stop stop-color="#F9911F"/>
<stop offset="0.0001" stop-color="white" stop-opacity="0.5"/>
<stop offset="1" stop-color="#F9911F"/>
</linearGradient>
<linearGradient id="paint8_linear_6101_5437" x1="103.743" y1="50.5507" x2="103.522" y2="45.5161" gradientUnits="userSpaceOnUse">
<stop stop-color="white" stop-opacity="0.5"/>
<stop offset="1" stop-color="white" stop-opacity="0"/>
</linearGradient>
<linearGradient id="paint9_linear_6101_5437" x1="71.0281" y1="79" x2="77.2345" y2="95.4701" gradientUnits="userSpaceOnUse">
<stop stop-color="#F9911F"/>
<stop offset="0.0001" stop-color="white" stop-opacity="0.5"/>
<stop offset="1" stop-color="#F9911F"/>
</linearGradient>
<linearGradient id="paint10_linear_6101_5437" x1="90.4965" y1="90.6943" x2="84.049" y2="73.8212" gradientUnits="userSpaceOnUse">
<stop stop-color="white" stop-opacity="0.5"/>
<stop offset="1" stop-color="white" stop-opacity="0"/>
</linearGradient>
<linearGradient id="paint11_linear_6101_5437" x1="91.6054" y1="68.6521" x2="87.784" y2="54.5373" gradientUnits="userSpaceOnUse">
<stop stop-color="white" stop-opacity="0.5"/>
<stop offset="1" stop-color="white" stop-opacity="0"/>
</linearGradient>
</defs>
</svg>
