<svg width="283" height="162" viewBox="0 0 283 162" fill="none" xmlns="http://www.w3.org/2000/svg">
<g filter="url(#filter0_bd_5779_15268)">
<rect x="36" y="24" width="211" height="90" rx="16" fill="url(#paint0_linear_5779_15268)" fill-opacity="0.3" shape-rendering="crispEdges"/>
<rect x="36.5" y="24.5" width="210" height="89" rx="15.5" stroke="url(#paint1_linear_5779_15268)" shape-rendering="crispEdges"/>
</g>
<g filter="url(#filter1_bd_5779_15268)">
<g filter="url(#filter2_bd_5779_15268)">
<path d="M70 56.5C69.18 56.5 68.5 55.82 68.5 55V49C68.5 48.18 69.18 47.5 70 47.5C70.82 47.5 71.5 48.18 71.5 49V55C71.5 55.82 70.82 56.5 70 56.5Z" fill="url(#paint2_linear_5779_15268)" shape-rendering="crispEdges"/>
<path d="M70 56C69.4561 56 69 55.5439 69 55V49C69 48.4561 69.4561 48 70 48C70.5439 48 71 48.4561 71 49V55C71 55.5439 70.5439 56 70 56Z" stroke="url(#paint3_linear_5779_15268)" shape-rendering="crispEdges"/>
</g>
</g>
<g filter="url(#filter3_bd_5779_15268)">
<g filter="url(#filter4_bd_5779_15268)">
<path d="M86 56.5C85.18 56.5 84.5 55.82 84.5 55V49C84.5 48.18 85.18 47.5 86 47.5C86.82 47.5 87.5 48.18 87.5 49V55C87.5 55.82 86.82 56.5 86 56.5Z" fill="url(#paint4_linear_5779_15268)" shape-rendering="crispEdges"/>
<path d="M86 56C85.4561 56 85 55.5439 85 55V49C85 48.4561 85.4561 48 86 48C86.5439 48 87 48.4561 87 49V55C87 55.5439 86.5439 56 86 56Z" stroke="url(#paint5_linear_5779_15268)" shape-rendering="crispEdges"/>
</g>
</g>
<g filter="url(#filter5_bd_5779_15268)">
<path d="M96 62V79C96 85 93 89 86 89H70C63 89 60 85 60 79V62C60 56 63 52 70 52H86C93 52 96 56 96 62Z" fill="url(#paint6_linear_5779_15268)" shape-rendering="crispEdges"/>
<path d="M95.5 62V79C95.5 81.9234 94.7691 84.2831 93.2586 85.9098C91.7543 87.5297 89.4047 88.5 86 88.5H70C66.5953 88.5 64.2457 87.5297 62.7414 85.9098C61.2309 84.2831 60.5 81.9234 60.5 79V62C60.5 59.0766 61.2309 56.7169 62.7414 55.0902C64.2457 53.4703 66.5953 52.5 70 52.5H86C89.4047 52.5 91.7543 53.4703 93.2586 55.0902C94.7691 56.7169 95.5 59.0766 95.5 62Z" stroke="url(#paint7_linear_5779_15268)" shape-rendering="crispEdges"/>
</g>
<g filter="url(#filter6_bd_5779_15268)">
<path d="M82 68.5H70C69.18 68.5 68.5 67.82 68.5 67C68.5 66.18 69.18 65.5 70 65.5H82C82.82 65.5 83.5 66.18 83.5 67C83.5 67.82 82.82 68.5 82 68.5Z" fill="#FAAA51" fill-opacity="0.8" shape-rendering="crispEdges"/>
<path d="M82 68H70C69.4561 68 69 67.5439 69 67C69 66.4561 69.4561 66 70 66H82C82.5439 66 83 66.4561 83 67C83 67.5439 82.5439 68 82 68Z" stroke="url(#paint8_linear_5779_15268)" shape-rendering="crispEdges"/>
</g>
<g filter="url(#filter7_bd_5779_15268)">
<path d="M76 78H70C69.4561 78 69 77.5439 69 77C69 76.4561 69.4561 76 70 76H76C76.5439 76 77 76.4561 77 77C77 77.5439 76.5439 78 76 78Z" fill="#FAAA51" fill-opacity="0.8" stroke="url(#paint9_linear_5779_15268)"/>
</g>
<g filter="url(#filter8_bd_5779_15268)">
<path d="M98 72.26C96.22 70.84 93.96 70 91.5 70C89.04 70 86.74 70.8599 84.94 72.3199C82.52 74.2199 81 77.2 81 80.5C81 82.46 81.56 84.34 82.52 85.9C83.26 87.12 84.22 88.18 85.36 89C87.08 90.26 89.2 91 91.5 91C94.16 91 96.56 90.02 98.4 88.38C99.22 87.7 99.92 86.86 100.48 85.9C101.44 84.34 102 82.46 102 80.5C102 77.16 100.44 74.18 98 72.26ZM91.5 85.5C91.5 82.74 89.26 80.5 86.5 80.5C89.26 80.5 91.5 78.26 91.5 75.5C91.5 78.26 93.74 80.5 96.5 80.5C93.74 80.5 91.5 82.74 91.5 85.5Z" fill="url(#paint10_linear_5779_15268)" shape-rendering="crispEdges"/>
<path d="M97.6882 72.6509L97.6908 72.6529C100.015 74.4819 101.5 77.3192 101.5 80.5C101.5 82.3658 100.967 84.1553 100.054 85.638L100.054 85.6379L100.048 85.6481C99.5154 86.5612 98.8526 87.3551 98.0809 87.9951L98.074 88.0008L98.0673 88.0067C96.3161 89.5677 94.0335 90.5 91.5 90.5C89.3092 90.5 87.2921 89.7956 85.6555 88.5966L85.6519 88.5941C84.5698 87.8157 83.6548 86.8068 82.9475 85.6407L82.9475 85.6407L82.9458 85.638C82.0334 84.1553 81.5 82.3658 81.5 80.5C81.5 77.3553 82.9481 74.5195 85.2488 72.7132L85.2488 72.7133L85.255 72.7083C86.968 71.3188 89.1574 70.5 91.5 70.5C93.8443 70.5 95.9948 71.3 97.6882 72.6509ZM96.5 80.5V80C94.0161 80 92 77.9839 92 75.5H91.5H91C91 77.9839 88.9839 80 86.5 80V80.5V81C88.9839 81 91 83.0161 91 85.5H91.5H92C92 83.0161 94.0161 81 96.5 81V80.5Z" stroke="url(#paint11_linear_5779_15268)" shape-rendering="crispEdges"/>
</g>
<path d="M126.839 50.0923H125.732C125.689 49.8556 125.61 49.6473 125.494 49.4673C125.378 49.2874 125.236 49.1347 125.067 49.0092C124.899 48.8838 124.711 48.7891 124.503 48.7251C124.297 48.6612 124.078 48.6293 123.846 48.6293C123.427 48.6293 123.052 48.7346 122.72 48.9453C122.391 49.156 122.131 49.465 121.939 49.8722C121.75 50.2794 121.655 50.7765 121.655 51.3636C121.655 51.9555 121.75 52.455 121.939 52.8622C122.131 53.2694 122.392 53.5772 122.724 53.7855C123.055 53.9938 123.428 54.098 123.842 54.098C124.072 54.098 124.29 54.0672 124.496 54.0057C124.704 53.9418 124.892 53.8482 125.06 53.7251C125.228 53.602 125.371 53.4517 125.487 53.2741C125.605 53.0942 125.687 52.8883 125.732 52.6562L126.839 52.6598C126.78 53.0173 126.665 53.3464 126.495 53.647C126.327 53.9453 126.11 54.2034 125.845 54.4212C125.582 54.6366 125.282 54.8035 124.943 54.9219C124.605 55.0402 124.235 55.0994 123.835 55.0994C123.205 55.0994 122.644 54.9503 122.152 54.652C121.66 54.3513 121.271 53.9216 120.987 53.3629C120.705 52.8042 120.565 52.1378 120.565 51.3636C120.565 50.5871 120.707 49.9207 120.991 49.3643C121.275 48.8056 121.663 48.3771 122.156 48.0788C122.648 47.7782 123.208 47.6278 123.835 47.6278C124.221 47.6278 124.581 47.6835 124.915 47.7947C125.251 47.9036 125.553 48.0646 125.82 48.2777C126.088 48.4884 126.309 48.7464 126.484 49.0518C126.66 49.3549 126.778 49.7017 126.839 50.0923ZM130.765 55.1101C130.254 55.1101 129.807 54.9929 129.426 54.7585C129.045 54.5241 128.749 54.1963 128.538 53.7749C128.328 53.3535 128.222 52.861 128.222 52.2976C128.222 51.7318 128.328 51.237 128.538 50.8132C128.749 50.3894 129.045 50.0604 129.426 49.826C129.807 49.5916 130.254 49.4744 130.765 49.4744C131.276 49.4744 131.723 49.5916 132.104 49.826C132.485 50.0604 132.781 50.3894 132.991 50.8132C133.202 51.237 133.307 51.7318 133.307 52.2976C133.307 52.861 133.202 53.3535 132.991 53.7749C132.781 54.1963 132.485 54.5241 132.104 54.7585C131.723 54.9929 131.276 55.1101 130.765 55.1101ZM130.768 54.2188C131.1 54.2188 131.374 54.1312 131.592 53.956C131.81 53.7808 131.971 53.5476 132.075 53.2564C132.182 52.9652 132.235 52.6444 132.235 52.294C132.235 51.946 132.182 51.6264 132.075 51.3352C131.971 51.0417 131.81 50.8061 131.592 50.6286C131.374 50.451 131.1 50.3622 130.768 50.3622C130.435 50.3622 130.158 50.451 129.937 50.6286C129.72 50.8061 129.557 51.0417 129.451 51.3352C129.347 51.6264 129.295 51.946 129.295 52.294C129.295 52.6444 129.347 52.9652 129.451 53.2564C129.557 53.5476 129.72 53.7808 129.937 53.956C130.158 54.1312 130.435 54.2188 130.768 54.2188ZM135.954 51.7614V55H134.893V49.5455H135.912V50.4332H135.979C136.105 50.1444 136.301 49.9124 136.569 49.7372C136.839 49.562 137.178 49.4744 137.588 49.4744C137.96 49.4744 138.285 49.5526 138.565 49.7088C138.844 49.8627 139.061 50.0923 139.214 50.3977C139.368 50.7031 139.445 51.0807 139.445 51.5305V55H138.383V51.6584C138.383 51.263 138.28 50.9541 138.075 50.7315C137.869 50.5066 137.586 50.3942 137.226 50.3942C136.98 50.3942 136.761 50.4474 136.569 50.554C136.379 50.6605 136.229 50.8168 136.118 51.0227C136.009 51.2263 135.954 51.4725 135.954 51.7614ZM143.815 49.5455V50.3977H140.836V49.5455H143.815ZM141.635 48.2386H142.697V53.3984C142.697 53.6044 142.728 53.7595 142.789 53.8636C142.851 53.9654 142.93 54.0353 143.027 54.0732C143.126 54.1087 143.234 54.1264 143.35 54.1264C143.435 54.1264 143.51 54.1205 143.574 54.1087C143.638 54.0968 143.688 54.0874 143.723 54.0803L143.915 54.9574C143.853 54.9811 143.766 55.0047 143.652 55.0284C143.538 55.0545 143.396 55.0687 143.226 55.071C142.947 55.0758 142.686 55.026 142.445 54.9219C142.203 54.8177 142.008 54.6567 141.859 54.4389C141.71 54.2211 141.635 53.9477 141.635 53.6186V48.2386ZM147.682 55.1101C147.145 55.1101 146.682 54.9953 146.294 54.7656C145.908 54.5336 145.61 54.2081 145.399 53.7891C145.19 53.3677 145.086 52.8741 145.086 52.3082C145.086 51.7495 145.19 51.2571 145.399 50.831C145.61 50.4048 145.903 50.0722 146.28 49.8331C146.658 49.594 147.101 49.4744 147.608 49.4744C147.915 49.4744 148.214 49.5253 148.503 49.6271C148.791 49.7289 149.051 49.8887 149.28 50.1065C149.51 50.3243 149.691 50.6072 149.824 50.9553C149.956 51.3009 150.022 51.7211 150.022 52.2159V52.5923H145.686V51.7969H148.982C148.982 51.5175 148.925 51.2701 148.811 51.0547C148.698 50.8369 148.538 50.6652 148.332 50.5398C148.128 50.4143 147.889 50.3516 147.615 50.3516C147.316 50.3516 147.056 50.425 146.833 50.5717C146.613 50.7161 146.443 50.9055 146.322 51.1399C146.204 51.3719 146.145 51.6241 146.145 51.8963V52.5178C146.145 52.8823 146.208 53.1925 146.336 53.4482C146.467 53.7038 146.648 53.8991 146.88 54.0341C147.112 54.1667 147.383 54.233 147.693 54.233C147.894 54.233 148.078 54.2045 148.243 54.1477C148.409 54.0885 148.552 54.0009 148.673 53.8849C148.794 53.7689 148.886 53.6257 148.95 53.4553L149.955 53.6364C149.874 53.9323 149.73 54.1915 149.522 54.4141C149.316 54.6342 149.056 54.8059 148.744 54.929C148.434 55.0497 148.08 55.1101 147.682 55.1101ZM152.662 51.7614V55H151.6V49.5455H152.62V50.4332H152.687C152.813 50.1444 153.009 49.9124 153.277 49.7372C153.547 49.562 153.886 49.4744 154.296 49.4744C154.667 49.4744 154.993 49.5526 155.272 49.7088C155.552 49.8627 155.768 50.0923 155.922 50.3977C156.076 50.7031 156.153 51.0807 156.153 51.5305V55H155.091V51.6584C155.091 51.263 154.988 50.9541 154.782 50.7315C154.576 50.5066 154.293 50.3942 153.934 50.3942C153.687 50.3942 153.468 50.4474 153.277 50.554C153.087 50.6605 152.937 50.8168 152.826 51.0227C152.717 51.2263 152.662 51.4725 152.662 51.7614ZM160.523 49.5455V50.3977H157.544V49.5455H160.523ZM158.343 48.2386H159.405V53.3984C159.405 53.6044 159.435 53.7595 159.497 53.8636C159.559 53.9654 159.638 54.0353 159.735 54.0732C159.834 54.1087 159.942 54.1264 160.058 54.1264C160.143 54.1264 160.218 54.1205 160.282 54.1087C160.346 54.0968 160.395 54.0874 160.431 54.0803L160.623 54.9574C160.561 54.9811 160.474 55.0047 160.36 55.0284C160.246 55.0545 160.104 55.0687 159.934 55.071C159.654 55.0758 159.394 55.026 159.152 54.9219C158.911 54.8177 158.716 54.6567 158.567 54.4389C158.417 54.2211 158.343 53.9477 158.343 53.6186V48.2386ZM165.229 47.7273H166.561L168.876 53.3807H168.962L171.277 47.7273H172.609V55H171.565V49.7372H171.497L169.352 54.9893H168.486L166.341 49.7337H166.274V55H165.229V47.7273ZM176.106 55.1207C175.761 55.1207 175.448 55.0568 175.169 54.929C174.889 54.7988 174.668 54.6106 174.505 54.3643C174.344 54.1181 174.263 53.8163 174.263 53.4588C174.263 53.151 174.322 52.8977 174.441 52.6989C174.559 52.5 174.719 52.3426 174.92 52.2266C175.121 52.1106 175.346 52.023 175.595 51.9638C175.843 51.9046 176.097 51.8596 176.355 51.8288C176.681 51.791 176.947 51.7602 177.15 51.7365C177.354 51.7105 177.502 51.669 177.594 51.6122C177.686 51.5554 177.733 51.4631 177.733 51.3352V51.3104C177.733 51.0002 177.645 50.7599 177.47 50.5895C177.297 50.419 177.039 50.3338 176.696 50.3338C176.338 50.3338 176.056 50.4131 175.851 50.5717C175.647 50.728 175.506 50.902 175.428 51.0938L174.43 50.8665C174.548 50.535 174.721 50.2675 174.949 50.0639C175.178 49.858 175.442 49.7088 175.74 49.6165C176.039 49.5218 176.352 49.4744 176.681 49.4744C176.899 49.4744 177.13 49.5005 177.374 49.5526C177.62 49.6023 177.85 49.6946 178.063 49.8295C178.278 49.9645 178.455 50.1574 178.592 50.4084C178.729 50.657 178.798 50.9801 178.798 51.3778V55H177.761V54.2543H177.718C177.65 54.3916 177.547 54.5265 177.409 54.6591C177.272 54.7917 177.096 54.9018 176.88 54.9893C176.665 55.0769 176.407 55.1207 176.106 55.1207ZM176.337 54.2685C176.631 54.2685 176.882 54.2105 177.09 54.0945C177.301 53.9785 177.46 53.8269 177.569 53.6399C177.681 53.4505 177.736 53.2481 177.736 53.0327V52.3295C177.698 52.3674 177.625 52.4029 177.516 52.4361C177.409 52.4669 177.288 52.4941 177.15 52.5178C177.013 52.5391 176.879 52.5592 176.749 52.5781C176.619 52.5947 176.51 52.6089 176.422 52.6207C176.216 52.6468 176.028 52.6906 175.858 52.7521C175.69 52.8137 175.555 52.9025 175.453 53.0185C175.353 53.1321 175.304 53.2836 175.304 53.473C175.304 53.7358 175.401 53.9347 175.595 54.0696C175.789 54.2022 176.036 54.2685 176.337 54.2685ZM180.612 55V49.5455H181.638V50.4119H181.695C181.795 50.1184 181.97 49.8875 182.221 49.7195C182.474 49.549 182.761 49.4638 183.08 49.4638C183.147 49.4638 183.225 49.4661 183.315 49.4709C183.407 49.4756 183.479 49.4815 183.531 49.4886V50.5043C183.489 50.4924 183.413 50.4794 183.304 50.4652C183.195 50.4486 183.086 50.4403 182.977 50.4403C182.726 50.4403 182.503 50.4936 182.306 50.6001C182.112 50.7043 181.958 50.8499 181.844 51.0369C181.731 51.2216 181.674 51.4323 181.674 51.669V55H180.612ZM185.827 53.1499L185.82 51.8537H186.004L188.178 49.5455H189.449L186.97 52.1733H186.803L185.827 53.1499ZM184.85 55V47.7273H185.912V55H184.85ZM188.295 55L186.342 52.4077L187.073 51.6655L189.598 55H188.295ZM192.943 55.1101C192.405 55.1101 191.943 54.9953 191.554 54.7656C191.168 54.5336 190.87 54.2081 190.659 53.7891C190.451 53.3677 190.347 52.8741 190.347 52.3082C190.347 51.7495 190.451 51.2571 190.659 50.831C190.87 50.4048 191.164 50.0722 191.54 49.8331C191.919 49.594 192.362 49.4744 192.868 49.4744C193.176 49.4744 193.474 49.5253 193.763 49.6271C194.052 49.7289 194.311 49.8887 194.541 50.1065C194.77 50.3243 194.952 50.6072 195.084 50.9553C195.217 51.3009 195.283 51.7211 195.283 52.2159V52.5923H190.947V51.7969H194.242C194.242 51.5175 194.186 51.2701 194.072 51.0547C193.958 50.8369 193.799 50.6652 193.593 50.5398C193.389 50.4143 193.15 50.3516 192.875 50.3516C192.577 50.3516 192.317 50.425 192.094 50.5717C191.874 50.7161 191.703 50.9055 191.583 51.1399C191.464 51.3719 191.405 51.6241 191.405 51.8963V52.5178C191.405 52.8823 191.469 53.1925 191.597 53.4482C191.727 53.7038 191.908 53.8991 192.14 54.0341C192.372 54.1667 192.643 54.233 192.953 54.233C193.155 54.233 193.338 54.2045 193.504 54.1477C193.67 54.0885 193.813 54.0009 193.934 53.8849C194.054 53.7689 194.147 53.6257 194.211 53.4553L195.215 53.6364C195.135 53.9323 194.991 54.1915 194.782 54.4141C194.576 54.6342 194.317 54.8059 194.005 54.929C193.694 55.0497 193.34 55.1101 192.943 55.1101ZM199.407 49.5455V50.3977H196.428V49.5455H199.407ZM197.227 48.2386H198.289V53.3984C198.289 53.6044 198.319 53.7595 198.381 53.8636C198.442 53.9654 198.522 54.0353 198.619 54.0732C198.718 54.1087 198.826 54.1264 198.942 54.1264C199.027 54.1264 199.102 54.1205 199.166 54.1087C199.23 54.0968 199.279 54.0874 199.315 54.0803L199.507 54.9574C199.445 54.9811 199.357 55.0047 199.244 55.0284C199.13 55.0545 198.988 55.0687 198.818 55.071C198.538 55.0758 198.278 55.026 198.036 54.9219C197.795 54.8177 197.6 54.6567 197.451 54.4389C197.301 54.2211 197.227 53.9477 197.227 53.6186V48.2386ZM200.982 55V49.5455H202.044V55H200.982ZM201.518 48.7038C201.333 48.7038 201.175 48.6423 201.042 48.5192C200.912 48.3937 200.847 48.2446 200.847 48.0717C200.847 47.8965 200.912 47.7474 201.042 47.6243C201.175 47.4988 201.333 47.4361 201.518 47.4361C201.703 47.4361 201.86 47.4988 201.99 47.6243C202.123 47.7474 202.189 47.8965 202.189 48.0717C202.189 48.2446 202.123 48.3937 201.99 48.5192C201.86 48.6423 201.703 48.7038 201.518 48.7038ZM204.934 51.7614V55H203.872V49.5455H204.891V50.4332H204.959C205.084 50.1444 205.281 49.9124 205.548 49.7372C205.818 49.562 206.158 49.4744 206.567 49.4744C206.939 49.4744 207.265 49.5526 207.544 49.7088C207.823 49.8627 208.04 50.0923 208.194 50.3977C208.348 50.7031 208.425 51.0807 208.425 51.5305V55H207.363V51.6584C207.363 51.263 207.26 50.9541 207.054 50.7315C206.848 50.5066 206.565 50.3942 206.205 50.3942C205.959 50.3942 205.74 50.4474 205.548 50.554C205.359 50.6605 205.208 50.8168 205.097 51.0227C204.988 51.2263 204.934 51.4725 204.934 51.7614ZM212.535 57.1591C212.102 57.1591 211.729 57.1023 211.417 56.9886C211.107 56.875 210.853 56.7247 210.657 56.5376C210.46 56.3506 210.314 56.1458 210.217 55.9233L211.129 55.5469C211.193 55.651 211.278 55.7611 211.385 55.8771C211.494 55.9955 211.641 56.0961 211.825 56.179C212.012 56.2618 212.253 56.3033 212.546 56.3033C212.949 56.3033 213.281 56.205 213.544 56.0085C213.807 55.8144 213.938 55.5043 213.938 55.0781V54.0057H213.871C213.807 54.1217 213.714 54.2507 213.594 54.3928C213.475 54.5348 213.312 54.6579 213.104 54.7621C212.895 54.8662 212.624 54.9183 212.29 54.9183C211.86 54.9183 211.471 54.8177 211.126 54.6165C210.782 54.4129 210.51 54.1134 210.309 53.718C210.11 53.3203 210.011 52.8314 210.011 52.2514C210.011 51.6714 210.109 51.1742 210.305 50.7599C210.504 50.3456 210.776 50.0284 211.122 49.8082C211.468 49.5857 211.86 49.4744 212.298 49.4744C212.636 49.4744 212.91 49.5312 213.118 49.6449C213.326 49.7562 213.488 49.8864 213.604 50.0355C213.723 50.1847 213.814 50.3161 213.878 50.4297H213.956V49.5455H214.996V55.1207C214.996 55.5895 214.888 55.9742 214.67 56.2749C214.452 56.5755 214.157 56.7981 213.785 56.9425C213.416 57.0869 212.999 57.1591 212.535 57.1591ZM212.525 54.0376C212.83 54.0376 213.088 53.9666 213.299 53.8246C213.512 53.6802 213.673 53.4742 213.782 53.2067C213.893 52.9368 213.949 52.6136 213.949 52.2372C213.949 51.8703 213.894 51.5471 213.785 51.2678C213.677 50.9884 213.517 50.7706 213.306 50.6143C213.095 50.4557 212.835 50.3764 212.525 50.3764C212.205 50.3764 211.939 50.4593 211.726 50.625C211.513 50.7884 211.352 51.0109 211.243 51.2926C211.136 51.5743 211.083 51.8892 211.083 52.2372C211.083 52.5947 211.138 52.9084 211.246 53.1783C211.355 53.4482 211.516 53.6589 211.729 53.8104C211.945 53.9619 212.21 54.0376 212.525 54.0376Z" fill="url(#paint12_linear_5779_15268)" fill-opacity="0.8"/>
<path d="M122.74 92V90.06H120.8V88.93H122.74V87H123.87V88.93H125.8V90.06H123.87V92H122.74ZM129.572 92.12C129.178 92.12 128.802 92.0467 128.442 91.9C128.088 91.7533 127.782 91.5467 127.522 91.28C127.268 91.0067 127.095 90.6833 127.002 90.31L128.182 89.89C128.295 90.23 128.478 90.4833 128.732 90.65C128.985 90.81 129.265 90.89 129.572 90.89C129.825 90.89 130.048 90.8367 130.242 90.73C130.442 90.6167 130.595 90.4633 130.702 90.27C130.808 90.07 130.862 89.84 130.862 89.58C130.862 89.32 130.805 89.0933 130.692 88.9C130.585 88.7067 130.435 88.5567 130.242 88.45C130.048 88.3367 129.825 88.28 129.572 88.28C129.312 88.28 129.075 88.3367 128.862 88.45C128.655 88.5633 128.505 88.7267 128.412 88.94L127.302 88.69L127.892 84.55H131.952V85.7H128.432L128.942 85.11L128.522 88.23L128.132 87.91C128.318 87.6367 128.545 87.4367 128.812 87.31C129.085 87.1833 129.415 87.12 129.802 87.12C130.295 87.12 130.722 87.2267 131.082 87.44C131.448 87.6533 131.732 87.9433 131.932 88.31C132.132 88.6767 132.232 89.1 132.232 89.58C132.232 90.06 132.115 90.4933 131.882 90.88C131.648 91.2667 131.332 91.57 130.932 91.79C130.532 92.01 130.078 92.12 129.572 92.12ZM135.774 92.12C135.267 92.12 134.817 92.0133 134.424 91.8C134.037 91.58 133.734 91.2867 133.514 90.92C133.294 90.5467 133.184 90.1233 133.184 89.65C133.184 89.41 133.207 89.17 133.254 88.93C133.307 88.69 133.401 88.4333 133.534 88.16C133.674 87.8867 133.874 87.5833 134.134 87.25L136.214 84.55H137.834L135.304 87.8L135.084 87.56C135.177 87.4867 135.274 87.43 135.374 87.39C135.474 87.3433 135.574 87.31 135.674 87.29C135.781 87.27 135.891 87.26 136.004 87.26C136.457 87.26 136.861 87.3633 137.214 87.57C137.567 87.7767 137.844 88.06 138.044 88.42C138.251 88.7733 138.354 89.1733 138.354 89.62C138.354 90.1 138.244 90.53 138.024 90.91C137.804 91.2833 137.497 91.58 137.104 91.8C136.717 92.0133 136.274 92.12 135.774 92.12ZM135.774 90.89C136.001 90.89 136.204 90.84 136.384 90.74C136.571 90.6333 136.717 90.4833 136.824 90.29C136.937 90.0967 136.994 89.88 136.994 89.64C136.994 89.3867 136.937 89.17 136.824 88.99C136.717 88.8033 136.574 88.6567 136.394 88.55C136.214 88.4433 136.007 88.39 135.774 88.39C135.547 88.39 135.341 88.4433 135.154 88.55C134.967 88.6567 134.817 88.8033 134.704 88.99C134.597 89.17 134.544 89.3867 134.544 89.64C134.544 89.88 134.597 90.0967 134.704 90.29C134.817 90.4833 134.967 90.6333 135.154 90.74C135.341 90.84 135.547 90.89 135.774 90.89ZM139.23 92V90.97L141.25 88.86C141.65 88.44 141.956 88.1067 142.17 87.86C142.39 87.6067 142.543 87.39 142.63 87.21C142.716 87.03 142.76 86.8467 142.76 86.66C142.76 86.3467 142.66 86.1 142.46 85.92C142.266 85.74 142.016 85.65 141.71 85.65C141.39 85.65 141.113 85.7433 140.88 85.93C140.646 86.11 140.476 86.3767 140.37 86.73L139.18 86.36C139.26 85.9667 139.423 85.6267 139.67 85.34C139.916 85.0467 140.216 84.8233 140.57 84.67C140.93 84.51 141.31 84.43 141.71 84.43C142.19 84.43 142.61 84.5167 142.97 84.69C143.336 84.8633 143.62 85.1067 143.82 85.42C144.026 85.7333 144.13 86.1 144.13 86.52C144.13 86.7867 144.08 87.05 143.98 87.31C143.88 87.57 143.73 87.8367 143.53 88.11C143.33 88.3767 143.07 88.6767 142.75 89.01L141 90.85H144.23V92H139.23Z" fill="#F9911F"/>
<path d="M148.844 93.7C148.284 93.0467 147.86 92.3367 147.574 91.57C147.294 90.8033 147.154 89.9867 147.154 89.12C147.154 88.2533 147.294 87.4367 147.574 86.67C147.854 85.9033 148.277 85.1967 148.844 84.55H149.944C149.464 85.2633 149.104 86.0033 148.864 86.77C148.63 87.53 148.514 88.3133 148.514 89.12C148.514 89.9267 148.634 90.7133 148.874 91.48C149.114 92.2467 149.47 92.9867 149.944 93.7H148.844ZM153.043 92V90.06H151.103V88.93H153.043V87H154.173V88.93H156.103V90.06H154.173V92H153.043ZM157.364 92V90.97L159.384 88.86C159.784 88.44 160.091 88.1067 160.304 87.86C160.524 87.6067 160.678 87.39 160.764 87.21C160.851 87.03 160.894 86.8467 160.894 86.66C160.894 86.3467 160.794 86.1 160.594 85.92C160.401 85.74 160.151 85.65 159.844 85.65C159.524 85.65 159.248 85.7433 159.014 85.93C158.781 86.11 158.611 86.3767 158.504 86.73L157.314 86.36C157.394 85.9667 157.558 85.6267 157.804 85.34C158.051 85.0467 158.351 84.8233 158.704 84.67C159.064 84.51 159.444 84.43 159.844 84.43C160.324 84.43 160.744 84.5167 161.104 84.69C161.471 84.8633 161.754 85.1067 161.954 85.42C162.161 85.7333 162.264 86.1 162.264 86.52C162.264 86.7867 162.214 87.05 162.114 87.31C162.014 87.57 161.864 87.8367 161.664 88.11C161.464 88.3767 161.204 88.6767 160.884 89.01L159.134 90.85H162.364V92H157.364ZM166.553 92V90.36H163.133V89.22L166.473 84.55H167.893V89.22H168.983V90.36H167.893V92H166.553ZM164.133 89.71L163.893 89.22H166.553V85.62L166.903 85.73L164.133 89.71ZM170.846 92L176.886 84.55H178.286L172.246 92H170.846ZM172.006 88.33C171.64 88.33 171.306 88.2433 171.006 88.07C170.713 87.89 170.48 87.6533 170.306 87.36C170.133 87.0667 170.046 86.74 170.046 86.38C170.046 86.02 170.133 85.6933 170.306 85.4C170.48 85.1 170.713 84.8633 171.006 84.69C171.306 84.5167 171.64 84.43 172.006 84.43C172.38 84.43 172.713 84.5167 173.006 84.69C173.3 84.8633 173.533 85.1 173.706 85.4C173.88 85.6933 173.966 86.02 173.966 86.38C173.966 86.74 173.88 87.0667 173.706 87.36C173.533 87.6533 173.3 87.89 173.006 88.07C172.713 88.2433 172.38 88.33 172.006 88.33ZM172.006 87.32C172.206 87.32 172.373 87.2767 172.506 87.19C172.64 87.0967 172.74 86.98 172.806 86.84C172.88 86.6933 172.916 86.54 172.916 86.38C172.916 86.2133 172.88 86.06 172.806 85.92C172.74 85.78 172.64 85.6633 172.506 85.57C172.373 85.4767 172.206 85.43 172.006 85.43C171.82 85.43 171.656 85.4767 171.516 85.57C171.383 85.6633 171.28 85.7833 171.206 85.93C171.133 86.07 171.096 86.22 171.096 86.38C171.096 86.5333 171.133 86.6833 171.206 86.83C171.28 86.9767 171.383 87.0967 171.516 87.19C171.656 87.2767 171.82 87.32 172.006 87.32ZM177.086 92.12C176.72 92.12 176.386 92.0333 176.086 91.86C175.793 91.68 175.56 91.4433 175.386 91.15C175.213 90.8567 175.126 90.53 175.126 90.17C175.126 89.81 175.213 89.4833 175.386 89.19C175.56 88.89 175.793 88.6533 176.086 88.48C176.386 88.3067 176.72 88.22 177.086 88.22C177.46 88.22 177.793 88.3067 178.086 88.48C178.38 88.6533 178.613 88.89 178.786 89.19C178.96 89.4833 179.046 89.81 179.046 90.17C179.046 90.53 178.96 90.8567 178.786 91.15C178.613 91.4433 178.38 91.68 178.086 91.86C177.793 92.0333 177.46 92.12 177.086 92.12ZM177.086 91.11C177.28 91.11 177.443 91.0667 177.576 90.98C177.716 90.8867 177.82 90.77 177.886 90.63C177.96 90.4833 177.996 90.33 177.996 90.17C177.996 90.0033 177.96 89.85 177.886 89.71C177.82 89.57 177.716 89.4533 177.576 89.36C177.443 89.2667 177.28 89.22 177.086 89.22C176.9 89.22 176.736 89.2667 176.596 89.36C176.463 89.4533 176.36 89.5733 176.286 89.72C176.213 89.86 176.176 90.01 176.176 90.17C176.176 90.3233 176.213 90.4733 176.286 90.62C176.36 90.7667 176.463 90.8867 176.596 90.98C176.736 91.0667 176.9 91.11 177.086 91.11ZM180.145 93.7C180.619 92.9867 180.972 92.2467 181.205 91.48C181.445 90.7133 181.565 89.9267 181.565 89.12C181.565 88.3133 181.445 87.53 181.205 86.77C180.972 86.0033 180.619 85.2633 180.145 84.55H181.245C181.805 85.1967 182.225 85.9033 182.505 86.67C182.785 87.4367 182.925 88.2533 182.925 89.12C182.925 89.9867 182.785 90.8033 182.505 91.57C182.225 92.3367 181.805 93.0467 181.245 93.7H180.145Z" fill="white" fill-opacity="0.8"/>
<rect x="120" y="68" width="101" height="4" rx="2" fill="#E3E7ED" fill-opacity="0.3"/>
<g filter="url(#filter9_bd_5779_15268)">
<rect x="120" y="68" width="84" height="4" rx="2" fill="url(#paint13_linear_5779_15268)" shape-rendering="crispEdges"/>
<rect x="120.5" y="68.5" width="83" height="3" rx="1.5" stroke="url(#paint14_linear_5779_15268)" shape-rendering="crispEdges"/>
</g>
<defs>
<filter id="filter0_bd_5779_15268" x="0" y="0" width="283" height="162" filterUnits="userSpaceOnUse" color-interpolation-filters="sRGB">
<feFlood flood-opacity="0" result="BackgroundImageFix"/>
<feGaussianBlur in="BackgroundImageFix" stdDeviation="7"/>
<feComposite in2="SourceAlpha" operator="in" result="effect1_backgroundBlur_5779_15268"/>
<feColorMatrix in="SourceAlpha" type="matrix" values="0 0 0 0 0 0 0 0 0 0 0 0 0 0 0 0 0 0 127 0" result="hardAlpha"/>
<feOffset dy="12"/>
<feGaussianBlur stdDeviation="18"/>
<feComposite in2="hardAlpha" operator="out"/>
<feColorMatrix type="matrix" values="0 0 0 0 0.0741111 0 0 0 0 0.0853889 0 0 0 0 0.0966667 0 0 0 0.35 0"/>
<feBlend mode="normal" in2="effect1_backgroundBlur_5779_15268" result="effect2_dropShadow_5779_15268"/>
<feBlend mode="normal" in="SourceGraphic" in2="effect2_dropShadow_5779_15268" result="shape"/>
</filter>
<filter id="filter1_bd_5779_15268" x="32.5" y="23.5" width="75" height="81" filterUnits="userSpaceOnUse" color-interpolation-filters="sRGB">
<feFlood flood-opacity="0" result="BackgroundImageFix"/>
<feGaussianBlur in="BackgroundImageFix" stdDeviation="7"/>
<feComposite in2="SourceAlpha" operator="in" result="effect1_backgroundBlur_5779_15268"/>
<feColorMatrix in="SourceAlpha" type="matrix" values="0 0 0 0 0 0 0 0 0 0 0 0 0 0 0 0 0 0 127 0" result="hardAlpha"/>
<feOffset dy="12"/>
<feGaussianBlur stdDeviation="18"/>
<feComposite in2="hardAlpha" operator="out"/>
<feColorMatrix type="matrix" values="0 0 0 0 0.525833 0 0 0 0 0.525833 0 0 0 0 0.525833 0 0 0 0.25 0"/>
<feBlend mode="normal" in2="effect1_backgroundBlur_5779_15268" result="effect2_dropShadow_5779_15268"/>
<feBlend mode="normal" in="SourceGraphic" in2="effect2_dropShadow_5779_15268" result="shape"/>
</filter>
<filter id="filter2_bd_5779_15268" x="32.5" y="23.5" width="75" height="81" filterUnits="userSpaceOnUse" color-interpolation-filters="sRGB">
<feFlood flood-opacity="0" result="BackgroundImageFix"/>
<feGaussianBlur in="BackgroundImageFix" stdDeviation="7"/>
<feComposite in2="SourceAlpha" operator="in" result="effect1_backgroundBlur_5779_15268"/>
<feColorMatrix in="SourceAlpha" type="matrix" values="0 0 0 0 0 0 0 0 0 0 0 0 0 0 0 0 0 0 127 0" result="hardAlpha"/>
<feOffset dy="12"/>
<feGaussianBlur stdDeviation="18"/>
<feComposite in2="hardAlpha" operator="out"/>
<feColorMatrix type="matrix" values="0 0 0 0 0.525833 0 0 0 0 0.525833 0 0 0 0 0.525833 0 0 0 0.25 0"/>
<feBlend mode="normal" in2="effect1_backgroundBlur_5779_15268" result="effect2_dropShadow_5779_15268"/>
<feBlend mode="normal" in="SourceGraphic" in2="effect2_dropShadow_5779_15268" result="shape"/>
</filter>
<filter id="filter3_bd_5779_15268" x="48.5" y="23.5" width="75" height="81" filterUnits="userSpaceOnUse" color-interpolation-filters="sRGB">
<feFlood flood-opacity="0" result="BackgroundImageFix"/>
<feGaussianBlur in="BackgroundImageFix" stdDeviation="7"/>
<feComposite in2="SourceAlpha" operator="in" result="effect1_backgroundBlur_5779_15268"/>
<feColorMatrix in="SourceAlpha" type="matrix" values="0 0 0 0 0 0 0 0 0 0 0 0 0 0 0 0 0 0 127 0" result="hardAlpha"/>
<feOffset dy="12"/>
<feGaussianBlur stdDeviation="18"/>
<feComposite in2="hardAlpha" operator="out"/>
<feColorMatrix type="matrix" values="0 0 0 0 0.525833 0 0 0 0 0.525833 0 0 0 0 0.525833 0 0 0 0.25 0"/>
<feBlend mode="normal" in2="effect1_backgroundBlur_5779_15268" result="effect2_dropShadow_5779_15268"/>
<feBlend mode="normal" in="SourceGraphic" in2="effect2_dropShadow_5779_15268" result="shape"/>
</filter>
<filter id="filter4_bd_5779_15268" x="48.5" y="23.5" width="75" height="81" filterUnits="userSpaceOnUse" color-interpolation-filters="sRGB">
<feFlood flood-opacity="0" result="BackgroundImageFix"/>
<feGaussianBlur in="BackgroundImageFix" stdDeviation="7"/>
<feComposite in2="SourceAlpha" operator="in" result="effect1_backgroundBlur_5779_15268"/>
<feColorMatrix in="SourceAlpha" type="matrix" values="0 0 0 0 0 0 0 0 0 0 0 0 0 0 0 0 0 0 127 0" result="hardAlpha"/>
<feOffset dy="12"/>
<feGaussianBlur stdDeviation="18"/>
<feComposite in2="hardAlpha" operator="out"/>
<feColorMatrix type="matrix" values="0 0 0 0 0.525833 0 0 0 0 0.525833 0 0 0 0 0.525833 0 0 0 0.25 0"/>
<feBlend mode="normal" in2="effect1_backgroundBlur_5779_15268" result="effect2_dropShadow_5779_15268"/>
<feBlend mode="normal" in="SourceGraphic" in2="effect2_dropShadow_5779_15268" result="shape"/>
</filter>
<filter id="filter5_bd_5779_15268" x="24" y="28" width="108" height="109" filterUnits="userSpaceOnUse" color-interpolation-filters="sRGB">
<feFlood flood-opacity="0" result="BackgroundImageFix"/>
<feGaussianBlur in="BackgroundImageFix" stdDeviation="7"/>
<feComposite in2="SourceAlpha" operator="in" result="effect1_backgroundBlur_5779_15268"/>
<feColorMatrix in="SourceAlpha" type="matrix" values="0 0 0 0 0 0 0 0 0 0 0 0 0 0 0 0 0 0 127 0" result="hardAlpha"/>
<feOffset dy="12"/>
<feGaussianBlur stdDeviation="18"/>
<feComposite in2="hardAlpha" operator="out"/>
<feColorMatrix type="matrix" values="0 0 0 0 0.525833 0 0 0 0 0.525833 0 0 0 0 0.525833 0 0 0 0.25 0"/>
<feBlend mode="normal" in2="effect1_backgroundBlur_5779_15268" result="effect2_dropShadow_5779_15268"/>
<feBlend mode="normal" in="SourceGraphic" in2="effect2_dropShadow_5779_15268" result="shape"/>
</filter>
<filter id="filter6_bd_5779_15268" x="32.5" y="41.5" width="87" height="75" filterUnits="userSpaceOnUse" color-interpolation-filters="sRGB">
<feFlood flood-opacity="0" result="BackgroundImageFix"/>
<feGaussianBlur in="BackgroundImageFix" stdDeviation="7"/>
<feComposite in2="SourceAlpha" operator="in" result="effect1_backgroundBlur_5779_15268"/>
<feColorMatrix in="SourceAlpha" type="matrix" values="0 0 0 0 0 0 0 0 0 0 0 0 0 0 0 0 0 0 127 0" result="hardAlpha"/>
<feOffset dy="12"/>
<feGaussianBlur stdDeviation="18"/>
<feComposite in2="hardAlpha" operator="out"/>
<feColorMatrix type="matrix" values="0 0 0 0 0.525833 0 0 0 0 0.525833 0 0 0 0 0.525833 0 0 0 0.25 0"/>
<feBlend mode="normal" in2="effect1_backgroundBlur_5779_15268" result="effect2_dropShadow_5779_15268"/>
<feBlend mode="normal" in="SourceGraphic" in2="effect2_dropShadow_5779_15268" result="shape"/>
</filter>
<filter id="filter7_bd_5779_15268" x="32.5" y="51.5" width="81" height="75" filterUnits="userSpaceOnUse" color-interpolation-filters="sRGB">
<feFlood flood-opacity="0" result="BackgroundImageFix"/>
<feGaussianBlur in="BackgroundImageFix" stdDeviation="7"/>
<feComposite in2="SourceAlpha" operator="in" result="effect1_backgroundBlur_5779_15268"/>
<feColorMatrix in="SourceAlpha" type="matrix" values="0 0 0 0 0 0 0 0 0 0 0 0 0 0 0 0 0 0 127 0" result="hardAlpha"/>
<feOffset dy="12"/>
<feGaussianBlur stdDeviation="18"/>
<feComposite in2="hardAlpha" operator="out"/>
<feColorMatrix type="matrix" values="0 0 0 0 0.525833 0 0 0 0 0.525833 0 0 0 0 0.525833 0 0 0 0.25 0"/>
<feBlend mode="normal" in2="effect1_backgroundBlur_5779_15268" result="effect2_dropShadow_5779_15268"/>
<feBlend mode="normal" in="SourceGraphic" in2="effect2_dropShadow_5779_15268" result="shape"/>
</filter>
<filter id="filter8_bd_5779_15268" x="45" y="46" width="93" height="93" filterUnits="userSpaceOnUse" color-interpolation-filters="sRGB">
<feFlood flood-opacity="0" result="BackgroundImageFix"/>
<feGaussianBlur in="BackgroundImageFix" stdDeviation="7"/>
<feComposite in2="SourceAlpha" operator="in" result="effect1_backgroundBlur_5779_15268"/>
<feColorMatrix in="SourceAlpha" type="matrix" values="0 0 0 0 0 0 0 0 0 0 0 0 0 0 0 0 0 0 127 0" result="hardAlpha"/>
<feOffset dy="12"/>
<feGaussianBlur stdDeviation="18"/>
<feComposite in2="hardAlpha" operator="out"/>
<feColorMatrix type="matrix" values="0 0 0 0 0.525833 0 0 0 0 0.525833 0 0 0 0 0.525833 0 0 0 0.25 0"/>
<feBlend mode="normal" in2="effect1_backgroundBlur_5779_15268" result="effect2_dropShadow_5779_15268"/>
<feBlend mode="normal" in="SourceGraphic" in2="effect2_dropShadow_5779_15268" result="shape"/>
</filter>
<filter id="filter9_bd_5779_15268" x="84" y="44" width="156" height="76" filterUnits="userSpaceOnUse" color-interpolation-filters="sRGB">
<feFlood flood-opacity="0" result="BackgroundImageFix"/>
<feGaussianBlur in="BackgroundImageFix" stdDeviation="7"/>
<feComposite in2="SourceAlpha" operator="in" result="effect1_backgroundBlur_5779_15268"/>
<feColorMatrix in="SourceAlpha" type="matrix" values="0 0 0 0 0 0 0 0 0 0 0 0 0 0 0 0 0 0 127 0" result="hardAlpha"/>
<feOffset dy="12"/>
<feGaussianBlur stdDeviation="18"/>
<feComposite in2="hardAlpha" operator="out"/>
<feColorMatrix type="matrix" values="0 0 0 0 0.525833 0 0 0 0 0.525833 0 0 0 0 0.525833 0 0 0 0.25 0"/>
<feBlend mode="normal" in2="effect1_backgroundBlur_5779_15268" result="effect2_dropShadow_5779_15268"/>
<feBlend mode="normal" in="SourceGraphic" in2="effect2_dropShadow_5779_15268" result="shape"/>
</filter>
<linearGradient id="paint0_linear_5779_15268" x1="41.9058" y1="24" x2="78.4356" y2="161.495" gradientUnits="userSpaceOnUse">
<stop stop-color="white" stop-opacity="0.6"/>
<stop offset="0.0001" stop-color="white" stop-opacity="0.5"/>
<stop offset="1" stop-color="white" stop-opacity="0"/>
</linearGradient>
<linearGradient id="paint1_linear_5779_15268" x1="258.006" y1="115.521" x2="219.995" y2="-25.5702" gradientUnits="userSpaceOnUse">
<stop stop-color="white" stop-opacity="0.5"/>
<stop offset="1" stop-color="white" stop-opacity="0"/>
</linearGradient>
<linearGradient id="paint2_linear_5779_15268" x1="68.584" y1="47.5" x2="74.7077" y2="50.7771" gradientUnits="userSpaceOnUse">
<stop stop-color="white" stop-opacity="0.6"/>
<stop offset="0.0001" stop-color="white" stop-opacity="0.5"/>
<stop offset="1" stop-color="white" stop-opacity="0"/>
</linearGradient>
<linearGradient id="paint3_linear_5779_15268" x1="71.6565" y1="56.6521" x2="65.4098" y2="53.3554" gradientUnits="userSpaceOnUse">
<stop stop-color="white" stop-opacity="0.5"/>
<stop offset="1" stop-color="white" stop-opacity="0"/>
</linearGradient>
<linearGradient id="paint4_linear_5779_15268" x1="84.584" y1="47.5" x2="90.7077" y2="50.7771" gradientUnits="userSpaceOnUse">
<stop stop-color="white" stop-opacity="0.6"/>
<stop offset="0.0001" stop-color="white" stop-opacity="0.5"/>
<stop offset="1" stop-color="white" stop-opacity="0"/>
</linearGradient>
<linearGradient id="paint5_linear_5779_15268" x1="87.6565" y1="56.6521" x2="81.4098" y2="53.3554" gradientUnits="userSpaceOnUse">
<stop stop-color="white" stop-opacity="0.5"/>
<stop offset="1" stop-color="white" stop-opacity="0"/>
</linearGradient>
<linearGradient id="paint6_linear_5779_15268" x1="61.0076" y1="52" x2="88.4866" y2="94.9241" gradientUnits="userSpaceOnUse">
<stop stop-color="white" stop-opacity="0.6"/>
<stop offset="0.0001" stop-color="white" stop-opacity="0.5"/>
<stop offset="1" stop-color="white" stop-opacity="0"/>
</linearGradient>
<linearGradient id="paint7_linear_5779_15268" x1="97.8779" y1="89.6252" x2="69.4645" y2="45.856" gradientUnits="userSpaceOnUse">
<stop stop-color="white" stop-opacity="0.5"/>
<stop offset="1" stop-color="white" stop-opacity="0"/>
</linearGradient>
<linearGradient id="paint8_linear_5779_15268" x1="84.2824" y1="68.5507" x2="83.6552" y2="63.5855" gradientUnits="userSpaceOnUse">
<stop stop-color="white" stop-opacity="0.5"/>
<stop offset="1" stop-color="white" stop-opacity="0"/>
</linearGradient>
<linearGradient id="paint9_linear_5779_15268" x1="77.9695" y1="78.5507" x2="76.9525" y2="73.7204" gradientUnits="userSpaceOnUse">
<stop stop-color="white" stop-opacity="0.5"/>
<stop offset="1" stop-color="white" stop-opacity="0"/>
</linearGradient>
<linearGradient id="paint10_linear_5779_15268" x1="81.5878" y1="70" x2="97.0014" y2="94.7459" gradientUnits="userSpaceOnUse">
<stop stop-color="#F9911F"/>
<stop offset="0.0001" stop-color="white" stop-opacity="0.5"/>
<stop offset="1" stop-color="#F9911F"/>
</linearGradient>
<linearGradient id="paint11_linear_5779_15268" x1="103.095" y1="91.3549" x2="87.1527" y2="66.1138" gradientUnits="userSpaceOnUse">
<stop stop-color="white" stop-opacity="0.5"/>
<stop offset="1" stop-color="white" stop-opacity="0"/>
</linearGradient>
<linearGradient id="paint12_linear_5779_15268" x1="112.225" y1="48.5" x2="209.486" y2="91.0234" gradientUnits="userSpaceOnUse">
<stop offset="0.202647" stop-color="white"/>
<stop offset="1" stop-color="#F79023"/>
</linearGradient>
<linearGradient id="paint13_linear_5779_15268" x1="122.351" y1="68" x2="122.545" y2="74.5365" gradientUnits="userSpaceOnUse">
<stop stop-color="#F9911F"/>
<stop offset="0.0001" stop-color="white" stop-opacity="0.5"/>
<stop offset="1" stop-color="#F9911F"/>
</linearGradient>
<linearGradient id="paint14_linear_5779_15268" x1="208.382" y1="72.0676" x2="208.18" y2="65.3478" gradientUnits="userSpaceOnUse">
<stop stop-color="white" stop-opacity="0.5"/>
<stop offset="1" stop-color="white" stop-opacity="0"/>
</linearGradient>
</defs>
</svg>
