<svg width="330" height="232" viewBox="0 0 330 232" fill="none" xmlns="http://www.w3.org/2000/svg">
<g opacity="0.82">
<path d="M0 40C0 21.1438 0 11.7157 5.85786 5.85786C11.7157 0 21.1438 0 40 0H290C308.856 0 318.284 0 324.142 5.85786C330 11.7157 330 21.1438 330 40V192C330 210.856 330 220.284 324.142 226.142C318.284 232 308.856 232 290 232H40C21.1438 232 11.7157 232 5.85786 226.142C0 220.284 0 210.856 0 192V40Z" fill="#344ED8"/>
<path d="M0.5 40C0.5 30.5578 0.501062 23.5264 1.22777 18.1212C1.95255 12.7304 3.39087 9.03197 6.21142 6.21142C9.03197 3.39087 12.7304 1.95255 18.1212 1.22777C23.5264 0.501062 30.5578 0.5 40 0.5H290C299.442 0.5 306.474 0.501062 311.879 1.22777C317.27 1.95255 320.968 3.39087 323.789 6.21142C326.609 9.03197 328.047 12.7304 328.772 18.1212C329.499 23.5264 329.5 30.5578 329.5 40V192C329.5 201.442 329.499 208.474 328.772 213.879C328.047 219.27 326.609 222.968 323.789 225.789C320.968 228.609 317.27 230.047 311.879 230.772C306.474 231.499 299.442 231.5 290 231.5H40C30.5578 231.5 23.5264 231.499 18.1212 230.772C12.7304 230.047 9.03197 228.609 6.21142 225.789C3.39087 222.968 1.95255 219.27 1.22777 213.879C0.501062 208.474 0.5 201.442 0.5 192V40Z" stroke="#E0E0E0" stroke-opacity="0.5"/>
</g>
</svg>
