<svg width="283" height="162" viewBox="0 0 283 162" fill="none" xmlns="http://www.w3.org/2000/svg">
<g filter="url(#filter0_d_5779_15278)">
<g filter="url(#filter1_bd_5779_15278)">
<rect x="36" y="24" width="211" height="90" rx="16" fill="url(#paint0_linear_5779_15278)" fill-opacity="0.3" shape-rendering="crispEdges"/>
<rect x="36.5" y="24.5" width="210" height="89" rx="15.5" stroke="url(#paint1_linear_5779_15278)" shape-rendering="crispEdges"/>
</g>
<path d="M122.223 55L120.206 47.7273H121.36L122.777 53.3594H122.844L124.318 47.7273H125.462L126.935 53.3629H127.003L128.416 47.7273H129.574L127.553 55H126.449L124.918 49.5526H124.862L123.331 55H122.223ZM132.703 55.1101C132.166 55.1101 131.703 54.9953 131.314 54.7656C130.929 54.5336 130.63 54.2081 130.42 53.7891C130.211 53.3677 130.107 52.8741 130.107 52.3082C130.107 51.7495 130.211 51.2571 130.42 50.831C130.63 50.4048 130.924 50.0722 131.3 49.8331C131.679 49.594 132.122 49.4744 132.628 49.4744C132.936 49.4744 133.234 49.5253 133.523 49.6271C133.812 49.7289 134.071 49.8887 134.301 50.1065C134.531 50.3243 134.712 50.6072 134.844 50.9553C134.977 51.3009 135.043 51.7211 135.043 52.2159V52.5923H130.707V51.7969H134.003C134.003 51.5175 133.946 51.2701 133.832 51.0547C133.719 50.8369 133.559 50.6652 133.353 50.5398C133.149 50.4143 132.91 50.3516 132.635 50.3516C132.337 50.3516 132.077 50.425 131.854 50.5717C131.634 50.7161 131.464 50.9055 131.343 51.1399C131.224 51.3719 131.165 51.6241 131.165 51.8963V52.5178C131.165 52.8823 131.229 53.1925 131.357 53.4482C131.487 53.7038 131.668 53.8991 131.9 54.0341C132.132 54.1667 132.403 54.233 132.714 54.233C132.915 54.233 133.098 54.2045 133.264 54.1477C133.43 54.0885 133.573 54.0009 133.694 53.8849C133.814 53.7689 133.907 53.6257 133.971 53.4553L134.976 53.6364C134.895 53.9323 134.751 54.1915 134.542 54.4141C134.336 54.6342 134.077 54.8059 133.765 54.929C133.455 55.0497 133.101 55.1101 132.703 55.1101ZM136.706 55V47.7273H137.768V50.4297H137.832C137.894 50.3161 137.982 50.1847 138.098 50.0355C138.214 49.8864 138.375 49.7562 138.581 49.6449C138.787 49.5312 139.06 49.4744 139.398 49.4744C139.839 49.4744 140.232 49.5857 140.577 49.8082C140.923 50.0308 141.194 50.3516 141.39 50.7706C141.589 51.1896 141.689 51.6939 141.689 52.2834C141.689 52.8729 141.59 53.3783 141.394 53.7997C141.197 54.2187 140.928 54.5419 140.584 54.7692C140.241 54.9941 139.849 55.1065 139.409 55.1065C139.077 55.1065 138.806 55.0509 138.596 54.9396C138.387 54.8284 138.224 54.6982 138.106 54.549C137.987 54.3999 137.896 54.2673 137.832 54.1513H137.743V55H136.706ZM137.747 52.2727C137.747 52.6562 137.803 52.9924 137.914 53.2812C138.025 53.5701 138.186 53.7962 138.397 53.9595C138.607 54.1205 138.866 54.201 139.171 54.201C139.488 54.201 139.753 54.117 139.966 53.9489C140.179 53.7784 140.34 53.5476 140.449 53.2564C140.561 52.9652 140.616 52.6373 140.616 52.2727C140.616 51.9129 140.562 51.5897 140.453 51.3033C140.346 51.0168 140.185 50.7907 139.97 50.625C139.757 50.4593 139.491 50.3764 139.171 50.3764C138.863 50.3764 138.603 50.4557 138.39 50.6143C138.179 50.773 138.019 50.9943 137.91 51.2784C137.801 51.5625 137.747 51.8939 137.747 52.2727ZM143.281 55V49.5455H144.343V55H143.281ZM143.817 48.7038C143.633 48.7038 143.474 48.6423 143.341 48.5192C143.211 48.3937 143.146 48.2446 143.146 48.0717C143.146 47.8965 143.211 47.7474 143.341 47.6243C143.474 47.4988 143.633 47.4361 143.817 47.4361C144.002 47.4361 144.159 47.4988 144.289 47.6243C144.422 47.7474 144.488 47.8965 144.488 48.0717C144.488 48.2446 144.422 48.3937 144.289 48.5192C144.159 48.6423 144.002 48.7038 143.817 48.7038ZM147.233 51.7614V55H146.171V49.5455H147.19V50.4332H147.258C147.383 50.1444 147.58 49.9124 147.847 49.7372C148.117 49.562 148.457 49.4744 148.867 49.4744C149.238 49.4744 149.564 49.5526 149.843 49.7088C150.122 49.8627 150.339 50.0923 150.493 50.3977C150.647 50.7031 150.724 51.0807 150.724 51.5305V55H149.662V51.6584C149.662 51.263 149.559 50.9541 149.353 50.7315C149.147 50.5066 148.864 50.3942 148.504 50.3942C148.258 50.3942 148.039 50.4474 147.847 50.554C147.658 50.6605 147.508 50.8168 147.396 51.0227C147.287 51.2263 147.233 51.4725 147.233 51.7614ZM154.135 55.1207C153.789 55.1207 153.477 55.0568 153.198 54.929C152.918 54.7988 152.697 54.6106 152.534 54.3643C152.373 54.1181 152.292 53.8163 152.292 53.4588C152.292 53.151 152.351 52.8977 152.47 52.6989C152.588 52.5 152.748 52.3426 152.949 52.2266C153.15 52.1106 153.375 52.023 153.624 51.9638C153.872 51.9046 154.126 51.8596 154.384 51.8288C154.71 51.791 154.976 51.7602 155.179 51.7365C155.383 51.7105 155.531 51.669 155.623 51.6122C155.715 51.5554 155.762 51.4631 155.762 51.3352V51.3104C155.762 51.0002 155.674 50.7599 155.499 50.5895C155.326 50.419 155.068 50.3338 154.725 50.3338C154.367 50.3338 154.085 50.4131 153.879 50.5717C153.676 50.728 153.535 50.902 153.457 51.0938L152.459 50.8665C152.577 50.535 152.75 50.2675 152.977 50.0639C153.207 49.858 153.471 49.7088 153.769 49.6165C154.068 49.5218 154.381 49.4744 154.71 49.4744C154.928 49.4744 155.159 49.5005 155.403 49.5526C155.649 49.6023 155.879 49.6946 156.092 49.8295C156.307 49.9645 156.484 50.1574 156.621 50.4084C156.758 50.657 156.827 50.9801 156.827 51.3778V55H155.79V54.2543H155.747C155.679 54.3916 155.576 54.5265 155.438 54.6591C155.301 54.7917 155.125 54.9018 154.909 54.9893C154.694 55.0769 154.436 55.1207 154.135 55.1207ZM154.366 54.2685C154.66 54.2685 154.91 54.2105 155.119 54.0945C155.329 53.9785 155.489 53.8269 155.598 53.6399C155.709 53.4505 155.765 53.2481 155.765 53.0327V52.3295C155.727 52.3674 155.654 52.4029 155.545 52.4361C155.438 52.4669 155.316 52.4941 155.179 52.5178C155.042 52.5391 154.908 52.5592 154.778 52.5781C154.648 52.5947 154.539 52.6089 154.451 52.6207C154.245 52.6468 154.057 52.6906 153.887 52.7521C153.718 52.8137 153.584 52.9025 153.482 53.0185C153.382 53.1321 153.333 53.2836 153.333 53.473C153.333 53.7358 153.43 53.9347 153.624 54.0696C153.818 54.2022 154.065 54.2685 154.366 54.2685ZM158.641 55V49.5455H159.667V50.4119H159.724C159.824 50.1184 159.999 49.8875 160.25 49.7195C160.503 49.549 160.79 49.4638 161.109 49.4638C161.175 49.4638 161.254 49.4661 161.344 49.4709C161.436 49.4756 161.508 49.4815 161.56 49.4886V50.5043C161.518 50.4924 161.442 50.4794 161.333 50.4652C161.224 50.4486 161.115 50.4403 161.006 50.4403C160.755 50.4403 160.532 50.4936 160.335 50.6001C160.141 50.7043 159.987 50.8499 159.873 51.0369C159.76 51.2216 159.703 51.4323 159.703 51.669V55H158.641ZM166.011 47.7273H167.342L169.658 53.3807H169.743L172.058 47.7273H173.39V55H172.346V49.7372H172.278L170.134 54.9893H169.267L167.122 49.7337H167.055V55H166.011V47.7273ZM176.887 55.1207C176.542 55.1207 176.229 55.0568 175.95 54.929C175.671 54.7988 175.449 54.6106 175.286 54.3643C175.125 54.1181 175.044 53.8163 175.044 53.4588C175.044 53.151 175.104 52.8977 175.222 52.6989C175.34 52.5 175.5 52.3426 175.701 52.2266C175.903 52.1106 176.128 52.023 176.376 51.9638C176.625 51.9046 176.878 51.8596 177.136 51.8288C177.463 51.791 177.728 51.7602 177.931 51.7365C178.135 51.7105 178.283 51.669 178.375 51.6122C178.468 51.5554 178.514 51.4631 178.514 51.3352V51.3104C178.514 51.0002 178.426 50.7599 178.251 50.5895C178.078 50.419 177.82 50.3338 177.477 50.3338C177.119 50.3338 176.838 50.4131 176.632 50.5717C176.428 50.728 176.287 50.902 176.209 51.0938L175.211 50.8665C175.33 50.535 175.503 50.2675 175.73 50.0639C175.959 49.858 176.223 49.7088 176.522 49.6165C176.82 49.5218 177.134 49.4744 177.463 49.4744C177.681 49.4744 177.911 49.5005 178.155 49.5526C178.401 49.6023 178.631 49.6946 178.844 49.8295C179.06 49.9645 179.236 50.1574 179.373 50.4084C179.511 50.657 179.579 50.9801 179.579 51.3778V55H178.542V54.2543H178.5C178.431 54.3916 178.328 54.5265 178.191 54.6591C178.053 54.7917 177.877 54.9018 177.662 54.9893C177.446 55.0769 177.188 55.1207 176.887 55.1207ZM177.118 54.2685C177.412 54.2685 177.663 54.2105 177.871 54.0945C178.082 53.9785 178.242 53.8269 178.351 53.6399C178.462 53.4505 178.517 53.2481 178.517 53.0327V52.3295C178.48 52.3674 178.406 52.4029 178.297 52.4361C178.191 52.4669 178.069 52.4941 177.931 52.5178C177.794 52.5391 177.66 52.5592 177.53 52.5781C177.4 52.5947 177.291 52.6089 177.204 52.6207C176.998 52.6468 176.809 52.6906 176.639 52.7521C176.471 52.8137 176.336 52.9025 176.234 53.0185C176.135 53.1321 176.085 53.2836 176.085 53.473C176.085 53.7358 176.182 53.9347 176.376 54.0696C176.57 54.2022 176.818 54.2685 177.118 54.2685ZM181.393 55V49.5455H182.42V50.4119H182.477C182.576 50.1184 182.751 49.8875 183.002 49.7195C183.255 49.549 183.542 49.4638 183.862 49.4638C183.928 49.4638 184.006 49.4661 184.096 49.4709C184.188 49.4756 184.26 49.4815 184.312 49.4886V50.5043C184.27 50.4924 184.194 50.4794 184.085 50.4652C183.976 50.4486 183.867 50.4403 183.759 50.4403C183.508 50.4403 183.284 50.4936 183.087 50.6001C182.893 50.7043 182.739 50.8499 182.626 51.0369C182.512 51.2216 182.455 51.4323 182.455 51.669V55H181.393ZM186.608 53.1499L186.601 51.8537H186.785L188.959 49.5455H190.23L187.751 52.1733H187.584L186.608 53.1499ZM185.631 55V47.7273H186.693V55H185.631ZM189.076 55L187.123 52.4077L187.854 51.6655L190.379 55H189.076ZM193.724 55.1101C193.187 55.1101 192.724 54.9953 192.336 54.7656C191.95 54.5336 191.651 54.2081 191.441 53.7891C191.232 53.3677 191.128 52.8741 191.128 52.3082C191.128 51.7495 191.232 51.2571 191.441 50.831C191.651 50.4048 191.945 50.0722 192.321 49.8331C192.7 49.594 193.143 49.4744 193.649 49.4744C193.957 49.4744 194.255 49.5253 194.544 49.6271C194.833 49.7289 195.092 49.8887 195.322 50.1065C195.552 50.3243 195.733 50.6072 195.865 50.9553C195.998 51.3009 196.064 51.7211 196.064 52.2159V52.5923H191.728V51.7969H195.024C195.024 51.5175 194.967 51.2701 194.853 51.0547C194.74 50.8369 194.58 50.6652 194.374 50.5398C194.17 50.4143 193.931 50.3516 193.657 50.3516C193.358 50.3516 193.098 50.425 192.875 50.5717C192.655 50.7161 192.485 50.9055 192.364 51.1399C192.246 51.3719 192.186 51.6241 192.186 51.8963V52.5178C192.186 52.8823 192.25 53.1925 192.378 53.4482C192.508 53.7038 192.689 53.8991 192.921 54.0341C193.153 54.1667 193.425 54.233 193.735 54.233C193.936 54.233 194.119 54.2045 194.285 54.1477C194.451 54.0885 194.594 54.0009 194.715 53.8849C194.836 53.7689 194.928 53.6257 194.992 53.4553L195.997 53.6364C195.916 53.9323 195.772 54.1915 195.563 54.4141C195.358 54.6342 195.098 54.8059 194.786 54.929C194.476 55.0497 194.122 55.1101 193.724 55.1101ZM200.188 49.5455V50.3977H197.209V49.5455H200.188ZM198.008 48.2386H199.07V53.3984C199.07 53.6044 199.101 53.7595 199.162 53.8636C199.224 53.9654 199.303 54.0353 199.4 54.0732C199.5 54.1087 199.607 54.1264 199.723 54.1264C199.808 54.1264 199.883 54.1205 199.947 54.1087C200.011 54.0968 200.061 54.0874 200.096 54.0803L200.288 54.9574C200.226 54.9811 200.139 55.0047 200.025 55.0284C199.911 55.0545 199.769 55.0687 199.599 55.071C199.32 55.0758 199.059 55.026 198.818 54.9219C198.576 54.8177 198.381 54.6567 198.232 54.4389C198.083 54.2211 198.008 53.9477 198.008 53.6186V48.2386ZM201.763 55V49.5455H202.825V55H201.763ZM202.299 48.7038C202.115 48.7038 201.956 48.6423 201.823 48.5192C201.693 48.3937 201.628 48.2446 201.628 48.0717C201.628 47.8965 201.693 47.7474 201.823 47.6243C201.956 47.4988 202.115 47.4361 202.299 47.4361C202.484 47.4361 202.641 47.4988 202.772 47.6243C202.904 47.7474 202.97 47.8965 202.97 48.0717C202.97 48.2446 202.904 48.3937 202.772 48.5192C202.641 48.6423 202.484 48.7038 202.299 48.7038ZM205.715 51.7614V55H204.653V49.5455H205.672V50.4332H205.74C205.865 50.1444 206.062 49.9124 206.329 49.7372C206.599 49.562 206.939 49.4744 207.349 49.4744C207.72 49.4744 208.046 49.5526 208.325 49.7088C208.604 49.8627 208.821 50.0923 208.975 50.3977C209.129 50.7031 209.206 51.0807 209.206 51.5305V55H208.144V51.6584C208.144 51.263 208.041 50.9541 207.835 50.7315C207.629 50.5066 207.346 50.3942 206.986 50.3942C206.74 50.3942 206.521 50.4474 206.329 50.554C206.14 50.6605 205.99 50.8168 205.878 51.0227C205.769 51.2263 205.715 51.4725 205.715 51.7614ZM213.317 57.1591C212.883 57.1591 212.511 57.1023 212.198 56.9886C211.888 56.875 211.635 56.7247 211.438 56.5376C211.242 56.3506 211.095 56.1458 210.998 55.9233L211.91 55.5469C211.974 55.651 212.06 55.7611 212.166 55.8771C212.275 55.9955 212.422 56.0961 212.607 56.179C212.794 56.2618 213.034 56.3033 213.327 56.3033C213.73 56.3033 214.062 56.205 214.325 56.0085C214.588 55.8144 214.719 55.5043 214.719 55.0781V54.0057H214.652C214.588 54.1217 214.496 54.2507 214.375 54.3928C214.257 54.5348 214.093 54.6579 213.885 54.7621C213.677 54.8662 213.406 54.9183 213.072 54.9183C212.641 54.9183 212.253 54.8177 211.907 54.6165C211.564 54.4129 211.291 54.1134 211.09 53.718C210.891 53.3203 210.792 52.8314 210.792 52.2514C210.792 51.6714 210.89 51.1742 211.087 50.7599C211.285 50.3456 211.558 50.0284 211.903 49.8082C212.249 49.5857 212.641 49.4744 213.079 49.4744C213.417 49.4744 213.691 49.5312 213.899 49.6449C214.107 49.7562 214.27 49.8864 214.386 50.0355C214.504 50.1847 214.595 50.3161 214.659 50.4297H214.737V49.5455H215.778V55.1207C215.778 55.5895 215.669 55.9742 215.451 56.2749C215.233 56.5755 214.938 56.7981 214.567 56.9425C214.197 57.0869 213.781 57.1591 213.317 57.1591ZM213.306 54.0376C213.611 54.0376 213.87 53.9666 214.08 53.8246C214.293 53.6802 214.454 53.4742 214.563 53.2067C214.674 52.9368 214.73 52.6136 214.73 52.2372C214.73 51.8703 214.676 51.5471 214.567 51.2678C214.458 50.9884 214.298 50.7706 214.087 50.6143C213.877 50.4557 213.616 50.3764 213.306 50.3764C212.986 50.3764 212.72 50.4593 212.507 50.625C212.294 50.7884 212.133 51.0109 212.024 51.2926C211.918 51.5743 211.864 51.8892 211.864 52.2372C211.864 52.5947 211.919 52.9084 212.028 53.1783C212.137 53.4482 212.298 53.6589 212.511 53.8104C212.726 53.9619 212.991 54.0376 213.306 54.0376Z" fill="url(#paint2_linear_5779_15278)" fill-opacity="0.8"/>
<path d="M122.74 92V90.06H120.8V88.93H122.74V87H123.87V88.93H125.8V90.06H123.87V92H122.74ZM129.572 92.12C129.178 92.12 128.802 92.0467 128.442 91.9C128.088 91.7533 127.782 91.5467 127.522 91.28C127.268 91.0067 127.095 90.6833 127.002 90.31L128.182 89.89C128.295 90.23 128.478 90.4833 128.732 90.65C128.985 90.81 129.265 90.89 129.572 90.89C129.825 90.89 130.048 90.8367 130.242 90.73C130.442 90.6167 130.595 90.4633 130.702 90.27C130.808 90.07 130.862 89.84 130.862 89.58C130.862 89.32 130.805 89.0933 130.692 88.9C130.585 88.7067 130.435 88.5567 130.242 88.45C130.048 88.3367 129.825 88.28 129.572 88.28C129.312 88.28 129.075 88.3367 128.862 88.45C128.655 88.5633 128.505 88.7267 128.412 88.94L127.302 88.69L127.892 84.55H131.952V85.7H128.432L128.942 85.11L128.522 88.23L128.132 87.91C128.318 87.6367 128.545 87.4367 128.812 87.31C129.085 87.1833 129.415 87.12 129.802 87.12C130.295 87.12 130.722 87.2267 131.082 87.44C131.448 87.6533 131.732 87.9433 131.932 88.31C132.132 88.6767 132.232 89.1 132.232 89.58C132.232 90.06 132.115 90.4933 131.882 90.88C131.648 91.2667 131.332 91.57 130.932 91.79C130.532 92.01 130.078 92.12 129.572 92.12ZM135.774 92.12C135.267 92.12 134.817 92.0133 134.424 91.8C134.037 91.58 133.734 91.2867 133.514 90.92C133.294 90.5467 133.184 90.1233 133.184 89.65C133.184 89.41 133.207 89.17 133.254 88.93C133.307 88.69 133.401 88.4333 133.534 88.16C133.674 87.8867 133.874 87.5833 134.134 87.25L136.214 84.55H137.834L135.304 87.8L135.084 87.56C135.177 87.4867 135.274 87.43 135.374 87.39C135.474 87.3433 135.574 87.31 135.674 87.29C135.781 87.27 135.891 87.26 136.004 87.26C136.457 87.26 136.861 87.3633 137.214 87.57C137.567 87.7767 137.844 88.06 138.044 88.42C138.251 88.7733 138.354 89.1733 138.354 89.62C138.354 90.1 138.244 90.53 138.024 90.91C137.804 91.2833 137.497 91.58 137.104 91.8C136.717 92.0133 136.274 92.12 135.774 92.12ZM135.774 90.89C136.001 90.89 136.204 90.84 136.384 90.74C136.571 90.6333 136.717 90.4833 136.824 90.29C136.937 90.0967 136.994 89.88 136.994 89.64C136.994 89.3867 136.937 89.17 136.824 88.99C136.717 88.8033 136.574 88.6567 136.394 88.55C136.214 88.4433 136.007 88.39 135.774 88.39C135.547 88.39 135.341 88.4433 135.154 88.55C134.967 88.6567 134.817 88.8033 134.704 88.99C134.597 89.17 134.544 89.3867 134.544 89.64C134.544 89.88 134.597 90.0967 134.704 90.29C134.817 90.4833 134.967 90.6333 135.154 90.74C135.341 90.84 135.547 90.89 135.774 90.89ZM139.23 92V90.97L141.25 88.86C141.65 88.44 141.956 88.1067 142.17 87.86C142.39 87.6067 142.543 87.39 142.63 87.21C142.716 87.03 142.76 86.8467 142.76 86.66C142.76 86.3467 142.66 86.1 142.46 85.92C142.266 85.74 142.016 85.65 141.71 85.65C141.39 85.65 141.113 85.7433 140.88 85.93C140.646 86.11 140.476 86.3767 140.37 86.73L139.18 86.36C139.26 85.9667 139.423 85.6267 139.67 85.34C139.916 85.0467 140.216 84.8233 140.57 84.67C140.93 84.51 141.31 84.43 141.71 84.43C142.19 84.43 142.61 84.5167 142.97 84.69C143.336 84.8633 143.62 85.1067 143.82 85.42C144.026 85.7333 144.13 86.1 144.13 86.52C144.13 86.7867 144.08 87.05 143.98 87.31C143.88 87.57 143.73 87.8367 143.53 88.11C143.33 88.3767 143.07 88.6767 142.75 89.01L141 90.85H144.23V92H139.23Z" fill="#F9911F"/>
<path d="M148.844 93.7C148.284 93.0467 147.86 92.3367 147.574 91.57C147.294 90.8033 147.154 89.9867 147.154 89.12C147.154 88.2533 147.294 87.4367 147.574 86.67C147.854 85.9033 148.277 85.1967 148.844 84.55H149.944C149.464 85.2633 149.104 86.0033 148.864 86.77C148.63 87.53 148.514 88.3133 148.514 89.12C148.514 89.9267 148.634 90.7133 148.874 91.48C149.114 92.2467 149.47 92.9867 149.944 93.7H148.844ZM153.043 92V90.06H151.103V88.93H153.043V87H154.173V88.93H156.103V90.06H154.173V92H153.043ZM157.364 92V90.97L159.384 88.86C159.784 88.44 160.091 88.1067 160.304 87.86C160.524 87.6067 160.678 87.39 160.764 87.21C160.851 87.03 160.894 86.8467 160.894 86.66C160.894 86.3467 160.794 86.1 160.594 85.92C160.401 85.74 160.151 85.65 159.844 85.65C159.524 85.65 159.248 85.7433 159.014 85.93C158.781 86.11 158.611 86.3767 158.504 86.73L157.314 86.36C157.394 85.9667 157.558 85.6267 157.804 85.34C158.051 85.0467 158.351 84.8233 158.704 84.67C159.064 84.51 159.444 84.43 159.844 84.43C160.324 84.43 160.744 84.5167 161.104 84.69C161.471 84.8633 161.754 85.1067 161.954 85.42C162.161 85.7333 162.264 86.1 162.264 86.52C162.264 86.7867 162.214 87.05 162.114 87.31C162.014 87.57 161.864 87.8367 161.664 88.11C161.464 88.3767 161.204 88.6767 160.884 89.01L159.134 90.85H162.364V92H157.364ZM166.553 92V90.36H163.133V89.22L166.473 84.55H167.893V89.22H168.983V90.36H167.893V92H166.553ZM164.133 89.71L163.893 89.22H166.553V85.62L166.903 85.73L164.133 89.71ZM170.846 92L176.886 84.55H178.286L172.246 92H170.846ZM172.006 88.33C171.64 88.33 171.306 88.2433 171.006 88.07C170.713 87.89 170.48 87.6533 170.306 87.36C170.133 87.0667 170.046 86.74 170.046 86.38C170.046 86.02 170.133 85.6933 170.306 85.4C170.48 85.1 170.713 84.8633 171.006 84.69C171.306 84.5167 171.64 84.43 172.006 84.43C172.38 84.43 172.713 84.5167 173.006 84.69C173.3 84.8633 173.533 85.1 173.706 85.4C173.88 85.6933 173.966 86.02 173.966 86.38C173.966 86.74 173.88 87.0667 173.706 87.36C173.533 87.6533 173.3 87.89 173.006 88.07C172.713 88.2433 172.38 88.33 172.006 88.33ZM172.006 87.32C172.206 87.32 172.373 87.2767 172.506 87.19C172.64 87.0967 172.74 86.98 172.806 86.84C172.88 86.6933 172.916 86.54 172.916 86.38C172.916 86.2133 172.88 86.06 172.806 85.92C172.74 85.78 172.64 85.6633 172.506 85.57C172.373 85.4767 172.206 85.43 172.006 85.43C171.82 85.43 171.656 85.4767 171.516 85.57C171.383 85.6633 171.28 85.7833 171.206 85.93C171.133 86.07 171.096 86.22 171.096 86.38C171.096 86.5333 171.133 86.6833 171.206 86.83C171.28 86.9767 171.383 87.0967 171.516 87.19C171.656 87.2767 171.82 87.32 172.006 87.32ZM177.086 92.12C176.72 92.12 176.386 92.0333 176.086 91.86C175.793 91.68 175.56 91.4433 175.386 91.15C175.213 90.8567 175.126 90.53 175.126 90.17C175.126 89.81 175.213 89.4833 175.386 89.19C175.56 88.89 175.793 88.6533 176.086 88.48C176.386 88.3067 176.72 88.22 177.086 88.22C177.46 88.22 177.793 88.3067 178.086 88.48C178.38 88.6533 178.613 88.89 178.786 89.19C178.96 89.4833 179.046 89.81 179.046 90.17C179.046 90.53 178.96 90.8567 178.786 91.15C178.613 91.4433 178.38 91.68 178.086 91.86C177.793 92.0333 177.46 92.12 177.086 92.12ZM177.086 91.11C177.28 91.11 177.443 91.0667 177.576 90.98C177.716 90.8867 177.82 90.77 177.886 90.63C177.96 90.4833 177.996 90.33 177.996 90.17C177.996 90.0033 177.96 89.85 177.886 89.71C177.82 89.57 177.716 89.4533 177.576 89.36C177.443 89.2667 177.28 89.22 177.086 89.22C176.9 89.22 176.736 89.2667 176.596 89.36C176.463 89.4533 176.36 89.5733 176.286 89.72C176.213 89.86 176.176 90.01 176.176 90.17C176.176 90.3233 176.213 90.4733 176.286 90.62C176.36 90.7667 176.463 90.8867 176.596 90.98C176.736 91.0667 176.9 91.11 177.086 91.11ZM180.145 93.7C180.619 92.9867 180.972 92.2467 181.205 91.48C181.445 90.7133 181.565 89.9267 181.565 89.12C181.565 88.3133 181.445 87.53 181.205 86.77C180.972 86.0033 180.619 85.2633 180.145 84.55H181.245C181.805 85.1967 182.225 85.9033 182.505 86.67C182.785 87.4367 182.925 88.2533 182.925 89.12C182.925 89.9867 182.785 90.8033 182.505 91.57C182.225 92.3367 181.805 93.0467 181.245 93.7H180.145Z" fill="white" fill-opacity="0.8"/>
<rect x="120" y="68" width="101" height="4" rx="2" fill="#E3E7ED" fill-opacity="0.3"/>
<g filter="url(#filter2_bd_5779_15278)">
<rect x="120" y="68" width="84" height="4" rx="2" fill="url(#paint3_linear_5779_15278)" shape-rendering="crispEdges"/>
<rect x="120.5" y="68.5" width="83" height="3" rx="1.5" stroke="url(#paint4_linear_5779_15278)" shape-rendering="crispEdges"/>
</g>
<g filter="url(#filter3_bd_5779_15278)">
<path d="M94 69.4V72.8C94 79.1 90.4 81.8 85 81.8H67C61.6 81.8 58 79.1 58 72.8V62C58 55.7 61.6 53 67 53H72.4C72.14 53.76 72 54.6 72 55.5V63.3C72 65.24 72.64 66.88 73.78 68.02C74.92 69.16 76.56 69.8 78.5 69.8V72.58C78.5 73.6 79.66 74.22 80.52 73.66L86.3 69.8H91.5C92.4 69.8 93.24 69.66 94 69.4Z" fill="url(#paint5_linear_5779_15278)" shape-rendering="crispEdges"/>
<path d="M73.4264 68.3736C74.5719 69.5191 76.1609 70.1847 78 70.2864V72.58C78 74.005 79.6071 74.8512 80.7928 74.079L80.7929 74.0791L80.7977 74.0758L86.4516 70.3H91.5C92.2006 70.3 92.8703 70.2198 93.5 70.0663V72.8C93.5 75.8547 92.6297 77.9544 91.1848 79.2962C89.7331 80.6441 87.6234 81.3 85 81.3H67C64.3766 81.3 62.2669 80.6441 60.8152 79.2962C59.3703 77.9544 58.5 75.8547 58.5 72.8V62C58.5 58.9453 59.3703 56.8457 60.8152 55.5039C62.2669 54.1559 64.3766 53.5 67 53.5H71.7337C71.5802 54.1297 71.5 54.7994 71.5 55.5V63.3C71.5 65.3509 72.1783 67.1255 73.4264 68.3736Z" stroke="url(#paint6_linear_5779_15278)" shape-rendering="crispEdges"/>
</g>
<g filter="url(#filter4_bd_5779_15278)">
<path d="M98 55.5V63.3C98 66.28 96.48 68.52 94 69.4C93.24 69.66 92.4 69.8 91.5 69.8H86.3L80.52 73.66C79.66 74.22 78.5 73.6 78.5 72.58V69.8C76.56 69.8 74.92 69.16 73.78 68.02C72.64 66.88 72 65.24 72 63.3V55.5C72 54.6 72.14 53.76 72.4 53C73.28 50.52 75.52 49 78.5 49H91.5C95.4 49 98 51.6 98 55.5Z" fill="url(#paint7_linear_5779_15278)" shape-rendering="crispEdges"/>
<path d="M86.3 69.3H86.1484L86.0223 69.3842L80.245 73.2424C79.711 73.5879 79 73.1941 79 72.58V69.8V69.3H78.5C76.6709 69.3 75.1655 68.6984 74.1336 67.6665C73.1017 66.6346 72.5 65.1292 72.5 63.3V55.5C72.5 54.653 72.6315 53.8689 72.8722 53.1645C73.674 50.9083 75.7076 49.5 78.5 49.5H91.5C93.3364 49.5 94.8278 50.1099 95.8589 51.1411C96.8901 52.1722 97.5 53.6636 97.5 55.5V63.3C97.5 66.0925 96.0917 68.1261 93.8354 68.9279C93.1311 69.1685 92.3469 69.3 91.5 69.3H86.3Z" stroke="url(#paint8_linear_5779_15278)" shape-rendering="crispEdges"/>
</g>
<g filter="url(#filter5_bd_5779_15278)">
<path d="M83.2 87.5H77.5V81.8C77.5 80.98 76.82 80.3 76 80.3C75.18 80.3 74.5 80.98 74.5 81.8V87.5H68.8C67.98 87.5 67.3 88.18 67.3 89C67.3 89.82 67.98 90.5 68.8 90.5H83.2C84.0201 90.5 84.7001 89.82 84.7001 89C84.7001 88.18 84.0201 87.5 83.2 87.5Z" fill="#FAAA51" fill-opacity="0.8" shape-rendering="crispEdges"/>
<path d="M77 87.5V88H77.5H83.2C83.7439 88 84.2001 88.4561 84.2001 89C84.2001 89.5439 83.7439 90 83.2 90H68.8C68.2562 90 67.8 89.5439 67.8 89C67.8 88.4561 68.2562 88 68.8 88H74.5H75V87.5V81.8C75 81.2562 75.4562 80.8 76 80.8C76.5439 80.8 77 81.2562 77 81.8V87.5Z" stroke="url(#paint9_linear_5779_15278)" shape-rendering="crispEdges"/>
</g>
<g filter="url(#filter6_bd_5779_15278)">
<path d="M84.88 60.5C84.3205 60.5 83.88 60.0482 83.88 59.5C83.88 58.9561 84.3361 58.5 84.88 58.5C85.4239 58.5 85.88 58.9561 85.88 59.5C85.88 60.0439 85.4239 60.5 84.88 60.5Z" fill="url(#paint10_linear_5779_15278)" stroke="url(#paint11_linear_5779_15278)"/>
</g>
<g filter="url(#filter7_bd_5779_15278)">
<path d="M90.5 60.5C89.9405 60.5 89.5 60.0482 89.5 59.5C89.5 58.9561 89.9561 58.5 90.5 58.5C91.0439 58.5 91.5 58.9561 91.5 59.5C91.5 60.0439 91.0439 60.5 90.5 60.5Z" fill="url(#paint12_linear_5779_15278)" stroke="url(#paint13_linear_5779_15278)"/>
</g>
<g filter="url(#filter8_bd_5779_15278)">
<path d="M79.24 61C78.4 61 77.74 60.32 77.74 59.5C77.74 58.68 78.42 58 79.24 58C80.06 58 80.74 58.68 80.74 59.5C80.74 60.32 80.08 61 79.24 61Z" fill="url(#paint14_linear_5779_15278)" shape-rendering="crispEdges"/>
<path d="M79.24 60.5C78.6805 60.5 78.24 60.0482 78.24 59.5C78.24 58.9561 78.6961 58.5 79.24 58.5C79.7838 58.5 80.24 58.9561 80.24 59.5C80.24 60.0482 79.7995 60.5 79.24 60.5Z" stroke="url(#paint15_linear_5779_15278)" shape-rendering="crispEdges"/>
</g>
</g>
<defs>
<filter id="filter0_d_5779_15278" x="32" y="24" width="219" height="98" filterUnits="userSpaceOnUse" color-interpolation-filters="sRGB">
<feFlood flood-opacity="0" result="BackgroundImageFix"/>
<feColorMatrix in="SourceAlpha" type="matrix" values="0 0 0 0 0 0 0 0 0 0 0 0 0 0 0 0 0 0 127 0" result="hardAlpha"/>
<feOffset dy="4"/>
<feGaussianBlur stdDeviation="2"/>
<feComposite in2="hardAlpha" operator="out"/>
<feColorMatrix type="matrix" values="0 0 0 0 0 0 0 0 0 0 0 0 0 0 0 0 0 0 0.25 0"/>
<feBlend mode="normal" in2="BackgroundImageFix" result="effect1_dropShadow_5779_15278"/>
<feBlend mode="normal" in="SourceGraphic" in2="effect1_dropShadow_5779_15278" result="shape"/>
</filter>
<filter id="filter1_bd_5779_15278" x="0" y="0" width="283" height="162" filterUnits="userSpaceOnUse" color-interpolation-filters="sRGB">
<feFlood flood-opacity="0" result="BackgroundImageFix"/>
<feGaussianBlur in="BackgroundImageFix" stdDeviation="7"/>
<feComposite in2="SourceAlpha" operator="in" result="effect1_backgroundBlur_5779_15278"/>
<feColorMatrix in="SourceAlpha" type="matrix" values="0 0 0 0 0 0 0 0 0 0 0 0 0 0 0 0 0 0 127 0" result="hardAlpha"/>
<feOffset dy="12"/>
<feGaussianBlur stdDeviation="18"/>
<feComposite in2="hardAlpha" operator="out"/>
<feColorMatrix type="matrix" values="0 0 0 0 0.0741111 0 0 0 0 0.0853889 0 0 0 0 0.0966667 0 0 0 0.35 0"/>
<feBlend mode="normal" in2="effect1_backgroundBlur_5779_15278" result="effect2_dropShadow_5779_15278"/>
<feBlend mode="normal" in="SourceGraphic" in2="effect2_dropShadow_5779_15278" result="shape"/>
</filter>
<filter id="filter2_bd_5779_15278" x="84" y="44" width="156" height="76" filterUnits="userSpaceOnUse" color-interpolation-filters="sRGB">
<feFlood flood-opacity="0" result="BackgroundImageFix"/>
<feGaussianBlur in="BackgroundImageFix" stdDeviation="7"/>
<feComposite in2="SourceAlpha" operator="in" result="effect1_backgroundBlur_5779_15278"/>
<feColorMatrix in="SourceAlpha" type="matrix" values="0 0 0 0 0 0 0 0 0 0 0 0 0 0 0 0 0 0 127 0" result="hardAlpha"/>
<feOffset dy="12"/>
<feGaussianBlur stdDeviation="18"/>
<feComposite in2="hardAlpha" operator="out"/>
<feColorMatrix type="matrix" values="0 0 0 0 0.525833 0 0 0 0 0.525833 0 0 0 0 0.525833 0 0 0 0.25 0"/>
<feBlend mode="normal" in2="effect1_backgroundBlur_5779_15278" result="effect2_dropShadow_5779_15278"/>
<feBlend mode="normal" in="SourceGraphic" in2="effect2_dropShadow_5779_15278" result="shape"/>
</filter>
<filter id="filter3_bd_5779_15278" x="22" y="29" width="108" height="100.8" filterUnits="userSpaceOnUse" color-interpolation-filters="sRGB">
<feFlood flood-opacity="0" result="BackgroundImageFix"/>
<feGaussianBlur in="BackgroundImageFix" stdDeviation="7"/>
<feComposite in2="SourceAlpha" operator="in" result="effect1_backgroundBlur_5779_15278"/>
<feColorMatrix in="SourceAlpha" type="matrix" values="0 0 0 0 0 0 0 0 0 0 0 0 0 0 0 0 0 0 127 0" result="hardAlpha"/>
<feOffset dy="12"/>
<feGaussianBlur stdDeviation="18"/>
<feComposite in2="hardAlpha" operator="out"/>
<feColorMatrix type="matrix" values="0 0 0 0 0.525833 0 0 0 0 0.525833 0 0 0 0 0.525833 0 0 0 0.25 0"/>
<feBlend mode="normal" in2="effect1_backgroundBlur_5779_15278" result="effect2_dropShadow_5779_15278"/>
<feBlend mode="normal" in="SourceGraphic" in2="effect2_dropShadow_5779_15278" result="shape"/>
</filter>
<filter id="filter4_bd_5779_15278" x="36" y="25" width="98" height="96.8713" filterUnits="userSpaceOnUse" color-interpolation-filters="sRGB">
<feFlood flood-opacity="0" result="BackgroundImageFix"/>
<feGaussianBlur in="BackgroundImageFix" stdDeviation="7"/>
<feComposite in2="SourceAlpha" operator="in" result="effect1_backgroundBlur_5779_15278"/>
<feColorMatrix in="SourceAlpha" type="matrix" values="0 0 0 0 0 0 0 0 0 0 0 0 0 0 0 0 0 0 127 0" result="hardAlpha"/>
<feOffset dy="12"/>
<feGaussianBlur stdDeviation="18"/>
<feComposite in2="hardAlpha" operator="out"/>
<feColorMatrix type="matrix" values="0 0 0 0 0.525833 0 0 0 0 0.525833 0 0 0 0 0.525833 0 0 0 0.25 0"/>
<feBlend mode="normal" in2="effect1_backgroundBlur_5779_15278" result="effect2_dropShadow_5779_15278"/>
<feBlend mode="normal" in="SourceGraphic" in2="effect2_dropShadow_5779_15278" result="shape"/>
</filter>
<filter id="filter5_bd_5779_15278" x="31.3" y="56.3" width="89.4" height="82.2" filterUnits="userSpaceOnUse" color-interpolation-filters="sRGB">
<feFlood flood-opacity="0" result="BackgroundImageFix"/>
<feGaussianBlur in="BackgroundImageFix" stdDeviation="7"/>
<feComposite in2="SourceAlpha" operator="in" result="effect1_backgroundBlur_5779_15278"/>
<feColorMatrix in="SourceAlpha" type="matrix" values="0 0 0 0 0 0 0 0 0 0 0 0 0 0 0 0 0 0 127 0" result="hardAlpha"/>
<feOffset dy="12"/>
<feGaussianBlur stdDeviation="18"/>
<feComposite in2="hardAlpha" operator="out"/>
<feColorMatrix type="matrix" values="0 0 0 0 0.525833 0 0 0 0 0.525833 0 0 0 0 0.525833 0 0 0 0.25 0"/>
<feBlend mode="normal" in2="effect1_backgroundBlur_5779_15278" result="effect2_dropShadow_5779_15278"/>
<feBlend mode="normal" in="SourceGraphic" in2="effect2_dropShadow_5779_15278" result="shape"/>
</filter>
<filter id="filter6_bd_5779_15278" x="47.38" y="34" width="75" height="75" filterUnits="userSpaceOnUse" color-interpolation-filters="sRGB">
<feFlood flood-opacity="0" result="BackgroundImageFix"/>
<feGaussianBlur in="BackgroundImageFix" stdDeviation="7"/>
<feComposite in2="SourceAlpha" operator="in" result="effect1_backgroundBlur_5779_15278"/>
<feColorMatrix in="SourceAlpha" type="matrix" values="0 0 0 0 0 0 0 0 0 0 0 0 0 0 0 0 0 0 127 0" result="hardAlpha"/>
<feOffset dy="12"/>
<feGaussianBlur stdDeviation="18"/>
<feComposite in2="hardAlpha" operator="out"/>
<feColorMatrix type="matrix" values="0 0 0 0 0.525833 0 0 0 0 0.525833 0 0 0 0 0.525833 0 0 0 0.25 0"/>
<feBlend mode="normal" in2="effect1_backgroundBlur_5779_15278" result="effect2_dropShadow_5779_15278"/>
<feBlend mode="normal" in="SourceGraphic" in2="effect2_dropShadow_5779_15278" result="shape"/>
</filter>
<filter id="filter7_bd_5779_15278" x="53" y="34" width="75" height="75" filterUnits="userSpaceOnUse" color-interpolation-filters="sRGB">
<feFlood flood-opacity="0" result="BackgroundImageFix"/>
<feGaussianBlur in="BackgroundImageFix" stdDeviation="7"/>
<feComposite in2="SourceAlpha" operator="in" result="effect1_backgroundBlur_5779_15278"/>
<feColorMatrix in="SourceAlpha" type="matrix" values="0 0 0 0 0 0 0 0 0 0 0 0 0 0 0 0 0 0 127 0" result="hardAlpha"/>
<feOffset dy="12"/>
<feGaussianBlur stdDeviation="18"/>
<feComposite in2="hardAlpha" operator="out"/>
<feColorMatrix type="matrix" values="0 0 0 0 0.525833 0 0 0 0 0.525833 0 0 0 0 0.525833 0 0 0 0.25 0"/>
<feBlend mode="normal" in2="effect1_backgroundBlur_5779_15278" result="effect2_dropShadow_5779_15278"/>
<feBlend mode="normal" in="SourceGraphic" in2="effect2_dropShadow_5779_15278" result="shape"/>
</filter>
<filter id="filter8_bd_5779_15278" x="41.74" y="34" width="75" height="75" filterUnits="userSpaceOnUse" color-interpolation-filters="sRGB">
<feFlood flood-opacity="0" result="BackgroundImageFix"/>
<feGaussianBlur in="BackgroundImageFix" stdDeviation="7"/>
<feComposite in2="SourceAlpha" operator="in" result="effect1_backgroundBlur_5779_15278"/>
<feColorMatrix in="SourceAlpha" type="matrix" values="0 0 0 0 0 0 0 0 0 0 0 0 0 0 0 0 0 0 127 0" result="hardAlpha"/>
<feOffset dy="12"/>
<feGaussianBlur stdDeviation="18"/>
<feComposite in2="hardAlpha" operator="out"/>
<feColorMatrix type="matrix" values="0 0 0 0 0.525833 0 0 0 0 0.525833 0 0 0 0 0.525833 0 0 0 0.25 0"/>
<feBlend mode="normal" in2="effect1_backgroundBlur_5779_15278" result="effect2_dropShadow_5779_15278"/>
<feBlend mode="normal" in="SourceGraphic" in2="effect2_dropShadow_5779_15278" result="shape"/>
</filter>
<linearGradient id="paint0_linear_5779_15278" x1="41.9058" y1="24" x2="78.4356" y2="161.495" gradientUnits="userSpaceOnUse">
<stop stop-color="white" stop-opacity="0.6"/>
<stop offset="0.0001" stop-color="white" stop-opacity="0.5"/>
<stop offset="1" stop-color="white" stop-opacity="0"/>
</linearGradient>
<linearGradient id="paint1_linear_5779_15278" x1="258.006" y1="115.521" x2="219.995" y2="-25.5702" gradientUnits="userSpaceOnUse">
<stop stop-color="white" stop-opacity="0.5"/>
<stop offset="1" stop-color="white" stop-opacity="0"/>
</linearGradient>
<linearGradient id="paint2_linear_5779_15278" x1="112.144" y1="48.5" x2="210.089" y2="91.7686" gradientUnits="userSpaceOnUse">
<stop offset="0.202647" stop-color="white"/>
<stop offset="1" stop-color="#F79023"/>
</linearGradient>
<linearGradient id="paint3_linear_5779_15278" x1="122.351" y1="68" x2="122.545" y2="74.5365" gradientUnits="userSpaceOnUse">
<stop stop-color="#F9911F"/>
<stop offset="0.0001" stop-color="white" stop-opacity="0.5"/>
<stop offset="1" stop-color="#F9911F"/>
</linearGradient>
<linearGradient id="paint4_linear_5779_15278" x1="208.382" y1="72.0676" x2="208.18" y2="65.3478" gradientUnits="userSpaceOnUse">
<stop stop-color="white" stop-opacity="0.5"/>
<stop offset="1" stop-color="white" stop-opacity="0"/>
</linearGradient>
<linearGradient id="paint5_linear_5779_15278" x1="59.0076" y1="53" x2="77.8107" y2="90.7344" gradientUnits="userSpaceOnUse">
<stop stop-color="white" stop-opacity="0.6"/>
<stop offset="0.0001" stop-color="white" stop-opacity="0.5"/>
<stop offset="1" stop-color="white" stop-opacity="0"/>
</linearGradient>
<linearGradient id="paint6_linear_5779_15278" x1="95.8779" y1="82.2867" x2="76.3852" y2="43.71" gradientUnits="userSpaceOnUse">
<stop stop-color="white" stop-opacity="0.5"/>
<stop offset="1" stop-color="white" stop-opacity="0"/>
</linearGradient>
<linearGradient id="paint7_linear_5779_15278" x1="72.7277" y1="49" x2="90.6149" y2="79.0205" gradientUnits="userSpaceOnUse">
<stop stop-color="#F9911F"/>
<stop offset="0.0001" stop-color="white" stop-opacity="0.5"/>
<stop offset="1" stop-color="#F9911F"/>
</linearGradient>
<linearGradient id="paint8_linear_5779_15278" x1="99.3562" y1="74.2915" x2="80.8459" y2="43.6553" gradientUnits="userSpaceOnUse">
<stop stop-color="white" stop-opacity="0.5"/>
<stop offset="1" stop-color="white" stop-opacity="0"/>
</linearGradient>
<linearGradient id="paint9_linear_5779_15278" x1="85.6077" y1="90.6724" x2="80.0231" y2="75.5893" gradientUnits="userSpaceOnUse">
<stop stop-color="white" stop-opacity="0.5"/>
<stop offset="1" stop-color="white" stop-opacity="0"/>
</linearGradient>
<linearGradient id="paint10_linear_5779_15278" x1="83.464" y1="58" x2="85.6659" y2="61.5351" gradientUnits="userSpaceOnUse">
<stop stop-color="white" stop-opacity="0.6"/>
<stop offset="0.0001" stop-color="white" stop-opacity="0.5"/>
<stop offset="1" stop-color="white" stop-opacity="0"/>
</linearGradient>
<linearGradient id="paint11_linear_5779_15278" x1="86.5365" y1="61.0507" x2="84.259" y2="57.4448" gradientUnits="userSpaceOnUse">
<stop stop-color="white" stop-opacity="0.5"/>
<stop offset="1" stop-color="white" stop-opacity="0"/>
</linearGradient>
<linearGradient id="paint12_linear_5779_15278" x1="89.084" y1="58" x2="91.2859" y2="61.5351" gradientUnits="userSpaceOnUse">
<stop stop-color="white" stop-opacity="0.6"/>
<stop offset="0.0001" stop-color="white" stop-opacity="0.5"/>
<stop offset="1" stop-color="white" stop-opacity="0"/>
</linearGradient>
<linearGradient id="paint13_linear_5779_15278" x1="92.1565" y1="61.0507" x2="89.879" y2="57.4448" gradientUnits="userSpaceOnUse">
<stop stop-color="white" stop-opacity="0.5"/>
<stop offset="1" stop-color="white" stop-opacity="0"/>
</linearGradient>
<linearGradient id="paint14_linear_5779_15278" x1="77.824" y1="58" x2="80.0259" y2="61.5351" gradientUnits="userSpaceOnUse">
<stop stop-color="white" stop-opacity="0.6"/>
<stop offset="0.0001" stop-color="white" stop-opacity="0.5"/>
<stop offset="1" stop-color="white" stop-opacity="0"/>
</linearGradient>
<linearGradient id="paint15_linear_5779_15278" x1="80.8965" y1="61.0507" x2="78.619" y2="57.4448" gradientUnits="userSpaceOnUse">
<stop stop-color="white" stop-opacity="0.5"/>
<stop offset="1" stop-color="white" stop-opacity="0"/>
</linearGradient>
</defs>
</svg>
