<svg width="38" height="38" viewBox="0 0 38 38" fill="none" xmlns="http://www.w3.org/2000/svg">
<g id="material-symbols-light:laptop-mac-outline">
<path id="Vector" d="M3.59409 30.5108C3.04731 30.5108 2.57547 30.3118 2.17859 29.9139C1.7817 29.517 1.58325 29.0457 1.58325 28.5H7.307C6.57867 28.5 5.97067 28.2561 5.483 27.7685C4.99428 27.2798 4.74992 26.6712 4.74992 25.9429V8.8904C4.74992 8.16206 4.99428 7.55406 5.483 7.0664C5.97067 6.57767 6.57867 6.33331 7.307 6.33331H30.6928C31.4212 6.33331 32.0292 6.57767 32.5168 7.0664C33.0056 7.55406 33.2499 8.16206 33.2499 8.8904V25.9429C33.2499 26.6712 33.0061 27.2792 32.5184 27.7669C32.0297 28.2556 31.4212 28.5 30.6928 28.5H36.4166C36.4166 29.0457 36.2181 29.517 35.8213 29.9139C35.4244 30.3108 34.9531 30.5092 34.4073 30.5092L3.59409 30.5108ZM18.9999 29.7191C19.2659 29.7191 19.495 29.6231 19.6871 29.431C19.8792 29.2389 19.9747 29.0098 19.9737 28.7438C19.9737 28.4778 19.8781 28.2488 19.6871 28.0566C19.495 27.8645 19.2659 27.7685 18.9999 27.7685C18.7339 27.7685 18.5049 27.8645 18.3128 28.0566C18.1217 28.2488 18.0262 28.4778 18.0262 28.7438C18.0262 29.0098 18.1217 29.2389 18.3128 29.431C18.5049 29.622 18.7339 29.7176 18.9999 29.7176M7.307 26.9166H30.6928C30.9356 26.9166 31.1589 26.8153 31.3626 26.6126C31.5653 26.4089 31.6666 26.1857 31.6666 25.9429V8.8904C31.6666 8.64762 31.5653 8.42437 31.3626 8.22065C31.1589 8.01798 30.9356 7.91665 30.6928 7.91665H7.307C7.06422 7.91665 6.84097 8.01798 6.63725 8.22065C6.43459 8.42437 6.33325 8.64762 6.33325 8.8904V25.9429C6.33325 26.1857 6.43459 26.4089 6.63725 26.6126C6.84097 26.8153 7.06422 26.9166 7.307 26.9166Z" fill="white"/>
</g>
</svg>
