<svg width="227" height="159" viewBox="0 0 227 159" fill="none" xmlns="http://www.w3.org/2000/svg">
<g id="OBJECTS">
<g id="Group">
<path id="Vector" opacity="0.46" d="M115.864 158.149C168.438 158.149 211.058 154.17 211.058 149.261C211.058 144.352 168.438 140.372 115.864 140.372C63.2894 140.372 20.6694 144.352 20.6694 149.261C20.6694 154.17 63.2894 158.149 115.864 158.149Z" fill="#CACACA"/>
<g id="Group_2">
<path id="Vector_2" d="M226.1 0L154.678 20.0908L171.929 37.5518C152.785 57.0115 128.854 81.4675 128.223 82.6246C127.171 84.5706 108.553 46.5454 108.553 46.5454L58.3789 101.979L40.0763 77.7334L0 122.491L37.3941 97.0352L57.59 123.385L102.663 77.5756L121.912 116.863L188.969 54.8026L207.534 73.5785L226.1 0Z" fill="#99A8FA"/>
<path id="Vector_3" d="M122.648 117.021L190.284 56.17L186.445 51.5417L122.648 117.021Z" fill="#495AB8"/>
<path id="Vector_4" d="M57.5901 123.437L105.293 82.7823L102.715 77.6282L57.5901 123.437Z" fill="#495AB8"/>
<path id="Vector_5" d="M37.3941 97.0878L0 122.543L39.9186 100.349L37.3941 97.0878Z" fill="#495AB8"/>
</g>
<g id="Group_3">
<g id="Group_4">
<path id="Vector_6" d="M156.309 79.4164C147.946 65.0057 125.489 71.4748 125.436 71.4748C118.967 79.732 110.552 92.5122 106.66 106.975C99.8756 132.01 108.185 144.58 108.185 144.58C108.185 144.58 112.814 154.257 140.005 151.575C149.261 150.628 157.676 150.996 164.776 150.839C176.82 126.277 164.724 93.827 156.309 79.4164Z" fill="#404799"/>
<path id="Vector_7" d="M187.864 131.747C188.443 109.816 168.247 71.3696 153.942 61.7449H133.851C133.851 61.7449 130.169 65.3739 125.436 71.4222C125.541 71.4222 147.946 64.9531 156.308 79.3638C164.723 93.7745 176.82 126.225 164.776 150.733C178.608 150.47 187.444 148.367 187.864 131.747Z" fill="#3B448E"/>
</g>
<path id="Vector_8" d="M133.851 61.7976C133.851 61.7976 117.021 37.1311 128.855 37.5519C140.688 37.9726 138.532 42.2327 145.947 41.4438C153.363 40.6023 154.783 35.343 163.356 38.6038C171.929 41.8646 152.101 64.1117 152.101 64.1117L133.851 61.7976Z" fill="#404799"/>
<path id="Vector_9" d="M151.522 95.1419C153.1 95.1419 154.415 93.8271 154.415 92.2493C154.415 90.6715 153.1 89.3566 151.522 89.3566H135.271H128.749C127.172 89.3566 125.857 90.6715 125.857 92.2493C125.857 93.8271 127.172 95.1419 128.749 95.1419H135.271C138.058 95.1419 140.425 96.7723 141.53 99.139H128.749C127.172 99.139 125.857 100.454 125.857 102.032C125.857 103.61 127.172 104.924 128.749 104.924H141.53C140.425 107.291 138.058 108.921 135.271 108.921H128.749C127.592 108.921 126.488 109.658 126.067 110.71C125.646 111.762 125.909 113.076 126.751 113.865L143.002 129.223C143.528 129.749 144.264 130.012 145.001 130.012C145.79 130.012 146.526 129.696 147.105 129.117C148.209 127.96 148.156 126.172 146.999 125.068L135.955 114.654C141.635 114.339 146.316 110.289 147.578 104.924H151.522C153.1 104.924 154.415 103.61 154.415 102.032C154.415 100.454 153.1 99.139 151.522 99.139H147.578C147.21 97.719 146.684 96.299 145.842 95.1419H151.522Z" fill="#E9F4F9"/>
<path id="Vector_10" d="M144.054 151.207C144.054 151.207 126.803 151.207 122.333 141.792C122.333 141.792 121.491 149.208 128.329 151.943C128.329 151.996 140.425 152.311 144.054 151.207Z" fill="#3B448E"/>
<path id="Vector_11" d="M150.26 56.1174C150.26 56.1174 155.888 47.5973 157.413 37.4467C157.413 37.4467 169.036 36.3422 164.776 45.3357C164.776 45.3357 162.935 51.2262 155.73 59.6938L150.26 56.1174Z" fill="#3B448E"/>
<g id="Group_5">
<path id="Vector_12" d="M134.008 62.6917C133.377 62.6917 132.746 62.3761 132.378 61.8502C131.8 60.9561 132.063 59.799 132.904 59.2205C133.272 58.9575 142.739 52.8566 155.835 57.5375C156.834 57.9056 157.36 58.9575 156.992 59.9568C156.624 60.9561 155.572 61.482 154.573 61.1138C143.318 57.1167 135.323 62.1657 135.008 62.3761C134.692 62.5865 134.377 62.6917 134.008 62.6917Z" fill="#18186B"/>
<path id="Vector_13" d="M158.412 65.7947C158.202 65.7947 157.991 65.7421 157.781 65.6895C141.266 59.9042 130.695 65.5317 130.59 65.5843C129.696 66.1102 128.539 65.7421 128.013 64.848C127.487 63.9539 127.855 62.7968 128.749 62.2709C129.223 62.0079 140.951 55.8019 159.043 62.1657C160.042 62.5339 160.568 63.5857 160.2 64.585C159.937 65.2687 159.201 65.7947 158.412 65.7947Z" fill="#1C1980"/>
<path id="Vector_14" d="M147.052 79.5742C146.789 79.5742 146.578 79.5216 146.315 79.4164C145.369 78.9957 144.895 77.8912 145.316 76.9445C150.155 65.4791 146 63.2176 145.947 63.2176C146 63.2176 145.737 63.1124 145.737 63.1124L147.42 59.7464C147.63 59.8516 149.524 60.6931 150.628 63.3754C152.101 66.9517 151.47 72.0533 148.735 78.4697C148.524 79.1534 147.788 79.5742 147.052 79.5742Z" fill="#1C1980"/>
<path id="Vector_15" d="M163.146 84.9913C162.094 85.1491 161.147 84.4128 160.989 83.3609C160.989 83.3083 160.516 79.8371 158.728 75.8926C156.414 70.7385 153.153 67.2147 148.998 65.3739C148.051 64.9532 147.631 63.8487 148.051 62.8494C148.472 61.9027 149.576 61.482 150.576 61.9027C162.567 67.2147 164.723 82.2565 164.829 82.8876C164.934 83.8869 164.198 84.8335 163.146 84.9913Z" fill="#1C1980"/>
</g>
</g>
<g id="Group_6">
<path id="Vector_16" fill-rule="evenodd" clip-rule="evenodd" d="M39.9187 140.32C39.9187 140.32 69.5289 138.637 99.1391 140.32H39.9187Z" fill="#F1E28E"/>
<path id="Vector_17" d="M39.9229 140.322V148.211H99.1433V140.322H39.9229Z" fill="#CA9A27"/>
<g id="Group_7">
<g id="Clip path group">
<mask id="mask0_23_1508" style="mask-type:luminance" maskUnits="userSpaceOnUse" x="39" y="140" width="61" height="9">
<g id="SVGID_2_">
<path id="Vector_18" d="M39.9226 140.322V148.211H99.143V140.322H39.9226Z" fill="white"/>
</g>
</mask>
<g mask="url(#mask0_23_1508)">
<g id="Group_8">
<path id="Vector_19" d="M42.6006 150.681V139.057" stroke="#ECD757" stroke-width="1.8694" stroke-miterlimit="10"/>
<path id="Vector_20" d="M47.1238 150.47V138.847" stroke="#ECD757" stroke-width="1.8694" stroke-miterlimit="10"/>
<path id="Vector_21" d="M51.6467 150.26V138.637" stroke="#ECD757" stroke-width="1.8694" stroke-miterlimit="10"/>
<path id="Vector_22" d="M56.1699 149.734V138.111" stroke="#ECD757" stroke-width="1.8694" stroke-miterlimit="10"/>
<path id="Vector_23" d="M60.6929 150.102V138.532" stroke="#ECD757" stroke-width="1.8694" stroke-miterlimit="10"/>
<path id="Vector_24" d="M65.2161 150.102V138.532" stroke="#ECD757" stroke-width="1.8694" stroke-miterlimit="10"/>
<path id="Vector_25" d="M69.739 150.733V139.11" stroke="#ECD757" stroke-width="1.8694" stroke-miterlimit="10"/>
<path id="Vector_26" d="M74.2622 150.102V138.532" stroke="#ECD757" stroke-width="1.8694" stroke-miterlimit="10"/>
<path id="Vector_27" d="M87.8838 150.628V139.057" stroke="#ECD757" stroke-width="1.8694" stroke-miterlimit="10"/>
<path id="Vector_28" d="M78.7849 150.102V138.532" stroke="#ECD757" stroke-width="1.8694" stroke-miterlimit="10"/>
<path id="Vector_29" d="M92.407 150.102V138.479" stroke="#ECD757" stroke-width="1.8694" stroke-miterlimit="10"/>
<path id="Vector_30" d="M83.3081 150.365V138.742" stroke="#ECD757" stroke-width="1.8694" stroke-miterlimit="10"/>
<path id="Vector_31" d="M96.9297 149.944V138.321" stroke="#ECD757" stroke-width="1.8694" stroke-miterlimit="10"/>
</g>
</g>
</g>
</g>
</g>
<g id="Group_9">
<path id="Vector_32" fill-rule="evenodd" clip-rule="evenodd" d="M37.3416 131.169C37.3416 131.169 66.9518 129.486 96.562 131.169H37.3416Z" fill="#F1E28E"/>
<path id="Vector_33" d="M37.3848 131.144V139.033H96.6052V131.144H37.3848Z" fill="#CA9A27"/>
<g id="Group_10">
<g id="Clip path group_2">
<mask id="mask1_23_1508" style="mask-type:luminance" maskUnits="userSpaceOnUse" x="37" y="131" width="60" height="9">
<g id="SVGID_4_">
<path id="Vector_34" d="M37.3848 131.144V139.033H96.6052V131.144H37.3848Z" fill="white"/>
</g>
</mask>
<g mask="url(#mask1_23_1508)">
<g id="Group_11">
<path id="Vector_35" d="M40.0239 141.529V129.906" stroke="#ECD757" stroke-width="1.8694" stroke-miterlimit="10"/>
<path id="Vector_36" d="M44.5471 141.319V129.696" stroke="#ECD757" stroke-width="1.8694" stroke-miterlimit="10"/>
<path id="Vector_37" d="M49.0701 141.109V129.486" stroke="#ECD757" stroke-width="1.8694" stroke-miterlimit="10"/>
<path id="Vector_38" d="M53.593 140.583V128.96" stroke="#ECD757" stroke-width="1.8694" stroke-miterlimit="10"/>
<path id="Vector_39" d="M58.1687 140.951V129.328" stroke="#ECD757" stroke-width="1.8694" stroke-miterlimit="10"/>
<path id="Vector_40" d="M62.6919 140.951V129.328" stroke="#ECD757" stroke-width="1.8694" stroke-miterlimit="10"/>
<path id="Vector_41" d="M67.2148 141.582V129.959" stroke="#ECD757" stroke-width="1.8694" stroke-miterlimit="10"/>
<path id="Vector_42" d="M71.7378 140.951V129.328" stroke="#ECD757" stroke-width="1.8694" stroke-miterlimit="10"/>
<path id="Vector_43" d="M85.3071 141.477V129.854" stroke="#ECD757" stroke-width="1.8694" stroke-miterlimit="10"/>
<path id="Vector_44" d="M76.2607 140.951V129.328" stroke="#ECD757" stroke-width="1.8694" stroke-miterlimit="10"/>
<path id="Vector_45" d="M89.8301 140.951V129.328" stroke="#ECD757" stroke-width="1.8694" stroke-miterlimit="10"/>
<path id="Vector_46" d="M80.7839 141.214V129.591" stroke="#ECD757" stroke-width="1.8694" stroke-miterlimit="10"/>
<path id="Vector_47" d="M94.353 140.793V129.17" stroke="#ECD757" stroke-width="1.8694" stroke-miterlimit="10"/>
</g>
</g>
</g>
</g>
</g>
<g id="Group_12">
<g id="Group_13">
<path id="Vector_48" d="M89.3039 151.312C104.234 151.312 116.337 139.209 116.337 124.279C116.337 109.349 104.234 97.2456 89.3039 97.2456C74.3739 97.2456 62.2708 109.349 62.2708 124.279C62.2708 139.209 74.3739 151.312 89.3039 151.312Z" fill="#CA9A27"/>
<path id="Vector_49" d="M88.0944 151.312C103.024 151.312 115.128 139.209 115.128 124.279C115.128 109.349 103.024 97.2456 88.0944 97.2456C73.1644 97.2456 61.0613 109.349 61.0613 124.279C61.0613 139.209 73.1644 151.312 88.0944 151.312Z" fill="#ECD757"/>
<path id="Vector_50" d="M88.0944 151.312C103.024 151.312 115.128 139.209 115.128 124.279C115.128 109.349 103.024 97.2456 88.0944 97.2456C73.1644 97.2456 61.0613 109.349 61.0613 124.279C61.0613 139.209 73.1644 151.312 88.0944 151.312Z" fill="#ECD757"/>
<path id="Vector_51" d="M88.0942 146.105C100.149 146.105 109.921 136.333 109.921 124.279C109.921 112.224 100.149 102.452 88.0942 102.452C76.0398 102.452 66.2678 112.224 66.2678 124.279C66.2678 136.333 76.0398 146.105 88.0942 146.105Z" fill="#CA9A27"/>
<g id="Group_14">
<path id="Vector_52" d="M88.0942 102.505C87.9364 102.505 87.7786 102.505 87.6208 102.505C99.4544 102.768 108.921 112.445 108.921 124.279C108.921 136.165 99.4018 145.842 87.6208 146.052C87.7786 146.052 87.9364 146.052 88.0942 146.052C100.138 146.052 109.921 136.27 109.921 124.226C109.921 112.182 100.138 102.505 88.0942 102.505Z" fill="#F1E28E"/>
</g>
<path id="Vector_53" d="M67.7932 124.279C67.7932 112.498 77.1548 102.873 88.8832 102.505C88.6203 102.505 88.4099 102.505 88.1469 102.505C76.103 102.505 66.3206 112.287 66.3206 124.331C66.3206 136.375 76.103 146.158 88.1469 146.158C88.4099 146.158 88.6203 146.158 88.8832 146.158C77.1548 145.684 67.7932 136.06 67.7932 124.279Z" fill="#B68D24"/>
</g>
<g id="Group_15">
<path id="Vector_54" fill-rule="evenodd" clip-rule="evenodd" d="M91.5127 115.39C92.3016 116.495 92.8801 117.652 93.1957 118.967H97.1928L95.6676 123.595H93.4587C92.8275 128.381 89.4615 132.115 84.7807 132.799L91.9334 142.897H86.3059L79.1532 132.904V128.276H83.0451C85.8852 128.276 88.2519 126.33 88.8304 123.648H78.1013L79.6265 119.019H88.4623C87.5682 116.916 85.4644 115.443 82.9925 115.443H78.1013L79.6265 110.815H97.1928L95.6676 115.443L91.5127 115.39Z" fill="#B68D24"/>
<path id="Vector_55" fill-rule="evenodd" clip-rule="evenodd" d="M92.5647 114.444C93.3536 115.548 93.9321 116.705 94.2477 118.02H98.2448L96.7196 122.648H94.5107C93.8795 127.434 90.5135 131.169 85.8327 131.852L92.9854 141.95H87.3579L80.2052 131.957V127.329H84.0971C86.9372 127.329 89.3039 125.383 89.8824 122.701H79.1533L80.6785 118.073H89.5143C88.6202 115.969 86.5164 114.496 84.0445 114.496H79.1533L80.6785 109.868H98.2448L96.7196 114.496L92.5647 114.444Z" fill="#ECD757"/>
</g>
</g>
</g>
</g>
</svg>
