<svg width="34" height="34" viewBox="0 0 34 34" fill="none" xmlns="http://www.w3.org/2000/svg">
<g id="fluent:person-support-20-filled">
<path id="Vector" d="M17.0001 24.65C16.1453 24.6502 15.3218 24.3284 14.6937 23.7487C14.0655 23.1691 13.6787 22.374 13.6103 21.522C11.3428 20.7194 9.43178 19.1415 8.21454 17.0669C6.99729 14.9923 6.55211 12.5544 6.95756 10.1835C7.36302 7.81254 8.59304 5.66109 10.4305 4.10888C12.268 2.55667 14.5948 1.70351 17.0001 1.70001C19.5584 1.69964 22.0235 2.66066 23.9065 4.39252C25.7895 6.12437 26.9529 8.50059 27.1661 11.05C27.1732 11.1606 27.1572 11.2714 27.1192 11.3755C27.0811 11.4796 27.0219 11.5746 26.9451 11.6546C26.8684 11.7345 26.7759 11.7976 26.6734 11.8399C26.571 11.8821 26.4609 11.9026 26.3501 11.9C26.1225 11.8939 25.9053 11.8036 25.7404 11.6466C25.5755 11.4896 25.4748 11.277 25.4576 11.05C25.3062 9.54693 24.7569 8.11136 23.8664 6.89109C22.9758 5.67081 21.7761 4.70993 20.3908 4.10736C19.0055 3.50479 17.4846 3.28231 15.9847 3.46282C14.4849 3.64333 13.0602 4.2203 11.8574 5.13435C10.6547 6.0484 9.7172 7.26648 9.14159 8.66321C8.56599 10.0599 8.37302 11.5848 8.58256 13.0809C8.7921 14.577 9.39658 15.9902 10.3338 17.1751C11.2709 18.3599 12.507 19.2736 13.9146 19.822C14.1707 19.2686 14.571 18.7942 15.0734 18.4486C15.5759 18.1031 16.1621 17.899 16.7705 17.8578C17.3789 17.8166 17.9872 17.9398 18.5317 18.2145C19.0761 18.4892 19.5367 18.9052 19.8651 19.4191C20.1935 19.9329 20.3776 20.5257 20.3982 21.1351C20.4188 21.7446 20.2751 22.3484 19.9822 22.8833C19.6893 23.4181 19.2579 23.8644 18.7332 24.1752C18.2085 24.486 17.6099 24.65 17.0001 24.65ZM8.5154 20.4H8.6701C9.67402 21.3841 10.8441 22.183 12.1262 22.7596C12.5031 24.0031 13.3403 25.0558 14.467 25.7029C15.5938 26.35 16.925 26.5426 18.1889 26.2415C19.4528 25.9404 20.5542 25.1682 21.2681 24.0826C21.982 22.997 22.2547 21.6798 22.0304 20.4H25.5001C26.4018 20.4 27.2666 20.7582 27.9043 21.3959C28.5419 22.0335 28.9001 22.8983 28.9001 23.8C28.9001 26.6747 27.484 28.8422 25.2706 30.2549C23.0912 31.6438 20.1536 32.3 17.0001 32.3C13.8466 32.3 10.909 31.6438 8.7296 30.2549C6.5162 28.8439 5.1001 26.673 5.1001 23.8C5.1001 21.9079 6.6352 20.4 8.5154 20.4ZM23.8001 11.9C23.8009 13.0504 23.5097 14.1822 22.9537 15.1892C22.3977 16.1963 21.5951 17.0457 20.6211 17.6579C20.1474 17.1793 19.5834 16.7996 18.9619 16.5407C18.3403 16.2819 17.6734 16.1491 17.0001 16.15C16.3267 16.149 15.6599 16.2818 15.0383 16.5406C14.4167 16.7995 13.8527 17.1793 13.3791 17.6579C12.0889 16.8447 11.1085 15.6224 10.5945 14.1865C10.3325 13.4527 10.199 12.6792 10.2001 11.9C10.2001 10.0965 10.9165 8.36693 12.1918 7.09169C13.467 5.81644 15.1966 5.10001 17.0001 5.10001C18.8036 5.10001 20.5332 5.81644 21.8084 7.09169C23.0837 8.36693 23.8001 10.0965 23.8001 11.9Z" fill="white"/>
</g>
</svg>
