<svg width="36" height="36" viewBox="0 0 36 36" fill="none" xmlns="http://www.w3.org/2000/svg">
<g id="material-symbols-light:install-mobile-rounded">
<path id="Vector" d="M11.4225 33C10.7325 33 10.1565 32.769 9.6945 32.307C9.2315 31.844 9 31.2675 9 30.5775V5.4225C9 4.7325 9.2315 4.1565 9.6945 3.6945C10.1565 3.2315 10.7325 3 11.4225 3H21.1155V4.5H11.4225C11.1925 4.5 10.981 4.596 10.788 4.788C10.596 4.981 10.5 5.1925 10.5 5.4225V6.75H21.1155V8.25H10.5V27.75H25.5V24.75H27V30.5775C27 31.2675 26.769 31.8435 26.307 32.3055C25.844 32.7685 25.2675 33 24.5775 33H11.4225ZM26.25 17.0595V6C26.25 5.787 26.3215 5.6085 26.4645 5.4645C26.6085 5.3215 26.787 5.25 27 5.25C27.213 5.25 27.3915 5.3215 27.5355 5.4645C27.6785 5.6085 27.75 5.787 27.75 6V17.0595L31.869 12.9405C32.009 12.8005 32.181 12.7255 32.385 12.7155C32.589 12.7055 32.771 12.7805 32.931 12.9405C33.091 13.1005 33.171 13.2775 33.171 13.4715C33.171 13.6655 33.091 13.8425 32.931 14.0025L27.8475 19.0845C27.6055 19.3265 27.323 19.4475 27 19.4475C26.677 19.4475 26.3945 19.3265 26.1525 19.0845L21.069 14.0025C20.929 13.8625 20.854 13.69 20.844 13.485C20.834 13.282 20.909 13.1005 21.069 12.9405C21.229 12.7805 21.406 12.7005 21.6 12.7005C21.794 12.7005 21.971 12.7805 22.131 12.9405L26.25 17.0595ZM21.1155 6.75H10.5V5.4225C10.5 5.1925 10.596 4.981 10.788 4.788C10.981 4.596 11.1925 4.5 11.4225 4.5H21.1155V6.75Z" fill="white"/>
</g>
</svg>
