<svg width="30" height="30" viewBox="0 0 30 30" fill="none" xmlns="http://www.w3.org/2000/svg">
<g id="Group 16">
<circle id="Ellipse 5" cx="15" cy="15" r="15" fill="#E97B19"/>
<path id="Vector" d="M20 6.87698C20 6.7389 19.9473 6.60649 19.8536 6.50886C19.7598 6.41123 19.6326 6.35638 19.5 6.35638H17C15.7411 6.29108 14.5086 6.74723 13.5717 7.62516C12.6348 8.50309 12.0698 9.73142 12 11.0418V13.853H9.5C9.36739 13.853 9.24021 13.9079 9.14645 14.0055C9.05268 14.1031 9 14.2355 9 14.3736V17.0807C9 17.2188 9.05268 17.3512 9.14645 17.4489C9.24021 17.5465 9.36739 17.6013 9.5 17.6013H12V24.5774C12 24.7155 12.0527 24.8479 12.1464 24.9455C12.2402 25.0431 12.3674 25.098 12.5 25.098H15.5C15.6326 25.098 15.7598 25.0431 15.8536 24.9455C15.9473 24.8479 16 24.7155 16 24.5774V17.6013H18.62C18.7312 17.603 18.8397 17.566 18.9285 17.4963C19.0172 17.4265 19.0811 17.3279 19.11 17.2161L19.83 14.509C19.8499 14.4321 19.8526 14.3514 19.8378 14.2732C19.8231 14.1951 19.7913 14.1215 19.7449 14.0581C19.6985 13.9947 19.6388 13.9433 19.5704 13.9077C19.5019 13.8722 19.4265 13.8535 19.35 13.853H16V11.0418C16.0249 10.7841 16.1411 10.5452 16.326 10.372C16.5109 10.1987 16.7512 10.1034 17 10.1047H19.5C19.6326 10.1047 19.7598 10.0498 19.8536 9.95222C19.9473 9.85458 20 9.72217 20 9.5841V6.87698Z" fill="white"/>
</g>
</svg>
