<svg width="69" height="76" viewBox="0 0 69 76" fill="none" xmlns="http://www.w3.org/2000/svg">
<g id="Frame" clip-path="url(#clip0_58_145)">
<g id="Group">
<g id="Group_2">
<path id="Vector" opacity="0.6" d="M45.5102 61.5306C45.5102 63.9796 35.3278 65.9796 22.7654 65.9796C10.1824 65.9796 0 63.9796 0 61.5306C0 59.0817 10.1824 57.0817 22.7448 57.0817C35.3278 57.0817 45.5102 59.0613 45.5102 61.5306Z" fill="#CCCCCC"/>
<path id="Vector_2" d="M60.8249 46.7347C60.8249 46.7347 56.8513 26.8776 41.8882 18.1021H31.2092C16.2461 26.8776 12.2725 46.7347 12.2725 46.7347C7.90563 69.8367 35.0793 66.8776 35.0793 66.8776H38.0181C38.0181 66.898 65.1918 69.8367 60.8249 46.7347Z" fill="#A2858C"/>
<path id="Vector_3" d="M60.825 46.7347C60.825 46.7347 56.8514 26.8776 41.8883 18.1021H35.9486C46.1102 26.9184 48.9663 41.1633 48.9663 41.1633C52.9606 62.2653 28.1462 59.5714 28.1462 59.5714H25.4558C25.4558 59.5714 18.9779 60.2653 13.1831 58.1429C18.1708 68.7143 35.0793 66.8776 35.0793 66.8776H38.0181C38.0181 66.898 65.1918 69.8367 60.825 46.7347Z" fill="#816B70"/>
<path id="Vector_4" d="M20.3647 5.18372C19.8059 4.46943 18.9367 2.91841 19.8887 2.20413C21.1304 1.26535 23.5518 2.26535 24.8143 2.61229C26.47 3.06127 28.2912 3.46943 30.0917 3.28576C31.8509 3.10209 33.8791 2.1429 35.452 1.51025C37.0455 0.877598 38.7219 -0.26526 40.6052 0.306169C42.592 0.918414 43.3785 2.6327 45.6757 2.83678C49.7114 3.22454 52.0914 -0.346892 55.8788 0.0204547C57.8449 0.224536 57.6172 1.42862 56.5203 2.26535L41.8884 18.1021H31.2093L20.3647 5.18372Z" fill="#A2858C"/>
<g id="Group_3">
<g id="Group_4">
<path id="Vector_5" opacity="0.6" d="M50.1048 72.8776C45.1792 72.8776 41.2056 71.3674 41.2056 69.5102C41.2056 67.6531 45.1999 66.1429 50.1048 66.1429C55.0304 66.1429 59.004 67.6531 59.004 69.5102C59.004 71.3674 55.0097 72.8776 50.1048 72.8776Z" fill="#CCCCCC"/>
<path id="Vector_6" opacity="0.6" d="M59.4388 62.5919C54.5132 62.5919 50.5396 61.0817 50.5396 59.2245C50.5396 57.3674 54.5339 55.8572 59.4388 55.8572C64.3644 55.8572 68.338 57.3674 68.338 59.2245C68.338 61.0817 64.3644 62.5919 59.4388 62.5919Z" fill="#CCCCCC"/>
<path id="Vector_7" opacity="0.6" d="M33.1756 63.6735C38.0805 63.5102 42.1162 64.8776 42.1989 66.7551C42.261 68.6123 38.3288 70.2653 33.4239 70.4286C28.519 70.5919 24.4833 69.2245 24.4212 67.347C24.3384 65.4694 28.2706 63.8368 33.1756 63.6735Z" fill="#CCCCCC"/>
<g id="Group_5">
<g id="Group_6">
<g id="Group_7">
<g id="Group_8">
<path id="Vector_8" d="M29.2642 64.6531C29.2642 66.5102 33.2585 68.0204 38.1634 68.0204C43.089 68.0204 47.0626 66.5102 47.0626 64.6531V63.0612H29.2642V64.6531Z" fill="#C09CA5"/>
<g id="Group_9">
<path id="Vector_9" d="M37.3354 63.8776V68.0204C37.6045 68.0204 37.8942 68.0408 38.184 68.0408V63.8776H37.3354Z" fill="#7C656B"/>
<path id="Vector_10" d="M35.6177 63.8776V67.8776C36.073 67.9388 36.549 67.9592 37.0457 68V63.8776H35.6177Z" fill="#7C656B"/>
<path id="Vector_11" d="M35.2659 67.8572V63.0612H29.2848V64.6531C29.2641 66.1429 31.7683 67.3878 35.2659 67.8572Z" fill="#7C656B"/>
<path id="Vector_12" d="M41.3506 63.8776V67.8163C41.4541 67.7959 41.5368 67.7959 41.6403 67.7755V63.898H41.3506V63.8776Z" fill="#7C656B"/>
<path id="Vector_13" d="M40.2329 67.9388C40.3364 67.9388 40.4192 67.9184 40.5227 67.9184V63.8776H40.2329V67.9388Z" fill="#7C656B"/>
<path id="Vector_14" d="M38.8257 63.8776V68.0204C38.9706 68.0204 39.1154 68.0204 39.2396 68V63.8776H38.8257Z" fill="#7C656B"/>
</g>
<g id="Group_10">
<path id="Vector_15" d="M38.1634 66.449C33.2378 66.449 29.2642 64.9388 29.2642 63.0817C29.2642 61.2245 33.2585 59.7143 38.1634 59.7143C43.089 59.7143 47.0626 61.2245 47.0626 63.0817C47.0833 64.9388 43.089 66.449 38.1634 66.449Z" fill="#C09CA5"/>
<path id="Vector_16" opacity="0.4" d="M43.1923 65.8572C42.9439 65.8572 42.6749 65.8776 42.4265 65.8776C37.5009 65.8776 33.5273 64.3674 33.5273 62.5102C33.5273 61.347 35.0588 60.3266 37.4181 59.7143C32.8651 59.8572 29.2847 61.3062 29.2847 63.0817C29.2847 64.9388 33.279 66.449 38.1839 66.449C40.0258 66.449 41.7643 66.2245 43.1923 65.8572Z" fill="url(#paint0_linear_58_145)"/>
<path id="Vector_17" d="M47.0626 63.1633C46.9177 61.347 42.9855 59.898 38.1634 59.898C33.3412 59.898 29.409 61.347 29.2642 63.1633C29.409 64.9796 33.3412 66.4286 38.1634 66.4286C43.0062 66.449 46.9177 64.9796 47.0626 63.1633ZM38.1634 66.0204C34.1691 66.0204 30.9198 64.7959 30.9198 63.2653C30.9198 61.7551 34.1691 60.5102 38.1634 60.5102C42.1577 60.5102 45.4069 61.7347 45.4069 63.2653C45.4276 64.7959 42.1784 66.0204 38.1634 66.0204Z" fill="#7C656B"/>
<path id="Vector_18" d="M37.3564 62.5919L33.9209 63.5714V64.2449L37.4392 63.1837C37.791 63.4694 38.2877 63.6735 38.9293 63.8163C38.9914 63.8368 39.0328 63.8368 39.0949 63.8572V64.4694H40.378V64C40.6471 64.0204 40.9161 64.0204 41.1438 64V64.449H42.4269V62.6327H41.1438V63.5102C40.9368 63.5102 40.6678 63.5102 40.378 63.5102V62.6531H39.0949V63.2653C38.7844 63.1429 38.5361 62.9796 38.3498 62.7551L37.3564 62.5919Z" fill="#7C656B"/>
<path id="Vector_19" d="M45.4274 63.0613C45.4274 64.5715 42.1782 65.8164 38.1839 65.8164C34.1896 65.8164 30.9403 64.5919 30.9403 63.0613C30.9403 61.5306 34.1896 60.3062 38.1839 60.3062C42.1782 60.3062 45.4274 61.5511 45.4274 63.0613ZM47.0831 63.0613C47.0831 61.2041 43.0888 59.6939 38.1839 59.6939C33.2583 59.6939 29.2847 61.2041 29.2847 63.0613C29.2847 64.9184 33.279 66.4286 38.1839 66.4286C43.0888 66.449 47.0831 64.9388 47.0831 63.0613Z" fill="#624A50"/>
<g id="Group_11">
<path id="Vector_20" d="M31.8926 63.0613C31.8926 61.7551 34.7072 60.6735 38.1841 60.6735C41.661 60.6735 44.4757 61.7347 44.4757 63.0613C44.4757 64.3674 41.661 65.449 38.1841 65.449C34.7072 65.449 31.8926 64.3878 31.8926 63.0613ZM44.1859 63.0613C44.1859 61.7959 41.4955 60.7755 38.1634 60.7755C34.8521 60.7755 32.1409 61.7959 32.1409 63.0613C32.1409 64.3266 34.8314 65.347 38.1634 65.347C41.4955 65.347 44.1859 64.3266 44.1859 63.0613Z" fill="#624A50"/>
</g>
<path id="Vector_21" d="M37.3564 62.1429L33.9209 63.1225V63.7959L37.4392 62.7143C37.791 63 38.2877 63.2041 38.9293 63.347C38.9914 63.3674 39.0328 63.3674 39.0949 63.3878V64H40.378V63.5306C40.6471 63.551 40.9161 63.551 41.1438 63.5306V63.9796H42.4269V62.1633H41.1438V63.0408C40.9368 63.0408 40.6678 63.0408 40.378 63.0408V62.1837H39.0949V62.7959C38.7844 62.6735 38.5361 62.5102 38.3498 62.2857L37.3564 62.1429Z" fill="#624A50"/>
</g>
</g>
</g>
</g>
</g>
<g id="Group_12">
<g id="Group_13">
<g id="Group_14">
<g id="Group_15">
<path id="Vector_22" d="M29.2642 61.2857C29.2642 63.1429 33.2585 64.6531 38.1634 64.6531C43.089 64.6531 47.0626 63.1429 47.0626 61.2857V59.6939H29.2642V61.2857Z" fill="#C09CA5"/>
<g id="Group_16">
<path id="Vector_23" d="M37.3354 60.5102V64.6531C37.6045 64.6531 37.8942 64.6735 38.184 64.6735V60.5306H37.3354V60.5102Z" fill="#7C656B"/>
<path id="Vector_24" d="M35.6177 60.5102V64.5102C36.073 64.5714 36.549 64.5919 37.0457 64.6327V60.5102H35.6177Z" fill="#7C656B"/>
<path id="Vector_25" d="M35.2659 64.4694V59.6939H29.2848V61.2857C29.2641 62.7551 31.7683 64.0204 35.2659 64.4694Z" fill="#7C656B"/>
<path id="Vector_26" d="M41.3506 60.5102V64.449C41.4541 64.4286 41.5368 64.4286 41.6403 64.4082V60.5306H41.3506V60.5102Z" fill="#7C656B"/>
<path id="Vector_27" d="M40.2329 64.5714C40.3364 64.5714 40.4192 64.551 40.5227 64.551V60.5102H40.2329V64.5714Z" fill="#7C656B"/>
<path id="Vector_28" d="M38.8257 60.5102V64.6531C38.9706 64.6531 39.1154 64.6531 39.2396 64.6327V60.5102H38.8257Z" fill="#7C656B"/>
</g>
<g id="Group_17">
<path id="Vector_29" d="M38.1634 63.0613C33.2378 63.0613 29.2642 61.5511 29.2642 59.6939C29.2642 57.8368 33.2585 56.3266 38.1634 56.3266C43.089 56.3266 47.0626 57.8368 47.0626 59.6939C47.0833 61.5511 43.089 63.0613 38.1634 63.0613Z" fill="#C09CA5"/>
<path id="Vector_30" opacity="0.4" d="M43.1923 62.4694C42.9439 62.4694 42.6749 62.4898 42.4265 62.4898C37.5009 62.4898 33.5273 60.9796 33.5273 59.1225C33.5273 57.9592 35.0588 56.9388 37.4181 56.3266C32.8651 56.4694 29.2847 57.9184 29.2847 59.6939C29.2847 61.5511 33.279 63.0613 38.1839 63.0613C40.0258 63.0613 41.7643 62.8572 43.1923 62.4694Z" fill="url(#paint1_linear_58_145)"/>
<path id="Vector_31" d="M47.0626 59.7959C46.9177 57.9796 42.9855 56.5306 38.1634 56.5306C33.3412 56.5306 29.409 57.9796 29.2642 59.7959C29.409 61.6123 33.3412 63.0613 38.1634 63.0613C43.0062 63.0613 46.9177 61.6123 47.0626 59.7959ZM38.1634 62.6531C34.1691 62.6531 30.9198 61.4286 30.9198 59.898C30.9198 58.3878 34.1691 57.1429 38.1634 57.1429C42.1577 57.1429 45.4069 58.3674 45.4069 59.898C45.4276 61.4082 42.1784 62.6531 38.1634 62.6531Z" fill="#7C656B"/>
<path id="Vector_32" d="M37.3564 59.2245L33.9209 60.2041V60.8776L37.4392 59.8164C37.791 60.1021 38.2877 60.3062 38.9293 60.449C38.9914 60.4694 39.0328 60.4694 39.0949 60.4694V61.0817H40.378V60.6123C40.6471 60.6327 40.9161 60.6327 41.1438 60.6123V61.0613H42.4269V59.2449H41.1438V60.1225C40.9368 60.1225 40.6678 60.1225 40.378 60.1021V59.2449H39.0949V59.8572C38.7844 59.7347 38.5361 59.5715 38.3498 59.347L37.3564 59.2245Z" fill="#7C656B"/>
<path id="Vector_33" d="M45.4274 59.6939C45.4274 61.2041 42.1782 62.449 38.1839 62.449C34.1896 62.449 30.9403 61.2245 30.9403 59.6939C30.9403 58.1837 34.1896 56.9388 38.1839 56.9388C42.1782 56.9388 45.4274 58.1633 45.4274 59.6939ZM47.0831 59.6939C47.0831 57.8368 43.0888 56.3266 38.1839 56.3266C33.2583 56.3266 29.2847 57.8368 29.2847 59.6939C29.2847 61.5511 33.279 63.0613 38.1839 63.0613C43.0888 63.0613 47.0831 61.5511 47.0831 59.6939Z" fill="#624A50"/>
<g id="Group_18">
<path id="Vector_34" d="M31.8926 59.6939C31.8926 58.3878 34.7072 57.3062 38.1841 57.3062C41.661 57.3062 44.4757 58.3674 44.4757 59.6939C44.4757 61 41.661 62.0817 38.1841 62.0817C34.7072 62.0817 31.8926 61 31.8926 59.6939ZM44.1859 59.6939C44.1859 58.4286 41.4955 57.4082 38.1634 57.4082C34.8521 57.4082 32.1409 58.4286 32.1409 59.6939C32.1409 60.9592 34.8314 61.9796 38.1634 61.9796C41.4955 61.9592 44.1859 60.9388 44.1859 59.6939Z" fill="#624A50"/>
</g>
<path id="Vector_35" d="M37.3564 58.7755L33.9209 59.7551V60.4286L37.4392 59.347C37.791 59.6327 38.2877 59.8368 38.9293 59.9796C38.9914 60 39.0328 60 39.0949 60.0204V60.6327H40.378V60.1633C40.6471 60.1837 40.9161 60.1837 41.1438 60.1633V60.6123H42.4269V58.796H41.1438V59.6735C40.9368 59.6735 40.6678 59.6735 40.378 59.6531V58.796H39.0949V59.4082C38.7844 59.2857 38.5361 59.1225 38.3498 58.898L37.3564 58.7755Z" fill="#624A50"/>
</g>
</g>
</g>
</g>
</g>
<g id="Group_19">
<g id="Group_20">
<g id="Group_21">
<g id="Group_22">
<path id="Vector_36" d="M29.2642 57.898C29.2642 59.7551 33.2585 61.2653 38.1634 61.2653C43.089 61.2653 47.0626 59.7551 47.0626 57.898V56.3062H29.2642V57.898Z" fill="#C09CA5"/>
<g id="Group_23">
<path id="Vector_37" d="M37.3354 57.1225V61.2654C37.6045 61.2654 37.8942 61.2858 38.184 61.2858V57.1429H37.3354V57.1225Z" fill="#7C656B"/>
<path id="Vector_38" d="M35.6177 57.1225V61.1225C36.073 61.1837 36.549 61.2041 37.0457 61.2449V57.1225H35.6177Z" fill="#7C656B"/>
<path id="Vector_39" d="M35.2659 61.1021V56.3266H29.2848V57.9184C29.2641 59.3878 31.7683 60.6327 35.2659 61.1021Z" fill="#7C656B"/>
<path id="Vector_40" d="M41.3506 57.1225V61.0613C41.4541 61.0409 41.5368 61.0409 41.6403 61.0205V57.1429H41.3506V57.1225Z" fill="#7C656B"/>
<path id="Vector_41" d="M40.2329 61.1837C40.3364 61.1837 40.4192 61.1633 40.5227 61.1633V57.1225H40.2329V61.1837Z" fill="#7C656B"/>
<path id="Vector_42" d="M38.8257 57.1225V61.2654C38.9706 61.2654 39.1154 61.2654 39.2396 61.2449V57.1225H38.8257Z" fill="#7C656B"/>
</g>
<g id="Group_24">
<path id="Vector_43" d="M38.1634 59.6939C33.2378 59.6939 29.2642 58.1837 29.2642 56.3266C29.2642 54.4694 33.2585 52.9592 38.1634 52.9592C43.089 52.9592 47.0626 54.4694 47.0626 56.3266C47.0833 58.1837 43.089 59.6939 38.1634 59.6939Z" fill="#C09CA5"/>
<path id="Vector_44" opacity="0.4" d="M43.1923 59.1021C42.9439 59.1021 42.6749 59.1225 42.4265 59.1225C37.5009 59.1225 33.5273 57.6123 33.5273 55.7551C33.5273 54.5919 35.0588 53.5715 37.4181 52.9592C32.8651 53.1021 29.2847 54.5511 29.2847 56.3266C29.2847 58.1837 33.279 59.6939 38.1839 59.6939C40.0258 59.6939 41.7643 59.4694 43.1923 59.1021Z" fill="url(#paint2_linear_58_145)"/>
<path id="Vector_45" d="M47.0626 56.4082C46.9177 54.5919 42.9855 53.1429 38.1634 53.1429C33.3412 53.1429 29.409 54.5919 29.2642 56.4082C29.409 58.2245 33.3412 59.6735 38.1634 59.6735C43.0062 59.6939 46.9177 58.2245 47.0626 56.4082ZM38.1634 59.2653C34.1691 59.2653 30.9198 58.0408 30.9198 56.5102C30.9198 54.9796 34.1691 53.7551 38.1634 53.7551C42.1577 53.7551 45.4069 54.9796 45.4069 56.5102C45.4069 58.0408 42.1784 59.2653 38.1634 59.2653Z" fill="#7C656B"/>
<path id="Vector_46" d="M37.3564 55.8368L33.9209 56.8164V57.4898L37.4392 56.4286C37.791 56.7143 38.2877 56.9184 38.9293 57.0613C38.9914 57.0817 39.0328 57.0817 39.0949 57.0817V57.6939H40.378V57.2245C40.6471 57.2449 40.9161 57.2449 41.1438 57.2245V57.6735H42.4269V55.8572H41.1438V56.7347C40.9368 56.7347 40.6678 56.7347 40.378 56.7347V55.8776H39.0949V56.4898C38.7844 56.3674 38.5361 56.2041 38.3498 55.9796L37.3564 55.8368Z" fill="#7C656B"/>
<path id="Vector_47" d="M45.4274 56.3062C45.4274 57.8164 42.1782 59.0613 38.1839 59.0613C34.1896 59.0613 30.9403 57.8368 30.9403 56.3062C30.9403 54.796 34.1896 53.5511 38.1839 53.5511C42.1782 53.5715 45.4274 54.796 45.4274 56.3062ZM47.0831 56.3062C47.0831 54.449 43.0888 52.9388 38.1839 52.9388C33.2583 52.9388 29.2847 54.449 29.2847 56.3062C29.2847 58.1633 33.279 59.6735 38.1839 59.6735C43.0888 59.6939 47.0831 58.1837 47.0831 56.3062Z" fill="#624A50"/>
<g id="Group_25">
<path id="Vector_48" d="M31.8926 56.3061C31.8926 55 34.7072 53.9184 38.1841 53.9184C41.661 53.9184 44.4757 54.9796 44.4757 56.3061C44.4757 57.6123 41.661 58.6939 38.1841 58.6939C34.7072 58.6939 31.8926 57.6327 31.8926 56.3061ZM44.1859 56.3061C44.1859 55.0408 41.4955 54.0204 38.1634 54.0204C34.8521 54.0204 32.1409 55.0408 32.1409 56.3061C32.1409 57.5715 34.8314 58.5919 38.1634 58.5919C41.4955 58.5919 44.1859 57.5715 44.1859 56.3061Z" fill="#624A50"/>
</g>
<path id="Vector_49" d="M37.3564 55.3878L33.9209 56.3674V57.0408L37.4392 55.9592C37.791 56.2449 38.2877 56.449 38.9293 56.5919C38.9914 56.6123 39.0328 56.6123 39.0949 56.6327V57.2449H40.378V56.7755C40.6471 56.796 40.9161 56.796 41.1438 56.7755V57.2245H42.4269V55.4082H41.1438V56.2857C40.9368 56.2857 40.6678 56.2857 40.378 56.2653V55.4082H39.0949V56.0204C38.7844 55.898 38.5361 55.7347 38.3498 55.5102L37.3564 55.3878Z" fill="#624A50"/>
</g>
</g>
</g>
</g>
</g>
<g id="Group_26">
<g id="Group_27">
<g id="Group_28">
<g id="Group_29">
<path id="Vector_50" d="M51.1812 58.1837C51.1812 60.0409 55.1755 61.5511 60.0804 61.5511C65.006 61.5511 68.9796 60.0409 68.9796 58.1837V56.5919H51.1812V58.1837Z" fill="#C09CA5"/>
<g id="Group_30">
<path id="Vector_51" d="M59.2524 57.4082V61.5511C59.5215 61.5511 59.8112 61.5715 60.101 61.5715V57.4286H59.2524V57.4082Z" fill="#7C656B"/>
<path id="Vector_52" d="M57.5347 57.4082V61.4082C57.99 61.4694 58.466 61.4898 58.9627 61.5307V57.4082H57.5347Z" fill="#7C656B"/>
<path id="Vector_53" d="M57.1829 61.3674V56.5919H51.2018V58.1837C51.1811 59.6531 53.6853 60.898 57.1829 61.3674Z" fill="#7C656B"/>
<path id="Vector_54" d="M63.2676 57.4082V61.347C63.3711 61.3266 63.4538 61.3266 63.5573 61.3062V57.4286H63.2676V57.4082Z" fill="#7C656B"/>
<path id="Vector_55" d="M62.1499 61.4694C62.2534 61.4694 62.3362 61.449 62.4396 61.449V57.4082H62.1499V61.4694Z" fill="#7C656B"/>
<path id="Vector_56" d="M60.7427 57.4082V61.5511C60.8875 61.5511 61.0324 61.5511 61.1566 61.5307V57.4082H60.7427Z" fill="#7C656B"/>
</g>
<g id="Group_31">
<path id="Vector_57" d="M60.1009 59.9592C55.1753 59.9592 51.2017 58.449 51.2017 56.5919C51.2017 54.7348 55.196 53.2245 60.1009 53.2245C65.0265 53.2245 69.0001 54.7348 69.0001 56.5919C69.0001 58.449 65.0058 59.9592 60.1009 59.9592Z" fill="#C09CA5"/>
<path id="Vector_58" opacity="0.4" d="M65.1093 59.3674C64.8609 59.3674 64.5919 59.3878 64.3435 59.3878C59.4179 59.3878 55.4443 57.8776 55.4443 56.0205C55.4443 54.8572 56.9758 53.8368 59.3351 53.2245C54.782 53.3674 51.2017 54.8164 51.2017 56.5919C51.2017 58.449 55.196 59.9592 60.1009 59.9592C61.9635 59.9592 63.6813 59.7348 65.1093 59.3674Z" fill="url(#paint3_linear_58_145)"/>
<path id="Vector_59" d="M68.9796 56.6939C68.8347 54.8776 64.9025 53.4286 60.0804 53.4286C55.2582 53.4286 51.326 54.8776 51.1812 56.6939C51.326 58.5103 55.2582 59.9592 60.0804 59.9592C64.9232 59.9592 68.8347 58.5103 68.9796 56.6939ZM60.1011 59.5307C56.1068 59.5307 52.8575 58.3062 52.8575 56.7756C52.8575 55.2654 56.1068 54.0205 60.1011 54.0205C64.0954 54.0205 67.3446 55.245 67.3446 56.7756C67.3446 58.3062 64.0954 59.5307 60.1011 59.5307Z" fill="#7C656B"/>
<path id="Vector_60" d="M59.2939 56.1225L55.8584 57.1021V57.7756L59.3767 56.7143C59.7285 57 60.2252 57.2041 60.8668 57.347C60.9289 57.3674 60.9703 57.3674 61.0324 57.3878V58.0001H62.3155V57.5307C62.5846 57.5511 62.8536 57.5511 63.0813 57.5307V57.9796H64.3644V56.1633H63.0813V57.0409C62.8743 57.0409 62.6053 57.0409 62.3155 57.0409V56.1837H61.0324V56.796C60.7219 56.6735 60.4736 56.5103 60.2873 56.2858L59.2939 56.1225Z" fill="#7C656B"/>
<path id="Vector_61" d="M67.3444 56.5715C67.3444 58.0817 64.0952 59.3266 60.1009 59.3266C56.1066 59.3266 52.8573 58.1021 52.8573 56.5715C52.8573 55.0409 56.1066 53.8164 60.1009 53.8164C64.0952 53.8368 67.3444 55.0613 67.3444 56.5715ZM69.0001 56.5715C69.0001 54.7143 65.0058 53.2041 60.1009 53.2041C55.1753 53.2041 51.2017 54.7143 51.2017 56.5715C51.2017 58.4286 55.196 59.9388 60.1009 59.9388C65.0058 59.9592 69.0001 58.449 69.0001 56.5715Z" fill="#624A50"/>
<g id="Group_32">
<path id="Vector_62" d="M53.8096 56.5715C53.8096 55.2654 56.6242 54.1837 60.1011 54.1837C63.578 54.1837 66.3927 55.2449 66.3927 56.5715C66.3927 57.898 63.578 58.9592 60.1011 58.9592C56.6242 58.9592 53.8096 57.898 53.8096 56.5715ZM66.1029 56.5715C66.1029 55.3062 63.4124 54.2858 60.0804 54.2858C56.7691 54.2858 54.0579 55.3062 54.0579 56.5715C54.0579 57.8368 56.7484 58.8572 60.0804 58.8572C63.4124 58.8572 66.1029 57.8368 66.1029 56.5715Z" fill="#624A50"/>
</g>
<path id="Vector_63" d="M59.2939 55.6531L55.8584 56.6327V57.3062L59.3767 56.2245C59.7285 56.5102 60.2252 56.7143 60.8668 56.8572C60.9289 56.8776 60.9703 56.8776 61.0324 56.898V57.5102H62.3155V57.0409C62.5846 57.0613 62.8536 57.0613 63.0813 57.0409V57.4898H64.3644V55.6735H63.0813V56.5511C62.8743 56.5511 62.6053 56.5511 62.3155 56.5511V55.6939H61.0324V56.3062C60.7219 56.1837 60.4736 56.0204 60.2873 55.796L59.2939 55.6531Z" fill="#624A50"/>
</g>
</g>
</g>
</g>
</g>
<g id="Group_33">
<g id="Group_34">
<g id="Group_35">
<g id="Group_36">
<path id="Vector_64" d="M51.1812 54.7959C51.1812 56.6531 55.1755 58.1633 60.0804 58.1633C65.006 58.1633 68.9796 56.6531 68.9796 54.7959V53.2041H51.1812V54.7959Z" fill="#C09CA5"/>
<g id="Group_37">
<path id="Vector_65" d="M59.2524 54.0204V58.1633C59.5215 58.1633 59.8112 58.1837 60.101 58.1837V54.0408H59.2524V54.0204Z" fill="#7C656B"/>
<path id="Vector_66" d="M57.5347 54.0204V58.0204C57.99 58.0816 58.466 58.102 58.9627 58.1429V54.0204H57.5347Z" fill="#7C656B"/>
<path id="Vector_67" d="M57.1829 57.9796V53.2041H51.2018V54.7959C51.1811 56.2857 53.6853 57.5306 57.1829 57.9796Z" fill="#7C656B"/>
<path id="Vector_68" d="M63.2676 54.0204V57.9592C63.3711 57.9388 63.4538 57.9388 63.5573 57.9184V54.0408H63.2676V54.0204Z" fill="#7C656B"/>
<path id="Vector_69" d="M62.1499 58.0816C62.2534 58.0816 62.3362 58.0612 62.4396 58.0612V54.0204H62.1499V58.0816Z" fill="#7C656B"/>
<path id="Vector_70" d="M60.7427 54.0204V58.1633C60.8875 58.1633 61.0324 58.1633 61.1566 58.1429V54.0204H60.7427Z" fill="#7C656B"/>
</g>
<g id="Group_38">
<path id="Vector_71" d="M60.1009 56.5715C55.1753 56.5715 51.2017 55.0613 51.2017 53.2041C51.2017 51.347 55.196 49.8368 60.1009 49.8368C65.0265 49.8368 69.0001 51.347 69.0001 53.2041C69.0001 55.0613 65.0058 56.5715 60.1009 56.5715Z" fill="#C09CA5"/>
<path id="Vector_72" opacity="0.4" d="M65.1093 56C64.8609 56 64.5919 56.0204 64.3435 56.0204C59.4179 56.0204 55.4443 54.5102 55.4443 52.6531C55.4443 51.4898 56.9758 50.4694 59.3351 49.8572C54.782 50 51.2017 51.449 51.2017 53.2245C51.2017 55.0817 55.196 56.5919 60.1009 56.5919C61.9635 56.5715 63.6813 56.3674 65.1093 56Z" fill="url(#paint4_linear_58_145)"/>
<path id="Vector_73" d="M68.9796 53.3061C68.8347 51.4898 64.9025 50.0408 60.0804 50.0408C55.2582 50.0408 51.326 51.4898 51.1812 53.3061C51.326 55.1225 55.2582 56.5714 60.0804 56.5714C64.9232 56.5714 68.8347 55.1225 68.9796 53.3061ZM60.1011 56.1633C56.1068 56.1633 52.8575 54.9388 52.8575 53.4082C52.8575 51.898 56.1068 50.6531 60.1011 50.6531C64.0954 50.6531 67.3446 51.8776 67.3446 53.4082C67.3446 54.9388 64.0954 56.1633 60.1011 56.1633Z" fill="#7C656B"/>
<path id="Vector_74" d="M59.2939 52.7347L55.8584 53.7143V54.3878L59.3767 53.3265C59.7285 53.6123 60.2252 53.8163 60.8668 53.9592C60.9289 53.9796 60.9703 53.9796 61.0324 53.9796V54.5919H62.3155V54.1225C62.5846 54.1429 62.8536 54.1429 63.0813 54.1225V54.5714H64.3644V52.7551H63.0813V53.6327C62.8743 53.6327 62.6053 53.6327 62.3155 53.6123V52.7551H61.0324V53.3674C60.7219 53.2449 60.4736 53.0817 60.2873 52.8572L59.2939 52.7347Z" fill="#7C656B"/>
<path id="Vector_75" d="M67.3444 53.2041C67.3444 54.7143 64.0952 55.9592 60.1009 55.9592C56.1066 55.9592 52.8573 54.7347 52.8573 53.2041C52.8573 51.6939 56.1066 50.449 60.1009 50.449C64.0952 50.449 67.3444 51.6939 67.3444 53.2041ZM69.0001 53.2041C69.0001 51.347 65.0058 49.8368 60.1009 49.8368C55.1753 49.8368 51.2017 51.347 51.2017 53.2041C51.2017 55.0613 55.196 56.5715 60.1009 56.5715C65.0058 56.5715 69.0001 55.0613 69.0001 53.2041Z" fill="#624A50"/>
<g id="Group_39">
<path id="Vector_76" d="M53.8096 53.2041C53.8096 51.898 56.6242 50.8163 60.1011 50.8163C63.578 50.8163 66.3927 51.8776 66.3927 53.2041C66.3927 54.5102 63.578 55.5919 60.1011 55.5919C56.6242 55.5919 53.8096 54.5102 53.8096 53.2041ZM66.1029 53.2041C66.1029 51.9388 63.4124 50.9184 60.0804 50.9184C56.7691 50.9184 54.0579 51.9388 54.0579 53.2041C54.0579 54.4694 56.7484 55.4898 60.0804 55.4898C63.4124 55.4898 66.1029 54.4694 66.1029 53.2041Z" fill="#624A50"/>
</g>
<path id="Vector_77" d="M59.2939 52.2857L55.8584 53.2653V53.9388L59.3767 52.8572C59.7285 53.1429 60.2252 53.347 60.8668 53.4898C60.9289 53.5102 60.9703 53.5102 61.0324 53.5306V54.1429H62.3155V53.6735C62.5846 53.6939 62.8536 53.6939 63.0813 53.6735V54.1225H64.3644V52.3061H63.0813V53.1837C62.8743 53.1837 62.6053 53.1837 62.3155 53.1633V52.3061H61.0324V52.9184C60.7219 52.7959 60.4736 52.6327 60.2873 52.4082L59.2939 52.2857Z" fill="#624A50"/>
</g>
</g>
</g>
</g>
</g>
<g id="Group_40">
<g id="Group_41">
<g id="Group_42">
<g id="Group_43">
<path id="Vector_78" d="M51.1812 51.4286C51.1812 53.2857 55.1755 54.7959 60.0804 54.7959C65.006 54.7959 68.9796 53.2857 68.9796 51.4286V49.8368H51.1812V51.4286Z" fill="#C09CA5"/>
<g id="Group_44">
<path id="Vector_79" d="M59.2524 50.6531V54.7959C59.5215 54.7959 59.8112 54.8163 60.101 54.8163V50.6735H59.2524V50.6531Z" fill="#7C656B"/>
<path id="Vector_80" d="M57.5347 50.6531V54.6531C57.99 54.7143 58.466 54.7347 58.9627 54.7755V50.6531H57.5347Z" fill="#7C656B"/>
<path id="Vector_81" d="M57.1829 54.6123V49.8368H51.2018V51.4286C51.1811 52.898 53.6853 54.1633 57.1829 54.6123Z" fill="#7C656B"/>
<path id="Vector_82" d="M63.2676 50.6531V54.5919C63.3711 54.5714 63.4538 54.5714 63.5573 54.551V50.6735H63.2676V50.6531Z" fill="#7C656B"/>
<path id="Vector_83" d="M62.1499 54.7143C62.2534 54.7143 62.3362 54.6939 62.4396 54.6939V50.6531H62.1499V54.7143Z" fill="#7C656B"/>
<path id="Vector_84" d="M60.7427 50.6531V54.7959C60.8875 54.7959 61.0324 54.7959 61.1566 54.7755V50.6531H60.7427Z" fill="#7C656B"/>
</g>
<g id="Group_45">
<path id="Vector_85" d="M60.1009 53.2041C55.1753 53.2041 51.2017 51.6939 51.2017 49.8368C51.2017 47.9796 55.196 46.4694 60.1009 46.4694C65.0265 46.4694 69.0001 47.9796 69.0001 49.8368C69.0001 51.6939 65.0058 53.2041 60.1009 53.2041Z" fill="#C09CA5"/>
<path id="Vector_86" opacity="0.4" d="M65.1093 52.6123C64.8609 52.6123 64.5919 52.6327 64.3435 52.6327C59.4179 52.6327 55.4443 51.1225 55.4443 49.2653C55.4443 48.1021 56.9758 47.0817 59.3351 46.4694C54.782 46.6123 51.2017 48.0613 51.2017 49.8368C51.2017 51.6939 55.196 53.2041 60.1009 53.2041C61.9635 53.2041 63.6813 52.9796 65.1093 52.6123Z" fill="url(#paint5_linear_58_145)"/>
<path id="Vector_87" d="M68.9796 49.9388C68.8347 48.1225 64.9025 46.6735 60.0804 46.6735C55.2582 46.6735 51.326 48.1225 51.1812 49.9388C51.326 51.7551 55.2582 53.2041 60.0804 53.2041C64.9232 53.2041 68.8347 51.7551 68.9796 49.9388ZM60.1011 52.7959C56.1068 52.7959 52.8575 51.5715 52.8575 50.0408C52.8575 48.5306 56.1068 47.2857 60.1011 47.2857C64.0954 47.2857 67.3446 48.5102 67.3446 50.0408C67.3446 51.551 64.0954 52.7959 60.1011 52.7959Z" fill="#7C656B"/>
<path id="Vector_88" d="M59.2939 49.3674L55.8584 50.347V51.0204L59.3767 49.9592C59.7285 50.2449 60.2252 50.449 60.8668 50.5919C60.9289 50.6123 60.9703 50.6123 61.0324 50.6123V51.2245H62.3155V50.7551C62.5846 50.7755 62.8536 50.7755 63.0813 50.7551V51.2041H64.3644V49.3878H63.0813V50.2653C62.8743 50.2653 62.6053 50.2653 62.3155 50.2653V49.3878H61.0324V50C60.7219 49.8776 60.4736 49.7143 60.2873 49.4898L59.2939 49.3674Z" fill="#7C656B"/>
<path id="Vector_89" d="M67.3444 49.8368C67.3444 51.347 64.0952 52.5919 60.1009 52.5919C56.1066 52.5919 52.8573 51.3674 52.8573 49.8368C52.8573 48.3266 56.1066 47.0817 60.1009 47.0817C64.0952 47.0817 67.3444 48.3062 67.3444 49.8368ZM69.0001 49.8368C69.0001 47.9796 65.0058 46.4694 60.1009 46.4694C55.1753 46.4694 51.2017 47.9796 51.2017 49.8368C51.2017 51.6939 55.196 53.2041 60.1009 53.2041C65.0058 53.2041 69.0001 51.6939 69.0001 49.8368Z" fill="#624A50"/>
<g id="Group_46">
<path id="Vector_90" d="M53.8096 49.8368C53.8096 48.5306 56.6242 47.449 60.1011 47.449C63.578 47.449 66.3927 48.5102 66.3927 49.8368C66.3927 51.1429 63.578 52.2245 60.1011 52.2245C56.6242 52.2041 53.8096 51.1429 53.8096 49.8368ZM66.1029 49.8368C66.1029 48.5715 63.4124 47.551 60.0804 47.551C56.7691 47.551 54.0579 48.5715 54.0579 49.8368C54.0579 51.1021 56.7484 52.1225 60.0804 52.1225C63.4124 52.1021 66.1029 51.0817 66.1029 49.8368Z" fill="#624A50"/>
</g>
<path id="Vector_91" d="M59.2939 48.898L55.8584 49.8776V50.551L59.3767 49.4694C59.7285 49.7551 60.2252 49.9592 60.8668 50.1021C60.9289 50.1225 60.9703 50.1225 61.0324 50.1429V50.7551H62.3155V50.2857C62.5846 50.3061 62.8536 50.3061 63.0813 50.2857V50.7347H64.3644V48.9184H63.0813V49.7959C62.8743 49.7959 62.6053 49.7959 62.3155 49.7755V48.9184H61.0324V49.5306C60.7219 49.4082 60.4736 49.2449 60.2873 49.0204L59.2939 48.898Z" fill="#624A50"/>
</g>
</g>
</g>
</g>
</g>
<g id="Group_47">
<g id="Group_48">
<g id="Group_49">
<g id="Group_50">
<path id="Vector_92" d="M51.1812 48.0408C51.1812 49.898 55.1755 51.4082 60.0804 51.4082C65.006 51.4082 68.9796 49.898 68.9796 48.0408V46.449H51.1812V48.0408Z" fill="#C09CA5"/>
<g id="Group_51">
<path id="Vector_93" d="M59.2524 47.2654V51.4082C59.5215 51.4082 59.8112 51.4286 60.101 51.4286V47.2858H59.2524V47.2654Z" fill="#7C656B"/>
<path id="Vector_94" d="M57.5347 47.2654V51.2653C57.99 51.3266 58.466 51.347 58.9627 51.3878V47.2654H57.5347Z" fill="#7C656B"/>
<path id="Vector_95" d="M57.1829 51.2449V46.4694H51.2018V48.0613C51.1811 49.5306 53.6853 50.7755 57.1829 51.2449Z" fill="#7C656B"/>
<path id="Vector_96" d="M63.2676 47.2654V51.2041C63.3711 51.1837 63.4538 51.1837 63.5573 51.1633V47.2858H63.2676V47.2654Z" fill="#7C656B"/>
<path id="Vector_97" d="M62.1499 51.3266C62.2534 51.3266 62.3362 51.3062 62.4396 51.3062V47.2654H62.1499V51.3266Z" fill="#7C656B"/>
<path id="Vector_98" d="M60.7427 47.2654V51.4082C60.8875 51.4082 61.0324 51.4082 61.1566 51.3878V47.2654H60.7427Z" fill="#7C656B"/>
</g>
<g id="Group_52">
<path id="Vector_99" d="M60.1009 49.8368C55.1753 49.8368 51.2017 48.3266 51.2017 46.4694C51.2017 44.6123 55.196 43.1021 60.1009 43.1021C65.0265 43.1021 69.0001 44.6123 69.0001 46.4694C69.0001 48.3266 65.0058 49.8368 60.1009 49.8368Z" fill="#C09CA5"/>
<path id="Vector_100" opacity="0.4" d="M65.1093 49.2449C64.8609 49.2449 64.5919 49.2653 64.3435 49.2653C59.4179 49.2653 55.4443 47.7551 55.4443 45.898C55.4443 44.7347 56.9758 43.7143 59.3351 43.1021C54.782 43.2449 51.2017 44.6939 51.2017 46.4694C51.2017 48.3266 55.196 49.8368 60.1009 49.8368C61.9635 49.8368 63.6813 49.6123 65.1093 49.2449Z" fill="url(#paint6_linear_58_145)"/>
<path id="Vector_101" d="M68.9796 46.551C68.8347 44.7347 64.9025 43.2857 60.0804 43.2857C55.2582 43.2857 51.326 44.7347 51.1812 46.551C51.326 48.3674 55.2582 49.8163 60.0804 49.8163C64.9232 49.8368 68.8347 48.3674 68.9796 46.551ZM60.1011 49.4082C56.1068 49.4082 52.8575 48.1837 52.8575 46.6531C52.8575 45.1429 56.1068 43.898 60.1011 43.898C64.0954 43.898 67.3446 45.1225 67.3446 46.6531C67.3446 48.1837 64.0954 49.4082 60.1011 49.4082Z" fill="#7C656B"/>
<path id="Vector_102" d="M59.2939 45.9796L55.8584 46.9592V47.6327L59.3767 46.5714C59.7285 46.8572 60.2252 47.0612 60.8668 47.2041C60.9289 47.2245 60.9703 47.2245 61.0324 47.2449V47.8572H62.3155V47.3878C62.5846 47.4082 62.8536 47.4082 63.0813 47.3878V47.8368H64.3644V46.0204H63.0813V46.898C62.8743 46.898 62.6053 46.898 62.3155 46.898V46.0408H61.0324V46.6531C60.7219 46.5306 60.4736 46.3674 60.2873 46.1429L59.2939 45.9796Z" fill="#7C656B"/>
<path id="Vector_103" d="M67.3444 46.449C67.3444 47.9592 64.0952 49.2041 60.1009 49.2041C56.1066 49.2041 52.8573 47.9796 52.8573 46.449C52.8573 44.9388 56.1066 43.6939 60.1009 43.6939C64.0952 43.7143 67.3444 44.9388 67.3444 46.449ZM69.0001 46.449C69.0001 44.5919 65.0058 43.0817 60.1009 43.0817C55.1753 43.0817 51.2017 44.5919 51.2017 46.449C51.2017 48.3062 55.196 49.8164 60.1009 49.8164C65.0058 49.8368 69.0001 48.3266 69.0001 46.449Z" fill="#624A50"/>
<g id="Group_53">
<path id="Vector_104" d="M53.8096 46.449C53.8096 45.1429 56.6242 44.0612 60.1011 44.0612C63.578 44.0612 66.3927 45.1225 66.3927 46.449C66.3927 47.7551 63.578 48.8368 60.1011 48.8368C56.6242 48.8368 53.8096 47.7755 53.8096 46.449ZM66.1029 46.449C66.1029 45.1837 63.4124 44.1633 60.0804 44.1633C56.7691 44.1633 54.0579 45.1837 54.0579 46.449C54.0579 47.7143 56.7484 48.7347 60.0804 48.7347C63.4124 48.7347 66.1029 47.7143 66.1029 46.449Z" fill="#624A50"/>
</g>
<path id="Vector_105" d="M59.2939 45.5306L55.8584 46.5102V47.1837L59.3767 46.1021C59.7285 46.3878 60.2252 46.5919 60.8668 46.7347C60.9289 46.7551 60.9703 46.7551 61.0324 46.7755V47.3878H62.3155V46.9184C62.5846 46.9388 62.8536 46.9388 63.0813 46.9184V47.3674H64.3644V45.551H63.0813V46.4286C62.8743 46.4286 62.6053 46.4286 62.3155 46.4286V45.5715H61.0324V46.1837C60.7219 46.0613 60.4736 45.898 60.2873 45.6735L59.2939 45.5306Z" fill="#624A50"/>
</g>
</g>
</g>
</g>
</g>
<g id="Group_54">
<g id="Group_55">
<g id="Group_56">
<g id="Group_57">
<path id="Vector_106" d="M51.1812 44.6735C51.1812 46.5306 55.1755 48.0408 60.0804 48.0408C65.006 48.0408 68.9796 46.5306 68.9796 44.6735V43.0817H51.1812V44.6735Z" fill="#C09CA5"/>
<g id="Group_58">
<path id="Vector_107" d="M59.2524 43.898V48.0408C59.5215 48.0408 59.8112 48.0612 60.101 48.0612V43.9184H59.2524V43.898Z" fill="#7C656B"/>
<path id="Vector_108" d="M57.5347 43.898V47.898C57.99 47.9592 58.466 47.9796 58.9627 48.0204V43.898H57.5347Z" fill="#7C656B"/>
<path id="Vector_109" d="M57.1829 47.8572V43.0817H51.2018V44.6735C51.1811 46.1429 53.6853 47.4082 57.1829 47.8572Z" fill="#7C656B"/>
<path id="Vector_110" d="M63.2676 43.898V47.8368C63.3711 47.8163 63.4538 47.8163 63.5573 47.7959V43.9184H63.2676V43.898Z" fill="#7C656B"/>
<path id="Vector_111" d="M62.1499 47.9592C62.2534 47.9592 62.3362 47.9388 62.4396 47.9388V43.898H62.1499V47.9592Z" fill="#7C656B"/>
<path id="Vector_112" d="M60.7427 43.898V48.0408C60.8875 48.0408 61.0324 48.0408 61.1566 48.0204V43.898H60.7427Z" fill="#7C656B"/>
</g>
<g id="Group_59">
<path id="Vector_113" d="M60.1009 46.449C55.1753 46.449 51.2017 44.9388 51.2017 43.0817C51.2017 41.2245 55.196 39.7143 60.1009 39.7143C65.0265 39.7143 69.0001 41.2245 69.0001 43.0817C69.0001 44.9388 65.0058 46.449 60.1009 46.449Z" fill="#C09CA5"/>
<path id="Vector_114" opacity="0.4" d="M65.1093 45.8572C64.8609 45.8572 64.5919 45.8776 64.3435 45.8776C59.4179 45.8776 55.4443 44.3674 55.4443 42.5102C55.4443 41.347 56.9758 40.3266 59.3351 39.7143C54.782 39.8572 51.2017 41.3062 51.2017 43.0817C51.2017 44.9388 55.196 46.449 60.1009 46.449C61.9635 46.449 63.6813 46.2449 65.1093 45.8572Z" fill="url(#paint7_linear_58_145)"/>
<path id="Vector_115" d="M68.9796 43.1837C68.8347 41.3674 64.9025 39.9184 60.0804 39.9184C55.2582 39.9184 51.326 41.3674 51.1812 43.1837C51.326 45 55.2582 46.449 60.0804 46.449C64.9232 46.449 68.8347 45 68.9796 43.1837ZM60.1011 46.0408C56.1068 46.0408 52.8575 44.8164 52.8575 43.2857C52.8575 41.7755 56.1068 40.5306 60.1011 40.5306C64.0954 40.5306 67.3446 41.7551 67.3446 43.2857C67.3446 44.7959 64.0954 46.0408 60.1011 46.0408Z" fill="#7C656B"/>
<path id="Vector_116" d="M59.2939 42.6123L55.8584 43.5919V44.2653L59.3767 43.2041C59.7285 43.4898 60.2252 43.6939 60.8668 43.8368C60.9289 43.8572 60.9703 43.8572 61.0324 43.8572V44.4694H62.3155V44C62.5846 44.0204 62.8536 44.0204 63.0813 44V44.449H64.3644V42.6327H63.0813V43.5102C62.8743 43.5102 62.6053 43.5102 62.3155 43.4898V42.6327H61.0324V43.2449C60.7219 43.1225 60.4736 42.9592 60.2873 42.7347L59.2939 42.6123Z" fill="#7C656B"/>
<path id="Vector_117" d="M67.3444 43.0817C67.3444 44.5919 64.0952 45.8368 60.1009 45.8368C56.1066 45.8368 52.8573 44.6123 52.8573 43.0817C52.8573 41.5715 56.1066 40.3266 60.1009 40.3266C64.0952 40.3266 67.3444 41.5511 67.3444 43.0817ZM69.0001 43.0817C69.0001 41.2245 65.0058 39.7143 60.1009 39.7143C55.1753 39.7143 51.2017 41.2245 51.2017 43.0817C51.2017 44.9388 55.196 46.449 60.1009 46.449C65.0058 46.449 69.0001 44.9388 69.0001 43.0817Z" fill="#624A50"/>
<g id="Group_60">
<path id="Vector_118" d="M53.8096 43.0817C53.8096 41.7755 56.6242 40.6939 60.1011 40.6939C63.578 40.6939 66.3927 41.7551 66.3927 43.0817C66.3927 44.3878 63.578 45.4694 60.1011 45.4694C56.6242 45.4694 53.8096 44.3878 53.8096 43.0817ZM66.1029 43.0817C66.1029 41.8164 63.4124 40.7959 60.0804 40.7959C56.7691 40.7959 54.0579 41.8164 54.0579 43.0817C54.0579 44.347 56.7484 45.3674 60.0804 45.3674C63.4124 45.347 66.1029 44.3266 66.1029 43.0817Z" fill="#624A50"/>
</g>
<path id="Vector_119" d="M59.2939 42.1633L55.8584 43.1429V43.8164L59.3767 42.7347C59.7285 43.0204 60.2252 43.2245 60.8668 43.3674C60.9289 43.3878 60.9703 43.3878 61.0324 43.4082V44.0204H62.3155V43.5511C62.5846 43.5715 62.8536 43.5715 63.0813 43.5511V44H64.3644V42.1837H63.0813V43.0613C62.8743 43.0613 62.6053 43.0613 62.3155 43.0613V42.2041H61.0324V42.8164C60.7219 42.6939 60.4736 42.5306 60.2873 42.3062L59.2939 42.1633Z" fill="#624A50"/>
</g>
</g>
</g>
</g>
</g>
<g id="Group_61">
<g id="Group_62">
<g id="Group_63">
<g id="Group_64">
<path id="Vector_120" d="M43.1509 68.3878C43.1509 70.2449 47.1452 71.7551 52.0501 71.7551C56.9757 71.7551 60.9493 70.2449 60.9493 68.3878V66.796H43.1509V68.3878Z" fill="#C09CA5"/>
<g id="Group_65">
<path id="Vector_121" d="M51.2017 67.6123V71.7551C51.4707 71.7551 51.7604 71.7755 52.0502 71.7755V67.6327H51.2017V67.6123Z" fill="#7C656B"/>
<path id="Vector_122" d="M49.4839 67.6123V71.6123C49.9392 71.6735 50.4152 71.6939 50.9119 71.7347V67.6123H49.4839Z" fill="#7C656B"/>
<path id="Vector_123" d="M49.132 71.5715V66.796H43.1509V68.3878C43.1509 69.8572 45.6551 71.1021 49.132 71.5715Z" fill="#7C656B"/>
<path id="Vector_124" d="M55.2168 67.6123V71.5511C55.3203 71.5306 55.4031 71.5306 55.5065 71.5102V67.6327H55.2168V67.6123Z" fill="#7C656B"/>
<path id="Vector_125" d="M54.1196 71.6531C54.2231 71.6531 54.3059 71.6327 54.4094 71.6327V67.5919H54.1196V71.6531Z" fill="#7C656B"/>
<path id="Vector_126" d="M52.7124 67.6123V71.7551C52.8573 71.7551 53.0021 71.7551 53.1263 71.7347V67.6123H52.7124Z" fill="#7C656B"/>
</g>
<g id="Group_66">
<path id="Vector_127" d="M52.0501 70.1633C47.1245 70.1633 43.1509 68.6531 43.1509 66.796C43.1509 64.9388 47.1452 63.4286 52.0501 63.4286C56.9757 63.4286 60.9493 64.9388 60.9493 66.796C60.9493 68.6531 56.955 70.1633 52.0501 70.1633Z" fill="#C09CA5"/>
<path id="Vector_128" opacity="0.4" d="M57.0585 69.5715C56.8101 69.5715 56.5411 69.5919 56.2928 69.5919C51.3671 69.5919 47.3935 68.0817 47.3935 66.2245C47.3935 65.0613 48.925 64.0409 51.2844 63.4286C46.7313 63.5715 43.1509 65.0205 43.1509 66.796C43.1509 68.6531 47.1452 70.1633 52.0501 70.1633C53.9127 70.1633 55.6305 69.9388 57.0585 69.5715Z" fill="url(#paint8_linear_58_145)"/>
<path id="Vector_129" d="M60.9493 66.898C60.8044 65.0817 56.8722 63.6327 52.0501 63.6327C47.228 63.6327 43.2957 65.0817 43.1509 66.898C43.2957 68.7143 47.228 70.1633 52.0501 70.1633C56.8722 70.1633 60.8044 68.7143 60.9493 66.898ZM52.0501 69.7347C48.0558 69.7347 44.8065 68.5102 44.8065 66.9796C44.8065 65.4694 48.0558 64.2245 52.0501 64.2245C56.0444 64.2245 59.2936 65.449 59.2936 66.9796C59.2936 68.5102 56.0444 69.7347 52.0501 69.7347Z" fill="#7C656B"/>
<path id="Vector_130" d="M51.2431 66.3062L47.8076 67.2857V67.9592L51.3259 66.898C51.6777 67.1837 52.1744 67.3878 52.816 67.5306C52.8781 67.5511 52.9195 67.5511 52.9816 67.5715V68.1837H54.2647V67.7143C54.5338 67.7347 54.8028 67.7347 55.0305 67.7143V68.1633H56.3136V66.347H55.0305V67.2245C54.8235 67.2245 54.5545 67.2245 54.2647 67.2245V66.3674H52.9816V66.9796C52.6711 66.8572 52.4228 66.6939 52.2365 66.4694L51.2431 66.3062Z" fill="#7C656B"/>
<path id="Vector_131" d="M59.2936 66.7755C59.2936 68.2858 56.0444 69.5307 52.0501 69.5307C48.0558 69.5307 44.8065 68.3062 44.8065 66.7755C44.8065 65.2449 48.0558 64.0204 52.0501 64.0204C56.0444 64.0409 59.2936 65.2653 59.2936 66.7755ZM60.9493 66.7755C60.9493 64.9184 56.955 63.4082 52.0501 63.4082C47.1245 63.4082 43.1509 64.9184 43.1509 66.7755C43.1509 68.6327 47.1452 70.1429 52.0501 70.1429C56.955 70.1633 60.9493 68.6531 60.9493 66.7755Z" fill="#624A50"/>
<g id="Group_67">
<path id="Vector_132" d="M45.7588 66.7755C45.7588 65.4694 48.5734 64.3878 52.0503 64.3878C55.5272 64.3878 58.3419 65.449 58.3419 66.7755C58.3419 68.0817 55.5272 69.1633 52.0503 69.1633C48.5734 69.1633 45.7588 68.1021 45.7588 66.7755ZM58.0521 66.7755C58.0521 65.5102 55.3617 64.4898 52.0296 64.4898C48.7183 64.4898 46.0071 65.5102 46.0071 66.7755C46.0071 68.0409 48.6976 69.0613 52.0296 69.0613C55.3617 69.0613 58.0521 68.0409 58.0521 66.7755Z" fill="#624A50"/>
</g>
<path id="Vector_133" d="M51.2431 65.8572L47.8076 66.8368V67.5102L51.3259 66.4286C51.6777 66.7143 52.1744 66.9184 52.816 67.0613C52.8781 67.0817 52.9195 67.0817 52.9816 67.1021V67.7143H54.2647V67.2449C54.5338 67.2653 54.8028 67.2653 55.0305 67.2449V67.6939H56.3136V65.8776H55.0305V66.7551C54.8235 66.7551 54.5545 66.7551 54.2647 66.7551V65.898H52.9816V66.5102C52.6711 66.3878 52.4228 66.2245 52.2365 66L51.2431 65.8572Z" fill="#624A50"/>
</g>
</g>
</g>
</g>
</g>
<g id="Group_68">
<g id="Group_69">
<g id="Group_70">
<g id="Group_71">
<path id="Vector_134" d="M43.1509 65C43.1509 66.8572 47.1452 68.3674 52.0501 68.3674C56.9757 68.3674 60.9493 66.8572 60.9493 65V63.4082H43.1509V65Z" fill="#C09CA5"/>
<g id="Group_72">
<path id="Vector_135" d="M51.2017 64.2245V68.3674C51.4707 68.3674 51.7604 68.3878 52.0502 68.3878V64.2449H51.2017V64.2245Z" fill="#7C656B"/>
<path id="Vector_136" d="M49.4839 64.2245V68.2245C49.9392 68.2857 50.4152 68.3061 50.9119 68.347V64.2245H49.4839Z" fill="#7C656B"/>
<path id="Vector_137" d="M49.132 68.1837V63.4082H43.1509V65C43.1509 66.4694 45.6551 67.7347 49.132 68.1837Z" fill="#7C656B"/>
<path id="Vector_138" d="M55.2168 64.2245V68.1633C55.3203 68.1429 55.4031 68.1429 55.5065 68.1225V64.2449H55.2168V64.2245Z" fill="#7C656B"/>
<path id="Vector_139" d="M54.1196 68.2857C54.2231 68.2857 54.3059 68.2653 54.4094 68.2653V64.2245H54.1196V68.2857Z" fill="#7C656B"/>
<path id="Vector_140" d="M52.7124 64.2245V68.3674C52.8573 68.3674 53.0021 68.3674 53.1263 68.347V64.2245H52.7124Z" fill="#7C656B"/>
</g>
<g id="Group_73">
<path id="Vector_141" d="M52.0501 66.7756C47.1245 66.7756 43.1509 65.2654 43.1509 63.4082C43.1509 61.5511 47.1452 60.0409 52.0501 60.0409C56.9757 60.0409 60.9493 61.5511 60.9493 63.4082C60.9493 65.2654 56.955 66.7756 52.0501 66.7756Z" fill="#C09CA5"/>
<path id="Vector_142" opacity="0.4" d="M57.0585 66.2041C56.8101 66.2041 56.5411 66.2245 56.2928 66.2245C51.3671 66.2245 47.3935 64.7143 47.3935 62.8572C47.3935 61.6939 48.925 60.6735 51.2844 60.0613C46.7313 60.2041 43.1509 61.6531 43.1509 63.4286C43.1509 65.2858 47.1452 66.796 52.0501 66.796C53.9127 66.7756 55.6305 66.5715 57.0585 66.2041Z" fill="url(#paint9_linear_58_145)"/>
<path id="Vector_143" d="M60.9493 63.5102C60.8044 61.6939 56.8722 60.2449 52.0501 60.2449C47.228 60.2449 43.2957 61.6939 43.1509 63.5102C43.2957 65.3266 47.228 66.7755 52.0501 66.7755C56.8722 66.7755 60.8044 65.3266 60.9493 63.5102ZM52.0501 66.3674C48.0558 66.3674 44.8065 65.1429 44.8065 63.6123C44.8065 62.1021 48.0558 60.8572 52.0501 60.8572C56.0444 60.8572 59.2936 62.0817 59.2936 63.6123C59.2936 65.1225 56.0444 66.3674 52.0501 66.3674Z" fill="#7C656B"/>
<path id="Vector_144" d="M51.2431 62.9388L47.8076 63.9184V64.5919L51.3259 63.5306C51.6777 63.8164 52.1744 64.0204 52.816 64.1633C52.8781 64.1837 52.9195 64.1837 52.9816 64.1837V64.796H54.2647V64.3266C54.5338 64.347 54.8028 64.347 55.0305 64.3266V64.7755H56.3136V62.9592H55.0305V63.8368C54.8235 63.8368 54.5545 63.8368 54.2647 63.8164V62.9592H52.9816V63.5715C52.6711 63.449 52.4228 63.2858 52.2365 63.0613L51.2431 62.9388Z" fill="#7C656B"/>
<path id="Vector_145" d="M59.2936 63.4082C59.2936 64.9184 56.0444 66.1633 52.0501 66.1633C48.0558 66.1633 44.8065 64.9388 44.8065 63.4082C44.8065 61.898 48.0558 60.6531 52.0501 60.6531C56.0444 60.6531 59.2936 61.898 59.2936 63.4082ZM60.9493 63.4082C60.9493 61.5511 56.955 60.0409 52.0501 60.0409C47.1245 60.0409 43.1509 61.5511 43.1509 63.4082C43.1509 65.2654 47.1452 66.7756 52.0501 66.7756C56.955 66.7756 60.9493 65.2654 60.9493 63.4082Z" fill="#624A50"/>
<g id="Group_74">
<path id="Vector_146" d="M45.7588 63.4082C45.7588 62.1021 48.5734 61.0204 52.0503 61.0204C55.5272 61.0204 58.3419 62.0817 58.3419 63.4082C58.3419 64.7143 55.5272 65.796 52.0503 65.796C48.5734 65.796 45.7588 64.7143 45.7588 63.4082ZM58.0521 63.4082C58.0521 62.1429 55.3617 61.1225 52.0296 61.1225C48.7183 61.1225 46.0071 62.1429 46.0071 63.4082C46.0071 64.6735 48.6976 65.6939 52.0296 65.6939C55.3617 65.6939 58.0521 64.6735 58.0521 63.4082Z" fill="#624A50"/>
</g>
<path id="Vector_147" d="M51.2431 62.4898L47.8076 63.4694V64.1429L51.3259 63.0613C51.6777 63.347 52.1744 63.5511 52.816 63.6939C52.8781 63.7143 52.9195 63.7143 52.9816 63.7347V64.347H54.2647V63.8776C54.5338 63.898 54.8028 63.898 55.0305 63.8776V64.3266H56.3136V62.5102H55.0305V63.3878C54.8235 63.3878 54.5545 63.3878 54.2647 63.3674V62.5102H52.9816V63.1225C52.6711 63 52.4228 62.8368 52.2365 62.6123L51.2431 62.4898Z" fill="#624A50"/>
</g>
</g>
</g>
</g>
</g>
<g id="Group_75">
<g id="Group_76">
<g id="Group_77">
<g id="Group_78">
<path id="Vector_148" d="M43.1509 61.6327C43.1509 63.4898 47.1452 65 52.0501 65C56.9757 65 60.9493 63.4898 60.9493 61.6327V60.0409H43.1509V61.6327Z" fill="#C09CA5"/>
<g id="Group_79">
<path id="Vector_149" d="M51.2017 60.8572V65C51.4707 65 51.7604 65.0204 52.0502 65.0204V60.8776H51.2017V60.8572Z" fill="#7C656B"/>
<path id="Vector_150" d="M49.4839 60.8572V64.8572C49.9392 64.9184 50.4152 64.9388 50.9119 64.9796V60.8572H49.4839Z" fill="#7C656B"/>
<path id="Vector_151" d="M49.132 64.8164V60.0409H43.1509V61.6327C43.1509 63.1021 45.6551 64.3674 49.132 64.8164Z" fill="#7C656B"/>
<path id="Vector_152" d="M55.2168 60.8572V64.796C55.3203 64.7755 55.4031 64.7755 55.5065 64.7551V60.8776H55.2168V60.8572Z" fill="#7C656B"/>
<path id="Vector_153" d="M54.1196 64.9184C54.2231 64.9184 54.3059 64.898 54.4094 64.898V60.8572H54.1196V64.9184Z" fill="#7C656B"/>
<path id="Vector_154" d="M52.7124 60.8572V65C52.8573 65 53.0021 65 53.1263 64.9796V60.8572H52.7124Z" fill="#7C656B"/>
</g>
<g id="Group_80">
<path id="Vector_155" d="M52.0501 63.4082C47.1245 63.4082 43.1509 61.898 43.1509 60.0409C43.1509 58.1837 47.1452 56.6735 52.0501 56.6735C56.9757 56.6735 60.9493 58.1837 60.9493 60.0409C60.9493 61.898 56.955 63.4082 52.0501 63.4082Z" fill="#C09CA5"/>
<path id="Vector_156" opacity="0.4" d="M57.0585 62.8164C56.8101 62.8164 56.5411 62.8368 56.2928 62.8368C51.3671 62.8368 47.3935 61.3266 47.3935 59.4694C47.3935 58.3062 48.925 57.2858 51.2844 56.6735C46.7313 56.8164 43.1509 58.2654 43.1509 60.0409C43.1509 61.898 47.1452 63.4082 52.0501 63.4082C53.9127 63.4082 55.6305 63.1837 57.0585 62.8164Z" fill="url(#paint10_linear_58_145)"/>
<path id="Vector_157" d="M60.9493 60.1429C60.8044 58.3266 56.8722 56.8776 52.0501 56.8776C47.228 56.8776 43.2957 58.3266 43.1509 60.1429C43.2957 61.9592 47.228 63.4082 52.0501 63.4082C56.8722 63.4082 60.8044 61.9592 60.9493 60.1429ZM52.0501 62.9796C48.0558 62.9796 44.8065 61.7551 44.8065 60.2245C44.8065 58.6939 48.0558 57.4694 52.0501 57.4694C56.0444 57.4694 59.2936 58.6939 59.2936 60.2245C59.2936 61.7551 56.0444 62.9796 52.0501 62.9796Z" fill="#7C656B"/>
<path id="Vector_158" d="M51.2431 59.5715L47.8076 60.5511V61.2245L51.3259 60.1633C51.6777 60.449 52.1744 60.6531 52.816 60.796C52.8781 60.8164 52.9195 60.8164 52.9816 60.8164V61.4286H54.2647V60.9592C54.5338 60.9796 54.8028 60.9796 55.0305 60.9592V61.4082H56.3136V59.5919H55.0305V60.4694C54.8235 60.4694 54.5545 60.4694 54.2647 60.4694V59.5919H52.9816V60.2041C52.6711 60.0817 52.4228 59.9184 52.2365 59.6939L51.2431 59.5715Z" fill="#7C656B"/>
<path id="Vector_159" d="M59.2936 60.0409C59.2936 61.5511 56.0444 62.796 52.0501 62.796C48.0558 62.796 44.8065 61.5715 44.8065 60.0409C44.8065 58.5307 48.0558 57.2858 52.0501 57.2858C56.0444 57.2858 59.2936 58.5103 59.2936 60.0409ZM60.9493 60.0409C60.9493 58.1837 56.955 56.6735 52.0501 56.6735C47.1245 56.6735 43.1509 58.1837 43.1509 60.0409C43.1509 61.898 47.1452 63.4082 52.0501 63.4082C56.955 63.4082 60.9493 61.898 60.9493 60.0409Z" fill="#624A50"/>
<g id="Group_81">
<path id="Vector_160" d="M45.7588 60.0409C45.7588 58.7347 48.5734 57.6531 52.0503 57.6531C55.5272 57.6531 58.3419 58.7143 58.3419 60.0409C58.3419 61.347 55.5272 62.4286 52.0503 62.4286C48.5734 62.4082 45.7588 61.347 45.7588 60.0409ZM58.0521 60.0409C58.0521 58.7756 55.3617 57.7551 52.0296 57.7551C48.7183 57.7551 46.0071 58.7756 46.0071 60.0409C46.0071 61.3062 48.6976 62.3266 52.0296 62.3266C55.3617 62.3062 58.0521 61.2858 58.0521 60.0409Z" fill="#624A50"/>
</g>
<path id="Vector_161" d="M51.2431 59.1021L47.8076 60.0817V60.7551L51.3259 59.6735C51.6777 59.9592 52.1744 60.1633 52.816 60.3062C52.8781 60.3266 52.9195 60.3266 52.9816 60.347V60.9592H54.2647V60.4898C54.5338 60.5102 54.8028 60.5102 55.0305 60.4898V60.9388H56.3136V59.1225H55.0305V60C54.8235 60 54.5545 60 54.2647 59.9796V59.1225H52.9816V59.7347C52.6711 59.6123 52.4228 59.449 52.2365 59.2245L51.2431 59.1021Z" fill="#624A50"/>
</g>
</g>
</g>
</g>
</g>
<g id="Group_82">
<g id="Group_83">
<g id="Group_84">
<g id="Group_85">
<path id="Vector_162" d="M43.1509 58.2449C43.1509 60.1021 47.1452 61.6123 52.0501 61.6123C56.9757 61.6123 60.9493 60.1021 60.9493 58.2449V56.6531H43.1509V58.2449Z" fill="#C09CA5"/>
<g id="Group_86">
<path id="Vector_163" d="M51.2017 57.4695V61.6123C51.4707 61.6123 51.7604 61.6327 52.0502 61.6327V57.4899H51.2017V57.4695Z" fill="#7C656B"/>
<path id="Vector_164" d="M49.4839 57.4695V61.4695C49.9392 61.5307 50.4152 61.5511 50.9119 61.5919V57.4695H49.4839Z" fill="#7C656B"/>
<path id="Vector_165" d="M49.132 61.449V56.6735H43.1509V58.2654C43.1509 59.7347 45.6551 60.9796 49.132 61.449Z" fill="#7C656B"/>
<path id="Vector_166" d="M55.2168 57.4695V61.4082C55.3203 61.3878 55.4031 61.3878 55.5065 61.3674V57.4899H55.2168V57.4695Z" fill="#7C656B"/>
<path id="Vector_167" d="M54.1196 61.5307C54.2231 61.5307 54.3059 61.5103 54.4094 61.5103V57.4695H54.1196V61.5307Z" fill="#7C656B"/>
<path id="Vector_168" d="M52.7124 57.4695V61.6123C52.8573 61.6123 53.0021 61.6123 53.1263 61.5919V57.4695H52.7124Z" fill="#7C656B"/>
</g>
<g id="Group_87">
<path id="Vector_169" d="M52.0501 60.0409C47.1245 60.0409 43.1509 58.5307 43.1509 56.6735C43.1509 54.8164 47.1452 53.3062 52.0501 53.3062C56.9757 53.3062 60.9493 54.8164 60.9493 56.6735C60.9493 58.5103 56.955 60.0409 52.0501 60.0409Z" fill="#C09CA5"/>
<path id="Vector_170" opacity="0.4" d="M57.0585 59.449C56.8101 59.449 56.5411 59.4694 56.2928 59.4694C51.3671 59.4694 47.3935 57.9592 47.3935 56.1021C47.3935 54.9388 48.925 53.9184 51.2844 53.3062C46.7313 53.449 43.1509 54.898 43.1509 56.6735C43.1509 58.5307 47.1452 60.0409 52.0501 60.0409C53.9127 60.0409 55.6305 59.8164 57.0585 59.449Z" fill="url(#paint11_linear_58_145)"/>
<path id="Vector_171" d="M60.9493 56.7551C60.8044 54.9388 56.8722 53.4898 52.0501 53.4898C47.228 53.4898 43.2957 54.9388 43.1509 56.7551C43.2957 58.5715 47.228 60.0205 52.0501 60.0205C56.8722 60.0409 60.8044 58.5715 60.9493 56.7551ZM52.0501 59.6123C48.0558 59.6123 44.8065 58.3878 44.8065 56.8572C44.8065 55.347 48.0558 54.1021 52.0501 54.1021C56.0444 54.1021 59.2936 55.3266 59.2936 56.8572C59.2936 58.3878 56.0444 59.6123 52.0501 59.6123Z" fill="#7C656B"/>
<path id="Vector_172" d="M51.2431 56.1837L47.8076 57.1633V57.8368L51.3259 56.7756C51.6777 57.0613 52.1744 57.2653 52.816 57.4082C52.8781 57.4286 52.9195 57.4286 52.9816 57.449V58.0613H54.2647V57.5919C54.5338 57.6123 54.8028 57.6123 55.0305 57.5919V58.0409H56.3136V56.2245H55.0305V57.1021C54.8235 57.1021 54.5545 57.1021 54.2647 57.1021V56.2449H52.9816V56.8572C52.6711 56.7347 52.4228 56.5715 52.2365 56.347L51.2431 56.1837Z" fill="#7C656B"/>
<path id="Vector_173" d="M59.2936 56.6531C59.2936 58.1633 56.0444 59.4082 52.0501 59.4082C48.0558 59.4082 44.8065 58.1837 44.8065 56.6531C44.8065 55.1429 48.0558 53.898 52.0501 53.898C56.0444 53.898 59.2936 55.1429 59.2936 56.6531ZM60.9493 56.6531C60.9493 54.796 56.955 53.2858 52.0501 53.2858C47.1245 53.2858 43.1509 54.796 43.1509 56.6531C43.1509 58.5103 47.1452 60.0205 52.0501 60.0205C56.955 60.0409 60.9493 58.5103 60.9493 56.6531Z" fill="#624A50"/>
<g id="Group_88">
<path id="Vector_174" d="M45.7588 56.6531C45.7588 55.347 48.5734 54.2654 52.0503 54.2654C55.5272 54.2654 58.3419 55.3266 58.3419 56.6531C58.3419 57.9592 55.5272 59.0409 52.0503 59.0409C48.5734 59.0409 45.7588 57.9796 45.7588 56.6531ZM58.0521 56.6531C58.0521 55.3878 55.3617 54.3674 52.0296 54.3674C48.7183 54.3674 46.0071 55.3878 46.0071 56.6531C46.0071 57.9184 48.6976 58.9388 52.0296 58.9388C55.3617 58.9388 58.0521 57.9184 58.0521 56.6531Z" fill="#624A50"/>
</g>
<path id="Vector_175" d="M51.2431 55.7347L47.8076 56.7143V57.3878L51.3259 56.3062C51.6777 56.5919 52.1744 56.796 52.816 56.9388C52.8781 56.9592 52.9195 56.9592 52.9816 56.9796V57.5919H54.2647V57.1225C54.5338 57.1429 54.8028 57.1429 55.0305 57.1225V57.5715H56.3136V55.7552H55.0305V56.6327C54.8235 56.6327 54.5545 56.6327 54.2647 56.6327V55.7756H52.9816V56.3878C52.6711 56.2653 52.4228 56.1021 52.2365 55.8776L51.2431 55.7347Z" fill="#624A50"/>
</g>
</g>
</g>
</g>
</g>
<g id="Group_89">
<g id="Group_90">
<g id="Group_91">
<g id="Group_92">
<path id="Vector_176" d="M43.1509 54.8776C43.1509 56.7347 47.1452 58.2449 52.0501 58.2449C56.9757 58.2449 60.9493 56.7347 60.9493 54.8776V53.2857H43.1509V54.8776Z" fill="#C09CA5"/>
<g id="Group_93">
<path id="Vector_177" d="M51.2017 54.1021V58.2449C51.4707 58.2449 51.7604 58.2653 52.0502 58.2653V54.1225H51.2017V54.1021Z" fill="#7C656B"/>
<path id="Vector_178" d="M49.4839 54.1021V58.1021C49.9392 58.1633 50.4152 58.1837 50.9119 58.2245V54.1021H49.4839Z" fill="#7C656B"/>
<path id="Vector_179" d="M49.132 58.0612V53.2857H43.1509V54.8776C43.1509 56.347 45.6551 57.6123 49.132 58.0612Z" fill="#7C656B"/>
<path id="Vector_180" d="M55.2168 54.1021V58.0408C55.3203 58.0204 55.4031 58.0204 55.5065 58V54.1225H55.2168V54.1021Z" fill="#7C656B"/>
<path id="Vector_181" d="M54.1196 58.1633C54.2231 58.1633 54.3059 58.1429 54.4094 58.1429V54.1021H54.1196V58.1633Z" fill="#7C656B"/>
<path id="Vector_182" d="M52.7124 54.1021V58.2449C52.8573 58.2449 53.0021 58.2449 53.1263 58.2245V54.1021H52.7124Z" fill="#7C656B"/>
</g>
<g id="Group_94">
<path id="Vector_183" d="M52.0501 56.6531C47.1245 56.6531 43.1509 55.1429 43.1509 53.2857C43.1509 51.4286 47.1452 49.9184 52.0501 49.9184C56.9757 49.9184 60.9493 51.4286 60.9493 53.2857C60.9493 55.1429 56.955 56.6531 52.0501 56.6531Z" fill="#C09CA5"/>
<path id="Vector_184" opacity="0.4" d="M57.0585 56.0613C56.8101 56.0613 56.5411 56.0817 56.2928 56.0817C51.3671 56.0817 47.3935 54.5715 47.3935 52.7143C47.3935 51.551 48.925 50.5306 51.2844 49.9184C46.7313 50.0613 43.1509 51.5102 43.1509 53.2857C43.1509 55.1429 47.1452 56.6531 52.0501 56.6531C53.9127 56.6531 55.6305 56.4286 57.0585 56.0613Z" fill="url(#paint12_linear_58_145)"/>
<path id="Vector_185" d="M60.9493 53.3878C60.8044 51.5714 56.8722 50.1225 52.0501 50.1225C47.228 50.1225 43.2957 51.5714 43.1509 53.3878C43.2957 55.2041 47.228 56.6531 52.0501 56.6531C56.8722 56.6531 60.8044 55.2041 60.9493 53.3878ZM52.0501 56.2449C48.0558 56.2449 44.8065 55.0204 44.8065 53.4898C44.8065 51.9796 48.0558 50.7347 52.0501 50.7347C56.0444 50.7347 59.2936 51.9592 59.2936 53.4898C59.2936 55 56.0444 56.2449 52.0501 56.2449Z" fill="#7C656B"/>
<path id="Vector_186" d="M51.2431 52.8163L47.8076 53.7959V54.4694L51.3259 53.4082C51.6777 53.6939 52.1744 53.898 52.816 54.0408C52.8781 54.0612 52.9195 54.0612 52.9816 54.0612V54.6735H54.2647V54.2041C54.5338 54.2245 54.8028 54.2245 55.0305 54.2041V54.6531H56.3136V52.8368H55.0305V53.7143C54.8235 53.7143 54.5545 53.7143 54.2647 53.6939V52.8368H52.9816V53.449C52.6711 53.3266 52.4228 53.1633 52.2365 52.9388L51.2431 52.8163Z" fill="#7C656B"/>
<path id="Vector_187" d="M59.2936 53.2857C59.2936 54.7959 56.0444 56.0408 52.0501 56.0408C48.0558 56.0408 44.8065 54.8164 44.8065 53.2857C44.8065 51.7755 48.0558 50.5306 52.0501 50.5306C56.0444 50.5306 59.2936 51.7551 59.2936 53.2857ZM60.9493 53.2857C60.9493 51.4286 56.955 49.9184 52.0501 49.9184C47.1245 49.9184 43.1509 51.4286 43.1509 53.2857C43.1509 55.1429 47.1452 56.6531 52.0501 56.6531C56.955 56.6531 60.9493 55.1429 60.9493 53.2857Z" fill="#624A50"/>
<g id="Group_95">
<path id="Vector_188" d="M45.7588 53.2857C45.7588 51.9796 48.5734 50.898 52.0503 50.898C55.5272 50.898 58.3419 51.9592 58.3419 53.2857C58.3419 54.5919 55.5272 55.6735 52.0503 55.6735C48.5734 55.6735 45.7588 54.5919 45.7588 53.2857ZM58.0521 53.2857C58.0521 52.0204 55.3617 51 52.0296 51C48.7183 51 46.0071 52.0204 46.0071 53.2857C46.0071 54.551 48.6976 55.5714 52.0296 55.5714C55.3617 55.551 58.0521 54.5306 58.0521 53.2857Z" fill="#624A50"/>
</g>
<path id="Vector_189" d="M51.2431 52.347L47.8076 53.3265V54L51.3259 52.9184C51.6777 53.2041 52.1744 53.4082 52.816 53.551C52.8781 53.5714 52.9195 53.5714 52.9816 53.5919V54.2041H54.2647V53.7347C54.5338 53.7551 54.8028 53.7551 55.0305 53.7347V54.1837H56.3136V52.3674H55.0305V53.2449C54.8235 53.2449 54.5545 53.2449 54.2647 53.2449V52.3878H52.9816V53C52.6711 52.8776 52.4228 52.7143 52.2365 52.4898L51.2431 52.347Z" fill="#624A50"/>
</g>
</g>
</g>
</g>
</g>
<g id="Group_96">
<g id="Group_97">
<g id="Group_98">
<g id="Group_99">
<path id="Vector_190" d="M26.4288 69.4082C28.1879 70.1021 31.0853 67 32.8859 62.4898C34.7071 57.9796 34.7485 53.7756 32.9894 53.0817L31.4786 52.4898L24.918 68.8164L26.4288 69.4082Z" fill="#C09CA5"/>
<g id="Group_100">
<path id="Vector_191" d="M28.6641 61.7347L32.5549 63.2653C32.6584 63.0205 32.7825 62.7551 32.886 62.4898L28.9745 60.9592L28.6641 61.7347Z" fill="#7C656B"/>
<path id="Vector_192" d="M28.043 63.3062L31.8303 64.7755C32.058 64.3674 32.2649 63.9592 32.4719 63.5102L28.5811 62L28.043 63.3062Z" fill="#7C656B"/>
<path id="Vector_193" d="M31.6441 65.1021L27.1324 63.347L24.918 68.8368L26.4081 69.4286C27.8361 69.9592 29.9264 68.1225 31.6441 65.1021Z" fill="#7C656B"/>
<path id="Vector_194" d="M30.1538 58.0613L33.8584 59.5102C33.8791 59.4082 33.8998 59.3266 33.9205 59.2245L30.2573 57.796L30.1538 58.0613Z" fill="#7C656B"/>
<path id="Vector_195" d="M33.569 60.5715C33.5897 60.4694 33.6311 60.3878 33.6518 60.2858L29.8437 58.796L29.7402 59.0613L33.569 60.5715Z" fill="#7C656B"/>
<path id="Vector_196" d="M29.2227 60.3674L33.1342 61.898C33.1756 61.7755 33.2377 61.6327 33.279 61.5102L29.3882 60L29.2227 60.3674Z" fill="#7C656B"/>
</g>
<g id="Group_101">
<path id="Vector_197" d="M31.3955 61.898C29.5743 66.4082 26.6976 69.5102 24.9384 68.8164C23.1793 68.1225 23.2207 63.9184 25.0419 59.4082C26.8631 54.898 29.7399 51.7959 31.499 52.4898C33.2582 53.1837 33.1961 57.3878 31.3955 61.898Z" fill="#C09CA5"/>
<path id="Vector_198" opacity="0.4" d="M32.6788 57.0817C32.5961 57.3062 32.5133 57.5511 32.4098 57.796C30.5886 62.3062 27.7118 65.4082 25.9527 64.7143C24.8558 64.2857 24.4626 62.4898 24.7523 60.1225C23.2208 64.347 23.2622 68.1633 24.9179 68.8164C26.677 69.5102 29.5745 66.4082 31.375 61.898C32.0787 60.2041 32.5133 58.5306 32.6788 57.0817Z" fill="url(#paint13_linear_58_145)"/>
<path id="Vector_199" d="M31.582 52.5511C29.8228 52.0204 26.9875 55.0817 25.2283 59.5102C23.4485 63.9388 23.3864 68.0613 25.0421 68.8776C26.8012 69.4082 29.6159 66.347 31.3957 61.9184C33.1756 57.4898 33.2376 53.347 31.582 52.5511ZM31.0025 61.7551C29.5331 65.4082 27.1738 67.9388 25.7457 67.3878C24.3177 66.8368 24.3591 63.3878 25.8285 59.7347C27.2979 56.0817 29.6573 53.5511 31.0853 54.1021C32.5133 54.6531 32.4719 58.0817 31.0025 61.7551Z" fill="#7C656B"/>
<path id="Vector_200" d="M27.4636 61.2245L27.1118 64.7347L27.7534 64.9796L28.0431 61.347C28.4364 61.1225 28.8089 60.7551 29.1814 60.2041C29.2021 60.1633 29.2435 60.1225 29.2642 60.0612L29.8437 60.2857L30.3197 59.1225L29.8851 58.9592C30.0092 58.7143 30.092 58.4694 30.1748 58.2653L30.6094 58.4286L31.0854 57.2653L29.3677 56.5919L28.8917 57.7551L29.7195 58.0817C29.6574 58.2857 29.5539 58.5306 29.4298 58.7755L28.6226 58.449L28.1466 59.6123L28.7261 59.8368C28.4984 60.0817 28.2501 60.2449 27.9603 60.3266L27.4636 61.2245Z" fill="#7C656B"/>
<path id="Vector_201" d="M30.8781 54.0204C32.3062 54.5715 32.2648 58.0204 30.7954 61.6735C29.3259 65.347 26.9666 67.8572 25.5386 67.3061C24.1106 66.7551 24.152 63.3061 25.6214 59.6531C27.0908 55.9796 29.4501 53.449 30.8781 54.0204ZM31.499 52.4898C29.7399 51.7959 26.8424 54.898 25.0419 59.4082C23.2207 63.9184 23.1793 68.1225 24.9384 68.8164C26.6976 69.5102 29.595 66.4082 31.3955 61.898C33.1961 57.3878 33.2582 53.1837 31.499 52.4898Z" fill="#624A50"/>
<g id="Group_102">
<path id="Vector_202" d="M25.8904 66.4286C24.6486 65.9388 24.69 62.9592 25.9525 59.7755C27.2356 56.5919 29.2845 54.4082 30.5262 54.898C31.768 55.3878 31.7266 58.3674 30.4641 61.5511C29.181 64.7143 27.1321 66.9184 25.8904 66.4286ZM30.4228 55.1429C29.2431 54.6735 27.277 56.7755 26.0559 59.8164C24.8349 62.8572 24.8142 65.7143 25.9938 66.1633C27.1735 66.6327 29.1396 64.5306 30.3607 61.4898C31.5817 58.4694 31.6024 55.6123 30.4228 55.1429Z" fill="#624A50"/>
</g>
<path id="Vector_203" d="M27.0496 61.0612L26.6978 64.5714L27.3393 64.8163L27.6291 61.1837C28.0223 60.9592 28.3948 60.5919 28.7673 60.0408C28.788 60 28.8294 59.9592 28.8501 59.898L29.4296 60.1225L29.9056 58.9592L29.471 58.7959C29.5745 58.551 29.678 58.3061 29.7607 58.1021L30.1954 58.2653L30.6714 57.1021L28.9536 56.4286L28.4776 57.5919L29.3054 57.9184C29.2433 58.1225 29.1399 58.3674 29.0157 58.6123L28.2086 58.2857L27.7325 59.449L28.312 59.6735C28.0844 59.9184 27.836 60.0816 27.5463 60.1633L27.0496 61.0612Z" fill="#624A50"/>
</g>
</g>
</g>
</g>
</g>
<g id="Group_103">
<g id="Group_104">
<g id="Group_105">
<g id="Group_106">
<path id="Vector_204" d="M65.7925 74.6531C64.0333 75.347 61.1359 72.2449 59.3354 67.7347C57.5141 63.2245 57.4727 59.0205 59.2319 58.3266L60.7427 57.7347L67.3033 74.0613L65.7925 74.6531Z" fill="#C09CA5"/>
<g id="Group_107">
<path id="Vector_205" d="M63.5574 66.9796L59.6666 68.5103C59.5631 68.2654 59.4389 68.0001 59.3354 67.7347L63.247 66.2041L63.5574 66.9796Z" fill="#7C656B"/>
<path id="Vector_206" d="M64.1784 68.5511L60.3911 70.0204C60.1634 69.6123 59.9565 69.2041 59.7495 68.7551L63.6403 67.2449L64.1784 68.5511Z" fill="#7C656B"/>
<path id="Vector_207" d="M60.5771 70.347L65.0888 68.5919L67.3033 74.0817L65.8132 74.6735C64.4059 75.2041 62.2949 73.3674 60.5771 70.347Z" fill="#7C656B"/>
<path id="Vector_208" d="M62.0674 63.3062L58.3629 64.7551C58.3422 64.6531 58.3215 64.5715 58.3008 64.4694L61.9639 63.0409L62.0674 63.3062Z" fill="#7C656B"/>
<path id="Vector_209" d="M58.6526 65.8164C58.6319 65.7143 58.5905 65.6327 58.5698 65.5307L62.3779 64.0409L62.4813 64.3062L58.6526 65.8164Z" fill="#7C656B"/>
<path id="Vector_210" d="M62.9988 65.5919L59.0873 67.1225C59.0459 67.0001 58.9838 66.8572 58.9424 66.7348L62.8332 65.2245L62.9988 65.5919Z" fill="#7C656B"/>
</g>
<g id="Group_108">
<path id="Vector_211" d="M60.8257 67.1429C62.6469 71.6531 65.5237 74.7551 67.2828 74.0613C69.042 73.3674 69.0006 69.1633 67.1793 64.6531C65.3581 60.1429 62.4814 57.0409 60.7222 57.7347C58.9838 58.4286 59.0252 62.6327 60.8257 67.1429Z" fill="#C09CA5"/>
<path id="Vector_212" opacity="0.4" d="M59.5425 62.3266C59.6253 62.5511 59.708 62.796 59.8115 63.0409C61.6328 67.5511 64.5095 70.6531 66.2686 69.9592C67.3655 69.5306 67.7587 67.7347 67.469 65.3674C69.0005 69.5919 68.9591 73.4082 67.3034 74.0613C65.5443 74.7551 62.6469 71.6531 60.8463 67.1429C60.1427 65.449 59.708 63.7755 59.5425 62.3266Z" fill="url(#paint14_linear_58_145)"/>
<path id="Vector_213" d="M60.8255 67.1429C62.6054 71.5715 65.42 74.6327 67.1791 74.1021C68.8348 73.3062 68.7727 69.1633 66.9929 64.7347C65.213 60.3062 62.3984 57.2449 60.6393 57.7755C58.9836 58.5919 59.0457 62.7143 60.8255 67.1429ZM61.1566 59.3266C62.5847 58.7755 64.944 61.2857 66.4134 64.9592C67.8828 68.6123 67.9242 72.0612 66.4962 72.6123C65.0682 73.1633 62.7088 70.6531 61.2394 66.9796C59.7493 63.3266 59.7286 59.898 61.1566 59.3266Z" fill="#7C656B"/>
<path id="Vector_214" d="M64.7575 66.4694L65.1093 69.9796L64.4678 70.2245L64.178 66.5919C63.7848 66.3674 63.4123 66 63.0398 65.449C63.0191 65.4082 62.9777 65.3674 62.957 65.3061L62.3775 65.5306L61.9015 64.3674L62.3361 64.2041C62.2119 63.9592 62.1291 63.7143 62.0464 63.5102L61.6118 63.6735L61.1357 62.5102L62.8535 61.8368L63.3295 63L62.5017 63.3266C62.5638 63.5306 62.6672 63.7755 62.7914 64.0204L63.5985 63.6939L64.0746 64.8572L63.4951 65.0817C63.7227 65.3266 63.9711 65.4898 64.2608 65.5715L64.7575 66.4694Z" fill="#7C656B"/>
<path id="Vector_215" d="M61.3428 59.2653C62.7708 58.7143 65.1301 61.2245 66.5996 64.898C68.069 68.5511 68.1104 72 66.6823 72.5511C65.2543 73.1021 62.895 70.5919 61.4256 66.9184C59.9562 63.2449 59.9148 59.8164 61.3428 59.2653ZM60.7426 57.7347C58.9835 58.4286 59.0249 62.6327 60.8461 67.1429C62.6673 71.6531 65.5441 74.7551 67.3032 74.0613C69.0624 73.3674 69.021 69.1633 67.1997 64.6531C65.3785 60.1429 62.5018 57.0613 60.7426 57.7347Z" fill="#624A50"/>
<g id="Group_109">
<path id="Vector_216" d="M61.7774 66.7755C60.4943 63.5919 60.4736 60.6123 61.7154 60.1225C62.9571 59.6327 65.006 61.8368 66.2891 65C67.5723 68.1837 67.593 71.1633 66.3512 71.6531C65.0888 72.1429 63.0399 69.9592 61.7774 66.7755ZM61.8602 66.7347C63.0813 69.7755 65.0474 71.8776 66.2271 71.4082C67.4067 70.9388 67.386 68.1021 66.165 65.0612C64.9439 62.0204 62.9778 59.9184 61.7981 60.3878C60.6185 60.8572 60.6392 63.6939 61.8602 66.7347Z" fill="#624A50"/>
</g>
<path id="Vector_217" d="M65.1926 66.3062L65.5444 69.8164L64.9028 70.0613L64.6131 66.4286C64.2199 66.2041 63.8473 65.8368 63.4748 65.2858C63.4541 65.2449 63.4127 65.2041 63.392 65.1429L62.8126 65.3674L62.3366 64.2041L62.7712 64.0409C62.6677 63.796 62.5642 63.5511 62.4814 63.347L62.0468 63.5103L61.5708 62.347L63.2886 61.6735L63.7646 62.8368L62.9367 63.1633C62.9988 63.3674 63.1023 63.6123 63.2265 63.8572L64.0336 63.5307L64.5096 64.6939L63.9301 64.9184C64.1578 65.1633 64.4061 65.3266 64.6959 65.4082L65.1926 66.3062Z" fill="#624A50"/>
</g>
</g>
</g>
</g>
</g>
</g>
<path id="Vector_218" d="M32.8236 56.1837L32.4511 55.2858L32.0786 56.1837L31.168 56.5511L32.0786 56.9184L32.4511 57.8164L32.8236 56.9184L33.7343 56.5511L32.8236 56.1837Z" fill="white"/>
<path id="Vector_219" d="M58.9418 55.2245L58.5693 54.3266L58.2174 55.2245L57.2861 55.5919L58.2174 55.9388L58.5693 56.8572L58.9418 55.9388L59.8524 55.5919L58.9418 55.2245Z" fill="white"/>
<path id="Vector_220" d="M67.5102 45.1225L67.1376 44.2041L66.7858 45.1225L65.8545 45.4694L66.7858 45.8368L67.1376 46.7347L67.5102 45.8368L68.4208 45.4694L67.5102 45.1225Z" fill="white"/>
<path id="Vector_221" d="M45.5722 61.8164L45.1996 60.898L44.8478 61.8164L43.9165 62.1633L44.8478 62.5307L45.1996 63.449L45.5722 62.5307L46.4828 62.1633L45.5722 61.8164Z" fill="white"/>
</g>
<path id="Vector_222" d="M32.3269 18.1021C32.3269 18.1021 27.4013 21.6531 25.8491 24.347C25.8491 24.347 32.4304 19.5306 35.9487 18.1021H32.3269Z" fill="#816B70"/>
<path id="Vector_223" d="M33.7964 18.1021C33.7964 18.1021 37.5837 20.0816 39.4464 24.347C39.4464 24.347 39.198 20.7347 37.2319 18.1021H33.7964Z" fill="#816B70"/>
<path id="Vector_224" d="M41.3501 27.0204C41.3501 27.0204 44.6821 33.1837 46.4827 39.9184C46.4827 39.9184 46.8759 32.2653 41.3501 27.0204Z" fill="#816B70"/>
<path id="Vector_225" d="M45.7588 27.796C45.7588 27.796 49.0908 33.9592 50.8914 40.6939C50.8914 40.6939 51.2846 33.0613 45.7588 27.796Z" fill="#A2858C"/>
<path id="Vector_226" d="M40.5225 30.1021C40.5225 30.1021 46.1103 29.2041 51.2015 30.4898C51.2015 30.4898 46.1103 27.898 40.5225 30.1021Z" fill="#A2858C"/>
<path id="Vector_227" d="M41.7437 33.0612C41.7437 33.0612 47.3315 32.1633 52.4227 33.449C52.4227 33.4694 47.3315 30.8572 41.7437 33.0612Z" fill="#A2858C"/>
<g id="Group_110">
<path id="Vector_228" d="M41.7437 33.0613C41.7437 33.0613 43.627 32.7551 46.1933 32.7551C46.1105 32.5715 46.0277 32.3674 45.9449 32.1837C44.6411 32.2449 43.2131 32.4898 41.7437 33.0613Z" fill="#816B70"/>
<path id="Vector_229" d="M44.8065 29.7959C44.703 29.6123 44.6202 29.4286 44.5168 29.2245C43.275 29.2857 41.9091 29.551 40.5225 30.1021C40.5225 30.1021 42.323 29.8164 44.8065 29.7959Z" fill="#816B70"/>
</g>
<path id="Vector_230" d="M26.6768 3.06127L33.8168 16.2245V2.18372C33.672 2.24494 33.5478 2.28576 33.4029 2.34698C33.3822 2.34698 33.3615 2.36739 33.3201 2.36739C33.1753 2.42861 33.0511 2.46943 32.9062 2.53065H32.8855C32.7406 2.59188 32.5958 2.6327 32.4509 2.69392C32.4302 2.71433 32.3888 2.71433 32.3681 2.71433C32.2646 2.75514 32.1405 2.79596 32.037 2.83678C31.9956 2.85719 31.9542 2.85719 31.9128 2.87759C31.7886 2.91841 31.6438 2.95923 31.5196 3.00004C31.4989 3.00004 31.4989 3.00004 31.4782 3.00004C31.3333 3.04086 31.2092 3.08168 31.0643 3.10208C31.0229 3.10208 30.9815 3.12249 30.9608 3.12249C30.8573 3.1429 30.7538 3.16331 30.6504 3.18372C30.609 3.18372 30.5676 3.20412 30.5262 3.20412C30.3813 3.22453 30.2571 3.24494 30.1123 3.26535C28.9533 3.40821 27.7943 3.28576 26.6768 3.06127Z" fill="#816B70"/>
<path id="Vector_231" d="M24.8146 2.61228C24.6697 2.57146 24.5041 2.53065 24.3179 2.46942L30.2369 11.4082L25.9115 2.89799C25.5389 2.81636 25.1664 2.71432 24.8146 2.61228Z" fill="#816B70"/>
<path id="Vector_232" d="M56.5202 2.26533C57.617 1.4286 57.8447 0.224515 55.8786 0.0204331C52.4224 -0.326506 50.1458 2.61227 46.7103 2.83676L38.8252 18.0817H41.8882L56.5202 2.26533Z" fill="#816B70"/>
<path id="Vector_233" d="M39.7773 14.3469L45.6136 2.83673C44.4132 2.71428 43.6268 2.16326 42.861 1.61224L39.7773 14.3469Z" fill="#816B70"/>
<g id="Group_111">
<path id="Vector_234" d="M30.485 50.7959C24.1107 50.7959 18.916 45.7959 18.916 39.6531C18.916 33.5102 24.1107 28.5102 30.485 28.5102C36.8593 28.5102 42.054 33.5102 42.054 39.6531C42.054 45.7959 36.88 50.7959 30.485 50.7959ZM30.485 29.9388C24.8971 29.9388 20.3647 34.2857 20.3647 39.6531C20.3647 45 24.8971 49.3674 30.485 49.3674C36.0729 49.3674 40.6053 45.0204 40.6053 39.6531C40.6053 34.3061 36.0729 29.9388 30.485 29.9388Z" fill="#534741"/>
</g>
<path id="Vector_235" d="M26.3872 41L30.7333 46.7347H33.7549L28.9742 40.8572C30.2159 40.2857 31.1473 39.449 31.7681 38.3674C31.8095 38.2857 31.8509 38.1837 31.913 38.1021H34.6035V35.9796H32.5339C32.596 35.5102 32.596 35.0817 32.5753 34.7143H34.6035V32.5919H26.5114V34.7143H30.4229C30.4643 35.0612 30.4643 35.5102 30.3815 35.9796H26.5321V38.1021H29.2846C28.7672 38.6123 28.0222 39.0408 26.9874 39.3266L26.3872 41Z" fill="#534741"/>
</g>
<g id="Group_112">
<g id="Group_113">
<path id="Vector_236" d="M44.807 17.551C44.7449 17.551 44.6828 17.551 44.6 17.5306C39.1984 16.347 29.223 17.5306 29.1195 17.551C28.5608 17.6123 28.0434 17.1633 27.9813 16.5306C27.9192 15.898 28.3331 15.3266 28.8919 15.2653C29.3058 15.2245 39.2812 14.0408 44.9933 15.2857C45.5521 15.4082 45.9246 16.0204 45.8004 16.6327C45.7176 17.1633 45.283 17.551 44.807 17.551Z" fill="#C09CA5"/>
</g>
<g id="Group_114">
<path id="Vector_237" d="M35.8664 14.7551C35.7008 14.7551 35.5146 14.7755 35.349 14.7755C35.0385 15.2653 34.6246 16.0612 34.397 17.1225C34.5418 17.1225 34.6867 17.1021 34.8316 17.1021C35.1006 15.9388 35.5766 15.1429 35.8664 14.7551Z" fill="#796D70"/>
<path id="Vector_238" d="M32.9278 14.8979C32.7623 14.9184 32.576 14.9184 32.4104 14.9388C32.1 15.4694 31.7275 16.2653 31.5205 17.3061C31.6654 17.2857 31.8102 17.2857 31.9551 17.2653C32.1828 16.1633 32.6174 15.3469 32.9278 14.8979Z" fill="#796D70"/>
<path id="Vector_239" d="M34.397 14.8163C34.2314 14.8163 34.0451 14.8368 33.8796 14.8368C33.5691 15.347 33.1759 16.1429 32.9482 17.2041C33.0931 17.2041 33.238 17.1837 33.3829 17.1837C33.6519 16.0408 34.1072 15.2449 34.397 14.8163Z" fill="#796D70"/>
<path id="Vector_240" d="M31.4377 15.0204C31.2514 15.0409 31.0859 15.0409 30.9203 15.0613C30.6099 15.6123 30.258 16.4082 30.0718 17.449C30.196 17.4286 30.3408 17.4286 30.5064 17.4082C30.7133 16.3266 31.1273 15.5102 31.4377 15.0204Z" fill="#796D70"/>
<path id="Vector_241" d="M29.4093 15.2041C29.1196 15.7551 28.8091 16.5102 28.6436 17.4694C28.7677 17.5306 28.9126 17.551 29.0575 17.551C29.2437 16.4898 29.6163 15.6735 29.9267 15.1429C29.7404 15.1633 29.5542 15.1837 29.4093 15.2041Z" fill="#796D70"/>
<path id="Vector_242" d="M44.1243 15.1021C43.9794 15.0816 43.8345 15.0612 43.6897 15.0408C43.3999 15.551 43.0688 16.3061 42.8618 17.2449C43.0067 17.2653 43.1309 17.2857 43.2757 17.3061C43.4827 16.3265 43.8345 15.5919 44.1243 15.1021Z" fill="#796D70"/>
<path id="Vector_243" d="M45.0141 15.2857H44.9934C44.7037 15.8163 44.4139 16.551 44.269 17.4694C44.3932 17.4898 44.5174 17.5102 44.6209 17.551C44.6416 17.551 44.6623 17.551 44.6623 17.551C44.8278 16.6735 45.0969 15.9592 45.3659 15.449C45.2624 15.3673 45.1383 15.3061 45.0141 15.2857Z" fill="#796D70"/>
<path id="Vector_244" d="M41.4752 14.8163C41.3096 14.7959 41.1648 14.7959 40.9992 14.7959C40.6887 15.2653 40.3162 16.0408 40.0679 17.0612C40.2127 17.0612 40.3576 17.0816 40.4818 17.0816C40.7715 15.9796 41.2061 15.2245 41.4752 14.8163Z" fill="#796D70"/>
<path id="Vector_245" d="M42.8203 14.9388C42.6755 14.9184 42.5099 14.8979 42.365 14.8979C42.0753 15.3877 41.7028 16.1428 41.4751 17.1224C41.62 17.1224 41.7648 17.1428 41.889 17.1633C42.1374 16.1224 42.5306 15.3673 42.8203 14.9388Z" fill="#796D70"/>
<path id="Vector_246" d="M40.1089 14.7347C39.9433 14.7347 39.7777 14.7143 39.6122 14.7143C39.3017 15.1837 38.9085 15.9592 38.6602 17C38.805 17 38.9499 17 39.0948 17C39.3845 15.898 39.8398 15.1225 40.1089 14.7347Z" fill="#796D70"/>
<path id="Vector_247" d="M38.2256 14.7143C37.9152 15.1837 37.5013 15.9592 37.2529 17.0204C37.3978 17.0204 37.5427 17.0204 37.6875 17.0204C37.9773 15.8776 38.474 15.0816 38.7223 14.7143C38.5568 14.7143 38.3912 14.7143 38.2256 14.7143Z" fill="#796D70"/>
<path id="Vector_248" d="M37.2943 14.7143C37.1287 14.7143 36.9632 14.7143 36.7769 14.7143C36.4665 15.1837 36.0525 15.9796 35.8042 17.0408C35.9491 17.0408 36.0939 17.0408 36.2388 17.0204C36.5286 15.898 37.0253 15.0816 37.2943 14.7143Z" fill="#796D70"/>
</g>
<path id="Vector_249" opacity="0.8" d="M44.8068 16.5715C44.7447 16.5715 44.6826 16.5715 44.5998 16.551C39.1982 15.3674 29.2228 16.551 29.1193 16.5715C28.664 16.6327 28.2501 16.347 28.0638 15.9184C27.981 16.1021 27.9397 16.3062 27.9604 16.5306C28.0224 17.1633 28.5398 17.6123 29.0986 17.551C29.2021 17.5306 39.1775 16.3674 44.5791 17.5306C44.6412 17.551 44.7033 17.551 44.7861 17.551C45.2621 17.551 45.6967 17.1633 45.8002 16.6327C45.8416 16.3878 45.8002 16.1429 45.7174 15.9184C45.5725 16.3062 45.2 16.5715 44.8068 16.5715Z" fill="#B3B3B3"/>
</g>
<g id="Group_115">
<g id="Group_116">
<path id="Vector_250" d="M44.807 19.8572C44.7449 19.8572 44.6828 19.8572 44.6 19.8368C39.1984 18.6531 29.223 19.8368 29.1195 19.8572C28.5608 19.9184 28.0434 19.4694 27.9813 18.8368C27.9192 18.2041 28.3331 17.6327 28.8919 17.5715C29.3058 17.5307 39.2812 16.347 44.9933 17.5919C45.5521 17.7143 45.9246 18.3266 45.8004 18.9388C45.7176 19.4898 45.283 19.8572 44.807 19.8572Z" fill="#C09CA5"/>
</g>
<g id="Group_117">
<path id="Vector_251" d="M35.8664 17.0613C35.7008 17.0613 35.5146 17.0817 35.349 17.0817C35.0385 17.5715 34.6246 18.3674 34.397 19.4286C34.5418 19.4286 34.6867 19.4082 34.8316 19.4082C35.1006 18.245 35.5766 17.449 35.8664 17.0613Z" fill="#796D70"/>
<path id="Vector_252" d="M32.9278 17.2041C32.7623 17.2245 32.576 17.2245 32.4104 17.2449C32.1 17.7755 31.7275 18.5714 31.5205 19.6123C31.6654 19.5919 31.8102 19.5919 31.9551 19.5714C32.1828 18.4694 32.6174 17.6735 32.9278 17.2041Z" fill="#796D70"/>
<path id="Vector_253" d="M34.397 17.1225C34.2314 17.1225 34.0451 17.1429 33.8796 17.1429C33.5691 17.6531 33.1759 18.449 32.9482 19.5103C33.0931 19.5103 33.238 19.4898 33.3829 19.4898C33.6519 18.347 34.1072 17.5511 34.397 17.1225Z" fill="#796D70"/>
<path id="Vector_254" d="M31.4377 17.3266C31.2514 17.347 31.0859 17.347 30.9203 17.3674C30.6099 17.9184 30.258 18.7144 30.0718 19.7552C30.196 19.7348 30.3408 19.7348 30.5064 19.7144C30.7133 18.6327 31.1273 17.8164 31.4377 17.3266Z" fill="#796D70"/>
<path id="Vector_255" d="M29.4093 17.5103C29.1196 18.0613 28.8091 18.8164 28.6436 19.7756C28.7677 19.8368 28.9126 19.8572 29.0575 19.8572C29.2437 18.796 29.6163 17.9796 29.9267 17.449C29.7404 17.4694 29.5542 17.4899 29.4093 17.5103Z" fill="#796D70"/>
<path id="Vector_256" d="M44.1243 17.4082C43.9794 17.3878 43.8345 17.3674 43.6897 17.347C43.3999 17.8572 43.0688 18.6123 42.8618 19.5511C43.0067 19.5715 43.1309 19.5919 43.2757 19.6123C43.4827 18.6327 43.8345 17.898 44.1243 17.4082Z" fill="#796D70"/>
<path id="Vector_257" d="M45.0141 17.5919H44.9934C44.7037 18.1225 44.4139 18.8572 44.269 19.7755C44.3932 19.7959 44.5174 19.8163 44.6209 19.8572C44.6416 19.8572 44.6623 19.8572 44.6623 19.8572C44.8278 18.9796 45.0969 18.2653 45.3659 17.7551C45.2624 17.6735 45.1383 17.6123 45.0141 17.5919Z" fill="#796D70"/>
<path id="Vector_258" d="M41.4752 17.1225C41.3096 17.1021 41.1648 17.1021 40.9992 17.1021C40.6887 17.5714 40.3162 18.3469 40.0679 19.3674C40.2127 19.3674 40.3576 19.3878 40.4818 19.3878C40.7715 18.2857 41.2061 17.5306 41.4752 17.1225Z" fill="#796D70"/>
<path id="Vector_259" d="M42.8203 17.2449C42.6755 17.2245 42.5099 17.2041 42.365 17.2041C42.0753 17.6939 41.7028 18.449 41.4751 19.4286C41.62 19.4286 41.7648 19.449 41.889 19.4694C42.1374 18.4286 42.5306 17.6735 42.8203 17.2449Z" fill="#796D70"/>
<path id="Vector_260" d="M40.1089 17.0409C39.9433 17.0409 39.7777 17.0204 39.6122 17.0204C39.3017 17.4898 38.9085 18.2653 38.6602 19.3062C38.805 19.3062 38.9499 19.3062 39.0948 19.3062C39.3845 18.2041 39.8398 17.4286 40.1089 17.0409Z" fill="#796D70"/>
<path id="Vector_261" d="M38.2256 17.0204C37.9152 17.4898 37.5013 18.2653 37.2529 19.3266C37.3978 19.3266 37.5427 19.3266 37.6875 19.3266C37.9773 18.1837 38.474 17.3878 38.7223 17.0204C38.5568 17.0204 38.3912 17.0204 38.2256 17.0204Z" fill="#796D70"/>
<path id="Vector_262" d="M37.2943 17.0204C37.1287 17.0204 36.9632 17.0204 36.7769 17.0204C36.4665 17.4898 36.0525 18.2858 35.8042 19.347C35.9491 19.347 36.0939 19.347 36.2388 19.3266C36.5286 18.2041 37.0253 17.3878 37.2943 17.0204Z" fill="#796D70"/>
</g>
<path id="Vector_263" opacity="0.8" d="M44.8068 18.8776C44.7447 18.8776 44.6826 18.8776 44.5998 18.8572C39.1982 17.6735 29.2228 18.8572 29.1193 18.8776C28.664 18.9388 28.2501 18.6531 28.0638 18.2245C27.981 18.4082 27.9397 18.6123 27.9604 18.8368C28.0224 19.4694 28.5398 19.9184 29.0986 19.8572C29.2021 19.8368 39.1775 18.6735 44.5791 19.8368C44.6412 19.8572 44.7033 19.8572 44.7861 19.8572C45.2621 19.8572 45.6967 19.4694 45.8002 18.9388C45.8416 18.6939 45.8002 18.449 45.7174 18.2245C45.5725 18.6123 45.2 18.8776 44.8068 18.8776Z" fill="#B3B3B3"/>
</g>
</g>
</g>
<defs>
<linearGradient id="paint0_linear_58_145" x1="36.2294" y1="59.7014" x2="36.2294" y2="66.4405" gradientUnits="userSpaceOnUse">
<stop stop-color="white"/>
<stop offset="1" stop-color="#D17918"/>
</linearGradient>
<linearGradient id="paint1_linear_58_145" x1="36.2294" y1="56.3253" x2="36.2294" y2="63.0642" gradientUnits="userSpaceOnUse">
<stop stop-color="white"/>
<stop offset="1" stop-color="#D17918"/>
</linearGradient>
<linearGradient id="paint2_linear_58_145" x1="36.2294" y1="52.949" x2="36.2294" y2="59.688" gradientUnits="userSpaceOnUse">
<stop stop-color="white"/>
<stop offset="1" stop-color="#D17918"/>
</linearGradient>
<linearGradient id="paint3_linear_58_145" x1="58.1493" y1="53.2182" x2="58.1493" y2="59.9573" gradientUnits="userSpaceOnUse">
<stop stop-color="white"/>
<stop offset="1" stop-color="#D17918"/>
</linearGradient>
<linearGradient id="paint4_linear_58_145" x1="58.1493" y1="49.8421" x2="58.1493" y2="56.581" gradientUnits="userSpaceOnUse">
<stop stop-color="white"/>
<stop offset="1" stop-color="#D17918"/>
</linearGradient>
<linearGradient id="paint5_linear_58_145" x1="58.1493" y1="46.4658" x2="58.1493" y2="53.2049" gradientUnits="userSpaceOnUse">
<stop stop-color="white"/>
<stop offset="1" stop-color="#D17918"/>
</linearGradient>
<linearGradient id="paint6_linear_58_145" x1="58.1493" y1="43.0897" x2="58.1493" y2="49.8287" gradientUnits="userSpaceOnUse">
<stop stop-color="white"/>
<stop offset="1" stop-color="#D17918"/>
</linearGradient>
<linearGradient id="paint7_linear_58_145" x1="58.1493" y1="39.7135" x2="58.1493" y2="46.4526" gradientUnits="userSpaceOnUse">
<stop stop-color="white"/>
<stop offset="1" stop-color="#D17918"/>
</linearGradient>
<linearGradient id="paint8_linear_58_145" x1="50.1027" y1="63.4211" x2="50.1027" y2="70.1602" gradientUnits="userSpaceOnUse">
<stop stop-color="white"/>
<stop offset="1" stop-color="#D17918"/>
</linearGradient>
<linearGradient id="paint9_linear_58_145" x1="50.1027" y1="60.045" x2="50.1027" y2="66.7839" gradientUnits="userSpaceOnUse">
<stop stop-color="white"/>
<stop offset="1" stop-color="#D17918"/>
</linearGradient>
<linearGradient id="paint10_linear_58_145" x1="50.1027" y1="56.6687" x2="50.1027" y2="63.4078" gradientUnits="userSpaceOnUse">
<stop stop-color="white"/>
<stop offset="1" stop-color="#D17918"/>
</linearGradient>
<linearGradient id="paint11_linear_58_145" x1="50.1027" y1="53.2926" x2="50.1027" y2="60.0317" gradientUnits="userSpaceOnUse">
<stop stop-color="white"/>
<stop offset="1" stop-color="#D17918"/>
</linearGradient>
<linearGradient id="paint12_linear_58_145" x1="50.1027" y1="49.9164" x2="50.1027" y2="56.6555" gradientUnits="userSpaceOnUse">
<stop stop-color="#816B70"/>
<stop offset="1" stop-color="#D17918"/>
</linearGradient>
<linearGradient id="paint13_linear_58_145" x1="24.3252" y1="61.2031" x2="30.6542" y2="63.7464" gradientUnits="userSpaceOnUse">
<stop stop-color="white"/>
<stop offset="1" stop-color="#D17918"/>
</linearGradient>
<linearGradient id="paint14_linear_58_145" x1="67.9024" y1="66.4447" x2="61.5734" y2="68.9879" gradientUnits="userSpaceOnUse">
<stop stop-color="white"/>
<stop offset="1" stop-color="#D17918"/>
</linearGradient>
<clipPath id="clip0_58_145">
<rect width="69" height="76" fill="white"/>
</clipPath>
</defs>
</svg>
