<svg width="120" height="120" viewBox="0 0 120 120" fill="none" xmlns="http://www.w3.org/2000/svg">
<circle cx="60" cy="60" r="60" fill="#F9911F"/>
<path d="M41.0625 68H35.3906V52H41.1094C42.7188 52 44.1042 52.3203 45.2656 52.9609C46.4271 53.5964 47.3203 54.5104 47.9453 55.7031C48.5755 56.8958 48.8906 58.3229 48.8906 59.9844C48.8906 61.651 48.5755 63.0833 47.9453 64.2812C47.3203 65.4792 46.4219 66.3984 45.25 67.0391C44.0833 67.6797 42.6875 68 41.0625 68ZM38.7734 65.1016H40.9219C41.9219 65.1016 42.763 64.9245 43.4453 64.5703C44.1328 64.2109 44.6484 63.6562 44.9922 62.9062C45.3411 62.151 45.5156 61.1771 45.5156 59.9844C45.5156 58.8021 45.3411 57.8359 44.9922 57.0859C44.6484 56.3359 44.1354 55.7839 43.4531 55.4297C42.7708 55.0755 41.9297 54.8984 40.9297 54.8984H38.7734V65.1016ZM51.774 68V56H55.0005V58.0937H55.1255C55.3443 57.349 55.7115 56.7865 56.2271 56.4063C56.7427 56.0208 57.3365 55.8281 58.0084 55.8281C58.175 55.8281 58.3547 55.8385 58.5474 55.8594C58.7401 55.8802 58.9094 55.9089 59.0552 55.9453V58.8984C58.899 58.8516 58.6828 58.8099 58.4068 58.7734C58.1308 58.737 57.8782 58.7188 57.649 58.7188C57.1594 58.7188 56.7219 58.8255 56.3365 59.0391C55.9563 59.2474 55.6542 59.5391 55.4302 59.9141C55.2115 60.2891 55.1021 60.7214 55.1021 61.2109V68H51.774ZM64.2941 68.2266C63.5284 68.2266 62.8461 68.0938 62.2472 67.8281C61.6482 67.5573 61.1743 67.1589 60.8253 66.6328C60.4816 66.1016 60.3097 65.4401 60.3097 64.6484C60.3097 63.9818 60.4321 63.4219 60.6769 62.9687C60.9217 62.5156 61.255 62.151 61.6769 61.875C62.0987 61.599 62.5779 61.3906 63.1144 61.25C63.656 61.1094 64.2237 61.0104 64.8175 60.9531C65.5154 60.8802 66.0779 60.8125 66.505 60.75C66.9321 60.6823 67.242 60.5833 67.4347 60.4531C67.6274 60.3229 67.7237 60.1302 67.7237 59.875V59.8281C67.7237 59.3333 67.5675 58.9505 67.255 58.6797C66.9477 58.4089 66.5102 58.2734 65.9425 58.2734C65.3435 58.2734 64.867 58.4062 64.5128 58.6719C64.1586 58.9323 63.9243 59.2604 63.8097 59.6562L60.7316 59.4062C60.8878 58.6771 61.1951 58.0469 61.6534 57.5156C62.1118 56.9792 62.7029 56.5677 63.4269 56.2812C64.156 55.9896 64.9998 55.8438 65.9581 55.8438C66.6248 55.8438 67.2628 55.9219 67.8722 56.0781C68.4868 56.2344 69.031 56.4766 69.505 56.8047C69.9842 57.1328 70.3618 57.5547 70.6378 58.0703C70.9139 58.5807 71.0519 59.1927 71.0519 59.9062V68H67.8956V66.3359H67.8019C67.6092 66.7109 67.3514 67.0417 67.0284 67.3281C66.7055 67.6094 66.3175 67.8307 65.8644 67.9922C65.4112 68.1484 64.8878 68.2266 64.2941 68.2266ZM65.2472 65.9297C65.7368 65.9297 66.1691 65.8333 66.5441 65.6406C66.9191 65.4427 67.2133 65.1771 67.4269 64.8438C67.6404 64.5104 67.7472 64.1328 67.7472 63.7109V62.4375C67.643 62.5052 67.4998 62.5677 67.3175 62.625C67.1404 62.6771 66.9399 62.7266 66.7159 62.7734C66.492 62.8151 66.268 62.8542 66.0441 62.8906C65.8201 62.9219 65.617 62.9505 65.4347 62.9766C65.0441 63.0339 64.7029 63.125 64.4112 63.25C64.1196 63.375 63.893 63.5443 63.7316 63.7578C63.5701 63.9661 63.4894 64.2266 63.4894 64.5391C63.4894 64.9922 63.6534 65.3385 63.9816 65.5781C64.3149 65.8125 64.7368 65.9297 65.2472 65.9297ZM79.4802 72.75C78.402 72.75 77.4776 72.6016 76.7067 72.3047C75.9411 72.013 75.3317 71.6146 74.8786 71.1094C74.4255 70.6042 74.1312 70.0365 73.9958 69.4062L77.0739 68.9922C77.1677 69.2318 77.3161 69.4557 77.5192 69.6641C77.7223 69.8724 77.9906 70.0391 78.3239 70.1641C78.6624 70.2943 79.0739 70.3594 79.5583 70.3594C80.2822 70.3594 80.8786 70.1823 81.3473 69.8281C81.8213 69.4792 82.0583 68.8932 82.0583 68.0703V65.875H81.9177C81.7718 66.2083 81.5531 66.5234 81.2614 66.8203C80.9697 67.1172 80.5947 67.3594 80.1364 67.5469C79.6781 67.7344 79.1312 67.8281 78.4958 67.8281C77.5947 67.8281 76.7744 67.6198 76.0348 67.2031C75.3005 66.7812 74.7145 66.138 74.277 65.2734C73.8447 64.4036 73.6286 63.3047 73.6286 61.9766C73.6286 60.6172 73.8499 59.4818 74.2927 58.5703C74.7354 57.6589 75.3239 56.9766 76.0583 56.5234C76.7979 56.0703 77.6078 55.8438 78.488 55.8438C79.1598 55.8438 79.7223 55.9583 80.1755 56.1875C80.6286 56.4115 80.9932 56.6927 81.2692 57.0312C81.5505 57.3646 81.7666 57.6927 81.9177 58.0156H82.0427V56H85.3473V68.1172C85.3473 69.138 85.0973 69.9922 84.5973 70.6797C84.0973 71.3672 83.4046 71.8828 82.5192 72.2266C81.639 72.5755 80.626 72.75 79.4802 72.75ZM79.5505 65.3281C80.0869 65.3281 80.5401 65.1953 80.9098 64.9297C81.2848 64.6589 81.5713 64.2734 81.7692 63.7734C81.9723 63.2682 82.0739 62.6641 82.0739 61.9609C82.0739 61.2578 81.9749 60.6484 81.777 60.1328C81.5791 59.612 81.2927 59.2083 80.9177 58.9219C80.5427 58.6354 80.0869 58.4922 79.5505 58.4922C79.0036 58.4922 78.5427 58.6406 78.1677 58.9375C77.7927 59.2292 77.5088 59.6354 77.3161 60.1562C77.1234 60.6771 77.027 61.2786 77.027 61.9609C77.027 62.6536 77.1234 63.2526 77.3161 63.7578C77.514 64.2578 77.7979 64.6458 78.1677 64.9219C78.5427 65.1927 79.0036 65.3281 79.5505 65.3281Z" fill="#212529"/>
</svg>
