<svg width="113" height="113" viewBox="0 0 113 113" fill="none" xmlns="http://www.w3.org/2000/svg">
<g id="vuesax/bulk/edit">
<g id="edit">
<g id="Vector" filter="url(#filter0_bd_6103_2411)">
<path d="M63.1499 26.9531H47.2299C40.3299 26.9531 36.1899 31.0731 36.1899 37.9931V53.8931C36.1899 60.8331 40.3299 64.9531 47.2299 64.9531H63.1299C70.0499 64.9531 74.1699 60.8331 74.1699 53.9131V37.9931C74.1899 31.0731 70.0499 26.9531 63.1499 26.9531Z" fill="url(#paint0_linear_6103_2411)" shape-rendering="crispEdges"/>
<path d="M73.6699 37.9917V37.9931V53.9131C73.6699 57.2739 72.6714 59.8945 70.8914 61.6746C69.1114 63.4546 66.4907 64.4531 63.1299 64.4531H47.2299C43.8795 64.4531 41.2587 63.4548 39.476 61.6721C37.6933 59.8894 36.6899 57.2636 36.6899 53.8931V37.9931C36.6899 34.6331 37.6931 32.0122 39.4758 30.2319C41.2586 28.4515 43.8795 27.4531 47.2299 27.4531H63.1499C66.5004 27.4531 69.1212 28.4515 70.9014 30.2317C72.6813 32.0116 73.6797 34.6319 73.6699 37.9917Z" stroke="url(#paint1_linear_6103_2411)" shape-rendering="crispEdges"/>
</g>
<g id="Vector_2" filter="url(#filter1_bd_6103_2411)">
<path d="M74.2299 26.9131C70.6499 23.3131 67.1499 23.2331 63.4699 26.9131L61.2099 29.1531C61.0099 29.3531 60.9499 29.6331 61.0299 29.8931C62.4299 34.7931 66.3499 38.7131 71.2499 40.1131C71.3099 40.1331 71.4099 40.1331 71.4699 40.1331C71.6699 40.1331 71.8699 40.0531 72.0099 39.9131L74.2299 37.6731C76.0499 35.8531 76.9499 34.1131 76.9499 32.3331C76.9499 30.5331 76.0499 28.7531 74.2299 26.9131Z" fill="url(#paint2_linear_6103_2411)" shape-rendering="crispEdges"/>
<path d="M63.8219 27.2682L63.8219 27.2682L63.8234 27.2666C65.6115 25.4785 67.2857 24.6741 68.8846 24.6831C70.4844 24.692 72.1353 25.516 73.8749 27.2652C75.644 29.0538 76.4499 30.7145 76.4499 32.3331C76.4499 33.9284 75.6473 35.5486 73.8763 37.3195L73.8748 37.3211L71.6563 39.5595C71.6561 39.5597 71.656 39.5599 71.6558 39.5601C71.6133 39.6022 71.5424 39.6331 71.4699 39.6331C71.4383 39.6331 71.4133 39.6329 71.3911 39.6315L71.3821 39.6308C66.6506 38.277 62.8627 34.4879 61.5107 29.7557L61.5108 29.7557L61.5078 29.746C61.4795 29.654 61.501 29.5694 61.5629 29.5072C61.5631 29.507 61.5633 29.5068 61.5634 29.5066L63.8219 27.2682Z" stroke="url(#paint3_linear_6103_2411)" shape-rendering="crispEdges"/>
</g>
<g id="Vector_3" filter="url(#filter2_bd_6103_2411)">
<path d="M67.9101 41.7932C67.3701 41.5332 66.8501 41.2732 66.3701 40.9732C65.9701 40.7332 65.5701 40.4732 65.1901 40.1932C64.8701 39.9932 64.5101 39.6932 64.1501 39.3932C64.1101 39.3732 63.9901 39.2732 63.8301 39.1132C63.2101 38.6132 62.5501 37.9332 61.9301 37.1932C61.8901 37.1532 61.7701 37.0332 61.6701 36.8532C61.4701 36.6332 61.1701 36.2532 60.9101 35.8332C60.6901 35.5532 60.4301 35.1532 60.1901 34.7332C59.8901 34.2332 59.6301 33.7332 59.3901 33.2132C59.1301 32.6532 58.9301 32.1332 58.7501 31.6332L47.9901 42.3932C47.2901 43.0932 46.6101 44.4132 46.4701 45.3932L45.6101 51.3532C45.4301 52.6132 45.7701 53.7932 46.5501 54.5732C47.2101 55.2332 48.1101 55.5732 49.1101 55.5732C49.3301 55.5732 49.5501 55.5532 49.7701 55.5332L55.7101 54.6932C56.6901 54.5532 58.0101 53.8932 58.7101 53.1732L69.4701 42.4132C68.9701 42.2532 68.4701 42.0332 67.9101 41.7932Z" fill="url(#paint4_linear_6103_2411)" shape-rendering="crispEdges"/>
<path d="M67.6932 42.2437L67.7031 42.2484L67.7132 42.2528C67.763 42.2741 67.8126 42.2954 67.8621 42.3167C68.0994 42.4186 68.3326 42.5188 68.5638 42.6124L58.3566 52.8196L58.3566 52.8196L58.3516 52.8246C58.0514 53.1335 57.5968 53.4485 57.0899 53.7043C56.5832 53.96 56.061 54.138 55.6396 54.1982C55.6395 54.1982 55.6395 54.1982 55.6394 54.1982L49.7125 55.0364C49.4937 55.0562 49.3001 55.0732 49.1101 55.0732C48.2255 55.0732 47.4584 54.7743 46.9037 54.2196C46.2546 53.5705 45.9432 52.5578 46.1051 51.4241C46.1051 51.424 46.1051 51.424 46.1051 51.4239L46.965 45.4646L46.9651 45.4639C47.025 45.0449 47.2067 44.5236 47.4657 44.0151C47.7244 43.5072 48.0409 43.0495 48.3437 42.7467L58.5554 32.535C58.6686 32.8204 58.7936 33.1157 58.9364 33.4232C59.1822 33.9558 59.4496 34.4703 59.7587 34.9858C59.9992 35.4063 60.2644 35.8171 60.4996 36.1199C60.7578 36.5334 61.0499 36.9082 61.2634 37.1486C61.3785 37.3408 61.5043 37.4737 61.5608 37.5308C62.1831 38.272 62.8533 38.9645 63.4957 39.4857C63.575 39.5643 63.6472 39.6313 63.7083 39.6841C63.7431 39.7141 63.7974 39.7603 63.8568 39.7996C64.1956 40.082 64.567 40.3908 64.9086 40.6067C65.2983 40.893 65.7053 41.1573 66.109 41.3996C66.613 41.7142 67.153 41.9836 67.6932 42.2437Z" stroke="url(#paint5_linear_6103_2411)" shape-rendering="crispEdges"/>
</g>
</g>
</g>
<defs>
<filter id="filter0_bd_6103_2411" x="0.189941" y="2.95312" width="109.98" height="110" filterUnits="userSpaceOnUse" color-interpolation-filters="sRGB">
<feFlood flood-opacity="0" result="BackgroundImageFix"/>
<feGaussianBlur in="BackgroundImageFix" stdDeviation="7"/>
<feComposite in2="SourceAlpha" operator="in" result="effect1_backgroundBlur_6103_2411"/>
<feColorMatrix in="SourceAlpha" type="matrix" values="0 0 0 0 0 0 0 0 0 0 0 0 0 0 0 0 0 0 127 0" result="hardAlpha"/>
<feOffset dy="12"/>
<feGaussianBlur stdDeviation="18"/>
<feComposite in2="hardAlpha" operator="out"/>
<feColorMatrix type="matrix" values="0 0 0 0 0.525833 0 0 0 0 0.525833 0 0 0 0 0.525833 0 0 0 0.25 0"/>
<feBlend mode="normal" in2="effect1_backgroundBlur_6103_2411" result="effect2_dropShadow_6103_2411"/>
<feBlend mode="normal" in="SourceGraphic" in2="effect2_dropShadow_6103_2411" result="shape"/>
</filter>
<filter id="filter1_bd_6103_2411" x="24.9956" y="0.182983" width="87.9541" height="87.9501" filterUnits="userSpaceOnUse" color-interpolation-filters="sRGB">
<feFlood flood-opacity="0" result="BackgroundImageFix"/>
<feGaussianBlur in="BackgroundImageFix" stdDeviation="7"/>
<feComposite in2="SourceAlpha" operator="in" result="effect1_backgroundBlur_6103_2411"/>
<feColorMatrix in="SourceAlpha" type="matrix" values="0 0 0 0 0 0 0 0 0 0 0 0 0 0 0 0 0 0 127 0" result="hardAlpha"/>
<feOffset dy="12"/>
<feGaussianBlur stdDeviation="18"/>
<feComposite in2="hardAlpha" operator="out"/>
<feColorMatrix type="matrix" values="0 0 0 0 0.525833 0 0 0 0 0.525833 0 0 0 0 0.525833 0 0 0 0.25 0"/>
<feBlend mode="normal" in2="effect1_backgroundBlur_6103_2411" result="effect2_dropShadow_6103_2411"/>
<feBlend mode="normal" in="SourceGraphic" in2="effect2_dropShadow_6103_2411" result="shape"/>
</filter>
<filter id="filter2_bd_6103_2411" x="9.56299" y="7.63318" width="95.9072" height="95.9399" filterUnits="userSpaceOnUse" color-interpolation-filters="sRGB">
<feFlood flood-opacity="0" result="BackgroundImageFix"/>
<feGaussianBlur in="BackgroundImageFix" stdDeviation="7"/>
<feComposite in2="SourceAlpha" operator="in" result="effect1_backgroundBlur_6103_2411"/>
<feColorMatrix in="SourceAlpha" type="matrix" values="0 0 0 0 0 0 0 0 0 0 0 0 0 0 0 0 0 0 127 0" result="hardAlpha"/>
<feOffset dy="12"/>
<feGaussianBlur stdDeviation="18"/>
<feComposite in2="hardAlpha" operator="out"/>
<feColorMatrix type="matrix" values="0 0 0 0 0.525833 0 0 0 0 0.525833 0 0 0 0 0.525833 0 0 0 0.25 0"/>
<feBlend mode="normal" in2="effect1_backgroundBlur_6103_2411" result="effect2_dropShadow_6103_2411"/>
<feBlend mode="normal" in="SourceGraphic" in2="effect2_dropShadow_6103_2411" result="shape"/>
</filter>
<linearGradient id="paint0_linear_6103_2411" x1="37.253" y1="26.9531" x2="65.1507" y2="71.7183" gradientUnits="userSpaceOnUse">
<stop stop-color="white" stop-opacity="0.6"/>
<stop offset="0.0001" stop-color="white" stop-opacity="0.5"/>
<stop offset="1" stop-color="white" stop-opacity="0"/>
</linearGradient>
<linearGradient id="paint1_linear_6103_2411" x1="76.1512" y1="65.5953" x2="47.296" y2="19.9347" gradientUnits="userSpaceOnUse">
<stop stop-color="white" stop-opacity="0.5"/>
<stop offset="1" stop-color="white" stop-opacity="0"/>
</linearGradient>
<linearGradient id="paint2_linear_6103_2411" x1="61.4422" y1="24.183" x2="73.1479" y2="42.9809" gradientUnits="userSpaceOnUse">
<stop stop-color="#F9911F"/>
<stop offset="0.0001" stop-color="white" stop-opacity="0.5"/>
<stop offset="1" stop-color="#F9911F"/>
</linearGradient>
<linearGradient id="paint3_linear_6103_2411" x1="77.7821" y1="40.4026" x2="65.6746" y2="21.2284" gradientUnits="userSpaceOnUse">
<stop stop-color="white" stop-opacity="0.5"/>
<stop offset="1" stop-color="white" stop-opacity="0"/>
</linearGradient>
<linearGradient id="paint4_linear_6103_2411" x1="46.2321" y1="31.6332" x2="63.8143" y2="59.8218" gradientUnits="userSpaceOnUse">
<stop stop-color="#F9911F"/>
<stop offset="0.0001" stop-color="white" stop-opacity="0.5"/>
<stop offset="1" stop-color="#F9911F"/>
</linearGradient>
<linearGradient id="paint5_linear_6103_2411" x1="70.7172" y1="55.9777" x2="52.5318" y2="27.2255" gradientUnits="userSpaceOnUse">
<stop stop-color="white" stop-opacity="0.5"/>
<stop offset="1" stop-color="white" stop-opacity="0"/>
</linearGradient>
</defs>
</svg>
