<svg width="130" height="30" viewBox="0 0 130 30" fill="none" xmlns="http://www.w3.org/2000/svg">
<g id="Group 20">
<g id="Group 17">
<circle id="Ellipse 6" cx="65" cy="15" r="15" fill="#E97B19"/>
<path id="Vector" d="M64.9976 12.5981C63.345 12.5981 61.9964 14.0028 61.9964 15.7241C61.9964 17.4454 63.345 18.8501 64.9976 18.8501C66.6502 18.8501 67.9988 17.4454 67.9988 15.7241C67.9988 14.0028 66.6502 12.5981 64.9976 12.5981ZM73.999 15.7241C73.999 14.4296 74.0103 13.1469 73.9405 11.8548C73.8707 10.3539 73.5419 9.02193 72.4883 7.92445C71.4323 6.82462 70.1557 6.48459 68.7148 6.41189C67.472 6.33919 66.2404 6.35092 64.9998 6.35092C63.757 6.35092 62.5255 6.33919 61.2849 6.41189C59.8439 6.48459 58.5651 6.82696 57.5114 7.92445C56.4555 9.02428 56.129 10.3539 56.0592 11.8548C55.9894 13.1492 56.0007 14.432 56.0007 15.7241C56.0007 17.0162 55.9894 18.3013 56.0592 19.5934C56.129 21.0943 56.4577 22.4263 57.5114 23.5237C58.5674 24.6236 59.8439 24.9636 61.2849 25.0363C62.5277 25.109 63.7593 25.0973 64.9998 25.0973C66.2426 25.0973 67.4742 25.109 68.7148 25.0363C70.1557 24.9636 71.4346 24.6212 72.4883 23.5237C73.5442 22.4239 73.8707 21.0943 73.9405 19.5934C74.0125 18.3013 73.999 17.0186 73.999 15.7241ZM64.9976 20.5338C62.4422 20.5338 60.3798 18.3857 60.3798 15.7241C60.3798 13.0625 62.4422 10.9144 64.9976 10.9144C67.553 10.9144 69.6154 13.0625 69.6154 15.7241C69.6154 18.3857 67.553 20.5338 64.9976 20.5338ZM69.8045 11.8407C69.2078 11.8407 68.726 11.3388 68.726 10.7174C68.726 10.096 69.2078 9.59413 69.8045 9.59413C70.4011 9.59413 70.8829 10.096 70.8829 10.7174C70.8831 10.865 70.8554 11.0111 70.8012 11.1475C70.7471 11.2839 70.6677 11.4078 70.5675 11.5121C70.4673 11.6164 70.3483 11.6992 70.2174 11.7556C70.0865 11.8119 69.9462 11.8409 69.8045 11.8407Z" fill="white"/>
</g>
<g id="Group 19">
<circle id="Ellipse 8" cx="115" cy="15" r="15" fill="#E97B19"/>
<path id="Vector_2" fill-rule="evenodd" clip-rule="evenodd" d="M112.943 13.1985H115.914V14.74C116.342 13.8535 117.44 13.0569 119.089 13.0569C122.25 13.0569 123 14.8217 123 18.0596V24.0564H119.8V18.797C119.8 16.9531 119.372 15.9132 118.282 15.9132C116.771 15.9132 116.143 17.0339 116.143 18.7962V24.0564H112.943V13.1985ZM107.456 23.9147H110.656V13.0569H107.456V23.9147ZM111.114 9.51647C111.115 9.79583 111.061 10.0724 110.958 10.3302C110.854 10.588 110.703 10.8217 110.512 11.018C110.125 11.4184 109.601 11.6426 109.056 11.6412C108.512 11.6408 107.989 11.4172 107.602 11.0188C107.411 10.8219 107.26 10.5879 107.157 10.3301C107.054 10.0723 107 9.79579 107 9.51647C107 8.95237 107.216 8.41244 107.602 8.01415C107.99 7.61516 108.512 7.39147 109.057 7.39172C109.602 7.39172 110.126 7.61586 110.512 8.01415C110.898 8.41244 111.114 8.95237 111.114 9.51647Z" fill="white"/>
</g>
<g id="Group 16">
<circle id="Ellipse 5" cx="15" cy="15" r="15" fill="#E97B19"/>
<path id="Vector_3" d="M20 6.87698C20 6.7389 19.9473 6.60649 19.8536 6.50886C19.7598 6.41123 19.6326 6.35638 19.5 6.35638H17C15.7411 6.29108 14.5086 6.74723 13.5717 7.62516C12.6348 8.50309 12.0698 9.73142 12 11.0418V13.853H9.5C9.36739 13.853 9.24021 13.9079 9.14645 14.0055C9.05268 14.1031 9 14.2355 9 14.3736V17.0807C9 17.2188 9.05268 17.3512 9.14645 17.4489C9.24021 17.5465 9.36739 17.6013 9.5 17.6013H12V24.5774C12 24.7155 12.0527 24.8479 12.1464 24.9455C12.2402 25.0431 12.3674 25.098 12.5 25.098H15.5C15.6326 25.098 15.7598 25.0431 15.8536 24.9455C15.9473 24.8479 16 24.7155 16 24.5774V17.6013H18.62C18.7312 17.603 18.8397 17.566 18.9285 17.4963C19.0172 17.4265 19.0811 17.3279 19.11 17.2161L19.83 14.509C19.8499 14.4321 19.8526 14.3514 19.8378 14.2732C19.8231 14.1951 19.7913 14.1215 19.7449 14.0581C19.6985 13.9947 19.6388 13.9433 19.5704 13.9077C19.5019 13.8722 19.4265 13.8535 19.35 13.853H16V11.0418C16.0249 10.7841 16.1411 10.5452 16.326 10.372C16.5109 10.1987 16.7512 10.1034 17 10.1047H19.5C19.6326 10.1047 19.7598 10.0498 19.8536 9.95222C19.9473 9.85458 20 9.72217 20 9.5841V6.87698Z" fill="white"/>
</g>
</g>
</svg>
