<svg width="1491" height="1151" viewBox="0 0 1491 1151" fill="none" xmlns="http://www.w3.org/2000/svg">
<g filter="url(#filter0_b_5947_12946)">
<rect x="1" y="250.402" width="1440" height="900" fill="white" fill-opacity="0.7"/>
</g>
<g filter="url(#filter1_f_5947_12946)">
<path fill-rule="evenodd" clip-rule="evenodd" d="M437.532 639.854C473.962 687.279 529.865 695.709 591.071 689.332C657.63 682.396 691.22 644.319 739.831 608.356C767.609 587.806 803.245 578.149 830.711 557.303C861.296 534.09 889.759 510.22 909.751 479.394C936.504 438.142 988.719 395.661 966.787 347.482C944.883 299.364 869.264 284.977 812.885 266.605C770.039 252.643 726.539 257.633 682.296 254.775C646.033 252.432 610.915 247.738 575.617 251.277C535.354 255.314 498.044 263.744 461.741 276.89C406.944 296.732 339.295 300.003 328.879 351.242C318.62 401.707 397.712 430.073 420.239 481.042C443.293 533.201 401.112 592.444 437.532 639.854Z" fill="#F1C2C8"/>
<path fill-rule="evenodd" clip-rule="evenodd" d="M334.767 376.908C288.79 400.605 315.273 389.077 291.138 430.18C267.122 471.079 288.403 473.938 295.279 518.905C301.771 561.358 291.957 551.538 317.366 615.184C376.941 601.528 322.605 716.47 370.162 727.543C413.148 737.551 452.446 713.951 497.116 710.868C544.636 707.589 595.085 704.573 633.37 679.635C677.197 651.088 733.303 664.318 749.59 619.363C766.259 573.355 763.133 515.5 725.998 480.339C688.569 444.898 610.467 475.295 566.449 445.954C519.852 414.893 536.166 333.198 480.268 316.539C429.015 301.265 381.953 352.587 334.767 376.908Z" fill="#D6ECFA" fill-opacity="0.8"/>
<path fill-rule="evenodd" clip-rule="evenodd" d="M1057.96 441.807C1023.5 417.293 992.089 379.033 947.531 380.73C902.201 382.456 879.939 430.583 840.441 450.092C810.004 465.126 772.859 463.982 744.027 481.248C706.343 503.815 664.639 526.922 649.499 564.439C633.037 605.234 629.896 632.061 644.667 673.255C661.897 721.308 695.461 618.77 747.339 641.084C799.382 663.469 810.213 627.772 868.314 625.78C928.639 623.712 954.226 623.856 994.272 584.481C1038.26 541.224 1091.31 623.665 1106.22 567.454C1117.82 523.714 1164.11 577.245 1160.84 532.489C1157.67 489.184 1096.53 469.253 1057.96 441.807Z" fill="#DFD4FC" fill-opacity="0.6"/>
</g>
<g filter="url(#filter2_f_5947_12946)">
<path fill-rule="evenodd" clip-rule="evenodd" d="M1187.34 477.675C1151.7 494.095 1227.59 550.183 1181.5 549.046C1134.6 547.889 1111.57 515.653 1070.71 502.585C1039.22 492.515 1000.8 493.282 970.971 481.716C931.987 466.6 888.843 451.123 873.181 425.993C856.15 398.668 868.1 368.77 883.381 341.177C901.206 308.99 914.544 269.341 968.212 254.394C1022.05 239.4 1083.1 267.48 1143.21 268.814C1205.62 270.199 1284.93 235.968 1326.36 262.343C1371.87 291.317 1295.3 337.813 1310.73 375.464C1322.73 404.762 1297.16 386.956 1293.78 416.934C1290.5 445.941 1227.25 459.291 1187.34 477.675Z" fill="#B5AFE0" fill-opacity="0.4"/>
</g>
<mask id="mask0_5947_12946" style="mask-type:alpha" maskUnits="userSpaceOnUse" x="0" y="250" width="1441" height="603">
<rect width="1440" height="602.996" transform="matrix(-1 0 0 1 1440.99 250)" fill="white" fill-opacity="0.5"/>
</mask>
<g mask="url(#mask0_5947_12946)">
<path d="M3788.19 297.561L-2087.92 297.56" stroke="url(#paint0_linear_5947_12946)"/>
<path d="M3788.11 407L-2088 407" stroke="url(#paint1_linear_5947_12946)"/>
<path d="M3788.19 515.455L-2087.92 515.455" stroke="url(#paint2_linear_5947_12946)"/>
<path d="M3788.19 624.402L-2087.92 624.402" stroke="url(#paint3_linear_5947_12946)"/>
<path d="M3788.19 733.346L-2087.92 733.346" stroke="url(#paint4_linear_5947_12946)"/>
<path d="M3788.19 842.293L-2087.92 842.293" stroke="url(#paint5_linear_5947_12946)"/>
<path d="M27.4766 -1244.02V3113.81" stroke="url(#paint6_linear_5947_12946)"/>
<path d="M247.844 -1244.02V3113.81" stroke="url(#paint7_linear_5947_12946)"/>
<path d="M468.195 -1244.02V3113.81" stroke="url(#paint8_linear_5947_12946)"/>
<path d="M688.539 -1244.02V3113.81" stroke="url(#paint9_linear_5947_12946)"/>
<path d="M908.898 -1244.02V3113.81" stroke="url(#paint10_linear_5947_12946)"/>
<path d="M1129.25 -1244.02V3113.81" stroke="url(#paint11_linear_5947_12946)"/>
<path d="M1349.6 -1244.02V3113.81" stroke="url(#paint12_linear_5947_12946)"/>
</g>
<defs>
<filter id="filter0_b_5947_12946" x="-149" y="100.402" width="1740" height="1200" filterUnits="userSpaceOnUse" color-interpolation-filters="sRGB">
<feFlood flood-opacity="0" result="BackgroundImageFix"/>
<feGaussianBlur in="BackgroundImageFix" stdDeviation="75"/>
<feComposite in2="SourceAlpha" operator="in" result="effect1_backgroundBlur_5947_12946"/>
<feBlend mode="normal" in="SourceGraphic" in2="effect1_backgroundBlur_5947_12946" result="shape"/>
</filter>
<filter id="filter1_f_5947_12946" x="30.0039" y="0" width="1381" height="980" filterUnits="userSpaceOnUse" color-interpolation-filters="sRGB">
<feFlood flood-opacity="0" result="BackgroundImageFix"/>
<feBlend mode="normal" in="SourceGraphic" in2="BackgroundImageFix" result="shape"/>
<feGaussianBlur stdDeviation="125" result="effect1_foregroundBlur_5947_12946"/>
</filter>
<filter id="filter2_f_5947_12946" x="266.996" y="100" width="1224" height="627" filterUnits="userSpaceOnUse" color-interpolation-filters="sRGB">
<feFlood flood-opacity="0" result="BackgroundImageFix"/>
<feBlend mode="normal" in="SourceGraphic" in2="BackgroundImageFix" result="shape"/>
<feGaussianBlur stdDeviation="75" result="effect1_foregroundBlur_5947_12946"/>
</filter>
<linearGradient id="paint0_linear_5947_12946" x1="3788.19" y1="297.061" x2="-2087.92" y2="297.06" gradientUnits="userSpaceOnUse">
<stop stop-color="white"/>
<stop offset="1" stop-color="white" stop-opacity="0"/>
</linearGradient>
<linearGradient id="paint1_linear_5947_12946" x1="3788.11" y1="406.5" x2="-2088" y2="406.5" gradientUnits="userSpaceOnUse">
<stop stop-color="white"/>
<stop offset="1" stop-color="white" stop-opacity="0"/>
</linearGradient>
<linearGradient id="paint2_linear_5947_12946" x1="3788.19" y1="514.955" x2="-2087.92" y2="514.955" gradientUnits="userSpaceOnUse">
<stop stop-color="white"/>
<stop offset="1" stop-color="white" stop-opacity="0"/>
</linearGradient>
<linearGradient id="paint3_linear_5947_12946" x1="3788.19" y1="623.902" x2="-2087.92" y2="623.902" gradientUnits="userSpaceOnUse">
<stop stop-color="white"/>
<stop offset="1" stop-color="white" stop-opacity="0"/>
</linearGradient>
<linearGradient id="paint4_linear_5947_12946" x1="3788.19" y1="732.846" x2="-2087.92" y2="732.845" gradientUnits="userSpaceOnUse">
<stop stop-color="white"/>
<stop offset="1" stop-color="white" stop-opacity="0"/>
</linearGradient>
<linearGradient id="paint5_linear_5947_12946" x1="3788.19" y1="841.793" x2="-2087.92" y2="841.793" gradientUnits="userSpaceOnUse">
<stop stop-color="white"/>
<stop offset="1" stop-color="white" stop-opacity="0"/>
</linearGradient>
<linearGradient id="paint6_linear_5947_12946" x1="26.9766" y1="-1244.02" x2="26.9766" y2="3113.81" gradientUnits="userSpaceOnUse">
<stop stop-color="white"/>
<stop offset="1" stop-color="white" stop-opacity="0"/>
</linearGradient>
<linearGradient id="paint7_linear_5947_12946" x1="247.344" y1="-1244.02" x2="247.344" y2="3113.81" gradientUnits="userSpaceOnUse">
<stop stop-color="white"/>
<stop offset="1" stop-color="white" stop-opacity="0"/>
</linearGradient>
<linearGradient id="paint8_linear_5947_12946" x1="467.695" y1="-1244.02" x2="467.695" y2="3113.81" gradientUnits="userSpaceOnUse">
<stop stop-color="white"/>
<stop offset="1" stop-color="white" stop-opacity="0"/>
</linearGradient>
<linearGradient id="paint9_linear_5947_12946" x1="688.039" y1="-1244.02" x2="688.039" y2="3113.81" gradientUnits="userSpaceOnUse">
<stop stop-color="white"/>
<stop offset="1" stop-color="white" stop-opacity="0"/>
</linearGradient>
<linearGradient id="paint10_linear_5947_12946" x1="908.398" y1="-1244.02" x2="908.398" y2="3113.81" gradientUnits="userSpaceOnUse">
<stop stop-color="white"/>
<stop offset="1" stop-color="white" stop-opacity="0"/>
</linearGradient>
<linearGradient id="paint11_linear_5947_12946" x1="1128.75" y1="-1244.02" x2="1128.75" y2="3113.81" gradientUnits="userSpaceOnUse">
<stop stop-color="white"/>
<stop offset="1" stop-color="white" stop-opacity="0"/>
</linearGradient>
<linearGradient id="paint12_linear_5947_12946" x1="1349.1" y1="-1244.02" x2="1349.1" y2="3113.81" gradientUnits="userSpaceOnUse">
<stop stop-color="white"/>
<stop offset="1" stop-color="white" stop-opacity="0"/>
</linearGradient>
</defs>
</svg>
