<svg width="40" height="40" viewBox="0 0 40 40" fill="none" xmlns="http://www.w3.org/2000/svg">
<g id="vuesax/bulk/presention-chart">
<g id="presention-chart">
<path id="Vector" opacity="0.4" d="M35 3.33301V23.4997C35 26.6664 33.3333 28.333 30.1667 28.333H9.83332C6.66666 28.333 5 26.6664 5 23.4997V3.33301H35Z" />
<g id="Group">
<path id="Vector_2" d="M36.6663 4.58301H3.33301C2.64967 4.58301 2.08301 4.01634 2.08301 3.33301C2.08301 2.64967 2.64967 2.08301 3.33301 2.08301H36.6663C37.3497 2.08301 37.9163 2.64967 37.9163 3.33301C37.9163 4.01634 37.3497 4.58301 36.6663 4.58301Z" />
</g>
<path id="Vector_3" d="M27.7838 37.233C27.5671 37.6663 27.1171 37.9163 26.6671 37.9163C26.4838 37.9163 26.2838 37.8664 26.1171 37.783L20.0004 34.733L13.8838 37.783C13.7171 37.8664 13.5171 37.9163 13.3338 37.9163C12.8838 37.9163 12.4338 37.6663 12.2171 37.233C11.9004 36.5997 12.1505 35.8497 12.7838 35.5497L18.7504 32.5664V28.333H21.2504V32.5664L27.2171 35.5497C27.8504 35.8497 28.1005 36.5997 27.7838 37.233Z" />
<g id="Group_2">
<path id="Vector_4" d="M12.5002 19.5832C12.1502 19.5832 11.7836 19.4332 11.5336 19.1332C11.0836 18.5999 11.1669 17.8166 11.7002 17.3666L16.9502 12.9832C17.4336 12.5832 18.0502 12.4166 18.6335 12.5166C19.2335 12.6166 19.7502 12.9832 20.0669 13.5165L21.8169 16.4332L26.7002 12.3666C27.2335 11.9166 28.0168 11.9999 28.4668 12.5332C28.9168 13.0665 28.8336 13.8499 28.3002 14.2999L23.0502 18.6832C22.5668 19.0832 21.9502 19.2499 21.3669 19.1499C20.7669 19.0499 20.2502 18.6832 19.9335 18.1499L18.1835 15.2332L13.3002 19.2999C13.0669 19.4832 12.7835 19.5832 12.5002 19.5832Z" />
</g>
</g>
</g>
</svg>
