<svg width="48" height="48" viewBox="0 0 48 48" fill="none" xmlns="http://www.w3.org/2000/svg">
<g id="vuesax/bulk/convert-3d-cube">
<g id="convert-3d-cube">
<path id="Vector" opacity="0.4" d="M30.0004 45.5C29.4604 45.5 28.9604 45.2 28.7004 44.74C28.4404 44.28 28.4404 43.7 28.7204 43.24L30.8204 39.74C31.2404 39.02 32.1604 38.8 32.8804 39.22C33.6004 39.64 33.8204 40.56 33.4004 41.28L32.8604 42.1801C38.3804 40.8801 42.5204 35.92 42.5204 30C42.5204 29.18 43.2004 28.5 44.0204 28.5C44.8404 28.5 45.5204 29.18 45.5204 30C45.5004 38.54 38.5404 45.5 30.0004 45.5Z" fill="#F9911F"/>
<path id="Vector_2" opacity="0.4" d="M4 19.5C3.18 19.5 2.5 18.82 2.5 18C2.5 9.46 9.46 2.5 18 2.5C18.54 2.5 19.04 2.80001 19.3 3.26001C19.56 3.72001 19.56 4.30001 19.28 4.76001L17.18 8.26001C16.76 8.98001 15.84 9.20003 15.12 8.78003C14.4 8.36003 14.18 7.43997 14.6 6.71997L15.14 5.81995C9.62001 7.11995 5.48001 12.08 5.48001 18C5.50001 18.82 4.82 19.5 4 19.5Z" fill="#F9911F"/>
<g id="Group">
<path id="Vector_3" d="M21.3399 27.7008L15.0599 24.3208C14.3999 23.9608 13.5999 23.9608 12.9399 24.3208L6.65991 27.7008C6.19991 27.9408 5.91992 28.4408 5.91992 28.9808C5.91992 29.5208 6.19991 30.0208 6.65991 30.2608L12.9399 33.6409C13.2799 33.8209 13.6399 33.9009 13.9999 33.9009C14.3599 33.9009 14.7199 33.8209 15.0599 33.6409L21.3399 30.2608C21.7999 30.0208 22.0799 29.5208 22.0799 28.9808C22.0799 28.4408 21.7799 27.9608 21.3399 27.7008Z" fill="#F9911F"/>
<path id="Vector_4" d="M11.9005 34.8212L6.06046 31.9013C5.62046 31.6813 5.10046 31.7012 4.66046 31.9612C4.24046 32.2212 3.98047 32.6813 3.98047 33.1813V38.7012C3.98047 39.6612 4.50044 40.5212 5.36044 40.9412L11.2005 43.8612C11.4005 43.9612 11.6205 44.0213 11.8405 44.0213C12.1005 44.0213 12.3605 43.9413 12.6005 43.8013C13.0205 43.5413 13.2805 43.0812 13.2805 42.5812V37.0613C13.3005 36.1013 12.7605 35.2412 11.9005 34.8212Z" fill="#F9911F"/>
<path id="Vector_5" d="M23.3212 31.9612C22.9012 31.7012 22.3812 31.6813 21.9212 31.9013L16.0811 34.8212C15.2211 35.2412 14.7012 36.1013 14.7012 37.0613V42.5812C14.7012 43.0812 14.9612 43.5413 15.3812 43.8013C15.6212 43.9413 15.8812 44.0213 16.1412 44.0213C16.3612 44.0213 16.5812 43.9612 16.7812 43.8612L22.6212 40.9412C23.4812 40.5212 24.0012 39.6612 24.0012 38.7012V33.1813C24.0012 32.6813 23.7412 32.2212 23.3212 31.9612Z" fill="#F9911F"/>
</g>
<g id="Group_2">
<path id="Vector_6" d="M41.3399 7.65977L35.0599 4.27977C34.3999 3.91977 33.5999 3.91977 32.9399 4.27977L26.6599 7.65977C26.1999 7.89977 25.9199 8.39968 25.9199 8.93968C25.9199 9.47968 26.1999 9.97971 26.6599 10.2197L32.9399 13.5997C33.2799 13.7797 33.6399 13.8597 33.9999 13.8597C34.3599 13.8597 34.7199 13.7797 35.0599 13.5997L41.3399 10.2197C41.7999 9.97971 42.0799 9.47968 42.0799 8.93968C42.0799 8.37968 41.7799 7.89977 41.3399 7.65977Z" fill="#F9911F"/>
<path id="Vector_7" d="M31.9005 14.7588L26.0605 11.8387C25.6205 11.6187 25.1005 11.6388 24.6605 11.8988C24.2405 12.1588 23.9805 12.6188 23.9805 13.1188V18.6388C23.9805 19.5988 24.5004 20.4588 25.3604 20.8788L31.2005 23.7988C31.4005 23.8988 31.6205 23.9587 31.8405 23.9587C32.1005 23.9587 32.3605 23.8787 32.6005 23.7387C33.0205 23.4787 33.2805 23.0188 33.2805 22.5188V16.9988C33.3005 16.0388 32.7605 15.1788 31.9005 14.7588Z" fill="#F9911F"/>
<path id="Vector_8" d="M43.3212 11.8988C42.9012 11.6388 42.3812 11.6187 41.9212 11.8387L36.0811 14.7588C35.2211 15.1788 34.7012 16.0388 34.7012 16.9988V22.5188C34.7012 23.0188 34.9612 23.4787 35.3812 23.7387C35.6212 23.8787 35.8812 23.9587 36.1412 23.9587C36.3612 23.9587 36.5812 23.8988 36.7812 23.7988L42.6212 20.8788C43.4812 20.4588 44.0012 19.5988 44.0012 18.6388V13.1188C44.0012 12.6188 43.7412 12.1588 43.3212 11.8988Z" fill="#F9911F"/>
</g>
</g>
</g>
</svg>
