<svg width="164" height="140" viewBox="0 0 164 140" fill="none" xmlns="http://www.w3.org/2000/svg">
<g filter="url(#filter0_bd_5779_11374)">
<rect x="36" y="36" width="56" height="56" rx="16" fill="url(#paint0_linear_5779_11374)" fill-opacity="0.3" shape-rendering="crispEdges"/>
<rect x="36.5" y="36.5" width="55" height="55" rx="15.5" stroke="url(#paint1_linear_5779_11374)" shape-rendering="crispEdges"/>
</g>
<g clip-path="url(#clip0_5779_11374)">
<g filter="url(#filter1_bd_5779_11374)">
<path d="M54.8443 73.5379C54.8443 74.0334 55.1476 74.4298 55.5266 74.4298H57.5735C57.9526 74.4298 58.2558 74.0334 58.2558 73.5379V68.9794C58.2558 68.4839 57.9526 68.0875 57.5735 68.0875H55.5266C55.1476 68.0875 54.8443 68.4839 54.8443 68.9794V73.5379ZM60.4543 74.4298H62.5012C62.8803 74.4298 63.1835 74.0334 63.1835 73.5379V65.9073C63.1835 65.4118 62.8803 65.0154 62.5012 65.0154H60.4543C60.0753 65.0154 59.772 65.4118 59.772 65.9073V73.5379C59.772 74.0334 60.0753 74.4298 60.4543 74.4298ZM65.382 62.9344C65.003 62.9344 64.6997 63.3308 64.6997 63.8262V73.5379C64.6997 74.0334 65.003 74.4298 65.382 74.4298H67.4289C67.8079 74.4298 68.1112 74.0334 68.1112 73.5379V63.8262C68.1112 63.3308 67.8079 62.9344 67.4289 62.9344H65.382ZM73.0389 61.8443C73.0389 61.3488 72.7356 60.9524 72.3566 60.9524H70.3097C69.9306 60.9524 69.6274 61.3488 69.6274 61.8443V73.5379C69.6274 74.0334 69.9306 74.4298 70.3097 74.4298H72.3566C72.7356 74.4298 73.0389 74.0334 73.0389 73.5379V61.8443ZM54.5195 61.5491C54.5195 61.9753 54.9458 62.4015 55.372 62.4015C61.5096 62.0606 66.7095 60.0147 70.8865 56.0934L71.6537 56.7754C71.9947 57.1164 72.5914 56.9459 72.5914 56.4344L73.1029 53.1951C73.1881 52.7689 72.8472 52.4279 72.4209 52.5131L69.1816 53.1099C68.7554 53.1951 68.5849 53.7918 68.9259 54.1328L69.6931 54.8148C65.7718 58.4803 60.9981 60.4409 55.372 60.6114C54.8605 60.6967 54.5195 61.0376 54.5195 61.5491Z" fill="url(#paint2_linear_5779_11374)" shape-rendering="crispEdges"/>
<path d="M55.4247 61.11C55.2736 61.1403 55.1766 61.2004 55.1195 61.2616C55.0627 61.3224 55.0195 61.4109 55.0195 61.5491C55.0195 61.5996 55.0498 61.6919 55.1395 61.7816C55.2241 61.8663 55.3112 61.898 55.3632 61.9013C61.3906 61.5628 66.468 59.5556 70.5443 55.7289L70.8773 55.4163L71.2187 55.7197L71.9859 56.4017L71.9969 56.4114L72.0073 56.4218C72.0398 56.4543 72.0737 56.4555 72.0904 56.4508C72.0909 56.4471 72.0914 56.4417 72.0914 56.4344V56.3952L72.0975 56.3564L72.609 53.1171L72.6106 53.1071L72.6126 53.097C72.6186 53.0669 72.6155 53.0479 72.6126 53.0378C72.6095 53.0273 72.6048 53.0205 72.6002 53.0159C72.5955 53.0113 72.5887 53.0066 72.5782 53.0035C72.5682 53.0005 72.5491 52.9974 72.519 53.0034L72.5115 53.0049L72.5115 53.0049L69.279 53.6003L55.4247 61.11ZM55.4247 61.11C61.1524 60.9284 66.0306 58.9229 70.0345 55.18L70.4352 54.8055L70.0253 54.4411L69.2733 53.7727C69.2478 53.7429 69.2369 53.7008 69.2496 53.6527C69.2562 53.6277 69.267 53.6118 69.274 53.6047C69.2768 53.6017 69.2786 53.6006 69.279 53.6003C69.279 53.6003 69.279 53.6003 69.279 53.6003L55.4247 61.11ZM55.5266 73.9298H55.5266C55.5235 73.9298 55.4894 73.9298 55.4405 73.8659C55.3904 73.8005 55.3443 73.687 55.3443 73.5379V68.9794C55.3443 68.8303 55.3904 68.7168 55.4405 68.6514C55.4894 68.5875 55.5235 68.5875 55.5266 68.5875H55.5266H57.5735H57.5736C57.5767 68.5875 57.6108 68.5875 57.6597 68.6514C57.7097 68.7168 57.7558 68.8303 57.7558 68.9794V73.5379C57.7558 73.687 57.7097 73.8005 57.6597 73.8659C57.6108 73.9298 57.5767 73.9298 57.5736 73.9298H57.5735H55.5266ZM62.5012 73.9298H60.4543H60.4543C60.4512 73.9298 60.4171 73.9298 60.3682 73.8659C60.3181 73.8005 60.272 73.687 60.272 73.5379V65.9073C60.272 65.7583 60.3181 65.6448 60.3682 65.5794C60.4171 65.5154 60.4512 65.5154 60.4543 65.5154H60.4543H62.5012C62.5041 65.5154 62.5383 65.5152 62.5874 65.5794C62.6374 65.6448 62.6835 65.7583 62.6835 65.9073V73.5379C62.6835 73.687 62.6374 73.8005 62.5874 73.8659C62.5385 73.9298 62.5044 73.9298 62.5012 73.9298H62.5012ZM65.1997 63.8262C65.1997 63.6772 65.2458 63.5637 65.2958 63.4983C65.3448 63.4343 65.3788 63.4344 65.382 63.4344H65.382H67.4289H67.4289C67.4321 63.4344 67.4661 63.4343 67.5151 63.4983C67.5651 63.5637 67.6112 63.6772 67.6112 63.8262V73.5379C67.6112 73.687 67.5651 73.8005 67.5151 73.8659C67.4661 73.9298 67.4321 73.9298 67.4289 73.9298H67.4289H65.382H65.382C65.3788 73.9298 65.3448 73.9298 65.2958 73.8659C65.2458 73.8005 65.1997 73.687 65.1997 73.5379V63.8262ZM72.3566 61.4524H72.3566C72.3598 61.4524 72.3938 61.4524 72.4428 61.5163C72.4928 61.5817 72.5389 61.6952 72.5389 61.8443V73.5379C72.5389 73.687 72.4928 73.8005 72.4428 73.8659C72.3938 73.9298 72.3598 73.9298 72.3566 73.9298H72.3566H70.3097H70.3097C70.3065 73.9298 70.2724 73.9298 70.2235 73.8659C70.1735 73.8005 70.1274 73.687 70.1274 73.5379V61.8443C70.1274 61.6952 70.1735 61.5817 70.2235 61.5163C70.2724 61.4524 70.3065 61.4524 70.3097 61.4524H70.3097H72.3566Z" stroke="url(#paint3_linear_5779_11374)" shape-rendering="crispEdges"/>
</g>
</g>
<g filter="url(#filter2_bd_5779_11374)">
<rect x="76" y="24" width="52" height="24" rx="12" fill="url(#paint4_linear_5779_11374)" shape-rendering="crispEdges"/>
<rect x="76.5" y="24.5" width="51" height="23" rx="11.5" stroke="url(#paint5_linear_5779_11374)" shape-rendering="crispEdges"/>
</g>
<path d="M90.74 40H91.87V38.06H93.8V36.93H91.87V35H90.74V36.93H88.8V38.06H90.74V40ZM96.3316 40H97.6916V32.55H94.8916V33.71H96.3316V40ZM99.0948 40H104.095V38.85H100.865L102.615 37.01C103.088 36.5167 103.435 36.08 103.655 35.7C103.881 35.32 103.995 34.9267 103.995 34.52C103.995 34.1067 103.891 33.7433 103.685 33.43C103.485 33.1167 103.201 32.8733 102.835 32.7C102.475 32.52 102.055 32.43 101.575 32.43C101.175 32.43 100.795 32.51 100.435 32.67C100.081 32.8233 99.7814 33.0467 99.5348 33.34C99.2881 33.6267 99.1248 33.9667 99.0448 34.36L100.235 34.73C100.341 34.3767 100.511 34.11 100.745 33.93C100.978 33.7433 101.255 33.65 101.575 33.65C101.881 33.65 102.131 33.74 102.325 33.92C102.525 34.1 102.625 34.3467 102.625 34.66C102.625 34.8467 102.581 35.03 102.495 35.21C102.408 35.39 102.255 35.6067 102.035 35.86C101.815 36.1133 101.508 36.4467 101.115 36.86L99.0948 38.98V40ZM107.302 36.33C107.668 36.33 107.998 36.2433 108.292 36.07C108.585 35.89 108.818 35.6533 108.992 35.36C109.165 35.0667 109.252 34.74 109.252 34.38C109.252 34.02 109.165 33.6933 108.992 33.4C108.818 33.1 108.585 32.8633 108.292 32.69C107.998 32.5167 107.668 32.43 107.302 32.43C106.935 32.43 106.602 32.5167 106.302 32.69C106.002 32.8633 105.765 33.1 105.592 33.4C105.418 33.6933 105.332 34.02 105.332 34.38C105.332 34.74 105.418 35.0667 105.592 35.36C105.765 35.6533 106.002 35.89 106.302 36.07C106.602 36.2433 106.935 36.33 107.302 36.33ZM106.132 40H107.532L113.572 32.55H112.172L106.132 40ZM107.302 35.32C107.015 35.32 106.788 35.2233 106.622 35.03C106.462 34.8367 106.382 34.62 106.382 34.38C106.382 34.14 106.462 33.9233 106.622 33.73C106.788 33.53 107.015 33.43 107.302 33.43C107.588 33.43 107.808 33.53 107.962 33.73C108.122 33.9233 108.202 34.14 108.202 34.38C108.202 34.62 108.122 34.8367 107.962 35.03C107.808 35.2233 107.588 35.32 107.302 35.32ZM112.372 40.12C112.738 40.12 113.068 40.0333 113.362 39.86C113.662 39.68 113.898 39.4433 114.072 39.15C114.245 38.8567 114.332 38.53 114.332 38.17C114.332 37.81 114.245 37.4833 114.072 37.19C113.898 36.89 113.662 36.6533 113.362 36.48C113.068 36.3067 112.738 36.22 112.372 36.22C112.005 36.22 111.672 36.3067 111.372 36.48C111.078 36.6533 110.845 36.89 110.672 37.19C110.498 37.4833 110.412 37.81 110.412 38.17C110.412 38.53 110.498 38.8567 110.672 39.15C110.845 39.4433 111.078 39.68 111.372 39.86C111.672 40.0333 112.005 40.12 112.372 40.12ZM112.372 39.11C112.085 39.11 111.862 39.0133 111.702 38.82C111.542 38.6267 111.462 38.41 111.462 38.17C111.462 37.93 111.542 37.7133 111.702 37.52C111.862 37.32 112.085 37.22 112.372 37.22C112.658 37.22 112.882 37.32 113.042 37.52C113.202 37.7133 113.282 37.93 113.282 38.17C113.282 38.41 113.202 38.6267 113.042 38.82C112.882 39.0133 112.658 39.11 112.372 39.11Z" fill="white"/>
<defs>
<filter id="filter0_bd_5779_11374" x="0" y="12" width="128" height="128" filterUnits="userSpaceOnUse" color-interpolation-filters="sRGB">
<feFlood flood-opacity="0" result="BackgroundImageFix"/>
<feGaussianBlur in="BackgroundImageFix" stdDeviation="7"/>
<feComposite in2="SourceAlpha" operator="in" result="effect1_backgroundBlur_5779_11374"/>
<feColorMatrix in="SourceAlpha" type="matrix" values="0 0 0 0 0 0 0 0 0 0 0 0 0 0 0 0 0 0 127 0" result="hardAlpha"/>
<feOffset dy="12"/>
<feGaussianBlur stdDeviation="18"/>
<feComposite in2="hardAlpha" operator="out"/>
<feColorMatrix type="matrix" values="0 0 0 0 0.0741111 0 0 0 0 0.0853889 0 0 0 0 0.0966667 0 0 0 0.35 0"/>
<feBlend mode="normal" in2="effect1_backgroundBlur_5779_11374" result="effect2_dropShadow_5779_11374"/>
<feBlend mode="normal" in="SourceGraphic" in2="effect2_dropShadow_5779_11374" result="shape"/>
</filter>
<filter id="filter1_bd_5779_11374" x="18.5195" y="28.5" width="90.5964" height="93.9297" filterUnits="userSpaceOnUse" color-interpolation-filters="sRGB">
<feFlood flood-opacity="0" result="BackgroundImageFix"/>
<feGaussianBlur in="BackgroundImageFix" stdDeviation="7"/>
<feComposite in2="SourceAlpha" operator="in" result="effect1_backgroundBlur_5779_11374"/>
<feColorMatrix in="SourceAlpha" type="matrix" values="0 0 0 0 0 0 0 0 0 0 0 0 0 0 0 0 0 0 127 0" result="hardAlpha"/>
<feOffset dy="12"/>
<feGaussianBlur stdDeviation="18"/>
<feComposite in2="hardAlpha" operator="out"/>
<feColorMatrix type="matrix" values="0 0 0 0 0.525833 0 0 0 0 0.525833 0 0 0 0 0.525833 0 0 0 0.25 0"/>
<feBlend mode="normal" in2="effect1_backgroundBlur_5779_11374" result="effect2_dropShadow_5779_11374"/>
<feBlend mode="normal" in="SourceGraphic" in2="effect2_dropShadow_5779_11374" result="shape"/>
</filter>
<filter id="filter2_bd_5779_11374" x="40" y="0" width="124" height="96" filterUnits="userSpaceOnUse" color-interpolation-filters="sRGB">
<feFlood flood-opacity="0" result="BackgroundImageFix"/>
<feGaussianBlur in="BackgroundImageFix" stdDeviation="7"/>
<feComposite in2="SourceAlpha" operator="in" result="effect1_backgroundBlur_5779_11374"/>
<feColorMatrix in="SourceAlpha" type="matrix" values="0 0 0 0 0 0 0 0 0 0 0 0 0 0 0 0 0 0 127 0" result="hardAlpha"/>
<feOffset dy="12"/>
<feGaussianBlur stdDeviation="18"/>
<feComposite in2="hardAlpha" operator="out"/>
<feColorMatrix type="matrix" values="0 0 0 0 0.525833 0 0 0 0 0.525833 0 0 0 0 0.525833 0 0 0 0.25 0"/>
<feBlend mode="normal" in2="effect1_backgroundBlur_5779_11374" result="effect2_dropShadow_5779_11374"/>
<feBlend mode="normal" in="SourceGraphic" in2="effect2_dropShadow_5779_11374" result="shape"/>
</filter>
<linearGradient id="paint0_linear_5779_11374" x1="37.5674" y1="36" x2="78.6704" y2="101.989" gradientUnits="userSpaceOnUse">
<stop stop-color="white" stop-opacity="0.6"/>
<stop offset="0.0001" stop-color="white" stop-opacity="0.5"/>
<stop offset="1" stop-color="white" stop-opacity="0"/>
</linearGradient>
<linearGradient id="paint1_linear_5779_11374" x1="94.9211" y1="92.9463" x2="52.4073" y2="25.6369" gradientUnits="userSpaceOnUse">
<stop stop-color="white" stop-opacity="0.5"/>
<stop offset="1" stop-color="white" stop-opacity="0"/>
</linearGradient>
<linearGradient id="paint2_linear_5779_11374" x1="55.04" y1="52.5" x2="72.1528" y2="75.7978" gradientUnits="userSpaceOnUse">
<stop stop-color="#F9911F"/>
<stop offset="0.0001" stop-color="white" stop-opacity="0.5"/>
<stop offset="1" stop-color="#F9911F"/>
</linearGradient>
<linearGradient id="paint3_linear_5779_11374" x1="74.0861" y1="74.8004" x2="56.4211" y2="51.0836" gradientUnits="userSpaceOnUse">
<stop stop-color="white" stop-opacity="0.5"/>
<stop offset="1" stop-color="white" stop-opacity="0"/>
</linearGradient>
<linearGradient id="paint4_linear_5779_11374" x1="77.4555" y1="24" x2="87.8786" y2="60.2569" gradientUnits="userSpaceOnUse">
<stop stop-color="#F9911F"/>
<stop offset="0.0001" stop-color="white" stop-opacity="0.5"/>
<stop offset="1" stop-color="#F9911F"/>
</linearGradient>
<linearGradient id="paint5_linear_5779_11374" x1="130.712" y1="48.4056" x2="119.87" y2="11.2113" gradientUnits="userSpaceOnUse">
<stop stop-color="white" stop-opacity="0.5"/>
<stop offset="1" stop-color="white" stop-opacity="0"/>
</linearGradient>
<clipPath id="clip0_5779_11374">
<rect width="20" height="23" fill="white" transform="translate(54 52)"/>
</clipPath>
</defs>
</svg>
