<svg width="40" height="40" viewBox="0 0 40 40" fill="none" xmlns="http://www.w3.org/2000/svg">
<g id="vuesax/bulk/status-up">
<g id="status-up">
<g id="status-up_2">
<path id="Vector" opacity="0.36" d="M26.9833 3.33301H13.0166C6.94992 3.33301 3.33325 6.94967 3.33325 13.0163V26.9663C3.33325 33.0497 6.94992 36.6663 13.0166 36.6663H26.9666C33.0333 36.6663 36.6499 33.0497 36.6499 26.983V13.0163C36.6666 6.94967 33.0499 3.33301 26.9833 3.33301Z" />
<path id="Vector_2" d="M11.4666 31.4998C10.7832 31.4998 10.2166 30.9331 10.2166 30.2498V26.7998C10.2166 26.1165 10.7832 25.5498 11.4666 25.5498C12.1499 25.5498 12.7166 26.1165 12.7166 26.7998V30.2498C12.7166 30.9498 12.1499 31.4998 11.4666 31.4998Z" />
<path id="Vector_3" d="M20 31.4997C19.3167 31.4997 18.75 30.933 18.75 30.2497V23.333C18.75 22.6497 19.3167 22.083 20 22.083C20.6833 22.083 21.25 22.6497 21.25 23.333V30.2497C21.25 30.9497 20.6833 31.4997 20 31.4997Z" />
<path id="Vector_4" d="M28.5332 31.4995C27.8499 31.4995 27.2832 30.9328 27.2832 30.2495V19.8828C27.2832 19.1995 27.8499 18.6328 28.5332 18.6328C29.2165 18.6328 29.7832 19.1995 29.7832 19.8828V30.2495C29.7832 30.9495 29.2332 31.4995 28.5332 31.4995Z" />
<path id="Vector_5" d="M29.7832 9.7C29.7832 9.61667 29.7499 9.51667 29.7332 9.43333C29.7166 9.36667 29.6999 9.28333 29.6832 9.21667C29.6499 9.15 29.5999 9.1 29.5666 9.03333C29.5166 8.96667 29.4666 8.88333 29.3999 8.83333C29.3832 8.81667 29.3832 8.8 29.3666 8.8C29.3166 8.76667 29.2666 8.75 29.2166 8.71667C29.1499 8.66667 29.0666 8.61667 28.9832 8.58333C28.8999 8.55 28.8166 8.55 28.7332 8.53333C28.6666 8.51667 28.6166 8.5 28.5499 8.5H23.6666C22.9832 8.5 22.4166 9.06667 22.4166 9.75C22.4166 10.4333 22.9832 11 23.6666 11H25.7499C21.7832 15.1667 16.7832 18.1 11.1666 19.5167C10.4999 19.6833 10.0832 20.3667 10.2499 21.0333C10.3832 21.6 10.8999 21.9833 11.4666 21.9833C11.5666 21.9833 11.6666 21.9667 11.7666 21.95C17.7166 20.4667 23.0332 17.3833 27.2832 13.0167V14.6333C27.2832 15.3167 27.8499 15.8833 28.5332 15.8833C29.2166 15.8833 29.7832 15.3167 29.7832 14.6333V9.75C29.7832 9.73333 29.7832 9.71667 29.7832 9.7Z" />
</g>
</g>
</g>
</svg>
