<svg width="282" height="162" viewBox="0 0 282 162" fill="none" xmlns="http://www.w3.org/2000/svg">
<g filter="url(#filter0_bd_5779_11386)">
<rect x="36" y="24" width="210" height="90" rx="16" fill="url(#paint0_linear_5779_11386)" fill-opacity="0.3" shape-rendering="crispEdges"/>
<rect x="36.5" y="24.5" width="209" height="89" rx="15.5" stroke="url(#paint1_linear_5779_11386)" shape-rendering="crispEdges"/>
</g>
<path d="M55.9679 46.7273V54H54.9593L51.2626 48.6662H51.1951V54H50.0978V46.7273H51.1135L54.8137 52.0682H54.8812V46.7273H55.9679ZM60.2342 54.1101C59.6968 54.1101 59.2339 53.9953 58.8457 53.7656C58.4598 53.5336 58.1615 53.2081 57.9508 52.7891C57.7424 52.3677 57.6383 51.8741 57.6383 51.3082C57.6383 50.7495 57.7424 50.2571 57.9508 49.831C58.1615 49.4048 58.455 49.0722 58.8315 48.8331C59.2103 48.594 59.653 48.4744 60.1596 48.4744C60.4674 48.4744 60.7656 48.5253 61.0545 48.6271C61.3433 48.7289 61.6025 48.8887 61.8322 49.1065C62.0618 49.3243 62.2429 49.6072 62.3755 49.9553C62.5081 50.3009 62.5744 50.7211 62.5744 51.2159V51.5923H58.2384V50.7969H61.5339C61.5339 50.5175 61.4771 50.2701 61.3634 50.0547C61.2498 49.8369 61.09 49.6652 60.884 49.5398C60.6804 49.4143 60.4413 49.3516 60.1667 49.3516C59.8684 49.3516 59.608 49.425 59.3854 49.5717C59.1653 49.7161 58.9948 49.9055 58.8741 50.1399C58.7557 50.3719 58.6965 50.6241 58.6965 50.8963V51.5178C58.6965 51.8823 58.7604 52.1925 58.8883 52.4482C59.0185 52.7038 59.1996 52.8991 59.4316 53.0341C59.6636 53.1667 59.9347 53.233 60.2448 53.233C60.446 53.233 60.6295 53.2045 60.7952 53.1477C60.961 53.0885 61.1042 53.0009 61.2249 52.8849C61.3457 52.7689 61.438 52.6257 61.5019 52.4553L62.5069 52.6364C62.4264 52.9323 62.282 53.1915 62.0737 53.4141C61.8677 53.6342 61.6085 53.8059 61.296 53.929C60.9858 54.0497 60.6319 54.1101 60.2342 54.1101ZM65.3252 54L63.7201 48.5455H64.8174L65.8863 52.5511H65.9396L67.012 48.5455H68.1093L69.1746 52.5334H69.2279L70.2897 48.5455H71.387L69.7854 54H68.7023L67.5944 50.0618H67.5127L66.4048 54H65.3252ZM81.9668 49.0923H80.8589C80.8163 48.8556 80.737 48.6473 80.621 48.4673C80.5049 48.2874 80.3629 48.1347 80.1948 48.0092C80.0267 47.8838 79.8385 47.7891 79.6302 47.7251C79.4242 47.6612 79.2052 47.6293 78.9732 47.6293C78.5542 47.6293 78.179 47.7346 77.8475 47.9453C77.5184 48.156 77.258 48.465 77.0663 48.8722C76.8769 49.2794 76.7822 49.7765 76.7822 50.3636C76.7822 50.9555 76.8769 51.455 77.0663 51.8622C77.258 52.2694 77.5196 52.5772 77.8511 52.7855C78.1825 52.9938 78.5554 53.098 78.9697 53.098C79.1993 53.098 79.4171 53.0672 79.6231 53.0057C79.8314 52.9418 80.0196 52.8482 80.1877 52.7251C80.3558 52.602 80.4978 52.4517 80.6138 52.2741C80.7322 52.0942 80.8139 51.8883 80.8589 51.6562L81.9668 51.6598C81.9076 52.0173 81.7928 52.3464 81.6224 52.647C81.4543 52.9453 81.2377 53.2034 80.9725 53.4212C80.7097 53.6366 80.4091 53.8035 80.0705 53.9219C79.732 54.0402 79.3627 54.0994 78.9626 54.0994C78.3328 54.0994 77.7718 53.9503 77.2793 53.652C76.7869 53.3513 76.3987 52.9216 76.1146 52.3629C75.8328 51.8042 75.692 51.1378 75.692 50.3636C75.692 49.5871 75.834 48.9207 76.1181 48.3643C76.4022 47.8056 76.7905 47.3771 77.2829 47.0788C77.7753 46.7782 78.3352 46.6278 78.9626 46.6278C79.3485 46.6278 79.7083 46.6835 80.0421 46.7947C80.3783 46.9036 80.6801 47.0646 80.9477 47.2777C81.2152 47.4884 81.4365 47.7464 81.6117 48.0518C81.7869 48.3549 81.9053 48.7017 81.9668 49.0923ZM84.6564 46.7273V54H83.5946V46.7273H84.6564ZM86.4849 54V48.5455H87.5467V54H86.4849ZM87.0211 47.7038C86.8364 47.7038 86.6778 47.6423 86.5452 47.5192C86.415 47.3937 86.3499 47.2446 86.3499 47.0717C86.3499 46.8965 86.415 46.7474 86.5452 46.6243C86.6778 46.4988 86.8364 46.4361 87.0211 46.4361C87.2058 46.4361 87.3632 46.4988 87.4934 46.6243C87.626 46.7474 87.6923 46.8965 87.6923 47.0717C87.6923 47.2446 87.626 47.3937 87.4934 47.5192C87.3632 47.6423 87.2058 47.7038 87.0211 47.7038ZM91.726 54.1101C91.1886 54.1101 90.7257 53.9953 90.3375 53.7656C89.9516 53.5336 89.6533 53.2081 89.4426 52.7891C89.2342 52.3677 89.1301 51.8741 89.1301 51.3082C89.1301 50.7495 89.2342 50.2571 89.4426 49.831C89.6533 49.4048 89.9468 49.0722 90.3233 48.8331C90.702 48.594 91.1448 48.4744 91.6514 48.4744C91.9591 48.4744 92.2574 48.5253 92.5463 48.6271C92.8351 48.7289 93.0943 48.8887 93.324 49.1065C93.5536 49.3243 93.7347 49.6072 93.8673 49.9553C93.9999 50.3009 94.0662 50.7211 94.0662 51.2159V51.5923H89.7302V50.7969H93.0257C93.0257 50.5175 92.9689 50.2701 92.8552 50.0547C92.7416 49.8369 92.5818 49.6652 92.3758 49.5398C92.1722 49.4143 91.9331 49.3516 91.6585 49.3516C91.3602 49.3516 91.0998 49.425 90.8772 49.5717C90.6571 49.7161 90.4866 49.9055 90.3659 50.1399C90.2475 50.3719 90.1883 50.6241 90.1883 50.8963V51.5178C90.1883 51.8823 90.2522 52.1925 90.3801 52.4482C90.5103 52.7038 90.6914 52.8991 90.9234 53.0341C91.1554 53.1667 91.4265 53.233 91.7366 53.233C91.9378 53.233 92.1213 53.2045 92.287 53.1477C92.4528 53.0885 92.596 53.0009 92.7167 52.8849C92.8375 52.7689 92.9298 52.6257 92.9937 52.4553L93.9987 52.6364C93.9182 52.9323 93.7738 53.1915 93.5654 53.4141C93.3595 53.6342 93.1002 53.8059 92.7877 53.929C92.4776 54.0497 92.1237 54.1101 91.726 54.1101ZM96.706 50.7614V54H95.6442V48.5455H96.6634V49.4332H96.7309C96.8564 49.1444 97.0529 48.9124 97.3204 48.7372C97.5903 48.562 97.93 48.4744 98.3396 48.4744C98.7112 48.4744 99.0368 48.5526 99.3161 48.7088C99.5955 48.8627 99.8121 49.0923 99.966 49.3977C100.12 49.7031 100.197 50.0807 100.197 50.5305V54H99.135V50.6584C99.135 50.263 99.032 49.9541 98.8261 49.7315C98.6201 49.5066 98.3372 49.3942 97.9773 49.3942C97.7311 49.3942 97.5121 49.4474 97.3204 49.554C97.131 49.6605 96.9807 49.8168 96.8694 50.0227C96.7605 50.2263 96.706 50.4725 96.706 50.7614ZM104.567 48.5455V49.3977H101.588V48.5455H104.567ZM102.387 47.2386H103.448V52.3984C103.448 52.6044 103.479 52.7595 103.541 52.8636C103.602 52.9654 103.682 53.0353 103.779 53.0732C103.878 53.1087 103.986 53.1264 104.102 53.1264C104.187 53.1264 104.262 53.1205 104.325 53.1087C104.389 53.0968 104.439 53.0874 104.475 53.0803L104.666 53.9574C104.605 53.9811 104.517 54.0047 104.404 54.0284C104.29 54.0545 104.148 54.0687 103.977 54.071C103.698 54.0758 103.438 54.026 103.196 53.9219C102.955 53.8177 102.759 53.6567 102.61 53.4389C102.461 53.2211 102.387 52.9477 102.387 52.6186V47.2386ZM110.141 49.8771L109.179 50.0476C109.138 49.9245 109.074 49.8073 108.987 49.696C108.902 49.5848 108.786 49.4936 108.639 49.4226C108.492 49.3516 108.309 49.3161 108.088 49.3161C107.788 49.3161 107.537 49.3835 107.336 49.5185C107.134 49.651 107.034 49.8227 107.034 50.0334C107.034 50.2157 107.101 50.3625 107.236 50.4737C107.371 50.585 107.589 50.6761 107.89 50.7472L108.756 50.946C109.258 51.062 109.632 51.2408 109.878 51.4822C110.124 51.7237 110.248 52.0374 110.248 52.4233C110.248 52.75 110.153 53.0412 109.963 53.2969C109.776 53.5502 109.515 53.7491 109.179 53.8935C108.845 54.0379 108.458 54.1101 108.017 54.1101C107.407 54.1101 106.908 53.9799 106.522 53.7195C106.136 53.4567 105.9 53.0838 105.812 52.6009L106.838 52.4446C106.902 52.7121 107.034 52.9145 107.233 53.0518C107.431 53.1868 107.691 53.2543 108.01 53.2543C108.358 53.2543 108.636 53.1821 108.845 53.0376C109.053 52.8909 109.157 52.7121 109.157 52.5014C109.157 52.331 109.093 52.1877 108.966 52.0717C108.84 51.9557 108.647 51.8681 108.387 51.8089L107.463 51.6065C106.954 51.4905 106.578 51.3059 106.334 51.0526C106.093 50.7992 105.972 50.4785 105.972 50.0902C105.972 49.7682 106.062 49.4865 106.242 49.245C106.422 49.0036 106.67 48.8153 106.988 48.6804C107.305 48.5431 107.668 48.4744 108.078 48.4744C108.667 48.4744 109.131 48.6023 109.47 48.858C109.808 49.1113 110.032 49.451 110.141 49.8771Z" fill="url(#paint2_linear_5779_11386)" fill-opacity="0.7"/>
<path d="M54.74 91V89.06H52.8V87.93H54.74V86H55.87V87.93H57.8V89.06H55.87V91H54.74ZM60.3316 91V84.71H58.8916V83.55H61.6916V91H60.3316ZM63.3548 91L66.4548 84.7H62.9448V83.55H67.8848V84.7L64.8548 91H63.3548ZM68.6807 91V89.97L70.7007 87.86C71.1007 87.44 71.4074 87.1067 71.6207 86.86C71.8407 86.6067 71.994 86.39 72.0807 86.21C72.1674 86.03 72.2107 85.8467 72.2107 85.66C72.2107 85.3467 72.1107 85.1 71.9107 84.92C71.7174 84.74 71.4674 84.65 71.1607 84.65C70.8407 84.65 70.564 84.7433 70.3307 84.93C70.0974 85.11 69.9274 85.3767 69.8207 85.73L68.6307 85.36C68.7107 84.9667 68.874 84.6267 69.1207 84.34C69.3674 84.0467 69.6674 83.8233 70.0207 83.67C70.3807 83.51 70.7607 83.43 71.1607 83.43C71.6407 83.43 72.0607 83.5167 72.4207 83.69C72.7874 83.8633 73.0707 84.1067 73.2707 84.42C73.4774 84.7333 73.5807 85.1 73.5807 85.52C73.5807 85.7867 73.5307 86.05 73.4307 86.31C73.3307 86.57 73.1807 86.8367 72.9807 87.11C72.7807 87.3767 72.5207 87.6767 72.2007 88.01L70.4507 89.85H73.6807V91H68.6807Z" fill="#F9911F"/>
<path d="M78.2948 92.7C77.7348 92.0467 77.3115 91.3367 77.0248 90.57C76.7448 89.8033 76.6048 88.9867 76.6048 88.12C76.6048 87.2533 76.7448 86.4367 77.0248 85.67C77.3048 84.9033 77.7282 84.1967 78.2948 83.55H79.3948C78.9148 84.2633 78.5548 85.0033 78.3148 85.77C78.0815 86.53 77.9648 87.3133 77.9648 88.12C77.9648 88.9267 78.0848 89.7133 78.3248 90.48C78.5648 91.2467 78.9215 91.9867 79.3948 92.7H78.2948ZM82.4939 91V89.06H80.5539V87.93H82.4939V86H83.6239V87.93H85.5539V89.06H83.6239V91H82.4939ZM88.0855 91V84.71H86.6455V83.55H89.4455V91H88.0855ZM92.1187 91V84.71H90.6787V83.55H93.4787V91H92.1187ZM95.9519 91L101.992 83.55H103.392L97.3519 91H95.9519ZM97.1119 87.33C96.7452 87.33 96.4119 87.2433 96.1119 87.07C95.8185 86.89 95.5852 86.6533 95.4119 86.36C95.2385 86.0667 95.1519 85.74 95.1519 85.38C95.1519 85.02 95.2385 84.6933 95.4119 84.4C95.5852 84.1 95.8185 83.8633 96.1119 83.69C96.4119 83.5167 96.7452 83.43 97.1119 83.43C97.4852 83.43 97.8185 83.5167 98.1119 83.69C98.4052 83.8633 98.6385 84.1 98.8119 84.4C98.9852 84.6933 99.0719 85.02 99.0719 85.38C99.0719 85.74 98.9852 86.0667 98.8119 86.36C98.6385 86.6533 98.4052 86.89 98.1119 87.07C97.8185 87.2433 97.4852 87.33 97.1119 87.33ZM97.1119 86.32C97.3119 86.32 97.4785 86.2767 97.6119 86.19C97.7452 86.0967 97.8452 85.98 97.9119 85.84C97.9852 85.6933 98.0219 85.54 98.0219 85.38C98.0219 85.2133 97.9852 85.06 97.9119 84.92C97.8452 84.78 97.7452 84.6633 97.6119 84.57C97.4785 84.4767 97.3119 84.43 97.1119 84.43C96.9252 84.43 96.7619 84.4767 96.6219 84.57C96.4885 84.6633 96.3852 84.7833 96.3119 84.93C96.2385 85.07 96.2019 85.22 96.2019 85.38C96.2019 85.5333 96.2385 85.6833 96.3119 85.83C96.3852 85.9767 96.4885 86.0967 96.6219 86.19C96.7619 86.2767 96.9252 86.32 97.1119 86.32ZM102.192 91.12C101.825 91.12 101.492 91.0333 101.192 90.86C100.899 90.68 100.665 90.4433 100.492 90.15C100.319 89.8567 100.232 89.53 100.232 89.17C100.232 88.81 100.319 88.4833 100.492 88.19C100.665 87.89 100.899 87.6533 101.192 87.48C101.492 87.3067 101.825 87.22 102.192 87.22C102.565 87.22 102.899 87.3067 103.192 87.48C103.485 87.6533 103.719 87.89 103.892 88.19C104.065 88.4833 104.152 88.81 104.152 89.17C104.152 89.53 104.065 89.8567 103.892 90.15C103.719 90.4433 103.485 90.68 103.192 90.86C102.899 91.0333 102.565 91.12 102.192 91.12ZM102.192 90.11C102.385 90.11 102.549 90.0667 102.682 89.98C102.822 89.8867 102.925 89.77 102.992 89.63C103.065 89.4833 103.102 89.33 103.102 89.17C103.102 89.0033 103.065 88.85 102.992 88.71C102.925 88.57 102.822 88.4533 102.682 88.36C102.549 88.2667 102.385 88.22 102.192 88.22C102.005 88.22 101.842 88.2667 101.702 88.36C101.569 88.4533 101.465 88.5733 101.392 88.72C101.319 88.86 101.282 89.01 101.282 89.17C101.282 89.3233 101.319 89.4733 101.392 89.62C101.465 89.7667 101.569 89.8867 101.702 89.98C101.842 90.0667 102.005 90.11 102.192 90.11ZM105.251 92.7C105.724 91.9867 106.078 91.2467 106.311 90.48C106.551 89.7133 106.671 88.9267 106.671 88.12C106.671 87.3133 106.551 86.53 106.311 85.77C106.078 85.0033 105.724 84.2633 105.251 83.55H106.351C106.911 84.1967 107.331 84.9033 107.611 85.67C107.891 86.4367 108.031 87.2533 108.031 88.12C108.031 88.9867 107.891 89.8033 107.611 90.57C107.331 91.3367 106.911 92.0467 106.351 92.7H105.251Z" fill="white" fill-opacity="0.8"/>
<rect x="52" y="67" width="80" height="4" rx="2" fill="#E3E7ED" fill-opacity="0.3"/>
<g filter="url(#filter1_bd_5779_11386)">
<rect x="52" y="67" width="60" height="4" rx="2" fill="url(#paint3_linear_5779_11386)" shape-rendering="crispEdges"/>
<rect x="52.5" y="67.5" width="59" height="3" rx="1.5" stroke="url(#paint4_linear_5779_11386)" shape-rendering="crispEdges"/>
</g>
<path d="M150.74 91V89.06H148.8V87.93H150.74V86H151.87V87.93H153.8V89.06H151.87V91H150.74ZM156.332 91V84.71H154.892V83.55H157.692V91H156.332ZM160.365 91V84.71H158.925V83.55H161.725V91H160.365ZM166.208 91.12C165.615 91.12 165.095 90.96 164.648 90.64C164.201 90.32 163.851 89.87 163.598 89.29C163.351 88.71 163.228 88.0367 163.228 87.27C163.228 86.4967 163.351 85.8233 163.598 85.25C163.845 84.6767 164.191 84.23 164.638 83.91C165.085 83.59 165.605 83.43 166.198 83.43C166.805 83.43 167.328 83.59 167.768 83.91C168.215 84.23 168.565 84.68 168.818 85.26C169.071 85.8333 169.198 86.5033 169.198 87.27C169.198 88.0367 169.071 88.71 168.818 89.29C168.571 89.8633 168.225 90.3133 167.778 90.64C167.331 90.96 166.808 91.12 166.208 91.12ZM166.218 89.88C166.558 89.88 166.848 89.7767 167.088 89.57C167.328 89.3567 167.511 89.0567 167.638 88.67C167.771 88.2767 167.838 87.81 167.838 87.27C167.838 86.73 167.771 86.2667 167.638 85.88C167.511 85.4867 167.325 85.1867 167.078 84.98C166.838 84.7733 166.545 84.67 166.198 84.67C165.865 84.67 165.578 84.7733 165.338 84.98C165.098 85.1867 164.911 85.4867 164.778 85.88C164.651 86.2667 164.588 86.73 164.588 87.27C164.588 87.8033 164.651 88.2667 164.778 88.66C164.911 89.0467 165.098 89.3467 165.338 89.56C165.585 89.7733 165.878 89.88 166.218 89.88Z" fill="#6AEB2A" fill-opacity="0.8"/>
<path d="M173.855 92.7C173.295 92.0467 172.872 91.3367 172.585 90.57C172.305 89.8033 172.165 88.9867 172.165 88.12C172.165 87.2533 172.305 86.4367 172.585 85.67C172.865 84.9033 173.289 84.1967 173.855 83.55H174.955C174.475 84.2633 174.115 85.0033 173.875 85.77C173.642 86.53 173.525 87.3133 173.525 88.12C173.525 88.9267 173.645 89.7133 173.885 90.48C174.125 91.2467 174.482 91.9867 174.955 92.7H173.855ZM178.054 91V89.06H176.114V87.93H178.054V86H179.184V87.93H181.114V89.06H179.184V91H178.054ZM182.376 91V89.97L184.396 87.86C184.796 87.44 185.103 87.1067 185.316 86.86C185.536 86.6067 185.689 86.39 185.776 86.21C185.863 86.03 185.906 85.8467 185.906 85.66C185.906 85.3467 185.806 85.1 185.606 84.92C185.413 84.74 185.163 84.65 184.856 84.65C184.536 84.65 184.259 84.7433 184.026 84.93C183.793 85.11 183.623 85.3767 183.516 85.73L182.326 85.36C182.406 84.9667 182.569 84.6267 182.816 84.34C183.063 84.0467 183.363 83.8233 183.716 83.67C184.076 83.51 184.456 83.43 184.856 83.43C185.336 83.43 185.756 83.5167 186.116 83.69C186.483 83.8633 186.766 84.1067 186.966 84.42C187.173 84.7333 187.276 85.1 187.276 85.52C187.276 85.7867 187.226 86.05 187.126 86.31C187.026 86.57 186.876 86.8367 186.676 87.11C186.476 87.3767 186.216 87.6767 185.896 88.01L184.146 89.85H187.376V91H182.376ZM191.565 91V89.36H188.145V88.22L191.485 83.55H192.905V88.22H193.995V89.36H192.905V91H191.565ZM189.145 88.71L188.905 88.22H191.565V84.62L191.915 84.73L189.145 88.71ZM195.858 91L201.898 83.55H203.298L197.258 91H195.858ZM197.018 87.33C196.651 87.33 196.318 87.2433 196.018 87.07C195.725 86.89 195.491 86.6533 195.318 86.36C195.145 86.0667 195.058 85.74 195.058 85.38C195.058 85.02 195.145 84.6933 195.318 84.4C195.491 84.1 195.725 83.8633 196.018 83.69C196.318 83.5167 196.651 83.43 197.018 83.43C197.391 83.43 197.725 83.5167 198.018 83.69C198.311 83.8633 198.545 84.1 198.718 84.4C198.891 84.6933 198.978 85.02 198.978 85.38C198.978 85.74 198.891 86.0667 198.718 86.36C198.545 86.6533 198.311 86.89 198.018 87.07C197.725 87.2433 197.391 87.33 197.018 87.33ZM197.018 86.32C197.218 86.32 197.385 86.2767 197.518 86.19C197.651 86.0967 197.751 85.98 197.818 85.84C197.891 85.6933 197.928 85.54 197.928 85.38C197.928 85.2133 197.891 85.06 197.818 84.92C197.751 84.78 197.651 84.6633 197.518 84.57C197.385 84.4767 197.218 84.43 197.018 84.43C196.831 84.43 196.668 84.4767 196.528 84.57C196.395 84.6633 196.291 84.7833 196.218 84.93C196.145 85.07 196.108 85.22 196.108 85.38C196.108 85.5333 196.145 85.6833 196.218 85.83C196.291 85.9767 196.395 86.0967 196.528 86.19C196.668 86.2767 196.831 86.32 197.018 86.32ZM202.098 91.12C201.731 91.12 201.398 91.0333 201.098 90.86C200.805 90.68 200.571 90.4433 200.398 90.15C200.225 89.8567 200.138 89.53 200.138 89.17C200.138 88.81 200.225 88.4833 200.398 88.19C200.571 87.89 200.805 87.6533 201.098 87.48C201.398 87.3067 201.731 87.22 202.098 87.22C202.471 87.22 202.805 87.3067 203.098 87.48C203.391 87.6533 203.625 87.89 203.798 88.19C203.971 88.4833 204.058 88.81 204.058 89.17C204.058 89.53 203.971 89.8567 203.798 90.15C203.625 90.4433 203.391 90.68 203.098 90.86C202.805 91.0333 202.471 91.12 202.098 91.12ZM202.098 90.11C202.291 90.11 202.455 90.0667 202.588 89.98C202.728 89.8867 202.831 89.77 202.898 89.63C202.971 89.4833 203.008 89.33 203.008 89.17C203.008 89.0033 202.971 88.85 202.898 88.71C202.831 88.57 202.728 88.4533 202.588 88.36C202.455 88.2667 202.291 88.22 202.098 88.22C201.911 88.22 201.748 88.2667 201.608 88.36C201.475 88.4533 201.371 88.5733 201.298 88.72C201.225 88.86 201.188 89.01 201.188 89.17C201.188 89.3233 201.225 89.4733 201.298 89.62C201.371 89.7667 201.475 89.8867 201.608 89.98C201.748 90.0667 201.911 90.11 202.098 90.11ZM205.157 92.7C205.63 91.9867 205.984 91.2467 206.217 90.48C206.457 89.7133 206.577 88.9267 206.577 88.12C206.577 87.3133 206.457 86.53 206.217 85.77C205.984 85.0033 205.63 84.2633 205.157 83.55H206.257C206.817 84.1967 207.237 84.9033 207.517 85.67C207.797 86.4367 207.937 87.2533 207.937 88.12C207.937 88.9867 207.797 89.8033 207.517 90.57C207.237 91.3367 206.817 92.0467 206.257 92.7H205.157Z" fill="white" fill-opacity="0.8"/>
<path d="M148.015 54V46.7273H150.608C151.171 46.7273 151.639 46.8243 152.01 47.0185C152.384 47.2126 152.664 47.4813 152.849 47.8246C153.033 48.1655 153.125 48.5597 153.125 49.0071C153.125 49.4522 153.032 49.844 152.845 50.1825C152.66 50.5187 152.381 50.7803 152.007 50.9673C151.635 51.1544 151.168 51.2479 150.604 51.2479H148.64V50.3033H150.505C150.86 50.3033 151.149 50.2524 151.371 50.1506C151.596 50.0488 151.761 49.9008 151.865 49.7067C151.969 49.5125 152.021 49.2794 152.021 49.0071C152.021 48.7325 151.968 48.4946 151.861 48.2933C151.757 48.0921 151.593 47.9382 151.368 47.8317C151.145 47.7228 150.853 47.6683 150.491 47.6683H149.113V54H148.015ZM151.606 50.7188L153.402 54H152.152L150.391 50.7188H151.606ZM157.058 54.1101C156.521 54.1101 156.058 53.9953 155.669 53.7656C155.284 53.5336 154.985 53.2081 154.775 52.7891C154.566 52.3677 154.462 51.8741 154.462 51.3082C154.462 50.7495 154.566 50.2571 154.775 49.831C154.985 49.4048 155.279 49.0722 155.655 48.8331C156.034 48.594 156.477 48.4744 156.983 48.4744C157.291 48.4744 157.589 48.5253 157.878 48.6271C158.167 48.7289 158.426 48.8887 158.656 49.1065C158.886 49.3243 159.067 49.6072 159.199 49.9553C159.332 50.3009 159.398 50.7211 159.398 51.2159V51.5923H155.062V50.7969H158.358C158.358 50.5175 158.301 50.2701 158.187 50.0547C158.074 49.8369 157.914 49.6652 157.708 49.5398C157.504 49.4143 157.265 49.3516 156.991 49.3516C156.692 49.3516 156.432 49.425 156.209 49.5717C155.989 49.7161 155.819 49.9055 155.698 50.1399C155.58 50.3719 155.52 50.6241 155.52 50.8963V51.5178C155.52 51.8823 155.584 52.1925 155.712 52.4482C155.842 52.7038 156.023 52.8991 156.255 53.0341C156.487 53.1667 156.759 53.233 157.069 53.233C157.27 53.233 157.453 53.2045 157.619 53.1477C157.785 53.0885 157.928 53.0009 158.049 52.8849C158.169 52.7689 158.262 52.6257 158.326 52.4553L159.331 52.6364C159.25 52.9323 159.106 53.1915 158.897 53.4141C158.692 53.6342 158.432 53.8059 158.12 53.929C157.81 54.0497 157.456 54.1101 157.058 54.1101ZM163.522 48.5455V49.3977H160.543V48.5455H163.522ZM161.342 47.2386H162.404V52.3984C162.404 52.6044 162.435 52.7595 162.496 52.8636C162.558 52.9654 162.637 53.0353 162.734 53.0732C162.834 53.1087 162.941 53.1264 163.057 53.1264C163.142 53.1264 163.217 53.1205 163.281 53.1087C163.345 53.0968 163.395 53.0874 163.43 53.0803L163.622 53.9574C163.56 53.9811 163.473 54.0047 163.359 54.0284C163.245 54.0545 163.103 54.0687 162.933 54.071C162.654 54.0758 162.393 54.026 162.152 53.9219C161.91 53.8177 161.715 53.6567 161.566 53.4389C161.417 53.2211 161.342 52.9477 161.342 52.6186V47.2386ZM168.552 51.7379V48.5455H169.618V54H168.574V53.0554H168.517C168.391 53.3466 168.19 53.5893 167.913 53.7834C167.638 53.9751 167.296 54.071 166.887 54.071C166.536 54.071 166.226 53.9941 165.956 53.8402C165.689 53.6839 165.478 53.4531 165.324 53.1477C165.173 52.8423 165.097 52.4647 165.097 52.0149V48.5455H166.159V51.8871C166.159 52.2588 166.262 52.5547 166.468 52.7749C166.674 52.995 166.941 53.1051 167.27 53.1051C167.469 53.1051 167.667 53.0554 167.863 52.956C168.062 52.8565 168.227 52.7062 168.357 52.505C168.49 52.3037 168.555 52.0481 168.552 51.7379ZM171.444 54V48.5455H172.471V49.4119H172.527C172.627 49.1184 172.802 48.8875 173.053 48.7195C173.306 48.549 173.593 48.4638 173.912 48.4638C173.979 48.4638 174.057 48.4661 174.147 48.4709C174.239 48.4756 174.311 48.4815 174.363 48.4886V49.5043C174.321 49.4924 174.245 49.4794 174.136 49.4652C174.027 49.4486 173.918 49.4403 173.809 49.4403C173.558 49.4403 173.335 49.4936 173.138 49.6001C172.944 49.7043 172.79 49.8499 172.676 50.0369C172.563 50.2216 172.506 50.4323 172.506 50.669V54H171.444ZM176.744 50.7614V54H175.682V48.5455H176.701V49.4332H176.769C176.894 49.1444 177.091 48.9124 177.358 48.7372C177.628 48.562 177.968 48.4744 178.377 48.4744C178.749 48.4744 179.075 48.5526 179.354 48.7088C179.633 48.8627 179.85 49.0923 180.004 49.3977C180.158 49.7031 180.235 50.0807 180.235 50.5305V54H179.173V50.6584C179.173 50.263 179.07 49.9541 178.864 49.7315C178.658 49.5066 178.375 49.3942 178.015 49.3942C177.769 49.3942 177.55 49.4474 177.358 49.554C177.169 49.6605 177.019 49.8168 176.907 50.0227C176.798 50.2263 176.744 50.4725 176.744 50.7614ZM182.059 54V48.5455H183.12V54H182.059ZM182.595 47.7038C182.41 47.7038 182.252 47.6423 182.119 47.5192C181.989 47.3937 181.924 47.2446 181.924 47.0717C181.924 46.8965 181.989 46.7474 182.119 46.6243C182.252 46.4988 182.41 46.4361 182.595 46.4361C182.78 46.4361 182.937 46.4988 183.067 46.6243C183.2 46.7474 183.266 46.8965 183.266 47.0717C183.266 47.2446 183.2 47.3937 183.067 47.5192C182.937 47.6423 182.78 47.7038 182.595 47.7038ZM186.011 50.7614V54H184.949V48.5455H185.968V49.4332H186.036C186.161 49.1444 186.358 48.9124 186.625 48.7372C186.895 48.562 187.235 48.4744 187.644 48.4744C188.016 48.4744 188.341 48.5526 188.621 48.7088C188.9 48.8627 189.117 49.0923 189.271 49.3977C189.425 49.7031 189.501 50.0807 189.501 50.5305V54H188.44V50.6584C188.44 50.263 188.337 49.9541 188.131 49.7315C187.925 49.5066 187.642 49.3942 187.282 49.3942C187.036 49.3942 186.817 49.4474 186.625 49.554C186.436 49.6605 186.285 49.8168 186.174 50.0227C186.065 50.2263 186.011 50.4725 186.011 50.7614ZM193.612 56.1591C193.179 56.1591 192.806 56.1023 192.494 55.9886C192.184 55.875 191.93 55.7247 191.734 55.5376C191.537 55.3506 191.391 55.1458 191.294 54.9233L192.206 54.5469C192.27 54.651 192.355 54.7611 192.462 54.8771C192.571 54.9955 192.718 55.0961 192.902 55.179C193.089 55.2618 193.33 55.3033 193.623 55.3033C194.026 55.3033 194.358 55.205 194.621 55.0085C194.884 54.8144 195.015 54.5043 195.015 54.0781V53.0057H194.948C194.884 53.1217 194.791 53.2507 194.671 53.3928C194.552 53.5348 194.389 53.6579 194.181 53.7621C193.972 53.8662 193.701 53.9183 193.367 53.9183C192.937 53.9183 192.548 53.8177 192.203 53.6165C191.859 53.4129 191.587 53.1134 191.386 52.718C191.187 52.3203 191.088 51.8314 191.088 51.2514C191.088 50.6714 191.186 50.1742 191.382 49.7599C191.581 49.3456 191.853 49.0284 192.199 48.8082C192.545 48.5857 192.937 48.4744 193.375 48.4744C193.713 48.4744 193.986 48.5312 194.195 48.6449C194.403 48.7562 194.565 48.8864 194.681 49.0355C194.8 49.1847 194.891 49.3161 194.955 49.4297H195.033V48.5455H196.073V54.1207C196.073 54.5895 195.964 54.9742 195.747 55.2749C195.529 55.5755 195.234 55.7981 194.862 55.9425C194.493 56.0869 194.076 56.1591 193.612 56.1591ZM193.602 53.0376C193.907 53.0376 194.165 52.9666 194.376 52.8246C194.589 52.6802 194.75 52.4742 194.859 52.2067C194.97 51.9368 195.026 51.6136 195.026 51.2372C195.026 50.8703 194.971 50.5471 194.862 50.2678C194.754 49.9884 194.594 49.7706 194.383 49.6143C194.172 49.4557 193.912 49.3764 193.602 49.3764C193.282 49.3764 193.016 49.4593 192.803 49.625C192.59 49.7884 192.429 50.0109 192.32 50.2926C192.213 50.5743 192.16 50.8892 192.16 51.2372C192.16 51.5947 192.214 51.9084 192.323 52.1783C192.432 52.4482 192.593 52.6589 192.806 52.8104C193.022 52.9619 193.287 53.0376 193.602 53.0376Z" fill="url(#paint5_linear_5779_11386)" fill-opacity="0.7"/>
<rect x="148" y="67" width="80" height="4" rx="2" fill="#E3E7ED" fill-opacity="0.3"/>
<g filter="url(#filter2_bd_5779_11386)">
<rect x="148" y="67" width="50" height="4" rx="2" fill="url(#paint6_linear_5779_11386)" shape-rendering="crispEdges"/>
<rect x="148.5" y="67.5" width="49" height="3" rx="1.5" stroke="url(#paint7_linear_5779_11386)" shape-rendering="crispEdges"/>
</g>
<defs>
<filter id="filter0_bd_5779_11386" x="0" y="0" width="282" height="162" filterUnits="userSpaceOnUse" color-interpolation-filters="sRGB">
<feFlood flood-opacity="0" result="BackgroundImageFix"/>
<feGaussianBlur in="BackgroundImageFix" stdDeviation="7"/>
<feComposite in2="SourceAlpha" operator="in" result="effect1_backgroundBlur_5779_11386"/>
<feColorMatrix in="SourceAlpha" type="matrix" values="0 0 0 0 0 0 0 0 0 0 0 0 0 0 0 0 0 0 127 0" result="hardAlpha"/>
<feOffset dy="12"/>
<feGaussianBlur stdDeviation="18"/>
<feComposite in2="hardAlpha" operator="out"/>
<feColorMatrix type="matrix" values="0 0 0 0 0.0741111 0 0 0 0 0.0853889 0 0 0 0 0.0966667 0 0 0 0.35 0"/>
<feBlend mode="normal" in2="effect1_backgroundBlur_5779_11386" result="effect2_dropShadow_5779_11386"/>
<feBlend mode="normal" in="SourceGraphic" in2="effect2_dropShadow_5779_11386" result="shape"/>
</filter>
<filter id="filter1_bd_5779_11386" x="16" y="43" width="132" height="76" filterUnits="userSpaceOnUse" color-interpolation-filters="sRGB">
<feFlood flood-opacity="0" result="BackgroundImageFix"/>
<feGaussianBlur in="BackgroundImageFix" stdDeviation="7"/>
<feComposite in2="SourceAlpha" operator="in" result="effect1_backgroundBlur_5779_11386"/>
<feColorMatrix in="SourceAlpha" type="matrix" values="0 0 0 0 0 0 0 0 0 0 0 0 0 0 0 0 0 0 127 0" result="hardAlpha"/>
<feOffset dy="12"/>
<feGaussianBlur stdDeviation="18"/>
<feComposite in2="hardAlpha" operator="out"/>
<feColorMatrix type="matrix" values="0 0 0 0 0.525833 0 0 0 0 0.525833 0 0 0 0 0.525833 0 0 0 0.25 0"/>
<feBlend mode="normal" in2="effect1_backgroundBlur_5779_11386" result="effect2_dropShadow_5779_11386"/>
<feBlend mode="normal" in="SourceGraphic" in2="effect2_dropShadow_5779_11386" result="shape"/>
</filter>
<filter id="filter2_bd_5779_11386" x="112" y="43" width="122" height="76" filterUnits="userSpaceOnUse" color-interpolation-filters="sRGB">
<feFlood flood-opacity="0" result="BackgroundImageFix"/>
<feGaussianBlur in="BackgroundImageFix" stdDeviation="7"/>
<feComposite in2="SourceAlpha" operator="in" result="effect1_backgroundBlur_5779_11386"/>
<feColorMatrix in="SourceAlpha" type="matrix" values="0 0 0 0 0 0 0 0 0 0 0 0 0 0 0 0 0 0 127 0" result="hardAlpha"/>
<feOffset dy="12"/>
<feGaussianBlur stdDeviation="18"/>
<feComposite in2="hardAlpha" operator="out"/>
<feColorMatrix type="matrix" values="0 0 0 0 0.525833 0 0 0 0 0.525833 0 0 0 0 0.525833 0 0 0 0.25 0"/>
<feBlend mode="normal" in2="effect1_backgroundBlur_5779_11386" result="effect2_dropShadow_5779_11386"/>
<feBlend mode="normal" in="SourceGraphic" in2="effect2_dropShadow_5779_11386" result="shape"/>
</filter>
<linearGradient id="paint0_linear_5779_11386" x1="41.8779" y1="24" x2="78.5585" y2="161.408" gradientUnits="userSpaceOnUse">
<stop stop-color="white" stop-opacity="0.6"/>
<stop offset="0.0001" stop-color="white" stop-opacity="0.5"/>
<stop offset="1" stop-color="white" stop-opacity="0"/>
</linearGradient>
<linearGradient id="paint1_linear_5779_11386" x1="256.954" y1="115.521" x2="218.786" y2="-25.4791" gradientUnits="userSpaceOnUse">
<stop stop-color="white" stop-opacity="0.5"/>
<stop offset="1" stop-color="white" stop-opacity="0"/>
</linearGradient>
<linearGradient id="paint2_linear_5779_11386" x1="43.9789" y1="47.5" x2="113.275" y2="67.0669" gradientUnits="userSpaceOnUse">
<stop offset="0.202647" stop-color="white"/>
<stop offset="1" stop-color="#F79023"/>
</linearGradient>
<linearGradient id="paint3_linear_5779_11386" x1="53.6794" y1="67" x2="53.9506" y2="73.531" gradientUnits="userSpaceOnUse">
<stop stop-color="#F9911F"/>
<stop offset="0.0001" stop-color="white" stop-opacity="0.5"/>
<stop offset="1" stop-color="#F9911F"/>
</linearGradient>
<linearGradient id="paint4_linear_5779_11386" x1="115.13" y1="71.0676" x2="114.847" y2="64.3536" gradientUnits="userSpaceOnUse">
<stop stop-color="white" stop-opacity="0.5"/>
<stop offset="1" stop-color="white" stop-opacity="0"/>
</linearGradient>
<linearGradient id="paint5_linear_5779_11386" x1="142.951" y1="47.5" x2="200.316" y2="60.5629" gradientUnits="userSpaceOnUse">
<stop offset="0.202647" stop-color="white"/>
<stop offset="1" stop-color="#67AF44"/>
</linearGradient>
<linearGradient id="paint6_linear_5779_11386" x1="149.399" y1="67" x2="149.725" y2="73.526" gradientUnits="userSpaceOnUse">
<stop stop-color="#66AE43"/>
<stop offset="0.0001" stop-color="white" stop-opacity="0.5"/>
<stop offset="1" stop-color="#67AE43"/>
</linearGradient>
<linearGradient id="paint7_linear_5779_11386" x1="200.608" y1="71.0676" x2="200.269" y2="64.3589" gradientUnits="userSpaceOnUse">
<stop stop-color="white" stop-opacity="0.5"/>
<stop offset="1" stop-color="white" stop-opacity="0"/>
</linearGradient>
</defs>
</svg>
