<svg width="40" height="40" viewBox="0 0 40 40" fill="none" xmlns="http://www.w3.org/2000/svg">
<g id="vuesax/bulk/device-message">
<g id="device-message">
<path id="Vector" d="M33.3335 20.3337V23.167C33.3335 28.417 30.3335 30.667 25.8335 30.667H10.8335C6.3335 30.667 3.3335 28.417 3.3335 23.167V14.167C3.3335 8.91699 6.3335 6.66699 10.8335 6.66699H15.3335C15.1168 7.30033 15.0002 8.00033 15.0002 8.75033V15.2504C15.0002 16.867 15.5335 18.2337 16.4835 19.1837C17.4335 20.1337 18.8002 20.667 20.4168 20.667V22.9836C20.4168 23.8336 21.3835 24.3504 22.1002 23.8837L26.9168 20.667H31.2502C32.0002 20.667 32.7002 20.5503 33.3335 20.3337Z" />
<path id="Vector_2" opacity="0.4" d="M36.6667 8.74967V15.2497C36.6667 17.733 35.4 19.5997 33.3333 20.333C32.7 20.5497 32 20.6664 31.25 20.6664H26.9167L22.1 23.883C21.3833 24.3497 20.4167 23.833 20.4167 22.983V20.6664C18.8 20.6664 17.4333 20.133 16.4833 19.183C15.5333 18.233 15 16.8664 15 15.2497V8.74967C15 7.99967 15.1167 7.29967 15.3333 6.66634C16.0667 4.59967 17.9333 3.33301 20.4167 3.33301H31.25C34.5 3.33301 36.6667 5.49967 36.6667 8.74967Z" />
<path id="Vector_3" opacity="0.4" d="M24.3335 35.417H19.5835V30.667C19.5835 29.9837 19.0168 29.417 18.3335 29.417C17.6502 29.417 17.0835 29.9837 17.0835 30.667V35.417H12.3335C11.6502 35.417 11.0835 35.9836 11.0835 36.667C11.0835 37.3503 11.6502 37.917 12.3335 37.917H24.3335C25.0168 37.917 25.5835 37.3503 25.5835 36.667C25.5835 35.9836 25.0168 35.417 24.3335 35.417Z" />
<g id="Group">
<path id="Vector_4" d="M25.7334 13.333C25.0334 13.333 24.4834 12.7663 24.4834 12.083C24.4834 11.3997 25.0501 10.833 25.7334 10.833C26.4167 10.833 26.9834 11.3997 26.9834 12.083C26.9834 12.7663 26.4167 13.333 25.7334 13.333Z" />
</g>
<g id="Group_2">
<path id="Vector_5" d="M30.4165 13.333C29.7165 13.333 29.1665 12.7663 29.1665 12.083C29.1665 11.3997 29.7332 10.833 30.4165 10.833C31.0998 10.833 31.6665 11.3997 31.6665 12.083C31.6665 12.7663 31.0998 13.333 30.4165 13.333Z" />
</g>
<g id="Group_3">
<path id="Vector_6" d="M21.0332 13.333C20.3332 13.333 19.7832 12.7663 19.7832 12.083C19.7832 11.3997 20.3499 10.833 21.0332 10.833C21.7165 10.833 22.2832 11.3997 22.2832 12.083C22.2832 12.7663 21.7332 13.333 21.0332 13.333Z" />
</g>
</g>
</g>
</svg>
