<svg width="40" height="40" viewBox="0 0 40 40" fill="none" xmlns="http://www.w3.org/2000/svg">
<g id="vuesax/bulk/graph">
<g id="graph">
<g id="graph_2">
<path id="Vector" d="M36.1169 11.583C35.0503 7.96634 32.0336 4.94968 28.4169 3.88301C25.6669 3.08301 23.7669 3.14968 22.4503 4.13301C20.8669 5.31634 20.6836 7.44968 20.6836 8.96634V13.1163C20.6836 17.2163 22.5503 19.2997 26.2169 19.2997H31.0003C32.5003 19.2997 34.6503 19.1163 35.8336 17.533C36.8503 16.233 36.9336 14.333 36.1169 11.583Z" />
<path id="Vector_2" opacity="0.4" d="M31.517 22.2659C31.0837 21.7659 30.4503 21.4826 29.8003 21.4826H23.8337C20.9003 21.4826 18.517 19.0993 18.517 16.1659V10.1993C18.517 9.54927 18.2337 8.91594 17.7337 8.48261C17.2503 8.04927 16.5837 7.84927 15.9503 7.93261C12.0337 8.43261 8.43365 10.5826 6.08365 13.8159C3.71699 17.0659 2.85032 21.0326 3.60032 24.9993C4.68365 30.7326 9.26699 35.3159 15.017 36.3993C15.9337 36.5826 16.8503 36.6659 17.767 36.6659C20.7837 36.6659 23.7003 35.7326 26.1837 33.9159C29.417 31.5659 31.567 27.9659 32.067 24.0493C32.1503 23.3993 31.9503 22.7493 31.517 22.2659Z" />
</g>
</g>
</g>
</svg>
