<svg width="254" height="142" viewBox="0 0 254 142" fill="none" xmlns="http://www.w3.org/2000/svg">
<g filter="url(#filter0_bd_5779_11359)">
<rect x="36" y="24" width="182" height="70" rx="35" fill="url(#paint0_linear_5779_11359)" fill-opacity="0.3" shape-rendering="crispEdges"/>
<rect x="36.5" y="24.5" width="181" height="69" rx="34.5" stroke="url(#paint1_linear_5779_11359)" shape-rendering="crispEdges"/>
</g>
<path d="M109.799 55V47.7273H112.391C112.957 47.7273 113.426 47.8303 113.798 48.0362C114.169 48.2422 114.447 48.5239 114.632 48.8814C114.817 49.2365 114.909 49.6366 114.909 50.0817C114.909 50.5291 114.816 50.9316 114.629 51.2891C114.444 51.6442 114.165 51.9259 113.79 52.1342C113.419 52.3402 112.951 52.4432 112.388 52.4432H110.605V51.5128H112.288C112.646 51.5128 112.936 51.4512 113.158 51.3281C113.381 51.2027 113.544 51.0322 113.648 50.8168C113.753 50.6013 113.805 50.3563 113.805 50.0817C113.805 49.8071 113.753 49.5632 113.648 49.3501C113.544 49.1371 113.38 48.9702 113.155 48.8494C112.932 48.7287 112.639 48.6683 112.274 48.6683H110.896V55H109.799ZM116.51 55V49.5455H117.537V50.4119H117.593C117.693 50.1184 117.868 49.8875 118.119 49.7195C118.372 49.549 118.659 49.4638 118.978 49.4638C119.045 49.4638 119.123 49.4661 119.213 49.4709C119.305 49.4756 119.377 49.4815 119.429 49.4886V50.5043C119.387 50.4924 119.311 50.4794 119.202 50.4652C119.093 50.4486 118.984 50.4403 118.875 50.4403C118.624 50.4403 118.401 50.4936 118.204 50.6001C118.01 50.7043 117.856 50.8499 117.743 51.0369C117.629 51.2216 117.572 51.4323 117.572 51.669V55H116.51ZM122.85 55.1101C122.339 55.1101 121.893 54.9929 121.512 54.7585C121.13 54.5241 120.835 54.1963 120.624 53.7749C120.413 53.3535 120.308 52.861 120.308 52.2976C120.308 51.7318 120.413 51.237 120.624 50.8132C120.835 50.3894 121.13 50.0604 121.512 49.826C121.893 49.5916 122.339 49.4744 122.85 49.4744C123.362 49.4744 123.808 49.5916 124.189 49.826C124.57 50.0604 124.866 50.3894 125.077 50.8132C125.288 51.237 125.393 51.7318 125.393 52.2976C125.393 52.861 125.288 53.3535 125.077 53.7749C124.866 54.1963 124.57 54.5241 124.189 54.7585C123.808 54.9929 123.362 55.1101 122.85 55.1101ZM122.854 54.2188C123.185 54.2188 123.46 54.1312 123.678 53.956C123.896 53.7808 124.057 53.5476 124.161 53.2564C124.267 52.9652 124.321 52.6444 124.321 52.294C124.321 51.946 124.267 51.6264 124.161 51.3352C124.057 51.0417 123.896 50.8061 123.678 50.6286C123.46 50.451 123.185 50.3622 122.854 50.3622C122.52 50.3622 122.243 50.451 122.023 50.6286C121.805 50.8061 121.643 51.0417 121.537 51.3352C121.432 51.6264 121.38 51.946 121.38 52.294C121.38 52.6444 121.432 52.9652 121.537 53.2564C121.643 53.5476 121.805 53.7808 122.023 53.956C122.243 54.1312 122.52 54.2188 122.854 54.2188ZM129.265 57.1591C128.832 57.1591 128.459 57.1023 128.147 56.9886C127.836 56.875 127.583 56.7247 127.387 56.5376C127.19 56.3506 127.043 56.1458 126.946 55.9233L127.859 55.5469C127.923 55.651 128.008 55.7611 128.115 55.8771C128.223 55.9955 128.37 56.0961 128.555 56.179C128.742 56.2618 128.982 56.3033 129.276 56.3033C129.678 56.3033 130.011 56.205 130.274 56.0085C130.536 55.8144 130.668 55.5043 130.668 55.0781V54.0057H130.6C130.536 54.1217 130.444 54.2507 130.323 54.3928C130.205 54.5348 130.042 54.6579 129.833 54.7621C129.625 54.8662 129.354 54.9183 129.02 54.9183C128.589 54.9183 128.201 54.8177 127.855 54.6165C127.512 54.4129 127.24 54.1134 127.039 53.718C126.84 53.3203 126.74 52.8314 126.74 52.2514C126.74 51.6714 126.839 51.1742 127.035 50.7599C127.234 50.3456 127.506 50.0284 127.852 49.8082C128.197 49.5857 128.589 49.4744 129.027 49.4744C129.366 49.4744 129.639 49.5312 129.848 49.6449C130.056 49.7562 130.218 49.8864 130.334 50.0355C130.452 50.1847 130.544 50.3161 130.607 50.4297H130.686V49.5455H131.726V55.1207C131.726 55.5895 131.617 55.9742 131.399 56.2749C131.182 56.5755 130.887 56.7981 130.515 56.9425C130.146 57.0869 129.729 57.1591 129.265 57.1591ZM129.255 54.0376C129.56 54.0376 129.818 53.9666 130.029 53.8246C130.242 53.6802 130.403 53.4742 130.512 53.2067C130.623 52.9368 130.679 52.6136 130.679 52.2372C130.679 51.8703 130.624 51.5471 130.515 51.2678C130.406 50.9884 130.246 50.7706 130.036 50.6143C129.825 50.4557 129.565 50.3764 129.255 50.3764C128.935 50.3764 128.669 50.4593 128.456 50.625C128.242 50.7884 128.081 51.0109 127.973 51.2926C127.866 51.5743 127.813 51.8892 127.813 52.2372C127.813 52.5947 127.867 52.9084 127.976 53.1783C128.085 53.4482 128.246 53.6589 128.459 53.8104C128.674 53.9619 128.94 54.0376 129.255 54.0376ZM133.55 55V49.5455H134.576V50.4119H134.633C134.733 50.1184 134.908 49.8875 135.159 49.7195C135.412 49.549 135.699 49.4638 136.018 49.4638C136.084 49.4638 136.163 49.4661 136.253 49.4709C136.345 49.4756 136.417 49.4815 136.469 49.4886V50.5043C136.427 50.4924 136.351 50.4794 136.242 50.4652C136.133 50.4486 136.024 50.4403 135.915 50.4403C135.664 50.4403 135.44 50.4936 135.244 50.6001C135.05 50.7043 134.896 50.8499 134.782 51.0369C134.669 51.2216 134.612 51.4323 134.612 51.669V55H133.55ZM139.944 55.1101C139.406 55.1101 138.943 54.9953 138.555 54.7656C138.169 54.5336 137.871 54.2081 137.66 53.7891C137.452 53.3677 137.348 52.8741 137.348 52.3082C137.348 51.7495 137.452 51.2571 137.66 50.831C137.871 50.4048 138.164 50.0722 138.541 49.8331C138.92 49.594 139.362 49.4744 139.869 49.4744C140.177 49.4744 140.475 49.5253 140.764 49.6271C141.053 49.7289 141.312 49.8887 141.542 50.1065C141.771 50.3243 141.952 50.6072 142.085 50.9553C142.217 51.3009 142.284 51.7211 142.284 52.2159V52.5923H137.948V51.7969H141.243C141.243 51.5175 141.186 51.2701 141.073 51.0547C140.959 50.8369 140.799 50.6652 140.593 50.5398C140.39 50.4143 140.151 50.3516 139.876 50.3516C139.578 50.3516 139.317 50.425 139.095 50.5717C138.875 50.7161 138.704 50.9055 138.583 51.1399C138.465 51.3719 138.406 51.6241 138.406 51.8963V52.5178C138.406 52.8823 138.47 53.1925 138.598 53.4482C138.728 53.7038 138.909 53.8991 139.141 54.0341C139.373 54.1667 139.644 54.233 139.954 54.233C140.155 54.233 140.339 54.2045 140.505 54.1477C140.67 54.0885 140.814 54.0009 140.934 53.8849C141.055 53.7689 141.147 53.6257 141.211 53.4553L142.216 53.6364C142.136 53.9323 141.991 54.1915 141.783 54.4141C141.577 54.6342 141.318 54.8059 141.005 54.929C140.695 55.0497 140.341 55.1101 139.944 55.1101ZM147.949 50.8771L146.987 51.0476C146.947 50.9245 146.883 50.8073 146.795 50.696C146.71 50.5848 146.594 50.4936 146.447 50.4226C146.3 50.3516 146.117 50.3161 145.897 50.3161C145.596 50.3161 145.345 50.3835 145.144 50.5185C144.943 50.651 144.842 50.8227 144.842 51.0334C144.842 51.2157 144.909 51.3625 145.044 51.4737C145.179 51.585 145.397 51.6761 145.698 51.7472L146.564 51.946C147.066 52.062 147.44 52.2408 147.686 52.4822C147.933 52.7237 148.056 53.0374 148.056 53.4233C148.056 53.75 147.961 54.0412 147.772 54.2969C147.585 54.5502 147.323 54.7491 146.987 54.8935C146.653 55.0379 146.266 55.1101 145.826 55.1101C145.215 55.1101 144.716 54.9799 144.331 54.7195C143.945 54.4567 143.708 54.0838 143.62 53.6009L144.647 53.4446C144.711 53.7121 144.842 53.9145 145.041 54.0518C145.24 54.1868 145.499 54.2543 145.819 54.2543C146.167 54.2543 146.445 54.1821 146.653 54.0376C146.861 53.8909 146.966 53.7121 146.966 53.5014C146.966 53.331 146.902 53.1877 146.774 53.0717C146.648 52.9557 146.455 52.8681 146.195 52.8089L145.272 52.6065C144.763 52.4905 144.386 52.3059 144.142 52.0526C143.901 51.7992 143.78 51.4785 143.78 51.0902C143.78 50.7682 143.87 50.4865 144.05 50.245C144.23 50.0036 144.479 49.8153 144.796 49.6804C145.113 49.5431 145.476 49.4744 145.886 49.4744C146.475 49.4744 146.939 49.6023 147.278 49.858C147.617 50.1113 147.84 50.451 147.949 50.8771ZM153.711 50.8771L152.748 51.0476C152.708 50.9245 152.644 50.8073 152.556 50.696C152.471 50.5848 152.355 50.4936 152.208 50.4226C152.062 50.3516 151.878 50.3161 151.658 50.3161C151.357 50.3161 151.106 50.3835 150.905 50.5185C150.704 50.651 150.603 50.8227 150.603 51.0334C150.603 51.2157 150.671 51.3625 150.806 51.4737C150.941 51.585 151.158 51.6761 151.459 51.7472L152.326 51.946C152.827 52.062 153.202 52.2408 153.448 52.4822C153.694 52.7237 153.817 53.0374 153.817 53.4233C153.817 53.75 153.722 54.0412 153.533 54.2969C153.346 54.5502 153.084 54.7491 152.748 54.8935C152.414 55.0379 152.027 55.1101 151.587 55.1101C150.976 55.1101 150.478 54.9799 150.092 54.7195C149.706 54.4567 149.469 54.0838 149.382 53.6009L150.408 53.4446C150.472 53.7121 150.603 53.9145 150.802 54.0518C151.001 54.1868 151.26 54.2543 151.58 54.2543C151.928 54.2543 152.206 54.1821 152.414 54.0376C152.623 53.8909 152.727 53.7121 152.727 53.5014C152.727 53.331 152.663 53.1877 152.535 53.0717C152.41 52.9557 152.217 52.8681 151.956 52.8089L151.033 52.6065C150.524 52.4905 150.148 52.3059 149.904 52.0526C149.662 51.7992 149.541 51.4785 149.541 51.0902C149.541 50.7682 149.631 50.4865 149.811 50.245C149.991 50.0036 150.24 49.8153 150.557 49.6804C150.874 49.5431 151.238 49.4744 151.647 49.4744C152.237 49.4744 152.701 49.6023 153.039 49.858C153.378 50.1113 153.602 50.451 153.711 50.8771ZM159.613 47.7273V55H158.516V47.7273H159.613ZM162.588 51.7614V55H161.526V49.5455H162.545V50.4332H162.613C162.738 50.1444 162.935 49.9124 163.202 49.7372C163.472 49.562 163.812 49.4744 164.222 49.4744C164.593 49.4744 164.919 49.5526 165.198 49.7088C165.478 49.8627 165.694 50.0923 165.848 50.3977C166.002 50.7031 166.079 51.0807 166.079 51.5305V55H165.017V51.6584C165.017 51.263 164.914 50.9541 164.708 50.7315C164.502 50.5066 164.219 50.3942 163.859 50.3942C163.613 50.3942 163.394 50.4474 163.202 50.554C163.013 50.6605 162.863 50.8168 162.751 51.0227C162.643 51.2263 162.588 51.4725 162.588 51.7614ZM175.001 49.6378C174.963 49.3016 174.807 49.0412 174.532 48.8565C174.258 48.6695 173.912 48.576 173.495 48.576C173.197 48.576 172.939 48.6233 172.721 48.718C172.504 48.8104 172.334 48.9382 172.214 49.1016C172.095 49.2625 172.036 49.446 172.036 49.652C172.036 49.8248 172.076 49.974 172.157 50.0994C172.24 50.2249 172.347 50.3303 172.48 50.4155C172.615 50.4983 172.759 50.5682 172.913 50.625C173.067 50.6795 173.215 50.7244 173.357 50.7599L174.067 50.9446C174.299 51.0014 174.537 51.0784 174.781 51.1754C175.025 51.2725 175.251 51.4003 175.459 51.5589C175.668 51.7176 175.836 51.9141 175.964 52.1484C176.094 52.3828 176.159 52.6634 176.159 52.9901C176.159 53.402 176.052 53.7678 175.839 54.0874C175.629 54.407 175.322 54.6591 174.919 54.8438C174.519 55.0284 174.035 55.1207 173.467 55.1207C172.923 55.1207 172.451 55.0343 172.054 54.8615C171.656 54.6887 171.345 54.4437 171.12 54.1264C170.895 53.8068 170.771 53.428 170.747 52.9901H171.848C171.869 53.2528 171.954 53.4718 172.103 53.647C172.255 53.8198 172.448 53.9489 172.682 54.0341C172.919 54.117 173.178 54.1584 173.46 54.1584C173.77 54.1584 174.046 54.1098 174.287 54.0128C174.531 53.9134 174.723 53.776 174.863 53.6009C175.002 53.4233 175.072 53.2161 175.072 52.9794C175.072 52.764 175.011 52.5876 174.888 52.4503C174.767 52.313 174.602 52.1993 174.394 52.1094C174.188 52.0194 173.955 51.9401 173.694 51.8714L172.835 51.6371C172.253 51.4785 171.791 51.2453 171.45 50.9375C171.111 50.6297 170.942 50.2225 170.942 49.7159C170.942 49.2969 171.056 48.9311 171.283 48.6186C171.51 48.3061 171.818 48.0634 172.206 47.8906C172.595 47.7154 173.033 47.6278 173.52 47.6278C174.013 47.6278 174.447 47.7143 174.824 47.8871C175.202 48.0599 175.501 48.2978 175.719 48.6009C175.936 48.9015 176.05 49.2472 176.059 49.6378H175.001ZM179.372 55.1207C179.027 55.1207 178.714 55.0568 178.435 54.929C178.155 54.7988 177.934 54.6106 177.771 54.3643C177.61 54.1181 177.529 53.8163 177.529 53.4588C177.529 53.151 177.588 52.8977 177.707 52.6989C177.825 52.5 177.985 52.3426 178.186 52.2266C178.387 52.1106 178.612 52.023 178.861 51.9638C179.109 51.9046 179.363 51.8596 179.621 51.8288C179.948 51.791 180.213 51.7602 180.416 51.7365C180.62 51.7105 180.768 51.669 180.86 51.6122C180.952 51.5554 180.999 51.4631 180.999 51.3352V51.3104C180.999 51.0002 180.911 50.7599 180.736 50.5895C180.563 50.419 180.305 50.3338 179.962 50.3338C179.604 50.3338 179.323 50.4131 179.117 50.5717C178.913 50.728 178.772 50.902 178.694 51.0938L177.696 50.8665C177.814 50.535 177.987 50.2675 178.215 50.0639C178.444 49.858 178.708 49.7088 179.006 49.6165C179.305 49.5218 179.618 49.4744 179.948 49.4744C180.165 49.4744 180.396 49.5005 180.64 49.5526C180.886 49.6023 181.116 49.6946 181.329 49.8295C181.544 49.9645 181.721 50.1574 181.858 50.4084C181.995 50.657 182.064 50.9801 182.064 51.3778V55H181.027V54.2543H180.984C180.916 54.3916 180.813 54.5265 180.675 54.6591C180.538 54.7917 180.362 54.9018 180.146 54.9893C179.931 55.0769 179.673 55.1207 179.372 55.1207ZM179.603 54.2685C179.897 54.2685 180.148 54.2105 180.356 54.0945C180.567 53.9785 180.726 53.8269 180.835 53.6399C180.947 53.4505 181.002 53.2481 181.002 53.0327V52.3295C180.964 52.3674 180.891 52.4029 180.782 52.4361C180.675 52.4669 180.554 52.4941 180.416 52.5178C180.279 52.5391 180.145 52.5592 180.015 52.5781C179.885 52.5947 179.776 52.6089 179.688 52.6207C179.482 52.6468 179.294 52.6906 179.124 52.7521C178.956 52.8137 178.821 52.9025 178.719 53.0185C178.619 53.1321 178.57 53.2836 178.57 53.473C178.57 53.7358 178.667 53.9347 178.861 54.0696C179.055 54.2022 179.302 54.2685 179.603 54.2685ZM184.94 47.7273V55H183.878V47.7273H184.94ZM189.119 55.1101C188.582 55.1101 188.119 54.9953 187.731 54.7656C187.345 54.5336 187.047 54.2081 186.836 53.7891C186.628 53.3677 186.523 52.8741 186.523 52.3082C186.523 51.7495 186.628 51.2571 186.836 50.831C187.047 50.4048 187.34 50.0722 187.717 49.8331C188.095 49.594 188.538 49.4744 189.045 49.4744C189.353 49.4744 189.651 49.5253 189.94 49.6271C190.228 49.7289 190.488 49.8887 190.717 50.1065C190.947 50.3243 191.128 50.6072 191.261 50.9553C191.393 51.3009 191.46 51.7211 191.46 52.2159V52.5923H187.124V51.7969H190.419C190.419 51.5175 190.362 51.2701 190.249 51.0547C190.135 50.8369 189.975 50.6652 189.769 50.5398C189.566 50.4143 189.326 50.3516 189.052 50.3516C188.754 50.3516 188.493 50.425 188.271 50.5717C188.05 50.7161 187.88 50.9055 187.759 51.1399C187.641 51.3719 187.582 51.6241 187.582 51.8963V52.5178C187.582 52.8823 187.646 53.1925 187.773 53.4482C187.904 53.7038 188.085 53.8991 188.317 54.0341C188.549 54.1667 188.82 54.233 189.13 54.233C189.331 54.233 189.515 54.2045 189.68 54.1477C189.846 54.0885 189.989 54.0009 190.11 53.8849C190.231 53.7689 190.323 53.6257 190.387 53.4553L191.392 53.6364C191.312 53.9323 191.167 54.1915 190.959 54.4141C190.753 54.6342 190.494 54.8059 190.181 54.929C189.871 55.0497 189.517 55.1101 189.119 55.1101ZM197.125 50.8771L196.163 51.0476C196.122 50.9245 196.058 50.8073 195.971 50.696C195.886 50.5848 195.77 50.4936 195.623 50.4226C195.476 50.3516 195.293 50.3161 195.072 50.3161C194.772 50.3161 194.521 50.3835 194.32 50.5185C194.118 50.651 194.018 50.8227 194.018 51.0334C194.018 51.2157 194.085 51.3625 194.22 51.4737C194.355 51.585 194.573 51.6761 194.874 51.7472L195.74 51.946C196.242 52.062 196.616 52.2408 196.862 52.4822C197.108 52.7237 197.232 53.0374 197.232 53.4233C197.232 53.75 197.137 54.0412 196.947 54.2969C196.76 54.5502 196.499 54.7491 196.163 54.8935C195.829 55.0379 195.442 55.1101 195.001 55.1101C194.391 55.1101 193.892 54.9799 193.506 54.7195C193.12 54.4567 192.884 54.0838 192.796 53.6009L193.822 53.4446C193.886 53.7121 194.018 53.9145 194.217 54.0518C194.415 54.1868 194.675 54.2543 194.994 54.2543C195.342 54.2543 195.62 54.1821 195.829 54.0376C196.037 53.8909 196.141 53.7121 196.141 53.5014C196.141 53.331 196.077 53.1877 195.95 53.0717C195.824 52.9557 195.631 52.8681 195.371 52.8089L194.447 52.6065C193.938 52.4905 193.562 52.3059 193.318 52.0526C193.077 51.7992 192.956 51.4785 192.956 51.0902C192.956 50.7682 193.046 50.4865 193.226 50.245C193.406 50.0036 193.654 49.8153 193.972 49.6804C194.289 49.5431 194.652 49.4744 195.062 49.4744C195.651 49.4744 196.115 49.6023 196.454 49.858C196.792 50.1113 197.016 50.451 197.125 50.8771ZM109.44 64.6719V63.7273H115.069V64.6719H112.8V71H111.706V64.6719H109.44ZM117.689 67.7614V71H116.627V63.7273H117.675V66.4332H117.743C117.87 66.1397 118.066 65.9065 118.328 65.7337C118.591 65.5608 118.935 65.4744 119.358 65.4744C119.732 65.4744 120.059 65.5514 120.338 65.7053C120.62 65.8591 120.838 66.0888 120.992 66.3942C121.148 66.6972 121.226 67.076 121.226 67.5305V71H120.164V67.6584C120.164 67.2583 120.061 66.9482 119.855 66.728C119.649 66.5054 119.363 66.3942 118.996 66.3942C118.745 66.3942 118.52 66.4474 118.321 66.554C118.125 66.6605 117.97 66.8168 117.856 67.0227C117.745 67.2263 117.689 67.4725 117.689 67.7614ZM123.043 71V65.5455H124.105V71H123.043ZM123.579 64.7038C123.395 64.7038 123.236 64.6423 123.103 64.5192C122.973 64.3937 122.908 64.2446 122.908 64.0717C122.908 63.8965 122.973 63.7474 123.103 63.6243C123.236 63.4988 123.395 63.4361 123.579 63.4361C123.764 63.4361 123.921 63.4988 124.052 63.6243C124.184 63.7474 124.25 63.8965 124.25 64.0717C124.25 64.2446 124.184 64.3937 124.052 64.5192C123.921 64.6423 123.764 64.7038 123.579 64.7038ZM130.021 66.8771L129.058 67.0476C129.018 66.9245 128.954 66.8073 128.867 66.696C128.781 66.5848 128.665 66.4936 128.519 66.4226C128.372 66.3516 128.188 66.3161 127.968 66.3161C127.667 66.3161 127.417 66.3835 127.215 66.5185C127.014 66.651 126.913 66.8227 126.913 67.0334C126.913 67.2157 126.981 67.3625 127.116 67.4737C127.251 67.585 127.469 67.6761 127.769 67.7472L128.636 67.946C129.138 68.062 129.512 68.2408 129.758 68.4822C130.004 68.7237 130.127 69.0374 130.127 69.4233C130.127 69.75 130.033 70.0412 129.843 70.2969C129.656 70.5502 129.394 70.7491 129.058 70.8935C128.725 71.0379 128.337 71.1101 127.897 71.1101C127.286 71.1101 126.788 70.9799 126.402 70.7195C126.016 70.4567 125.779 70.0838 125.692 69.6009L126.718 69.4446C126.782 69.7121 126.913 69.9145 127.112 70.0518C127.311 70.1868 127.57 70.2543 127.89 70.2543C128.238 70.2543 128.516 70.1821 128.725 70.0376C128.933 69.8909 129.037 69.7121 129.037 69.5014C129.037 69.331 128.973 69.1877 128.845 69.0717C128.72 68.9557 128.527 68.8681 128.266 68.8089L127.343 68.6065C126.834 68.4905 126.458 68.3059 126.214 68.0526C125.972 67.7992 125.852 67.4785 125.852 67.0902C125.852 66.7682 125.942 66.4865 126.122 66.245C126.301 66.0036 126.55 65.8153 126.867 65.6804C127.184 65.5431 127.548 65.4744 127.957 65.4744C128.547 65.4744 129.011 65.6023 129.35 65.858C129.688 66.1113 129.912 66.451 130.021 66.8771ZM134.826 63.7273H136.158L138.473 69.3807H138.559L140.874 63.7273H142.206V71H141.162V65.7372H141.094L138.949 70.9893H138.083L135.938 65.7337H135.87V71H134.826V63.7273ZM146.413 71.1101C145.902 71.1101 145.456 70.9929 145.075 70.7585C144.693 70.5241 144.397 70.1963 144.187 69.7749C143.976 69.3535 143.871 68.861 143.871 68.2976C143.871 67.7318 143.976 67.237 144.187 66.8132C144.397 66.3894 144.693 66.0604 145.075 65.826C145.456 65.5916 145.902 65.4744 146.413 65.4744C146.925 65.4744 147.371 65.5916 147.752 65.826C148.133 66.0604 148.429 66.3894 148.64 66.8132C148.851 67.237 148.956 67.7318 148.956 68.2976C148.956 68.861 148.851 69.3535 148.64 69.7749C148.429 70.1963 148.133 70.5241 147.752 70.7585C147.371 70.9929 146.925 71.1101 146.413 71.1101ZM146.417 70.2188C146.748 70.2188 147.023 70.1312 147.241 69.956C147.459 69.7808 147.62 69.5476 147.724 69.2564C147.83 68.9652 147.883 68.6444 147.883 68.294C147.883 67.946 147.83 67.6264 147.724 67.3352C147.62 67.0417 147.459 66.8061 147.241 66.6286C147.023 66.451 146.748 66.3622 146.417 66.3622C146.083 66.3622 145.806 66.451 145.586 66.6286C145.368 66.8061 145.206 67.0417 145.099 67.3352C144.995 67.6264 144.943 67.946 144.943 68.294C144.943 68.6444 144.995 68.9652 145.099 69.2564C145.206 69.5476 145.368 69.7808 145.586 69.956C145.806 70.1312 146.083 70.2188 146.417 70.2188ZM151.603 67.7614V71H150.541V65.5455H151.56V66.4332H151.628C151.753 66.1444 151.95 65.9124 152.217 65.7372C152.487 65.562 152.827 65.4744 153.236 65.4744C153.608 65.4744 153.934 65.5526 154.213 65.7088C154.492 65.8627 154.709 66.0923 154.863 66.3977C155.017 66.7031 155.094 67.0807 155.094 67.5305V71H154.032V67.6584C154.032 67.263 153.929 66.9541 153.723 66.7315C153.517 66.5066 153.234 66.3942 152.874 66.3942C152.628 66.3942 152.409 66.4474 152.217 66.554C152.028 66.6605 151.878 66.8168 151.766 67.0227C151.657 67.2263 151.603 67.4725 151.603 67.7614ZM159.464 65.5455V66.3977H156.484V65.5455H159.464ZM157.283 64.2386H158.345V69.3984C158.345 69.6044 158.376 69.7595 158.438 69.8636C158.499 69.9654 158.578 70.0353 158.675 70.0732C158.775 70.1087 158.883 70.1264 158.999 70.1264C159.084 70.1264 159.158 70.1205 159.222 70.1087C159.286 70.0968 159.336 70.0874 159.372 70.0803L159.563 70.9574C159.502 70.9811 159.414 71.0047 159.3 71.0284C159.187 71.0545 159.045 71.0687 158.874 71.071C158.595 71.0758 158.335 71.026 158.093 70.9219C157.852 70.8177 157.656 70.6567 157.507 70.4389C157.358 70.2211 157.283 69.9477 157.283 69.6186V64.2386ZM162.217 67.7614V71H161.156V63.7273H162.203V66.4332H162.271C162.398 66.1397 162.594 65.9065 162.857 65.7337C163.119 65.5608 163.463 65.4744 163.886 65.4744C164.26 65.4744 164.587 65.5514 164.867 65.7053C165.148 65.8591 165.366 66.0888 165.52 66.3942C165.676 66.6972 165.754 67.076 165.754 67.5305V71H164.693V67.6584C164.693 67.2583 164.59 66.9482 164.384 66.728C164.178 66.5054 163.891 66.3942 163.524 66.3942C163.273 66.3942 163.048 66.4474 162.849 66.554C162.653 66.6605 162.498 66.8168 162.384 67.0227C162.273 67.2263 162.217 67.4725 162.217 67.7614Z" fill="url(#paint2_linear_5779_11359)" fill-opacity="0.7"/>
<path d="M61.74 63V61.06H59.8V59.93H61.74V58H62.87V59.93H64.8V61.06H62.87V63H61.74ZM66.0616 63V61.97L68.0816 59.86C68.4816 59.44 68.7882 59.1067 69.0016 58.86C69.2216 58.6067 69.3749 58.39 69.4616 58.21C69.5482 58.03 69.5916 57.8467 69.5916 57.66C69.5916 57.3467 69.4916 57.1 69.2916 56.92C69.0982 56.74 68.8482 56.65 68.5416 56.65C68.2216 56.65 67.9449 56.7433 67.7116 56.93C67.4782 57.11 67.3082 57.3767 67.2016 57.73L66.0116 57.36C66.0916 56.9667 66.2549 56.6267 66.5016 56.34C66.7482 56.0467 67.0482 55.8233 67.4016 55.67C67.7616 55.51 68.1416 55.43 68.5416 55.43C69.0216 55.43 69.4416 55.5167 69.8016 55.69C70.1682 55.8633 70.4516 56.1067 70.6516 56.42C70.8582 56.7333 70.9616 57.1 70.9616 57.52C70.9616 57.7867 70.9116 58.05 70.8116 58.31C70.7116 58.57 70.5616 58.8367 70.3616 59.11C70.1616 59.3767 69.9016 59.6767 69.5816 60.01L67.8316 61.85H71.0616V63H66.0616ZM73.2984 63V56.71H71.8584V55.55H74.6584V63H73.2984ZM77.1316 63L83.1716 55.55H84.5716L78.5316 63H77.1316ZM78.2916 59.33C77.9249 59.33 77.5916 59.2433 77.2916 59.07C76.9982 58.89 76.7649 58.6533 76.5916 58.36C76.4182 58.0667 76.3316 57.74 76.3316 57.38C76.3316 57.02 76.4182 56.6933 76.5916 56.4C76.7649 56.1 76.9982 55.8633 77.2916 55.69C77.5916 55.5167 77.9249 55.43 78.2916 55.43C78.6649 55.43 78.9982 55.5167 79.2916 55.69C79.5849 55.8633 79.8182 56.1 79.9916 56.4C80.1649 56.6933 80.2516 57.02 80.2516 57.38C80.2516 57.74 80.1649 58.0667 79.9916 58.36C79.8182 58.6533 79.5849 58.89 79.2916 59.07C78.9982 59.2433 78.6649 59.33 78.2916 59.33ZM78.2916 58.32C78.4916 58.32 78.6582 58.2767 78.7916 58.19C78.9249 58.0967 79.0249 57.98 79.0916 57.84C79.1649 57.6933 79.2016 57.54 79.2016 57.38C79.2016 57.2133 79.1649 57.06 79.0916 56.92C79.0249 56.78 78.9249 56.6633 78.7916 56.57C78.6582 56.4767 78.4916 56.43 78.2916 56.43C78.1049 56.43 77.9416 56.4767 77.8016 56.57C77.6682 56.6633 77.5649 56.7833 77.4916 56.93C77.4182 57.07 77.3816 57.22 77.3816 57.38C77.3816 57.5333 77.4182 57.6833 77.4916 57.83C77.5649 57.9767 77.6682 58.0967 77.8016 58.19C77.9416 58.2767 78.1049 58.32 78.2916 58.32ZM83.3716 63.12C83.0049 63.12 82.6716 63.0333 82.3716 62.86C82.0782 62.68 81.8449 62.4433 81.6716 62.15C81.4982 61.8567 81.4116 61.53 81.4116 61.17C81.4116 60.81 81.4982 60.4833 81.6716 60.19C81.8449 59.89 82.0782 59.6533 82.3716 59.48C82.6716 59.3067 83.0049 59.22 83.3716 59.22C83.7449 59.22 84.0782 59.3067 84.3716 59.48C84.6649 59.6533 84.8982 59.89 85.0716 60.19C85.2449 60.4833 85.3316 60.81 85.3316 61.17C85.3316 61.53 85.2449 61.8567 85.0716 62.15C84.8982 62.4433 84.6649 62.68 84.3716 62.86C84.0782 63.0333 83.7449 63.12 83.3716 63.12ZM83.3716 62.11C83.5649 62.11 83.7282 62.0667 83.8616 61.98C84.0016 61.8867 84.1049 61.77 84.1716 61.63C84.2449 61.4833 84.2816 61.33 84.2816 61.17C84.2816 61.0033 84.2449 60.85 84.1716 60.71C84.1049 60.57 84.0016 60.4533 83.8616 60.36C83.7282 60.2667 83.5649 60.22 83.3716 60.22C83.1849 60.22 83.0216 60.2667 82.8816 60.36C82.7482 60.4533 82.6449 60.5733 82.5716 60.72C82.4982 60.86 82.4616 61.01 82.4616 61.17C82.4616 61.3233 82.4982 61.4733 82.5716 61.62C82.6449 61.7667 82.7482 61.8867 82.8816 61.98C83.0216 62.0667 83.1849 62.11 83.3716 62.11Z" fill="white" fill-opacity="0.8"/>
<g filter="url(#filter1_bd_5779_11359)">
<path d="M49 59C49 72.2548 59.7452 83 73 83C86.2548 83 97 72.2548 97 59C97 45.7452 86.2548 35 73 35" stroke="url(#paint3_linear_5779_11359)" stroke-width="4" stroke-linecap="round" shape-rendering="crispEdges"/>
</g>
<defs>
<filter id="filter0_bd_5779_11359" x="0" y="0" width="254" height="142" filterUnits="userSpaceOnUse" color-interpolation-filters="sRGB">
<feFlood flood-opacity="0" result="BackgroundImageFix"/>
<feGaussianBlur in="BackgroundImageFix" stdDeviation="7"/>
<feComposite in2="SourceAlpha" operator="in" result="effect1_backgroundBlur_5779_11359"/>
<feColorMatrix in="SourceAlpha" type="matrix" values="0 0 0 0 0 0 0 0 0 0 0 0 0 0 0 0 0 0 127 0" result="hardAlpha"/>
<feOffset dy="12"/>
<feGaussianBlur stdDeviation="18"/>
<feComposite in2="hardAlpha" operator="out"/>
<feColorMatrix type="matrix" values="0 0 0 0 0.0741111 0 0 0 0 0.0853889 0 0 0 0 0.0966667 0 0 0 0.35 0"/>
<feBlend mode="normal" in2="effect1_backgroundBlur_5779_11359" result="effect2_dropShadow_5779_11359"/>
<feBlend mode="normal" in="SourceGraphic" in2="effect2_dropShadow_5779_11359" result="shape"/>
</filter>
<filter id="filter1_bd_5779_11359" x="11" y="9" width="124" height="124" filterUnits="userSpaceOnUse" color-interpolation-filters="sRGB">
<feFlood flood-opacity="0" result="BackgroundImageFix"/>
<feGaussianBlur in="BackgroundImageFix" stdDeviation="7"/>
<feComposite in2="SourceAlpha" operator="in" result="effect1_backgroundBlur_5779_11359"/>
<feColorMatrix in="SourceAlpha" type="matrix" values="0 0 0 0 0 0 0 0 0 0 0 0 0 0 0 0 0 0 127 0" result="hardAlpha"/>
<feOffset dy="12"/>
<feGaussianBlur stdDeviation="18"/>
<feComposite in2="hardAlpha" operator="out"/>
<feColorMatrix type="matrix" values="0 0 0 0 0.525833 0 0 0 0 0.525833 0 0 0 0 0.525833 0 0 0 0.25 0"/>
<feBlend mode="normal" in2="effect1_backgroundBlur_5779_11359" result="effect2_dropShadow_5779_11359"/>
<feBlend mode="normal" in="SourceGraphic" in2="effect2_dropShadow_5779_11359" result="shape"/>
</filter>
<linearGradient id="paint0_linear_5779_11359" x1="41.0941" y1="24" x2="67.0332" y2="132.275" gradientUnits="userSpaceOnUse">
<stop stop-color="white" stop-opacity="0.6"/>
<stop offset="0.0001" stop-color="white" stop-opacity="0.5"/>
<stop offset="1" stop-color="white" stop-opacity="0"/>
</linearGradient>
<linearGradient id="paint1_linear_5779_11359" x1="227.494" y1="95.1829" x2="200.494" y2="-15.9604" gradientUnits="userSpaceOnUse">
<stop stop-color="white" stop-opacity="0.5"/>
<stop offset="1" stop-color="white" stop-opacity="0"/>
</linearGradient>
<linearGradient id="paint2_linear_5779_11359" x1="101.792" y1="52.3333" x2="206.772" y2="68.2901" gradientUnits="userSpaceOnUse">
<stop offset="0.202647" stop-color="white"/>
<stop offset="1" stop-color="#F79023"/>
</linearGradient>
<linearGradient id="paint3_linear_5779_11359" x1="97" y1="71.5" x2="59.17" y2="29.7786" gradientUnits="userSpaceOnUse">
<stop stop-color="#6AEB2A" stop-opacity="0.75"/>
<stop offset="1" stop-color="#66AE43" stop-opacity="0"/>
</linearGradient>
</defs>
</svg>
