<svg width="1440" height="888" viewBox="0 0 1440 888" fill="none" xmlns="http://www.w3.org/2000/svg">
<mask id="mask0_1_709" style="mask-type:alpha" maskUnits="userSpaceOnUse" x="0" y="0" width="1440" height="888">
<rect opacity="0.6" width="1440" height="888" transform="matrix(-1 0 0 1 1440 0)" fill="white"/>
</mask>
<g mask="url(#mask0_1_709)">
<g opacity="0.7" filter="url(#filter0_f_1_709)">
<path fill-rule="evenodd" clip-rule="evenodd" d="M630.859 -63.9573C565.421 -20.3538 484.252 7.90572 449.901 83.5353C415.72 158.79 442.429 246.611 452.216 329.351C461.456 407.464 454.513 498.635 505.399 552.726C555.839 606.342 639.511 580.016 707.198 600.391C768.379 618.806 819.969 672.223 883.547 666.551C951.181 660.517 1009.27 614.464 1063.76 568.579C1126.14 516.052 1198.09 464.879 1221.27 382.162C1244.99 297.508 1240.54 191.054 1187.69 126.356C1134.42 61.1451 1023.26 117.076 960.608 63.0884C894.286 5.93556 917.506 -144.383 837.948 -175.035C765 -203.141 698.018 -108.708 630.859 -63.9573Z" fill="#916AF1" fill-opacity="0.4"/>
</g>
<g opacity="0.7" filter="url(#filter1_f_1_709)">
<path fill-rule="evenodd" clip-rule="evenodd" d="M810.75 967.128C850.676 1034.32 928.671 1094.39 995.751 1085.36C1068.7 1075.53 1088.78 973.454 1142.06 922.5C1172.5 893.384 1211.56 879.701 1241.66 850.166C1275.18 817.276 1306.37 783.456 1328.28 739.781C1357.6 681.333 1414.83 621.143 1390.79 552.88C1366.79 484.705 1283.91 464.321 1222.12 438.29C1175.16 418.508 1127.49 425.578 1079 421.528C1039.26 418.209 1000.77 411.558 962.086 416.573C917.959 422.293 877.069 434.236 837.282 452.862C777.227 480.976 680.788 481.004 669.372 553.601C658.129 625.103 767.108 669.9 791.798 742.116C817.063 816.017 770.835 899.954 810.75 967.128Z" fill="#F2C287" fill-opacity="0.35"/>
</g>
<g opacity="0.7" filter="url(#filter2_f_1_709)">
<path fill-rule="evenodd" clip-rule="evenodd" d="M514.464 521.899C474.152 484.822 437.401 426.952 385.27 429.519C332.236 432.13 306.19 504.922 259.979 534.43C224.369 557.169 180.91 555.439 147.178 581.554C103.09 615.687 54.297 650.636 36.5841 707.382C17.3241 769.085 30.838 836.596 48.1198 898.903C68.2788 971.584 83.3637 1061.12 144.058 1094.87C204.946 1128.72 273.993 1065.32 341.969 1062.3C412.546 1059.18 502.245 1136.47 549.097 1076.92C600.567 1011.49 513.978 906.501 531.422 821.48C544.996 755.323 638.663 726.751 634.831 659.057C631.123 593.557 559.597 563.411 514.464 521.899Z" fill="#E9289F" fill-opacity="0.4"/>
</g>
</g>
<g opacity="0.2" clip-path="url(#clip0_1_709)">
<g filter="url(#filter3_b_1_709)">
<path d="M484 129C484.407 135.451 489.549 140.593 496 141C489.549 141.407 484.407 146.549 484 153C483.593 146.549 478.451 141.407 472 141C478.451 140.593 483.593 135.451 484 129Z" fill="url(#paint0_linear_1_709)"/>
<path d="M474.904 141C479.286 139.732 482.732 136.286 484 131.904C485.268 136.286 488.714 139.732 493.096 141C488.714 142.268 485.268 145.714 484 150.096C482.732 145.714 479.286 142.268 474.904 141Z" stroke="url(#paint1_linear_1_709)" stroke-opacity="0.4"/>
</g>
</g>
<g opacity="0.2" clip-path="url(#clip1_1_709)">
<g filter="url(#filter4_b_1_709)">
<path d="M229 401C229.543 409.602 236.398 416.457 245 417C236.398 417.543 229.543 424.398 229 433C228.457 424.398 221.602 417.543 213 417C221.602 416.457 228.457 409.602 229 401Z" fill="url(#paint2_linear_1_709)"/>
</g>
</g>
<g opacity="0.2" clip-path="url(#clip2_1_709)">
<g filter="url(#filter5_b_1_709)">
<path d="M1281 261C1281.54 269.602 1288.4 276.457 1297 277C1288.4 277.543 1281.54 284.398 1281 293C1280.46 284.398 1273.6 277.543 1265 277C1273.6 276.457 1280.46 269.602 1281 261Z" fill="url(#paint3_linear_1_709)"/>
</g>
</g>
<g clip-path="url(#clip3_1_709)">
<g filter="url(#filter6_b_1_709)">
<path d="M880 601C880.34 606.376 884.624 610.661 890 611C884.624 611.34 880.34 615.624 880 621C879.661 615.624 875.376 611.34 870 611C875.376 610.661 879.661 606.376 880 601Z" fill="url(#paint4_linear_1_709)"/>
</g>
</g>
<defs>
<filter id="filter0_f_1_709" x="83.025" y="-530.167" width="1501.98" height="1547.14" filterUnits="userSpaceOnUse" color-interpolation-filters="sRGB">
<feFlood flood-opacity="0" result="BackgroundImageFix"/>
<feBlend mode="normal" in="SourceGraphic" in2="BackgroundImageFix" result="shape"/>
<feGaussianBlur stdDeviation="175" result="effect1_foregroundBlur_1_709"/>
</filter>
<filter id="filter1_f_1_709" x="318.561" y="64.7632" width="1427.98" height="1371.5" filterUnits="userSpaceOnUse" color-interpolation-filters="sRGB">
<feFlood flood-opacity="0" result="BackgroundImageFix"/>
<feBlend mode="normal" in="SourceGraphic" in2="BackgroundImageFix" result="shape"/>
<feGaussianBlur stdDeviation="175" result="effect1_foregroundBlur_1_709"/>
</filter>
<filter id="filter2_f_1_709" x="-322.839" y="79.436" width="1307.78" height="1375.35" filterUnits="userSpaceOnUse" color-interpolation-filters="sRGB">
<feFlood flood-opacity="0" result="BackgroundImageFix"/>
<feBlend mode="normal" in="SourceGraphic" in2="BackgroundImageFix" result="shape"/>
<feGaussianBlur stdDeviation="175" result="effect1_foregroundBlur_1_709"/>
</filter>
<filter id="filter3_b_1_709" x="458" y="115" width="52" height="52" filterUnits="userSpaceOnUse" color-interpolation-filters="sRGB">
<feFlood flood-opacity="0" result="BackgroundImageFix"/>
<feGaussianBlur in="BackgroundImageFix" stdDeviation="7"/>
<feComposite in2="SourceAlpha" operator="in" result="effect1_backgroundBlur_1_709"/>
<feBlend mode="normal" in="SourceGraphic" in2="effect1_backgroundBlur_1_709" result="shape"/>
</filter>
<filter id="filter4_b_1_709" x="199" y="387" width="60" height="60" filterUnits="userSpaceOnUse" color-interpolation-filters="sRGB">
<feFlood flood-opacity="0" result="BackgroundImageFix"/>
<feGaussianBlur in="BackgroundImageFix" stdDeviation="7"/>
<feComposite in2="SourceAlpha" operator="in" result="effect1_backgroundBlur_1_709"/>
<feBlend mode="normal" in="SourceGraphic" in2="effect1_backgroundBlur_1_709" result="shape"/>
</filter>
<filter id="filter5_b_1_709" x="1251" y="247" width="60" height="60" filterUnits="userSpaceOnUse" color-interpolation-filters="sRGB">
<feFlood flood-opacity="0" result="BackgroundImageFix"/>
<feGaussianBlur in="BackgroundImageFix" stdDeviation="7"/>
<feComposite in2="SourceAlpha" operator="in" result="effect1_backgroundBlur_1_709"/>
<feBlend mode="normal" in="SourceGraphic" in2="effect1_backgroundBlur_1_709" result="shape"/>
</filter>
<filter id="filter6_b_1_709" x="856" y="587" width="48" height="48" filterUnits="userSpaceOnUse" color-interpolation-filters="sRGB">
<feFlood flood-opacity="0" result="BackgroundImageFix"/>
<feGaussianBlur in="BackgroundImageFix" stdDeviation="7"/>
<feComposite in2="SourceAlpha" operator="in" result="effect1_backgroundBlur_1_709"/>
<feBlend mode="normal" in="SourceGraphic" in2="effect1_backgroundBlur_1_709" result="shape"/>
</filter>
<linearGradient id="paint0_linear_1_709" x1="472.672" y1="129" x2="490.287" y2="157.281" gradientUnits="userSpaceOnUse">
<stop stop-color="white"/>
<stop offset="0.0001" stop-color="white" stop-opacity="0.5"/>
<stop offset="1" stop-color="white" stop-opacity="0.3"/>
</linearGradient>
<linearGradient id="paint1_linear_1_709" x1="497.252" y1="153.406" x2="479.032" y2="124.559" gradientUnits="userSpaceOnUse">
<stop stop-color="white" stop-opacity="0.5"/>
<stop offset="1" stop-color="white" stop-opacity="0"/>
</linearGradient>
<linearGradient id="paint2_linear_1_709" x1="213.896" y1="401" x2="237.383" y2="438.708" gradientUnits="userSpaceOnUse">
<stop stop-color="white" stop-opacity="0.8"/>
<stop offset="0.0001" stop-color="white" stop-opacity="0.5"/>
<stop offset="1" stop-color="white" stop-opacity="0"/>
</linearGradient>
<linearGradient id="paint3_linear_1_709" x1="1265.9" y1="261" x2="1289.38" y2="298.708" gradientUnits="userSpaceOnUse">
<stop stop-color="white" stop-opacity="0.8"/>
<stop offset="0.0001" stop-color="white" stop-opacity="0.5"/>
<stop offset="1" stop-color="white" stop-opacity="0"/>
</linearGradient>
<linearGradient id="paint4_linear_1_709" x1="870.56" y1="601" x2="885.239" y2="624.568" gradientUnits="userSpaceOnUse">
<stop stop-color="white" stop-opacity="0.8"/>
<stop offset="0.0001" stop-color="white" stop-opacity="0.5"/>
<stop offset="1" stop-color="white" stop-opacity="0"/>
</linearGradient>
<clipPath id="clip0_1_709">
<rect width="24" height="24" fill="white" transform="translate(472 129)"/>
</clipPath>
<clipPath id="clip1_1_709">
<rect width="32" height="32" fill="white" transform="translate(213 401)"/>
</clipPath>
<clipPath id="clip2_1_709">
<rect width="32" height="32" fill="white" transform="translate(1265 261)"/>
</clipPath>
<clipPath id="clip3_1_709">
<rect width="20" height="20" fill="white" transform="translate(870 601)"/>
</clipPath>
</defs>
</svg>
