<svg width="112" height="112" viewBox="0 0 112 112" fill="none" xmlns="http://www.w3.org/2000/svg">
<g filter="url(#filter0_bd_6101_5595)">
<path d="M51.98 55.96C60.8055 55.96 67.96 48.8055 67.96 39.98C67.96 31.1545 60.8055 24 51.98 24C43.1545 24 36 31.1545 36 39.98C36 48.8055 43.1545 55.96 51.98 55.96Z" fill="url(#paint0_linear_6101_5595)" shape-rendering="crispEdges"/>
<path d="M67.46 39.98C67.46 48.5294 60.5294 55.46 51.98 55.46C43.4306 55.46 36.5 48.5294 36.5 39.98C36.5 31.4306 43.4306 24.5 51.98 24.5C60.5294 24.5 67.46 31.4306 67.46 39.98Z" stroke="url(#paint1_linear_6101_5595)" shape-rendering="crispEdges"/>
</g>
<g filter="url(#filter1_bd_6101_5595)">
<path d="M75.94 51.9802C75.94 58.5802 70.58 63.9402 63.98 63.9402C59.9 63.9402 56.32 61.9002 54.16 58.8002C62.88 57.8202 69.82 50.8802 70.8 42.1602C73.9 44.3202 75.94 47.9002 75.94 51.9802Z" fill="url(#paint2_linear_6101_5595)" shape-rendering="crispEdges"/>
<path d="M75.44 51.9802C75.44 58.304 70.3039 63.4402 63.98 63.4402C60.3721 63.4402 57.1717 61.7757 55.0717 59.1814C63.3353 57.8767 69.8766 51.3354 71.1813 43.0718C73.7755 45.1719 75.44 48.3722 75.44 51.9802Z" stroke="url(#paint3_linear_6101_5595)" shape-rendering="crispEdges"/>
</g>
<g filter="url(#filter2_bd_6101_5595)">
<path d="M54.9 39.4203L50.1 37.7403C49.62 37.5803 49.52 37.5403 49.52 36.8403C49.52 36.3203 49.88 35.9003 50.34 35.9003H53.34C53.98 35.9003 54.5 36.4803 54.5 37.2003C54.5 38.0203 55.18 38.7003 56 38.7003C56.82 38.7003 57.5 38.0203 57.5 37.2003C57.5 34.9003 55.72 33.0203 53.5 32.9203V32.8203C53.5 32.0003 52.82 31.3203 52 31.3203C51.18 31.3203 50.5 31.9803 50.5 32.8203V32.9203H50.32C48.22 32.9203 46.5 34.6803 46.5 36.8603C46.5 38.7603 47.34 39.9803 49.08 40.5803L53.9 42.2603C54.38 42.4203 54.48 42.4603 54.48 43.1603C54.48 43.6803 54.12 44.1003 53.66 44.1003H50.66C50.02 44.1003 49.5 43.5203 49.5 42.8003C49.5 41.9803 48.82 41.3003 48 41.3003C47.18 41.3003 46.5 41.9803 46.5 42.8003C46.5 45.1003 48.28 46.9803 50.5 47.0803V47.2003C50.5 48.0203 51.18 48.7003 52 48.7003C52.82 48.7003 53.5 48.0203 53.5 47.2003V47.1003H53.68C55.78 47.1003 57.5 45.3403 57.5 43.1603C57.5 41.2603 56.64 40.0403 54.9 39.4203Z" fill="url(#paint4_linear_6101_5595)" shape-rendering="crispEdges"/>
<path d="M53 32.9203V33.3983L53.4775 33.4198C55.4218 33.5074 57 35.1591 57 37.2003C57 37.7442 56.5439 38.2003 56 38.2003C55.4561 38.2003 55 37.7442 55 37.2003C55 36.2585 54.3075 35.4003 53.34 35.4003H50.34C49.5396 35.4003 49.02 36.1132 49.02 36.8403C49.02 37.0215 49.026 37.1878 49.0495 37.3333C49.0735 37.4823 49.1204 37.6415 49.2249 37.7859C49.3319 37.9338 49.467 38.0216 49.5891 38.0807C49.698 38.1334 49.8239 38.1753 49.933 38.2117L49.9384 38.2135L54.7322 39.8913C54.7327 39.8915 54.7331 39.8916 54.7336 39.8918C55.5284 40.1753 56.0826 40.5805 56.4424 41.0964C56.8029 41.6132 57 42.2863 57 43.1603C57 45.0777 55.4905 46.6003 53.68 46.6003H53.5H53V47.1003V47.2003C53 47.7442 52.5439 48.2003 52 48.2003C51.4561 48.2003 51 47.7442 51 47.2003V47.0803V46.6023L50.5225 46.5808C48.5782 46.4932 47 44.8415 47 42.8003C47 42.2565 47.4561 41.8003 48 41.8003C48.5439 41.8003 49 42.2565 49 42.8003C49 43.7421 49.6925 44.6003 50.66 44.6003H53.66C54.4604 44.6003 54.98 43.8875 54.98 43.1603C54.98 42.9791 54.974 42.8128 54.9505 42.6673C54.9265 42.5184 54.8796 42.3591 54.7751 42.2148C54.6681 42.0668 54.533 41.979 54.4109 41.9199C54.302 41.8672 54.1762 41.8253 54.067 41.7889L54.0613 41.787L49.2446 40.1082L49.243 40.1076C48.4501 39.8342 47.9027 39.4348 47.5486 38.9232C47.1932 38.4099 47 37.7369 47 36.8603C47 34.9429 48.5095 33.4203 50.32 33.4203H50.5H51V32.9203V32.8203C51 32.2608 51.4518 31.8203 52 31.8203C52.5439 31.8203 53 32.2765 53 32.8203V32.9203Z" stroke="url(#paint5_linear_6101_5595)" shape-rendering="crispEdges"/>
</g>
<defs>
<filter id="filter0_bd_6101_5595" x="0" y="0" width="103.96" height="103.961" filterUnits="userSpaceOnUse" color-interpolation-filters="sRGB">
<feFlood flood-opacity="0" result="BackgroundImageFix"/>
<feGaussianBlur in="BackgroundImageFix" stdDeviation="7"/>
<feComposite in2="SourceAlpha" operator="in" result="effect1_backgroundBlur_6101_5595"/>
<feColorMatrix in="SourceAlpha" type="matrix" values="0 0 0 0 0 0 0 0 0 0 0 0 0 0 0 0 0 0 127 0" result="hardAlpha"/>
<feOffset dy="12"/>
<feGaussianBlur stdDeviation="18"/>
<feComposite in2="hardAlpha" operator="out"/>
<feColorMatrix type="matrix" values="0 0 0 0 0.525833 0 0 0 0 0.525833 0 0 0 0 0.525833 0 0 0 0.25 0"/>
<feBlend mode="normal" in2="effect1_backgroundBlur_6101_5595" result="effect2_dropShadow_6101_5595"/>
<feBlend mode="normal" in="SourceGraphic" in2="effect2_dropShadow_6101_5595" result="shape"/>
</filter>
<filter id="filter1_bd_6101_5595" x="18.16" y="18.1602" width="93.78" height="93.7793" filterUnits="userSpaceOnUse" color-interpolation-filters="sRGB">
<feFlood flood-opacity="0" result="BackgroundImageFix"/>
<feGaussianBlur in="BackgroundImageFix" stdDeviation="7"/>
<feComposite in2="SourceAlpha" operator="in" result="effect1_backgroundBlur_6101_5595"/>
<feColorMatrix in="SourceAlpha" type="matrix" values="0 0 0 0 0 0 0 0 0 0 0 0 0 0 0 0 0 0 127 0" result="hardAlpha"/>
<feOffset dy="12"/>
<feGaussianBlur stdDeviation="18"/>
<feComposite in2="hardAlpha" operator="out"/>
<feColorMatrix type="matrix" values="0 0 0 0 0.525833 0 0 0 0 0.525833 0 0 0 0 0.525833 0 0 0 0.25 0"/>
<feBlend mode="normal" in2="effect1_backgroundBlur_6101_5595" result="effect2_dropShadow_6101_5595"/>
<feBlend mode="normal" in="SourceGraphic" in2="effect2_dropShadow_6101_5595" result="shape"/>
</filter>
<filter id="filter2_bd_6101_5595" x="10.5" y="7.32031" width="83" height="89.3809" filterUnits="userSpaceOnUse" color-interpolation-filters="sRGB">
<feFlood flood-opacity="0" result="BackgroundImageFix"/>
<feGaussianBlur in="BackgroundImageFix" stdDeviation="7"/>
<feComposite in2="SourceAlpha" operator="in" result="effect1_backgroundBlur_6101_5595"/>
<feColorMatrix in="SourceAlpha" type="matrix" values="0 0 0 0 0 0 0 0 0 0 0 0 0 0 0 0 0 0 127 0" result="hardAlpha"/>
<feOffset dy="12"/>
<feGaussianBlur stdDeviation="18"/>
<feComposite in2="hardAlpha" operator="out"/>
<feColorMatrix type="matrix" values="0 0 0 0 0.525833 0 0 0 0 0.525833 0 0 0 0 0.525833 0 0 0 0.25 0"/>
<feBlend mode="normal" in2="effect1_backgroundBlur_6101_5595" result="effect2_dropShadow_6101_5595"/>
<feBlend mode="normal" in="SourceGraphic" in2="effect2_dropShadow_6101_5595" result="shape"/>
</filter>
<linearGradient id="paint0_linear_6101_5595" x1="36.8946" y1="24" x2="60.3526" y2="61.6609" gradientUnits="userSpaceOnUse">
<stop stop-color="white" stop-opacity="0.6"/>
<stop offset="0.0001" stop-color="white" stop-opacity="0.5"/>
<stop offset="1" stop-color="white" stop-opacity="0"/>
</linearGradient>
<linearGradient id="paint1_linear_6101_5595" x1="69.6271" y1="56.5001" x2="45.3639" y2="18.0856" gradientUnits="userSpaceOnUse">
<stop stop-color="white" stop-opacity="0.5"/>
<stop offset="1" stop-color="white" stop-opacity="0"/>
</linearGradient>
<linearGradient id="paint2_linear_6101_5595" x1="54.7697" y1="42.1602" x2="70.7558" y2="67.8252" gradientUnits="userSpaceOnUse">
<stop stop-color="#F9911F"/>
<stop offset="0.0001" stop-color="white" stop-opacity="0.5"/>
<stop offset="1" stop-color="#F9911F"/>
</linearGradient>
<linearGradient id="paint3_linear_6101_5595" x1="77.0761" y1="64.3082" x2="60.5413" y2="38.1296" gradientUnits="userSpaceOnUse">
<stop stop-color="white" stop-opacity="0.5"/>
<stop offset="1" stop-color="white" stop-opacity="0"/>
</linearGradient>
<linearGradient id="paint4_linear_6101_5595" x1="46.8079" y1="31.3203" x2="61.019" y2="45.7604" gradientUnits="userSpaceOnUse">
<stop stop-color="#F9911F"/>
<stop offset="0.0001" stop-color="white" stop-opacity="0.5"/>
<stop offset="1" stop-color="#F9911F"/>
</linearGradient>
<linearGradient id="paint5_linear_6101_5595" x1="58.0738" y1="48.994" x2="43.4619" y2="34.3522" gradientUnits="userSpaceOnUse">
<stop stop-color="white" stop-opacity="0.5"/>
<stop offset="1" stop-color="white" stop-opacity="0"/>
</linearGradient>
</defs>
</svg>
