<svg width="114" height="115" viewBox="0 0 114 115" fill="none" xmlns="http://www.w3.org/2000/svg">
<g filter="url(#filter0_bd_6101_5593)">
<path d="M66.5 67C68.433 67 70 65.433 70 63.5C70 61.567 68.433 60 66.5 60C64.567 60 63 61.567 63 63.5C63 65.433 64.567 67 66.5 67Z" fill="url(#paint0_linear_6101_5593)" shape-rendering="crispEdges"/>
<path d="M69.5 63.5C69.5 65.1569 68.1569 66.5 66.5 66.5C64.8431 66.5 63.5 65.1569 63.5 63.5C63.5 61.8431 64.8431 60.5 66.5 60.5C68.1569 60.5 69.5 61.8431 69.5 63.5Z" stroke="url(#paint1_linear_6101_5593)" shape-rendering="crispEdges"/>
</g>
<g filter="url(#filter1_bd_6101_5593)">
<path d="M50.5 67C52.433 67 54 65.433 54 63.5C54 61.567 52.433 60 50.5 60C48.567 60 47 61.567 47 63.5C47 65.433 48.567 67 50.5 67Z" fill="url(#paint2_linear_6101_5593)" shape-rendering="crispEdges"/>
<path d="M53.5 63.5C53.5 65.1569 52.1569 66.5 50.5 66.5C48.8431 66.5 47.5 65.1569 47.5 63.5C47.5 61.8431 48.8431 60.5 50.5 60.5C52.1569 60.5 53.5 61.8431 53.5 63.5Z" stroke="url(#paint3_linear_6101_5593)" shape-rendering="crispEdges"/>
</g>
<g filter="url(#filter2_bd_6101_5593)">
<path d="M43.68 29.88L43.28 34.78C43.2 35.72 43.94 36.5 44.88 36.5H75.5C76.34 36.5 77.04 35.86 77.1 35.02C77.36 31.48 74.66 28.6 71.12 28.6H46.58C46.38 27.72 45.98 26.88 45.36 26.18C44.38 25.12 42.98 24.5 41.54 24.5H38C37.18 24.5 36.5 25.18 36.5 26C36.5 26.82 37.18 27.5 38 27.5H41.48C42.1 27.5 42.68 27.76 43.1 28.2C43.52 28.66 43.72 29.26 43.68 29.88Z" fill="url(#paint4_linear_6101_5593)" shape-rendering="crispEdges"/>
<path d="M44.1783 29.9207L44.1784 29.9207L44.179 29.9122C44.2273 29.1625 43.9848 28.4276 43.4692 27.8629L43.4693 27.8628L43.4617 27.8548C42.9509 27.3197 42.2418 27 41.48 27H38C37.4561 27 37 26.5439 37 26C37 25.4561 37.4561 25 38 25H41.54C42.8369 25 44.1027 25.5588 44.9892 26.5155C45.5458 27.1453 45.9094 27.9055 46.0924 28.7108L46.1809 29.1H46.58H71.12C74.3716 29.1 76.8399 31.7353 76.6013 34.9834L76.6013 34.9844C76.5603 35.5581 76.0823 36 75.5 36H44.88C44.2236 36 43.7238 35.4614 43.7782 34.8224L43.7783 34.8207L44.1783 29.9207Z" stroke="url(#paint5_linear_6101_5593)" shape-rendering="crispEdges"/>
</g>
<g filter="url(#filter3_bd_6101_5593)">
<path d="M75.0201 39.5H44.3401C43.5001 39.5 42.8201 40.14 42.7401 40.96L42.0201 49.66C41.7401 53.06 44.4201 56 47.8401 56H70.0801C73.0801 56 75.7201 53.54 75.9401 50.54L76.6001 41.2C76.6801 40.28 75.9601 39.5 75.0201 39.5Z" fill="url(#paint6_linear_6101_5593)" shape-rendering="crispEdges"/>
<path d="M76.102 41.1567L76.1019 41.1567L76.1014 41.1648L75.4415 50.5034C75.4414 50.5037 75.4414 50.5039 75.4414 50.5041C75.2402 53.2437 72.8168 55.5 70.0801 55.5H47.8401C44.7152 55.5 42.2623 52.8125 42.5184 49.7012C42.5184 49.7012 42.5184 49.7011 42.5184 49.701L43.2381 41.0052C43.2953 40.4362 43.7653 40 44.3401 40H75.0201C75.6725 40 76.1561 40.5345 76.102 41.1567Z" stroke="url(#paint7_linear_6101_5593)" shape-rendering="crispEdges"/>
</g>
<defs>
<filter id="filter0_bd_6101_5593" x="27" y="36" width="79" height="79" filterUnits="userSpaceOnUse" color-interpolation-filters="sRGB">
<feFlood flood-opacity="0" result="BackgroundImageFix"/>
<feGaussianBlur in="BackgroundImageFix" stdDeviation="7"/>
<feComposite in2="SourceAlpha" operator="in" result="effect1_backgroundBlur_6101_5593"/>
<feColorMatrix in="SourceAlpha" type="matrix" values="0 0 0 0 0 0 0 0 0 0 0 0 0 0 0 0 0 0 127 0" result="hardAlpha"/>
<feOffset dy="12"/>
<feGaussianBlur stdDeviation="18"/>
<feComposite in2="hardAlpha" operator="out"/>
<feColorMatrix type="matrix" values="0 0 0 0 0.525833 0 0 0 0 0.525833 0 0 0 0 0.525833 0 0 0 0.25 0"/>
<feBlend mode="normal" in2="effect1_backgroundBlur_6101_5593" result="effect2_dropShadow_6101_5593"/>
<feBlend mode="normal" in="SourceGraphic" in2="effect2_dropShadow_6101_5593" result="shape"/>
</filter>
<filter id="filter1_bd_6101_5593" x="11" y="36" width="79" height="79" filterUnits="userSpaceOnUse" color-interpolation-filters="sRGB">
<feFlood flood-opacity="0" result="BackgroundImageFix"/>
<feGaussianBlur in="BackgroundImageFix" stdDeviation="7"/>
<feComposite in2="SourceAlpha" operator="in" result="effect1_backgroundBlur_6101_5593"/>
<feColorMatrix in="SourceAlpha" type="matrix" values="0 0 0 0 0 0 0 0 0 0 0 0 0 0 0 0 0 0 127 0" result="hardAlpha"/>
<feOffset dy="12"/>
<feGaussianBlur stdDeviation="18"/>
<feComposite in2="hardAlpha" operator="out"/>
<feColorMatrix type="matrix" values="0 0 0 0 0.525833 0 0 0 0 0.525833 0 0 0 0 0.525833 0 0 0 0.25 0"/>
<feBlend mode="normal" in2="effect1_backgroundBlur_6101_5593" result="effect2_dropShadow_6101_5593"/>
<feBlend mode="normal" in="SourceGraphic" in2="effect2_dropShadow_6101_5593" result="shape"/>
</filter>
<filter id="filter2_bd_6101_5593" x="0.5" y="0.5" width="112.617" height="84" filterUnits="userSpaceOnUse" color-interpolation-filters="sRGB">
<feFlood flood-opacity="0" result="BackgroundImageFix"/>
<feGaussianBlur in="BackgroundImageFix" stdDeviation="7"/>
<feComposite in2="SourceAlpha" operator="in" result="effect1_backgroundBlur_6101_5593"/>
<feColorMatrix in="SourceAlpha" type="matrix" values="0 0 0 0 0 0 0 0 0 0 0 0 0 0 0 0 0 0 127 0" result="hardAlpha"/>
<feOffset dy="12"/>
<feGaussianBlur stdDeviation="18"/>
<feComposite in2="hardAlpha" operator="out"/>
<feColorMatrix type="matrix" values="0 0 0 0 0.525833 0 0 0 0 0.525833 0 0 0 0 0.525833 0 0 0 0.25 0"/>
<feBlend mode="normal" in2="effect1_backgroundBlur_6101_5593" result="effect2_dropShadow_6101_5593"/>
<feBlend mode="normal" in="SourceGraphic" in2="effect2_dropShadow_6101_5593" result="shape"/>
</filter>
<filter id="filter3_bd_6101_5593" x="6" y="15.5" width="106.606" height="88.5" filterUnits="userSpaceOnUse" color-interpolation-filters="sRGB">
<feFlood flood-opacity="0" result="BackgroundImageFix"/>
<feGaussianBlur in="BackgroundImageFix" stdDeviation="7"/>
<feComposite in2="SourceAlpha" operator="in" result="effect1_backgroundBlur_6101_5593"/>
<feColorMatrix in="SourceAlpha" type="matrix" values="0 0 0 0 0 0 0 0 0 0 0 0 0 0 0 0 0 0 127 0" result="hardAlpha"/>
<feOffset dy="12"/>
<feGaussianBlur stdDeviation="18"/>
<feComposite in2="hardAlpha" operator="out"/>
<feColorMatrix type="matrix" values="0 0 0 0 0.525833 0 0 0 0 0.525833 0 0 0 0 0.525833 0 0 0 0.25 0"/>
<feBlend mode="normal" in2="effect1_backgroundBlur_6101_5593" result="effect2_dropShadow_6101_5593"/>
<feBlend mode="normal" in="SourceGraphic" in2="effect2_dropShadow_6101_5593" result="shape"/>
</filter>
<linearGradient id="paint0_linear_6101_5593" x1="63.1959" y1="60" x2="68.3338" y2="68.2486" gradientUnits="userSpaceOnUse">
<stop stop-color="#F9911F"/>
<stop offset="0.0001" stop-color="white" stop-opacity="0.5"/>
<stop offset="1" stop-color="#F9911F"/>
</linearGradient>
<linearGradient id="paint1_linear_6101_5593" x1="70.3651" y1="67.1183" x2="65.0509" y2="58.7046" gradientUnits="userSpaceOnUse">
<stop stop-color="white" stop-opacity="0.5"/>
<stop offset="1" stop-color="white" stop-opacity="0"/>
</linearGradient>
<linearGradient id="paint2_linear_6101_5593" x1="47.1959" y1="60" x2="52.3338" y2="68.2486" gradientUnits="userSpaceOnUse">
<stop stop-color="#F9911F"/>
<stop offset="0.0001" stop-color="white" stop-opacity="0.5"/>
<stop offset="1" stop-color="#F9911F"/>
</linearGradient>
<linearGradient id="paint3_linear_6101_5593" x1="54.3651" y1="67.1183" x2="49.0509" y2="58.7046" gradientUnits="userSpaceOnUse">
<stop stop-color="white" stop-opacity="0.5"/>
<stop offset="1" stop-color="white" stop-opacity="0"/>
</linearGradient>
<linearGradient id="paint4_linear_6101_5593" x1="37.6369" y1="24.5" x2="41.1303" y2="43.4838" gradientUnits="userSpaceOnUse">
<stop stop-color="white" stop-opacity="0.6"/>
<stop offset="0.0001" stop-color="white" stop-opacity="0.5"/>
<stop offset="1" stop-color="white" stop-opacity="0"/>
</linearGradient>
<linearGradient id="paint5_linear_6101_5593" x1="79.236" y1="36.7028" x2="75.5975" y2="17.2042" gradientUnits="userSpaceOnUse">
<stop stop-color="white" stop-opacity="0.5"/>
<stop offset="1" stop-color="white" stop-opacity="0"/>
</linearGradient>
<linearGradient id="paint6_linear_6101_5593" x1="42.9686" y1="39.5" x2="50.3336" y2="64.2994" gradientUnits="userSpaceOnUse">
<stop stop-color="#F9911F"/>
<stop offset="0.0001" stop-color="white" stop-opacity="0.5"/>
<stop offset="1" stop-color="#F9911F"/>
</linearGradient>
<linearGradient id="paint7_linear_6101_5593" x1="78.4114" y1="56.2788" x2="70.7509" y2="30.8416" gradientUnits="userSpaceOnUse">
<stop stop-color="white" stop-opacity="0.5"/>
<stop offset="1" stop-color="white" stop-opacity="0"/>
</linearGradient>
</defs>
</svg>
